<svg width="250" height="250" viewBox="0 0 250 250" fill="none" xmlns="http://www.w3.org/2000/svg">
<path d="M201.209 206.557C171.578 232.039 119.809 237.218 88.478 212.36C73.3 197.923 73.6445 175.888 72.1385 156.462C69.2035 142.772 65.8435 129.257 55.9135 118.857C32.8845 99.557 16.8515 80.428 33.97 50.171C69.5345 1.08854 157.024 5.13754 197.228 46.723C232.104 88.842 241.926 165.265 201.209 206.557Z" fill="#FFE3D6"/>
<path d="M86.151 81.871C86.07 81.871 85.9955 81.8275 85.955 81.758L83.82 78.062C83.7795 77.992 83.7795 77.9055 83.82 77.8355L85.955 74.14C85.995 74.07 86.07 74.027 86.151 74.027C86.232 74.027 86.3065 74.07 86.347 74.1395L88.487 77.835C88.5275 77.9055 88.5275 77.992 88.487 78.062L86.347 81.758C86.3065 81.828 86.2315 81.871 86.151 81.871ZM84.277 77.9485L86.1515 81.1925L88.0295 77.9485L86.1515 74.705L84.277 77.9485Z" fill="black" fill-opacity="0.8"/>
<path d="M80.2135 77.443C79.5025 77.443 78.924 76.8645 78.924 76.1535C78.924 75.4425 79.5025 74.8645 80.2135 74.8645C80.9245 74.8645 81.5025 75.4425 81.5025 76.1535C81.5025 76.8645 80.9245 77.443 80.2135 77.443ZM80.2135 75.317C79.752 75.317 79.3765 75.6925 79.3765 76.1535C79.3765 76.615 79.752 76.9905 80.2135 76.9905C80.6745 76.9905 81.05 76.615 81.05 76.1535C81.05 75.6925 80.6745 75.317 80.2135 75.317Z" fill="black" fill-opacity="0.8"/>
<path d="M84.0155 72.7005C83.3945 72.7005 82.889 72.195 82.889 71.574C82.889 70.9535 83.3945 70.448 84.0155 70.448C84.6365 70.448 85.142 70.9535 85.142 71.574C85.142 72.1955 84.637 72.7005 84.0155 72.7005ZM84.0155 70.901C83.644 70.901 83.342 71.203 83.342 71.5745C83.342 71.946 83.6445 72.248 84.0155 72.248C84.387 72.248 84.689 71.9455 84.689 71.5745C84.6895 71.203 84.387 70.901 84.0155 70.901Z" fill="black" fill-opacity="0.8"/>
<path d="M79.1505 73.219C78.691 73.219 78.317 72.845 78.317 72.3855C78.317 71.926 78.691 71.5515 79.1505 71.5515C79.61 71.5515 79.984 71.926 79.984 72.3855C79.984 72.845 79.61 73.219 79.1505 73.219ZM79.1505 72.004C78.9405 72.004 78.7695 72.175 78.7695 72.3855C78.7695 72.5955 78.9405 72.7665 79.1505 72.7665C79.3605 72.7665 79.5315 72.5955 79.5315 72.3855C79.5315 72.175 79.3605 72.004 79.1505 72.004Z" fill="black" fill-opacity="0.8"/>
<path d="M168.754 65.6435C168.673 65.6435 168.599 65.6005 168.558 65.5305L166.925 62.7025C166.884 62.6325 166.884 62.546 166.925 62.476L168.558 59.648C168.598 59.578 168.673 59.535 168.754 59.535C168.835 59.535 168.91 59.578 168.95 59.648L170.588 62.476C170.628 62.546 170.628 62.6325 170.588 62.703L168.95 65.531C168.91 65.6 168.835 65.6435 168.754 65.6435ZM167.382 62.589L168.755 64.965L170.13 62.589L168.755 60.213L167.382 62.589Z" fill="black" fill-opacity="0.8"/>
<path d="M164.889 61.398C164.178 61.398 163.6 60.8195 163.6 60.1085C163.6 59.3975 164.178 58.819 164.889 58.819C165.6 58.819 166.178 59.3975 166.178 60.1085C166.178 60.8195 165.6 61.398 164.889 61.398ZM164.889 59.272C164.428 59.272 164.052 59.6475 164.052 60.109C164.052 60.5705 164.428 60.9455 164.889 60.9455C165.35 60.9455 165.726 60.57 165.726 60.109C165.726 59.6475 165.35 59.272 164.889 59.272Z" fill="black" fill-opacity="0.8"/>
<path d="M168.691 58.209C168.07 58.209 167.565 57.7035 167.565 57.0825C167.565 56.4615 168.07 55.9565 168.691 55.9565C169.312 55.9565 169.818 56.462 169.818 57.0825C169.818 57.704 169.313 58.209 168.691 58.209ZM168.691 56.409C168.32 56.409 168.018 56.711 168.018 57.0825C168.018 57.454 168.32 57.756 168.691 57.756C169.063 57.756 169.365 57.454 169.365 57.0825C169.365 56.7115 169.063 56.409 168.691 56.409Z" fill="black" fill-opacity="0.8"/>
<path d="M164.889 57.0165C164.43 57.0165 164.056 56.6425 164.056 56.183C164.056 55.7235 164.43 55.349 164.889 55.349C165.349 55.349 165.723 55.723 165.723 56.183C165.723 56.643 165.349 57.0165 164.889 57.0165ZM164.889 55.8015C164.679 55.8015 164.508 55.9725 164.508 56.183C164.508 56.3935 164.679 56.564 164.889 56.564C165.099 56.564 165.27 56.393 165.27 56.183C165.27 55.973 165.099 55.8015 164.889 55.8015Z" fill="black" fill-opacity="0.8"/>
<path d="M202.858 169.148C202.777 169.148 202.703 169.105 202.662 169.035L200.527 165.339C200.487 165.269 200.487 165.183 200.527 165.113L202.662 161.417C202.703 161.347 202.777 161.304 202.858 161.304C202.939 161.304 203.014 161.347 203.054 161.417L205.194 165.112C205.235 165.183 205.235 165.269 205.194 165.339L203.054 169.035C203.014 169.106 202.939 169.148 202.858 169.148ZM200.985 165.226L202.859 168.47L204.737 165.226L202.859 161.983L200.985 165.226Z" fill="black" fill-opacity="0.8"/>
<path d="M208.095 171.24C207.384 171.24 206.806 170.662 206.806 169.951C206.806 169.24 207.384 168.661 208.095 168.661C208.806 168.661 209.385 169.24 209.385 169.951C209.385 170.662 208.806 171.24 208.095 171.24ZM208.095 169.114C207.634 169.114 207.258 169.489 207.258 169.951C207.258 170.412 207.634 170.787 208.095 170.787C208.557 170.787 208.932 170.412 208.932 169.951C208.932 169.489 208.557 169.114 208.095 169.114Z" fill="black" fill-opacity="0.8"/>
<path d="M200.839 159.978C200.218 159.978 199.714 159.472 199.714 158.852C199.714 158.231 200.219 157.725 200.839 157.725C201.46 157.725 201.966 158.231 201.966 158.852C201.966 159.473 201.46 159.978 200.839 159.978ZM200.839 158.178C200.468 158.178 200.166 158.481 200.166 158.852C200.166 159.223 200.468 159.525 200.839 159.525C201.211 159.525 201.513 159.223 201.513 158.852C201.513 158.481 201.211 158.178 200.839 158.178Z" fill="black" fill-opacity="0.8"/>
<path d="M207.261 164.225C206.802 164.225 206.428 163.851 206.428 163.391C206.428 162.932 206.802 162.557 207.261 162.557C207.721 162.557 208.095 162.932 208.095 163.391C208.095 163.851 207.721 164.225 207.261 164.225ZM207.261 163.01C207.051 163.01 206.88 163.181 206.88 163.391C206.88 163.601 207.051 163.772 207.261 163.772C207.471 163.772 207.643 163.601 207.643 163.391C207.643 163.181 207.472 163.01 207.261 163.01Z" fill="black" fill-opacity="0.8"/>
<path d="M207.518 159.978C207.437 159.978 207.362 159.935 207.322 159.865L205.981 157.544C205.94 157.474 205.94 157.388 205.981 157.318L207.322 154.997C207.362 154.927 207.437 154.884 207.518 154.884C207.598 154.884 207.673 154.927 207.714 154.996L209.058 157.317C209.098 157.388 209.098 157.474 209.058 157.544L207.714 159.865C207.673 159.936 207.598 159.978 207.518 159.978ZM206.438 157.431L207.518 159.3L208.6 157.431L207.518 155.562L206.438 157.431Z" fill="black" fill-opacity="0.8"/>
<path d="M195.91 168.668C195.451 168.668 195.077 168.294 195.077 167.835C195.077 167.375 195.451 167.001 195.91 167.001C196.37 167.001 196.744 167.375 196.744 167.835C196.744 168.294 196.37 168.668 195.91 168.668ZM195.91 167.454C195.7 167.454 195.529 167.625 195.529 167.835C195.529 168.045 195.7 168.216 195.91 168.216C196.12 168.216 196.292 168.045 196.292 167.835C196.292 167.625 196.12 167.454 195.91 167.454Z" fill="black" fill-opacity="0.8"/>
<path d="M158.741 150.703H98.2855C96.928 150.703 95.824 149.598 95.824 148.241V111.655C95.824 110.297 96.928 109.193 98.2855 109.193H158.741C160.099 109.193 161.203 110.297 161.203 111.655V148.241C161.203 149.598 160.098 150.703 158.741 150.703ZM98.2855 109.562C97.1315 109.562 96.1925 110.501 96.1925 111.655V148.241C96.1925 149.395 97.131 150.334 98.2855 150.334H158.741C159.895 150.334 160.834 149.395 160.834 148.241V111.655C160.834 110.501 159.896 109.562 158.741 109.562H98.2855Z" fill="black" fill-opacity="0.8"/>
<path d="M161.018 114.101H96.008V111.655C96.008 110.397 97.0275 109.378 98.2855 109.378H158.741C159.999 109.378 161.018 110.397 161.018 111.655V114.101Z" fill="black" fill-opacity="0.8"/>
<path d="M100.133 125.15L109.657 125.15L109.657 115.626L100.133 115.626L100.133 125.15Z" fill="white"/>
<path d="M100.133 136.65L109.657 136.65L109.657 127.126L100.133 127.126L100.133 136.65Z" fill="white"/>
<path d="M100.133 147.815L109.657 147.815L109.657 138.291L100.133 138.291L100.133 147.815Z" fill="white"/>
<path d="M103.972 123.52L100.568 120.115L102.301 118.381L103.972 120.052L107.487 116.537L109.221 118.271L103.972 123.52Z" fill="#C08B89"/>
<path d="M103.972 135.379L100.568 131.974L102.301 130.24L103.972 131.911L107.487 128.396L109.221 130.13L103.972 135.379Z" fill="#C08B89"/>
<path d="M103.972 146.237L100.568 142.832L102.301 141.099L103.972 142.769L107.487 139.254L109.221 140.988L103.972 146.237Z" fill="#C08B89"/>
<path d="M111.252 118.111L156.953 118.111L156.953 116.229L111.252 116.229L111.252 118.111Z" fill="white"/>
<path d="M111.252 121.682L156.953 121.682L156.953 119.799L111.252 119.799L111.252 121.682Z" fill="white"/>
<path d="M111.252 125.184L131.815 125.184L131.815 123.301L111.252 123.301L111.252 125.184Z" fill="white"/>
<path d="M111.252 129.293L156.953 129.293L156.953 127.41L111.252 127.41L111.252 129.293Z" fill="white"/>
<path d="M111.252 132.863L156.953 132.863L156.953 130.981L111.252 130.981L111.252 132.863Z" fill="white"/>
<path d="M111.252 136.365L131.815 136.365L131.815 134.483L111.252 134.483L111.252 136.365Z" fill="white"/>
<path d="M111.252 140.67L156.953 140.67L156.953 138.787L111.252 138.787L111.252 140.67Z" fill="white"/>
<path d="M111.252 144.24L156.953 144.24L156.953 142.358L111.252 142.358L111.252 144.24Z" fill="white"/>
<path d="M111.252 147.743L131.815 147.743L131.815 145.86L111.252 145.86L111.252 147.743Z" fill="white"/>
<path d="M214.395 128.989L211.119 138.79C206.635 152.194 191.819 155.812 181.662 145.982L174.239 138.793C161.846 126.796 165.577 104.627 180.61 100.957L191.309 98.3441C206.336 94.6751 219.864 112.631 214.395 128.989Z" fill="white"/>
<path d="M188.262 109.957C196.068 108.051 201.79 104.023 201.042 100.961C200.295 97.8983 193.36 96.9607 185.554 98.8666C177.748 100.773 172.026 104.8 172.774 107.863C173.521 110.926 180.456 111.863 188.262 109.957Z" fill="black" fill-opacity="0.8"/>
<path d="M207.887 89.7605C207.887 100.644 197.209 104.236 184.036 104.236C170.863 104.236 160.184 100.644 160.184 89.7605C160.184 78.8775 170.863 68.6655 184.036 68.6655C197.209 68.666 207.887 78.878 207.887 89.7605Z" fill="white"/>
<path d="M173.833 96.1921C173.833 96.1921 163.236 96.0626 160.198 90.3566C160.189 90.1621 160.184 89.9631 160.184 89.7591C160.184 84.3451 162.833 79.0926 167.118 75.1836H193.791C193.791 75.1836 203.188 96.1921 173.833 96.1921Z" fill="#C08B89"/>
<path d="M167.109 86.9005C169.06 86.9005 170.642 85.1029 170.642 82.8855C170.642 80.6681 169.06 78.8705 167.109 78.8705C165.157 78.8705 163.575 80.6681 163.575 82.8855C163.575 85.1029 165.157 86.9005 167.109 86.9005Z" fill="white"/>
<path d="M179.483 86.9005C181.435 86.9005 183.017 85.1029 183.017 82.8855C183.017 80.6681 181.435 78.8705 179.483 78.8705C177.532 78.8705 175.95 80.6681 175.95 82.8855C175.95 85.1029 177.532 86.9005 179.483 86.9005Z" fill="white"/>
<path d="M172.076 91.0115C168.788 91.0115 168.735 88.047 168.734 88.017C168.734 87.927 168.806 87.854 168.896 87.8535H168.897C168.986 87.8535 169.059 87.9255 169.059 88.0145C169.06 88.1235 169.116 90.686 172.076 90.686C175.036 90.686 175.091 88.1235 175.092 88.0145C175.093 87.9255 175.166 87.8535 175.255 87.8535H175.256C175.345 87.854 175.418 87.927 175.417 88.017C175.417 88.047 175.364 91.0115 172.076 91.0115Z" fill="black" fill-opacity="0.8"/>
<path d="M199.667 100.872C199.641 100.872 199.615 100.866 199.59 100.853C199.511 100.81 199.482 100.712 199.524 100.633C201.838 96.3345 202.818 91.295 202.284 86.443C201.749 81.5905 199.695 76.886 196.501 73.1945C196.442 73.1265 196.449 73.024 196.517 72.965C196.585 72.906 196.687 72.913 196.747 72.9815C199.984 76.722 202.065 81.49 202.607 86.407C203.148 91.324 202.155 96.431 199.81 100.787C199.781 100.841 199.726 100.872 199.667 100.872Z" fill="black" fill-opacity="0.8"/>
<path d="M184.87 71.2036C184.839 71.2036 184.808 71.1946 184.781 71.1766C184.706 71.1271 184.685 71.0266 184.734 70.9511C187.203 67.2066 187.875 62.4156 186.533 58.1366C186.506 58.0511 186.554 57.9596 186.639 57.9331C186.724 57.9071 186.816 57.9541 186.843 58.0396C188.215 62.4111 187.528 67.3051 185.006 71.1306C184.975 71.1776 184.923 71.2036 184.87 71.2036Z" fill="black" fill-opacity="0.8"/>
<path d="M186.675 61.622C189.182 61.622 191.214 59.5901 191.214 57.0835C191.214 54.577 189.182 52.545 186.675 52.545C184.168 52.545 182.137 54.577 182.137 57.0835C182.137 59.5901 184.168 61.622 186.675 61.622Z" fill="#C08B89"/>
<path d="M204.046 126.471C207.862 126.471 210.956 122.551 210.956 117.716C210.956 112.88 207.862 108.961 204.046 108.961C200.23 108.961 197.137 112.88 197.137 117.716C197.137 122.551 200.23 126.471 204.046 126.471Z" fill="#C08B89"/>
<path d="M180.492 131.106C174.557 131.106 168.626 129.725 163.317 127.056C161.259 126.022 160.429 123.514 161.463 121.455C162.498 119.397 165.005 118.566 167.064 119.602C172.67 122.419 179.164 123.398 185.35 122.36C191.537 121.321 197.355 118.275 201.732 113.782C203.339 112.131 205.98 112.097 207.631 113.705C209.281 115.313 209.316 117.954 207.708 119.605C202.103 125.358 194.653 129.258 186.731 130.589C184.669 130.935 182.58 131.106 180.492 131.106Z" fill="black" fill-opacity="0.8"/>
<path d="M120.376 100.472C121.347 100.316 122.357 100.304 123.38 100.457C125.972 100.845 128.258 102.218 129.818 104.325C131.377 106.432 132.022 109.02 131.634 111.612L131.569 112.049C131.39 113.248 130.273 114.075 129.074 113.895C127.876 113.716 127.049 112.599 127.228 111.401L127.294 110.964C127.508 109.531 127.151 108.101 126.29 106.936C125.428 105.772 124.165 105.012 122.732 104.798C119.774 104.356 117.008 106.403 116.566 109.36L116.501 109.798C116.321 110.996 115.204 111.822 114.006 111.643C112.807 111.464 111.981 110.347 112.16 109.148L112.226 108.711C112.872 104.383 116.269 101.134 120.376 100.472Z" fill="#C08B89"/>
<path d="M165.089 119.217C165.057 120.128 164.886 121.048 164.564 121.951C163.747 124.237 162.089 126.068 159.895 127.108C157.701 128.147 155.233 128.269 152.947 127.452L152.561 127.315C151.504 126.937 150.952 125.774 151.331 124.717C151.708 123.66 152.872 123.109 153.929 123.486L154.314 123.624C155.577 124.075 156.942 124.007 158.154 123.433C159.367 122.859 160.284 121.847 160.735 120.583C161.667 117.974 160.303 115.094 157.695 114.162L157.309 114.024C156.252 113.646 155.702 112.483 156.079 111.426C156.457 110.369 157.62 109.818 158.678 110.196L159.063 110.333C162.88 111.697 165.224 115.367 165.089 119.217Z" fill="#C08B89"/>
<path d="M128.555 164.696H99.7825V193.468H128.555V164.696Z" fill="#C08B89"/>
<path d="M191.934 160.86H96.008V156.167C96.008 154.909 97.0275 153.89 98.2855 153.89H189.657C190.915 153.89 191.935 154.909 191.935 156.167L191.934 160.86Z" fill="#C08B89"/>
<path d="M189.657 214.867H98.2855C96.8795 214.867 95.736 213.724 95.736 212.318V156.168C95.736 154.761 96.88 153.618 98.2855 153.618H189.657C191.063 153.618 192.207 154.761 192.207 156.168V212.318C192.207 213.724 191.063 214.867 189.657 214.867ZM98.2855 154.162C97.18 154.162 96.2805 155.062 96.2805 156.168V212.318C96.2805 213.424 97.18 214.324 98.2855 214.324H189.657C190.763 214.324 191.663 213.424 191.663 212.318V156.168C191.663 155.062 190.763 154.162 189.657 154.162H98.2855Z" fill="black" fill-opacity="0.8"/>
<path d="M188.434 157.347C188.434 157.657 188.309 157.942 188.104 158.147C187.899 158.352 187.614 158.477 187.304 158.477H181.814C181.194 158.477 180.684 157.972 180.684 157.347C180.684 157.037 180.814 156.752 181.014 156.547C181.224 156.342 181.504 156.217 181.814 156.217H187.304C187.929 156.217 188.434 156.722 188.434 157.347Z" fill="white"/>
<path d="M179.304 157.347C179.304 157.657 179.179 157.942 178.969 158.147C178.769 158.352 178.484 158.477 178.174 158.477H172.684C172.059 158.477 171.554 157.972 171.554 157.347C171.554 157.037 171.679 156.752 171.884 156.547C172.089 156.342 172.369 156.217 172.684 156.217H178.174C178.794 156.217 179.304 156.722 179.304 157.347Z" fill="black" fill-opacity="0.8"/>
<path d="M170.018 157.347C170.018 157.657 169.893 157.942 169.683 158.147C169.483 158.352 169.198 158.477 168.888 158.477H163.398C162.773 158.477 162.268 157.972 162.268 157.347C162.268 157.037 162.393 156.752 162.598 156.547C162.803 156.342 163.083 156.217 163.398 156.217H168.888C169.508 156.217 170.018 156.722 170.018 157.347Z" fill="#01BCA7"/>
<path d="M110.685 189.755L101.204 180.274L105.734 175.744L110.685 180.694L122.97 168.409L127.5 172.939L110.685 189.755Z" fill="white"/>
<path d="M186.858 199.061H100.431C100.074 199.061 99.7825 198.769 99.7825 198.412V198.047C99.7825 197.69 100.075 197.399 100.431 197.399H186.858C187.215 197.399 187.507 197.691 187.507 198.047V198.412C187.507 198.769 187.215 199.061 186.858 199.061Z" fill="white"/>
<path d="M186.952 204.938H100.525C100.168 204.938 99.8765 204.646 99.8765 204.29V203.925C99.8765 203.568 100.169 203.276 100.525 203.276H186.952C187.309 203.276 187.601 203.568 187.601 203.925V204.29C187.601 204.646 187.309 204.938 186.952 204.938Z" fill="white"/>
<path d="M160.775 210.459H100.478C100.121 210.459 99.8295 210.167 99.8295 209.81V209.445C99.8295 209.088 100.122 208.797 100.478 208.797H160.775C161.132 208.797 161.423 209.089 161.423 209.445V209.81C161.423 210.167 161.131 210.459 160.775 210.459Z" fill="white"/>
<path d="M168.136 187.609C165.173 187.609 162.762 185.199 162.762 182.236V170.752C162.762 168.355 160.812 166.405 158.416 166.405C156.019 166.405 154.069 168.355 154.069 170.752V180.152C154.069 182.761 151.947 184.883 149.338 184.883H149.17C146.561 184.883 144.439 182.761 144.439 180.152V169.755C144.439 167.589 142.677 165.827 140.511 165.827C138.346 165.827 136.584 167.589 136.584 169.755V189.225C136.584 189.447 136.405 189.627 136.182 189.627C135.96 189.627 135.78 189.447 135.78 189.225V169.755C135.78 167.146 137.902 165.023 140.511 165.023C143.12 165.023 145.243 167.146 145.243 169.755V180.152C145.243 182.318 147.005 184.079 149.17 184.079H149.338C151.504 184.079 153.265 182.317 153.265 180.152V170.752C153.265 167.912 155.575 165.602 158.415 165.602C161.255 165.602 163.565 167.912 163.565 170.752V182.236C163.565 184.756 165.615 186.806 168.135 186.806C170.655 186.806 172.705 184.756 172.705 182.236V179.472C172.705 176.591 175.049 174.247 177.93 174.247C180.811 174.247 183.155 176.591 183.155 179.472V190.77C183.155 190.992 182.975 191.172 182.753 191.172C182.53 191.172 182.351 190.992 182.351 190.77V179.472C182.351 177.035 180.368 175.051 177.93 175.051C175.492 175.051 173.509 177.034 173.509 179.472V182.236C173.51 185.198 171.099 187.609 168.136 187.609Z" fill="white"/>
<path d="M140.164 167.821C141.525 167.821 142.629 166.717 142.629 165.356C142.629 163.995 141.525 162.892 140.164 162.892C138.803 162.892 137.7 163.995 137.7 165.356C137.7 166.717 138.803 167.821 140.164 167.821Z" fill="#C08B89"/>
<path d="M153.443 177.684C154.805 177.684 155.908 176.58 155.908 175.219C155.908 173.858 154.805 172.755 153.443 172.755C152.082 172.755 150.979 173.858 150.979 175.219C150.979 176.58 152.082 177.684 153.443 177.684Z" fill="#C08B89"/>
<path d="M163.567 172.415C164.928 172.415 166.032 171.311 166.032 169.95C166.032 168.589 164.928 167.486 163.567 167.486C162.206 167.486 161.103 168.589 161.103 169.95C161.103 171.311 162.206 172.415 163.567 172.415Z" fill="#C08B89"/>
<path d="M167.894 189.358C169.255 189.358 170.358 188.255 170.358 186.894C170.358 185.532 169.255 184.429 167.894 184.429C166.532 184.429 165.429 185.532 165.429 186.894C165.429 188.255 166.532 189.358 167.894 189.358Z" fill="#C08B89"/>
<path d="M182.753 192.457C184.115 192.457 185.218 191.354 185.218 189.993C185.218 188.631 184.115 187.528 182.753 187.528C181.392 187.528 180.289 188.631 180.289 189.993C180.289 191.354 181.392 192.457 182.753 192.457Z" fill="#C08B89"/>
<path d="M136.163 191.852C137.524 191.852 138.628 190.749 138.628 189.388C138.628 188.026 137.524 186.923 136.163 186.923C134.802 186.923 133.699 188.026 133.699 189.388C133.699 190.749 134.802 191.852 136.163 191.852Z" fill="#C08B89"/>
<path d="M98.2275 79.121C98.0895 79.121 97.9775 79.009 97.9775 78.871V75.871C97.9775 75.733 98.0895 75.621 98.2275 75.621C98.3655 75.621 98.4775 75.733 98.4775 75.871V78.871C98.4775 79.009 98.3655 79.121 98.2275 79.121ZM147.8 76.169C147.666 76.169 147.555 76.063 147.55 75.9275C147.545 75.7895 147.653 75.674 147.791 75.669C148.768 75.635 149.703 75.395 150.57 74.956C150.693 74.892 150.843 74.943 150.906 75.066C150.968 75.1895 150.919 75.3395 150.796 75.402C149.863 75.8745 148.858 76.1325 147.809 76.169C147.805 76.169 147.802 76.169 147.8 76.169ZM144.84 75.8085C144.814 75.8085 144.787 75.8045 144.76 75.7955C143.785 75.465 142.872 74.9135 142.122 74.2C142.022 74.105 142.018 73.947 142.113 73.8465C142.207 73.7465 142.366 73.742 142.466 73.8375C143.165 74.501 144.014 75.0145 144.921 75.3215C145.052 75.366 145.122 75.508 145.077 75.6385C145.042 75.743 144.945 75.8085 144.84 75.8085ZM152.986 73.5455C152.932 73.5455 152.877 73.528 152.831 73.4915C152.723 73.4055 152.705 73.2485 152.79 73.14C153.397 72.3745 153.82 71.5065 154.047 70.5615C154.079 70.427 154.213 70.343 154.348 70.3765C154.483 70.4085 154.565 70.5435 154.533 70.678C154.289 71.6945 153.835 72.627 153.183 73.45C153.133 73.513 153.06 73.5455 152.986 73.5455ZM98.2275 73.121C98.0895 73.121 97.9775 73.009 97.9775 72.871V69.871C97.9775 69.733 98.0895 69.621 98.2275 69.621C98.3655 69.621 98.4775 69.733 98.4775 69.871V72.871C98.4775 73.009 98.3655 73.121 98.2275 73.121ZM140.625 71.8045C140.526 71.8045 140.432 71.745 140.393 71.647C140.058 70.804 139.888 69.9125 139.888 68.9975V68.6165C139.888 68.4785 140 68.3665 140.138 68.3665C140.276 68.3665 140.388 68.4785 140.388 68.6165V68.9975C140.388 69.849 140.546 70.6785 140.858 71.4625C140.909 71.5905 140.846 71.736 140.718 71.787C140.687 71.799 140.656 71.8045 140.625 71.8045ZM119.239 71.2905H119.006C118.273 71.2905 117.549 71.1805 116.857 70.963C116.725 70.9215 116.652 70.7815 116.693 70.65C116.734 70.518 116.873 70.4435 117.006 70.486C117.65 70.688 118.323 70.7905 119.006 70.7905H119.239C119.453 70.7905 119.665 70.7805 119.874 70.7605C120.01 70.7485 120.133 70.849 120.146 70.9865C120.158 71.124 120.057 71.246 119.92 71.2585C119.696 71.28 119.468 71.2905 119.239 71.2905ZM122.73 70.348C122.644 70.348 122.56 70.304 122.514 70.224C122.444 70.105 122.484 69.952 122.603 69.882C123.432 69.3975 124.162 68.725 124.713 67.937C124.792 67.8235 124.948 67.796 125.061 67.8755C125.174 67.9545 125.201 68.1105 125.122 68.2235C124.53 69.07 123.747 69.7925 122.856 70.3135C122.816 70.337 122.773 70.348 122.73 70.348ZM114.35 69.493C114.29 69.493 114.23 69.4715 114.182 69.428C113.416 68.7325 112.798 67.8635 112.396 66.9145C112.342 66.7875 112.402 66.6405 112.529 66.5865C112.656 66.533 112.802 66.592 112.857 66.719C113.231 67.602 113.805 68.4105 114.518 69.0575C114.621 69.1505 114.628 69.3085 114.535 69.4105C114.486 69.465 114.418 69.493 114.35 69.493ZM154.481 67.886C154.343 67.886 154.231 67.774 154.231 67.636V64.636C154.231 64.498 154.343 64.386 154.481 64.386C154.619 64.386 154.731 64.498 154.731 64.636V67.636C154.731 67.774 154.619 67.886 154.481 67.886ZM98.2275 67.121C98.0895 67.121 97.9775 67.009 97.9775 66.871V63.871C97.9775 63.733 98.0895 63.621 98.2275 63.621C98.3655 63.621 98.4775 63.733 98.4775 63.871V66.871C98.4775 67.009 98.3655 67.121 98.2275 67.121ZM140.138 65.8665C140 65.8665 139.888 65.7545 139.888 65.6165V62.6165C139.888 62.4785 140 62.3665 140.138 62.3665C140.276 62.3665 140.388 62.4785 140.388 62.6165V65.6165C140.388 65.755 140.276 65.8665 140.138 65.8665ZM126.058 65.5815C126.044 65.5815 126.029 65.5805 126.014 65.5775C125.878 65.5535 125.788 65.4235 125.812 65.2875C125.88 64.902 125.915 64.5075 125.914 64.1145V62.338C125.914 62.2 126.026 62.088 126.164 62.088C126.302 62.088 126.414 62.2 126.414 62.338V64.114C126.414 64.5365 126.377 64.9605 126.304 65.3745C126.283 65.4965 126.177 65.5815 126.058 65.5815ZM112.08 64.141C111.942 64.141 111.83 64.029 111.83 63.891V60.891C111.83 60.753 111.942 60.641 112.08 60.641C112.218 60.641 112.33 60.753 112.33 60.891V63.891C112.33 64.029 112.218 64.141 112.08 64.141ZM154.481 61.886C154.343 61.886 154.231 61.774 154.231 61.636V58.636C154.231 58.498 154.343 58.386 154.481 58.386C154.619 58.386 154.731 58.498 154.731 58.636V61.636C154.731 61.774 154.619 61.886 154.481 61.886ZM98.2275 61.121C98.0895 61.121 97.9775 61.009 97.9775 60.871V57.871C97.9775 57.733 98.0895 57.621 98.2275 57.621C98.3655 57.621 98.4775 57.733 98.4775 57.871V60.871C98.4775 61.009 98.3655 61.121 98.2275 61.121ZM140.138 59.8665C140 59.8665 139.888 59.7545 139.888 59.6165V56.6165C139.888 56.4785 140 56.3665 140.138 56.3665C140.276 56.3665 140.388 56.4785 140.388 56.6165V59.6165C140.388 59.755 140.276 59.8665 140.138 59.8665ZM126.164 59.5885C126.026 59.5885 125.914 59.4765 125.914 59.3385V56.3385C125.914 56.2005 126.026 56.0885 126.164 56.0885C126.302 56.0885 126.414 56.2005 126.414 56.3385V59.3385C126.414 59.4765 126.303 59.5885 126.164 59.5885ZM112.08 58.141C111.942 58.141 111.83 58.029 111.83 57.891V54.891C111.83 54.753 111.942 54.641 112.08 54.641C112.218 54.641 112.33 54.753 112.33 54.891V57.891C112.33 58.029 112.218 58.141 112.08 58.141ZM154.481 55.886C154.343 55.886 154.231 55.774 154.231 55.636V52.636C154.231 52.498 154.343 52.386 154.481 52.386C154.619 52.386 154.731 52.498 154.731 52.636V55.636C154.731 55.774 154.619 55.886 154.481 55.886ZM98.2275 55.121C98.0895 55.121 97.9775 55.009 97.9775 54.871V51.871C97.9775 51.733 98.0895 51.621 98.2275 51.621C98.3655 51.621 98.4775 51.733 98.4775 51.871V54.871C98.4775 55.009 98.3655 55.121 98.2275 55.121ZM140.138 53.8665C140 53.8665 139.888 53.7545 139.888 53.6165V50.9215C139.888 50.823 139.886 50.725 139.881 50.6275C139.875 50.4895 139.982 50.373 140.12 50.367C140.259 50.3635 140.375 50.468 140.381 50.606C140.385 50.7105 140.388 50.816 140.388 50.9215V53.6165C140.388 53.755 140.276 53.8665 140.138 53.8665ZM126.164 53.5885C126.026 53.5885 125.914 53.4765 125.914 53.3385V50.922C125.914 50.719 125.923 50.5175 125.939 50.3185C125.95 50.181 126.072 50.0785 126.209 50.0905C126.347 50.102 126.449 50.223 126.437 50.3605C126.422 50.5455 126.414 50.733 126.414 50.922V53.3385C126.414 53.4765 126.303 53.5885 126.164 53.5885ZM112.08 52.141C111.942 52.141 111.83 52.029 111.83 51.891V48.891C111.83 48.753 111.942 48.641 112.08 48.641C112.218 48.641 112.33 48.753 112.33 48.891V51.891C112.33 52.029 112.218 52.141 112.08 52.141ZM154.481 49.886C154.343 49.886 154.231 49.774 154.231 49.636V46.636C154.231 46.498 154.343 46.386 154.481 46.386C154.619 46.386 154.731 46.498 154.731 46.636V49.636C154.731 49.774 154.619 49.886 154.481 49.886ZM98.2275 49.121C98.0895 49.121 97.9775 49.009 97.9775 48.871V45.871C97.9775 45.733 98.0895 45.621 98.2275 45.621C98.3655 45.621 98.4775 45.733 98.4775 45.871V48.871C98.4775 49.009 98.3655 49.121 98.2275 49.121ZM184.289 49.0535C184.206 49.0535 184.125 49.0125 184.078 48.9375C183.573 48.1415 182.758 47.574 181.84 47.381C181.705 47.3525 181.618 47.22 181.647 47.085C181.675 46.95 181.808 46.864 181.943 46.892C182.992 47.1125 183.924 47.7605 184.5 48.67C184.574 48.7865 184.539 48.941 184.422 49.015C184.381 49.041 184.335 49.0535 184.289 49.0535ZM139.366 47.9915C139.275 47.9915 139.188 47.942 139.144 47.8565C138.703 47.0045 138.069 46.242 137.309 45.651C137.2 45.5665 137.181 45.409 137.266 45.3C137.35 45.191 137.508 45.1705 137.617 45.2565C138.433 45.892 139.114 46.7115 139.588 47.6265C139.651 47.7495 139.603 47.9 139.481 47.9635C139.444 47.9825 139.404 47.9915 139.366 47.9915ZM127.069 47.7465C127.027 47.7465 126.985 47.736 126.946 47.714C126.826 47.6455 126.784 47.493 126.852 47.373C127.363 46.477 128.077 45.685 128.917 45.0835C129.03 45.0025 129.186 45.029 129.266 45.141C129.346 45.253 129.32 45.4095 129.208 45.4895C128.427 46.0495 127.762 46.7865 127.287 47.6205C127.24 47.7015 127.156 47.7465 127.069 47.7465ZM178.897 47.3055H175.897C175.759 47.3055 175.647 47.1935 175.647 47.0555C175.647 46.9175 175.759 46.8055 175.897 46.8055H178.897C179.035 46.8055 179.147 46.9175 179.147 47.0555C179.147 47.1935 179.036 47.3055 178.897 47.3055ZM172.982 46.717C172.948 46.717 172.913 46.71 172.879 46.695C171.938 46.268 171.09 45.621 170.426 44.8235C170.338 44.7175 170.352 44.56 170.458 44.4715C170.564 44.383 170.722 44.398 170.81 44.5035C171.426 45.243 172.213 45.8435 173.086 46.239C173.211 46.296 173.267 46.4445 173.21 46.57C173.168 46.6625 173.077 46.717 172.982 46.717ZM112.08 46.141C111.942 46.141 111.83 46.029 111.83 45.891V44.7645C111.83 44.1585 111.748 43.5585 111.589 42.981C111.552 42.848 111.63 42.71 111.763 42.6735C111.895 42.6385 112.034 42.715 112.071 42.848C112.242 43.4685 112.33 44.1135 112.33 44.7645V45.891C112.33 46.029 112.218 46.141 112.08 46.141ZM134.777 44.423C134.758 44.423 134.739 44.421 134.72 44.4165C134.229 44.303 133.722 44.2455 133.212 44.2455H133.091C132.672 44.2455 132.252 44.2845 131.845 44.3615C131.711 44.387 131.579 44.298 131.553 44.1625C131.527 44.027 131.616 43.896 131.752 43.8705C132.19 43.7875 132.64 43.7455 133.09 43.7455H133.211C133.759 43.7455 134.304 43.8075 134.832 43.9295C134.967 43.961 135.051 44.095 135.02 44.2295C134.993 44.345 134.89 44.423 134.777 44.423ZM154.481 43.886C154.343 43.886 154.231 43.774 154.231 43.636V40.636C154.231 40.498 154.343 40.386 154.481 40.386C154.619 40.386 154.731 40.498 154.731 40.636V43.636C154.731 43.774 154.619 43.886 154.481 43.886ZM98.483 43.1445C98.4605 43.1445 98.438 43.1415 98.4155 43.135C98.2825 43.098 98.205 42.96 98.242 42.827C98.5235 41.8205 99.012 40.9055 99.694 40.107C99.784 40.002 99.942 39.99 100.047 40.079C100.152 40.169 100.164 40.3265 100.075 40.4315C99.44 41.1745 98.9855 42.0255 98.7235 42.962C98.693 43.0725 98.592 43.1445 98.483 43.1445ZM169.276 42.259C169.164 42.259 169.062 42.1825 169.034 42.0685C168.902 41.533 168.836 40.979 168.836 40.4225C168.836 39.9725 168.789 39.5235 168.696 39.088C168.667 38.953 168.753 38.82 168.888 38.7915C169.023 38.763 169.156 38.849 169.185 38.984C169.285 39.4535 169.335 39.938 169.335 40.4225C169.335 40.939 169.397 41.453 169.519 41.9495C169.552 42.0835 169.47 42.219 169.336 42.2515C169.316 42.257 169.296 42.259 169.276 42.259ZM110.436 40.535C110.365 40.535 110.295 40.505 110.245 40.447C109.622 39.713 108.833 39.1115 107.964 38.7075C107.839 38.649 107.784 38.5005 107.842 38.375C107.9 38.25 108.049 38.195 108.175 38.2535C109.109 38.688 109.957 39.3345 110.627 40.123C110.716 40.228 110.703 40.386 110.598 40.4755C110.55 40.5155 110.493 40.535 110.436 40.535ZM102.256 38.722C102.162 38.722 102.071 38.6685 102.029 38.5765C101.971 38.451 102.026 38.3025 102.151 38.2445C103.096 37.809 104.106 37.588 105.154 37.588C105.292 37.588 105.408 37.7 105.408 37.838C105.408 37.976 105.301 38.088 105.163 38.088C104.179 38.088 103.239 38.2935 102.361 38.6985C102.327 38.715 102.291 38.722 102.256 38.722ZM155.056 37.9675C155.022 37.9675 154.987 37.9605 154.954 37.946C154.828 37.8895 154.771 37.7415 154.828 37.6155C155.25 36.672 155.892 35.8205 156.687 35.1525C156.792 35.064 156.949 35.0775 157.039 35.183C157.128 35.2885 157.114 35.4465 157.009 35.5355C156.272 36.155 155.676 36.945 155.285 37.82C155.243 37.9125 155.151 37.9675 155.056 37.9675ZM167.682 36.5915C167.607 36.5915 167.534 36.5585 167.484 36.4955C166.892 35.7375 166.124 35.113 165.263 34.69C165.139 34.629 165.088 34.4795 165.149 34.3555C165.21 34.2315 165.358 34.18 165.484 34.2415C166.412 34.6975 167.24 35.3705 167.878 36.1875C167.963 36.2965 167.944 36.4535 167.835 36.5385C167.79 36.574 167.736 36.5915 167.682 36.5915ZM159.495 34.2385C159.383 34.2385 159.281 34.163 159.253 34.0495C159.219 33.9155 159.3 33.78 159.434 33.7465C159.98 33.6095 160.544 33.54 161.111 33.54C161.112 33.54 161.113 33.54 161.114 33.54H162.452C162.59 33.54 162.715 33.652 162.715 33.79C162.715 33.928 162.616 34.04 162.478 34.04H161.114C161.113 34.04 161.112 34.04 161.111 34.04C160.584 34.04 160.061 34.1045 159.555 34.2315C159.535 34.236 159.515 34.2385 159.495 34.2385Z" fill="black" fill-opacity="0.8"/>
<path d="M133.168 52.377C137.797 52.377 141.549 48.6247 141.549 43.996C141.549 39.3673 137.797 35.615 133.168 35.615C128.539 35.615 124.787 39.3673 124.787 43.996C124.787 48.6247 128.539 52.377 133.168 52.377Z" fill="#C08B89"/>
<path d="M130.099 47.639C129.998 47.639 129.896 47.606 129.811 47.538L125.802 44.336C125.693 44.2485 125.629 44.1155 125.629 43.9755C125.629 43.8355 125.693 43.7025 125.802 43.615L129.76 40.454C129.959 40.295 130.249 40.3275 130.408 40.5265C130.567 40.7255 130.535 41.016 130.336 41.175L126.83 43.9755L130.387 46.817C130.586 46.976 130.619 47.2665 130.46 47.4655C130.369 47.5795 130.234 47.639 130.099 47.639Z" fill="white"/>
<path d="M136.238 47.639C136.102 47.639 135.968 47.5795 135.877 47.4655C135.718 47.2665 135.75 46.976 135.949 46.817L139.507 43.9755L136.001 41.175C135.802 41.016 135.769 40.7255 135.928 40.5265C136.087 40.3275 136.378 40.295 136.577 40.454L140.534 43.615C140.644 43.7025 140.708 43.8355 140.708 43.9755C140.708 44.1155 140.644 44.2485 140.534 44.336L136.525 47.538C136.441 47.606 136.339 47.639 136.238 47.639Z" fill="white"/>
<path d="M132.268 48.4855C132.203 48.4945 132.136 48.4895 132.07 48.469C131.826 48.394 131.689 48.136 131.764 47.892L134.245 39.827C134.32 39.5835 134.578 39.4465 134.822 39.5215C135.066 39.5965 135.203 39.8545 135.128 40.0985L132.647 48.1635C132.592 48.3415 132.44 48.462 132.268 48.4855Z" fill="white"/>
<path d="M135.056 85.9551H136.351C136.351 84.8716 136.104 83.7806 135.632 82.8006L134.466 83.3636C134.074 82.5516 133.504 81.8421 132.807 81.2866L133.615 80.2751C133.19 79.9361 132.729 79.6451 132.238 79.4066C131.748 79.1721 131.231 78.9911 130.7 78.8711L130.413 80.1326C129.987 80.0351 129.542 79.9841 129.085 79.9841C128.628 79.9841 128.182 80.0351 127.755 80.1336L127.469 78.8711C126.938 78.9911 126.42 79.1721 125.93 79.4066C125.441 79.6451 124.978 79.9366 124.553 80.2751L125.361 81.2866C124.664 81.8421 124.094 82.5516 123.703 83.3636L122.536 82.8006C122.065 83.7811 121.818 84.8721 121.817 85.9551H123.114C123.114 86.8831 123.326 87.7626 123.703 88.5466L122.537 89.1096C123.014 90.0871 123.702 90.9606 124.554 91.6351L125.362 90.6226C126.052 91.1741 126.866 91.5756 127.756 91.7771L127.47 93.0396C128.532 93.2826 129.638 93.2826 130.701 93.0396L130.415 91.7781C131.305 91.5756 132.119 91.1746 132.809 90.6226L133.617 91.6351C134.468 90.9606 135.158 90.0871 135.634 89.1096L134.468 88.5466C134.844 87.7626 135.056 86.8836 135.056 85.9551ZM129.083 90.0516C126.872 90.0516 125.079 88.2586 125.079 86.0461C125.079 83.8346 126.872 82.0416 129.083 82.0416C131.296 82.0416 133.089 83.8346 133.089 86.0461C133.088 88.2586 131.295 90.0516 129.083 90.0516Z" fill="#C08B89"/>
<path d="M153.963 97.2541H156.478C156.474 96.6701 156.43 96.0846 156.34 95.5036C156.249 94.9236 156.109 94.3506 155.93 93.7916C155.752 93.2311 155.521 92.6881 155.255 92.1651C154.988 91.6431 154.683 91.1391 154.335 90.6666L152.303 92.1446C151.236 90.6776 149.721 89.5576 147.957 88.9861L148.733 86.5951C146.492 85.8651 144.048 85.8651 141.807 86.5951L142.584 88.9861C140.821 89.5576 139.304 90.6776 138.237 92.1461L136.205 90.6666C135.858 91.1391 135.552 91.6431 135.286 92.1651C135.019 92.6886 134.789 93.2311 134.611 93.7916C134.431 94.3506 134.29 94.9241 134.199 95.5036C134.111 96.0851 134.066 96.6701 134.063 97.2541H136.577C136.577 99.1646 137.192 100.931 138.237 102.365L136.205 103.843C137.579 105.745 139.569 107.189 141.807 107.914L142.584 105.524C143.43 105.798 144.332 105.947 145.27 105.947C146.208 105.947 147.112 105.798 147.958 105.523L148.733 107.914C150.972 107.188 152.962 105.744 154.335 103.842L152.304 102.364C153.348 100.931 153.963 99.1646 153.963 97.2541ZM145.272 101.948C142.527 101.948 140.303 99.7236 140.303 96.9796C140.303 94.2356 142.526 92.0111 145.272 92.0111C148.016 92.0111 150.239 94.2356 150.239 96.9796C150.239 99.7236 148.016 101.948 145.272 101.948Z" fill="#C08B89"/>
<path d="M139.98 84.8191C141.623 84.8191 142.954 83.4876 142.954 81.8451C142.954 80.2026 141.623 78.8711 139.98 78.8711C138.338 78.8711 137.006 80.2026 137.006 81.8451C137.006 83.4876 138.338 84.8191 139.98 84.8191Z" fill="#C08B89"/>
<path d="M242.591 232.746H7.40902C7.29752 232.746 7.20752 232.655 7.20752 232.544C7.20752 232.433 7.29752 232.343 7.40902 232.343H242.591C242.702 232.343 242.792 232.433 242.792 232.544C242.792 232.655 242.702 232.746 242.591 232.746Z" fill="black" fill-opacity="0.8"/>
<path d="M56.7351 210.056L53.4176 221.829C53.4176 221.829 63.9841 229.238 63.5776 231.475L41.0651 225.705L45.4991 207.143L56.7351 210.056Z" fill="black" fill-opacity="0.8"/>
<path d="M46.7006 219.046C46.2351 219.057 45.8116 219.481 45.8026 219.958C45.7936 220.435 46.2116 220.88 46.6771 220.878C47.1426 220.876 47.6666 220.382 47.6231 219.907C47.5801 219.432 47.0616 218.937 46.6101 219.054" fill="#F5F5F5"/>
<g opacity="0.6">
<path d="M41.0656 225.705L41.5841 223.852L62.975 230.077C62.975 230.077 63.868 230.781 63.578 231.475L41.0656 225.705Z" fill="white"/>
</g>
<path d="M53.8115 221.806C53.7805 221.918 53.2185 221.828 52.589 222.051C51.954 222.258 51.556 222.674 51.4655 222.604C51.3695 222.556 51.698 221.925 52.4645 221.668C53.2285 221.404 53.8605 221.709 53.8115 221.806Z" fill="black" fill-opacity="0.8"/>
<path d="M55.9286 223.412C55.9271 223.527 55.4041 223.597 54.9146 223.977C54.4141 224.343 54.1941 224.834 54.0856 224.801C53.9781 224.793 54.0631 224.113 54.6806 223.652C55.2941 223.185 55.9521 223.304 55.9286 223.412Z" fill="black" fill-opacity="0.8"/>
<path d="M56.5626 226.65C56.4566 226.649 56.4411 226.047 56.8741 225.502C57.3031 224.955 57.8811 224.844 57.9046 224.95C57.9441 225.058 57.5296 225.304 57.1806 225.756C56.8221 226.201 56.6746 226.668 56.5626 226.65Z" fill="black" fill-opacity="0.8"/>
<path d="M54.2771 219.037C54.2061 219.128 53.7396 218.843 53.1076 218.727C52.4781 218.598 51.9421 218.687 51.9086 218.576C51.8646 218.478 52.4386 218.182 53.1811 218.33C53.9241 218.472 54.3526 218.962 54.2771 219.037Z" fill="black" fill-opacity="0.8"/>
<path d="M48.8431 212.828L48.3206 225.071C48.3206 225.071 60.2911 229.726 60.4096 231.998L37.2041 231.813L37.2541 212.704L48.8431 212.828Z" fill="black" fill-opacity="0.8"/>
<path d="M41.1531 223.983C40.7031 224.106 40.3886 224.62 40.4891 225.086C40.5896 225.552 41.0981 225.884 41.5506 225.77C42.0026 225.656 42.3986 225.05 42.2476 224.598C42.0966 224.147 41.4791 223.791 41.0671 224.013" fill="#F5F5F5"/>
<g opacity="0.6">
<path d="M37.2041 231.813L37.2826 229.887L59.5026 230.785C59.5026 230.785 60.5321 231.254 60.4096 231.999L37.2041 231.813Z" fill="white"/>
</g>
<path d="M48.6976 224.953C48.6931 225.069 48.1261 225.117 47.5656 225.486C46.9956 225.84 46.7046 226.34 46.6006 226.293C46.4966 226.27 46.6706 225.577 47.3566 225.143C48.0391 224.702 48.7231 224.846 48.6976 224.953Z" fill="black" fill-opacity="0.8"/>
<path d="M51.1241 226.004C51.1491 226.116 50.6571 226.31 50.2681 226.798C49.8656 227.274 49.7646 227.804 49.6516 227.798C49.5451 227.816 49.4716 227.135 49.9661 226.538C50.4551 225.936 51.1221 225.893 51.1241 226.004Z" fill="black" fill-opacity="0.8"/>
<path d="M52.4836 228.999C52.3806 229.023 52.2271 228.442 52.5231 227.808C52.8146 227.173 53.3506 226.926 53.3981 227.023C53.4616 227.119 53.1146 227.458 52.8796 227.982C52.6326 228.499 52.5961 228.989 52.4836 228.999Z" fill="black" fill-opacity="0.8"/>
<path d="M48.5146 222.149C48.4661 222.255 47.9476 222.09 47.3066 222.13C46.6651 222.156 46.1651 222.372 46.1066 222.272C46.0416 222.188 46.5316 221.762 47.2871 221.726C48.0421 221.685 48.5711 222.058 48.5146 222.149Z" fill="black" fill-opacity="0.8"/>
<path d="M34.4876 123.244V132.924L37.0251 170.637C37.0251 170.637 35.4456 188.931 34.4761 199.258C33.6341 208.226 35.0106 223.845 35.0106 223.845H49.7811L55.0656 171.757L58.3456 139.272L64.0521 124.487L34.4876 123.244Z" fill="black" fill-opacity="0.8"/>
<path d="M73.3841 124.93L70.5551 177.544L55.6126 216.937L54.9261 219.309L46.1011 217.124L52.6641 123.905L73.3841 124.93Z" fill="black" fill-opacity="0.8"/>
<path d="M58.3066 139.66C58.3111 139.66 58.3131 139.734 58.3116 139.879C58.3086 140.037 58.3046 140.25 58.2991 140.521C58.2816 141.1 58.2566 141.928 58.2246 142.987C58.1651 145.129 58.0151 148.226 57.8031 152.051C57.3576 159.7 56.5261 170.256 55.2301 181.873C53.9541 193.495 52.5446 203.984 51.5146 211.572C50.9916 215.354 50.5676 218.419 50.2726 220.556C50.1221 221.604 50.0041 222.423 49.9221 222.996C49.8806 223.264 49.8481 223.474 49.8241 223.63C49.8006 223.773 49.7861 223.846 49.7811 223.845C49.7766 223.844 49.7816 223.77 49.7961 223.626C49.8136 223.469 49.8371 223.258 49.8671 222.989C49.9376 222.414 50.0381 221.592 50.1666 220.541C50.4416 218.402 50.8356 215.333 51.3226 211.546C52.3031 203.951 53.6816 193.46 54.9571 181.842C56.2531 170.229 57.1146 159.682 57.6096 152.039C57.8466 148.217 58.0261 145.123 58.1186 142.982C58.1726 141.924 58.2151 141.097 58.2446 140.519C58.2616 140.248 58.2746 140.036 58.2841 139.878C58.2941 139.734 58.3016 139.66 58.3066 139.66Z" fill="black" fill-opacity="0.8"/>
<path d="M59.2421 126.498C59.2421 126.928 58.9016 127.277 58.4821 127.277C58.0626 127.277 57.7221 126.928 57.7221 126.498C57.7221 126.068 58.0626 125.72 58.4821 125.72C58.9021 125.72 59.2421 126.068 59.2421 126.498Z" fill="black" fill-opacity="0.8"/>
<path d="M72.2276 133.847C72.2076 133.87 71.7736 133.526 71.1861 132.847C70.5986 132.171 69.8841 131.136 69.3286 129.87C68.7766 128.601 68.4991 127.366 68.3981 126.467C68.2951 125.566 68.3331 125.005 68.3631 125.005C68.4091 125.003 68.4401 125.559 68.5906 126.437C68.7391 127.315 69.0401 128.513 69.5801 129.755C70.1241 130.994 70.7961 132.021 71.3361 132.72C71.8756 133.42 72.2596 133.814 72.2276 133.847Z" fill="black" fill-opacity="0.8"/>
<path d="M70.462 75.7814C70.462 75.7814 73.2905 76.8899 74.598 81.0304C75.5075 83.9109 79.7705 105.35 79.7705 105.35L73.8295 109.266L71.416 89.2114L70.462 75.7814Z" fill="#F5F5F5"/>
<path d="M47.874 65.5378L46.013 68.8398C46.013 68.8398 33.583 75.1583 33.626 75.7813C33.626 75.7813 34.317 99.3703 34.449 116.672C34.499 123.208 34.2585 129.212 34.127 132.099C33.782 139.673 33.5145 169.09 33.5145 169.09L78.517 168.024L70.462 75.7818L64.115 73.0048L63.3045 71.3478L60.388 68.9803L47.874 65.5378Z" fill="#F5F5F5"/>
<path d="M67.592 168.282C67.5965 168.281 67.597 168.213 67.5925 168.081C67.5865 167.935 67.578 167.74 67.5675 167.492C67.5385 166.96 67.498 166.201 67.4455 165.231C67.3285 163.253 67.1605 160.417 66.9535 156.919C66.529 149.887 65.9445 140.198 65.299 129.496C64.6825 118.789 64.1245 109.097 63.72 102.065C63.5325 98.5659 63.38 95.7289 63.274 93.7504C63.2195 92.7809 63.1765 92.0224 63.1465 91.4899C63.1295 91.2424 63.1165 91.0479 63.1065 90.9024C63.096 90.7699 63.0885 90.7024 63.0835 90.7024C63.079 90.7024 63.0775 90.7709 63.0785 90.9034C63.0815 91.0494 63.086 91.2444 63.0915 91.4919C63.1095 92.0249 63.135 92.7839 63.168 93.7549C63.236 95.7199 63.3645 98.5624 63.5275 102.074C63.8605 109.098 64.388 118.799 65.027 129.512C65.665 140.221 66.2885 149.915 66.761 156.931C67.004 160.427 67.2015 163.261 67.339 165.238C67.413 166.207 67.471 166.964 67.512 167.496C67.534 167.743 67.551 167.937 67.564 168.083C67.578 168.215 67.587 168.282 67.592 168.282Z" fill="black" fill-opacity="0.8"/>
<path d="M60.388 68.9798L61.434 76.2028L63.3045 90.7033L55.1555 76.7153L48.079 67.4458L59.7365 75.6148L59.8845 68.8428" fill="#C08B89"/>
<path d="M45.9575 69.2783C45.9455 69.2838 46.024 69.4818 46.1815 69.8458C46.357 70.2393 46.59 70.7628 46.8785 71.4103C47.5085 72.7813 48.3785 74.6733 49.4075 76.9118L49.4395 76.9813L49.518 76.9818C50.058 76.9838 50.631 76.9863 51.22 76.9883L51.1385 76.7608C50.742 77.0853 50.319 77.4313 49.8875 77.7848L49.773 77.8783L49.879 77.9818C50.637 78.7243 51.433 79.5038 52.2505 80.3043C55.215 83.1803 57.8975 85.7823 59.8715 87.6973C60.836 88.6148 61.6255 89.3663 62.2025 89.9153C62.464 90.1563 62.677 90.3528 62.846 90.5083C62.995 90.6418 63.0765 90.7088 63.0835 90.7018C63.09 90.6953 63.0215 90.6153 62.8845 90.4688C62.725 90.3033 62.524 90.0948 62.2765 89.8393C61.7145 89.2748 60.945 88.5023 60.0055 87.5593C58.046 85.6298 55.383 83.0073 52.44 80.1093C51.621 79.3103 50.8235 78.5328 50.064 77.7918L50.0555 77.9888C50.485 77.6333 50.906 77.2853 51.301 76.9583L51.5775 76.7293L51.2195 76.7308C50.6305 76.7333 50.0575 76.7353 49.5175 76.7373L49.6275 76.8073C48.5625 74.5863 47.6615 72.7078 47.0095 71.3478C46.6955 70.7123 46.4415 70.1988 46.2505 69.8123C46.0715 69.4593 45.9695 69.2728 45.9575 69.2783Z" fill="black" fill-opacity="0.8"/>
<path d="M63.3045 90.7033C63.323 90.7058 63.3805 90.3858 63.468 89.8058C63.556 89.1803 63.6725 88.3503 63.814 87.3453C64.0945 85.2663 64.463 82.3918 64.8535 79.2153C64.978 78.1908 65.0985 77.1978 65.213 76.2548L65.227 76.1378L65.1135 76.1108C64.4005 75.9413 63.7175 75.7793 63.0705 75.6258L63.0625 75.8648C63.798 75.7328 64.484 75.6098 65.1155 75.4968L65.252 75.4723L65.195 75.3488C64.6425 74.1498 64.185 73.1558 63.8445 72.4163C63.6905 72.0968 63.563 71.8333 63.459 71.6178C63.3675 71.4363 63.3145 71.3423 63.3045 71.3468C63.2945 71.3513 63.3285 71.4533 63.4015 71.6433C63.491 71.8648 63.601 72.1363 63.7345 72.4648C64.0535 73.2133 64.4825 74.2203 65.0005 75.4348L65.08 75.2868C64.4465 75.3908 63.759 75.5033 63.0215 75.6243L62.4345 75.7203L63.0135 75.8633C63.659 76.0228 64.3405 76.1908 65.0525 76.3663L64.953 76.2228C64.8355 77.1653 64.712 78.1578 64.5845 79.1818C64.194 82.3583 63.8555 85.2368 63.624 87.3218C63.5175 88.3308 63.43 89.1643 63.364 89.7928C63.3075 90.3768 63.286 90.7008 63.3045 90.7033Z" fill="black" fill-opacity="0.8"/>
<path d="M56.3505 129.294C56.3545 129.289 56.256 129.293 56.061 129.304C55.848 129.318 55.5595 129.337 55.193 129.361C54.408 129.418 53.2885 129.499 51.8745 129.602C48.98 129.824 44.8815 130.139 39.9825 130.516L39.8635 130.525L39.874 130.644C40.065 132.881 40.273 135.307 40.492 137.871C40.603 139.154 40.7165 140.47 40.833 141.815C40.8915 142.487 40.9505 143.166 41.01 143.851C41.036 144.188 41.0735 144.554 41.1725 144.9C41.2795 145.245 41.437 145.576 41.642 145.877C42.298 146.824 43.368 147.376 44.439 147.566C45.52 147.715 46.569 147.736 47.609 147.735C49.683 147.71 51.688 147.533 53.552 147.083C54.016 146.964 54.4725 146.83 54.906 146.641C55.125 146.553 55.3345 146.443 55.5365 146.318C55.641 146.266 55.7285 146.164 55.823 146.089C55.9115 146.004 55.9725 145.901 56.0475 145.807C56.541 144.999 56.694 144.109 56.825 143.274C57.061 141.588 57.0685 140.006 57.0595 138.568C57.014 135.69 56.808 133.371 56.6545 131.771C56.575 130.971 56.503 130.352 56.449 129.932C56.4215 129.734 56.3995 129.577 56.3825 129.455C56.3675 129.35 56.3535 129.289 56.3505 129.294C56.3475 129.299 56.347 129.348 56.3555 129.459C56.3655 129.582 56.3785 129.74 56.395 129.938C56.432 130.378 56.4835 130.995 56.55 131.781C56.671 133.382 56.8475 135.702 56.868 138.57C56.865 140.002 56.845 141.579 56.6025 143.241C56.4725 144.061 56.3045 144.941 55.8495 145.674C55.627 146.038 55.233 146.242 54.81 146.416C54.3935 146.595 53.947 146.725 53.4915 146.84C51.6585 147.276 49.6635 147.448 47.6075 147.469C46.5825 147.469 45.5205 147.444 44.4865 147.3C43.47 147.119 42.4685 146.596 41.865 145.723C41.6765 145.445 41.5315 145.142 41.4325 144.824C41.3415 144.502 41.307 144.177 41.2795 143.828C41.2195 143.143 41.16 142.464 41.101 141.792C40.9825 140.448 40.8665 139.131 40.7535 137.849C40.525 135.286 40.309 132.86 40.11 130.624L40.0015 130.753C44.8655 130.33 48.9355 129.976 51.8095 129.726C53.2325 129.596 54.359 129.493 55.149 129.421C55.524 129.384 55.819 129.355 56.037 129.334C56.24 129.312 56.3465 129.299 56.3505 129.294Z" fill="black" fill-opacity="0.8"/>
<g opacity="0.3">
<path d="M41.1896 144.561C42.4571 147.867 45.7756 148.067 49.3411 147.546C52.6986 147.054 55.9286 146.349 56.1761 145.388C56.0891 147.142 54.7966 148.49 53.1871 149.192C51.5771 149.894 49.7786 149.994 48.0241 149.917C46.1881 149.836 44.6026 149.916 43.0876 148.875C41.5726 147.835 41.1851 146.067 41.1896 144.561Z" fill="black"/>
</g>
<path d="M75.2246 130.318C75.2201 130.319 75.2121 130.277 75.2001 130.196C75.1876 130.099 75.1726 129.98 75.1541 129.833C75.1176 129.493 75.0671 129.027 75.0036 128.437C74.8826 127.202 74.7111 125.452 74.5001 123.299C74.0876 118.959 73.5381 112.961 72.9571 106.334C72.3766 99.7053 71.8761 93.7028 71.5451 89.3553C71.3796 87.1813 71.2566 85.4213 71.1871 84.2038C71.1476 83.5958 71.1326 83.1218 71.1221 82.8008C71.1191 82.6533 71.1161 82.5333 71.1141 82.4358C71.1136 82.3533 71.1156 82.3113 71.1201 82.3113C71.2431 83.7198 72.0771 93.2728 73.2161 106.312C73.7881 112.929 74.3061 118.92 74.6831 123.282C74.8596 125.438 75.0026 127.191 75.1041 128.428C75.1471 129.02 75.1811 129.487 75.2061 129.829C75.2141 129.976 75.2206 130.096 75.2261 130.194C75.2296 130.276 75.2291 130.318 75.2246 130.318Z" fill="black" fill-opacity="0.8"/>
<path d="M81.7456 105.823C81.7456 105.823 82.0576 106.864 81.9536 107.956C81.8496 109.049 81.7976 111.739 78.8841 112.657C75.9706 113.575 74.5561 112.701 73.6566 111.466L73.2161 106.115L76.3346 104.054L81.7456 105.823Z" fill="#F5F5F5"/>
<g opacity="0.3">
<path d="M57.3876 109.265C57.3876 109.265 49.9326 116.631 44.1421 117.692C38.3516 118.754 36.2836 116.682 34.7426 111.508L57.3876 109.265Z" fill="black"/>
</g>
<path d="M33.7606 75.5984C33.7606 75.5984 29.0236 79.9914 30.3721 90.3849C31.6251 100.042 33.8496 113.496 36.8151 115.057C39.7806 116.618 46.1796 115.837 50.8621 113.184C55.5446 110.53 69.1231 103.351 69.1231 103.351L63.5041 93.3619L45.3991 100.385C45.3991 100.385 43.0581 84.3654 41.6531 81.6059" fill="#F5F5F5"/>
<path d="M41.5961 81.3869C41.5961 81.3869 41.6476 81.4879 41.7371 81.6929C41.7806 81.7954 41.8391 81.9219 41.8991 82.0764C41.9506 82.2349 42.0096 82.4174 42.0766 82.6234C42.3426 83.4529 42.6601 84.6994 43.0051 86.3179C43.7031 89.5549 44.5461 94.2774 45.4381 100.152L45.3066 100.076C50.4231 98.0829 56.5826 95.6829 63.4016 93.0264L63.5026 92.9869L63.5561 93.0814C65.3356 96.2399 67.2246 99.5924 69.1816 103.066L69.2481 103.184L69.1281 103.249C65.3941 105.261 61.5056 107.356 57.5191 109.504C55.5966 110.539 53.6971 111.561 51.8246 112.569C50.8901 113.068 49.9596 113.594 48.9911 114.011C48.0206 114.423 47.0296 114.759 46.0316 115.036C44.0311 115.56 41.9926 115.854 39.9931 115.735C38.9976 115.672 38.0036 115.513 37.0891 115.125L36.7501 114.974C36.6376 114.922 36.5326 114.838 36.4241 114.771C36.2261 114.611 36.0506 114.432 35.8971 114.239C35.5956 113.85 35.3426 113.435 35.1306 113.007C34.2811 111.291 33.7796 109.499 33.3151 107.767C32.8601 106.029 32.4996 104.324 32.1741 102.671C31.5331 99.3644 31.0576 96.2639 30.6601 93.4289C30.2626 90.5999 29.9136 88.0139 30.0191 85.7299C30.0966 83.4499 30.5066 81.5054 31.0466 79.9944C31.5961 78.4829 32.2571 77.4089 32.7626 76.7349C33.0131 76.3949 33.2331 76.1579 33.3826 76.0019C33.5351 75.8479 33.6246 75.7819 33.6246 75.7819C33.6246 75.7819 33.5476 75.8614 33.4026 76.0209C33.2601 76.1824 33.0481 76.4239 32.8061 76.7674C32.3181 77.4484 31.6761 78.5234 31.1461 80.0299C30.6256 81.5364 30.2336 83.4694 30.1706 85.7354C30.0801 88.0044 30.4396 90.5714 30.8501 93.4019C31.2591 96.2324 31.7456 99.3289 32.3951 102.628C32.7241 104.276 33.0891 105.976 33.5456 107.706C34.0111 109.429 34.5176 111.214 35.3531 112.893C35.5606 113.312 35.8076 113.713 36.0931 114.08C36.2381 114.263 36.4006 114.426 36.5771 114.569C36.6741 114.627 36.7586 114.698 36.8651 114.747L37.1886 114.891C38.0616 115.26 39.0326 115.416 40.0081 115.476C41.9691 115.591 43.9856 115.3 45.9616 114.779C46.9476 114.505 47.9266 114.172 48.8841 113.765C49.8406 113.352 50.7501 112.838 51.6906 112.334C53.5631 111.326 55.4636 110.302 57.3861 109.267C61.3751 107.12 65.2661 105.026 69.0021 103.015L68.9486 103.198C66.9961 99.7214 65.1116 96.3659 63.3366 93.2054L63.4906 93.2609C56.6641 95.8979 50.4976 98.2799 45.3756 100.258L45.2621 100.302L45.2446 100.182C44.3776 94.3069 43.5641 89.5809 42.8991 86.3414C42.5701 84.7209 42.2701 83.4729 42.0221 82.6409C41.9606 82.4344 41.9056 82.2509 41.8581 82.0914C41.8001 81.9404 41.7506 81.8119 41.7101 81.7054C41.6311 81.4964 41.5961 81.3869 41.5961 81.3869Z" fill="black" fill-opacity="0.8"/>
<path d="M48.0787 93.3691H57.0627V90.3771H48.0787V93.3691Z" fill="white"/>
<path d="M49.9391 91.6919C49.9391 91.6199 51.1936 91.5619 52.7406 91.5619C54.2881 91.5619 55.5426 91.6204 55.5426 91.6919C55.5426 91.7634 54.2886 91.8219 52.7406 91.8219C51.1936 91.8224 49.9391 91.7639 49.9391 91.6919Z" fill="black" fill-opacity="0.8"/>
<g opacity="0.3">
<path d="M62.8465 90.5089L49.6245 79.7804L49.939 78.8429H48.786L46.8785 71.4104L49.628 76.8084L51.22 76.7319L50.0645 77.7924L62.8465 90.5089Z" fill="black"/>
</g>
<path d="M46.5116 78.2794L46.9936 78.0779C46.9831 78.0519 45.9061 75.4694 44.8456 72.7314C44.4251 71.6459 44.2736 70.7404 44.3951 70.0399C44.5001 69.4339 45.0356 69.0239 45.6611 69.0239L46.0121 68.8399L46.1926 68.5199C45.2676 68.3204 44.0286 69.0934 43.8801 69.9504C43.7421 70.7454 43.9026 71.7444 44.3576 72.9199C45.4216 75.6644 46.5011 78.2534 46.5116 78.2794Z" fill="black" fill-opacity="0.8"/>
<path d="M45.7346 84.3174L46.3991 84.0589C45.8541 82.6564 45.1091 80.1704 45.4301 79.4709C45.6241 79.0479 46.1846 78.6774 46.8586 78.5269C47.6531 78.3504 48.4131 78.5054 48.9441 78.9544C49.7051 79.5979 50.8546 81.8709 51.2336 82.6929L51.8811 82.3949C51.8226 82.2684 50.4421 79.2874 49.4046 78.4104C48.7021 77.8164 47.7176 77.6064 46.7036 77.8319C45.8061 78.0319 45.0701 78.5464 44.7821 79.1739C44.2431 80.3494 45.4806 83.6649 45.7346 84.3174Z" fill="black" fill-opacity="0.8"/>
<path d="M52.9126 95.1614C53.7351 95.1614 54.5416 94.7214 55.3166 93.8479L55.0501 93.6114C54.1971 94.5729 53.3211 94.9549 52.4466 94.7504C48.8916 93.9144 46.1861 84.0374 46.1591 83.9379L45.8151 84.0304C45.9271 84.4459 48.6051 94.2129 52.3651 95.0974C52.5481 95.1394 52.7306 95.1614 52.9126 95.1614Z" fill="black" fill-opacity="0.8"/>
<path d="M54.633 94.2564C54.783 94.4039 55.0181 94.4199 55.1871 94.2944L55.959 93.7209C56.196 93.5649 56.2606 93.2464 56.1031 93.0104C55.9241 92.7424 55.5445 92.7054 55.317 92.9334L54.6241 93.6559C54.4621 93.8249 54.466 94.0924 54.633 94.2564Z" fill="black" fill-opacity="0.8"/>
<path d="M51.403 95.4829C52.501 95.4829 53.315 95.1203 53.828 94.4013C56.014 91.3358 51.8935 82.8258 51.717 82.4648L51.397 82.6213C51.4395 82.7078 55.6015 91.3008 53.538 94.1943C53.0005 94.9478 52.055 95.2478 50.7285 95.0828L50.6845 95.4363C50.936 95.4678 51.1755 95.4829 51.403 95.4829Z" fill="black" fill-opacity="0.8"/>
<path d="M51.4675 95.2913C51.4525 95.5013 51.2865 95.6688 51.077 95.6863L50.1185 95.7658C49.838 95.8053 49.5785 95.6088 49.541 95.3278C49.498 95.0083 49.7585 94.7298 50.08 94.7503L51.0775 94.8348C51.3105 94.8548 51.4845 95.0583 51.4675 95.2913Z" fill="black" fill-opacity="0.8"/>
<path d="M68.579 84.8533C69.983 84.8533 71.121 83.7152 71.121 82.3113C71.121 80.9074 69.983 79.7693 68.579 79.7693C67.1751 79.7693 66.037 80.9074 66.037 82.3113C66.037 83.7152 67.1751 84.8533 68.579 84.8533Z" fill="black" fill-opacity="0.8"/>
<path d="M68.579 84.8533C69.983 84.8533 71.121 83.7152 71.121 82.3113C71.121 80.9074 69.983 79.7693 68.579 79.7693C67.1751 79.7693 66.037 80.9074 66.037 82.3113C66.037 83.7152 67.1751 84.8533 68.579 84.8533Z" fill="black" fill-opacity="0.8"/>
<path d="M66.701 82.3113C66.701 83.3483 67.5416 84.1888 68.5786 84.1888C69.6156 84.1888 70.4561 83.3483 70.4561 82.3113C70.4561 81.2743 69.6151 80.4338 68.5786 80.4338C67.5421 80.4333 66.701 81.2743 66.701 82.3113Z" fill="#F5F5F5"/>
<path d="M63.1901 71.2449C63.4266 71.5914 66.0826 77.1944 67.5351 80.0194L67.9586 79.8019C67.7446 79.3864 63.8851 71.4189 63.5836 70.9769L60.7736 68.6719L60.6746 69.2054L63.1901 71.2449Z" fill="black" fill-opacity="0.8"/>
<path d="M62.1225 82.2473C63.962 84.0823 68.6185 88.8613 68.6185 88.8613L69.8655 88.1098L63.3015 81.1053C63.0275 80.8128 62.5825 80.7608 62.2485 80.9828C61.8165 81.2693 61.755 81.8808 62.1225 82.2473Z" fill="black" fill-opacity="0.8"/>
<path d="M63.447 93.1427L65.012 88.7367C65.355 87.7702 66.242 87.0527 67.2675 87.0442C67.3475 87.0437 67.427 87.0472 67.505 87.0557C68.4415 87.1597 73.228 87.4717 73.228 87.4717L75.0805 89.5472C75.3975 89.9022 75.406 90.4362 75.101 90.8012L75.6325 94.5472L74.5805 95.2587L74.6845 97.8767C74.6845 97.8767 73.748 98.5012 73.332 98.2927C72.916 98.0847 72.916 98.0847 72.916 98.0847L72.2915 97.4602L70.5225 99.9572L68.0765 101.372L63.447 93.1427Z" fill="#FFBF9D"/>
<path d="M75.1066 91.0007C75.0671 91.0217 74.9021 90.6647 74.4366 90.2722C74.2081 90.0817 73.9001 89.8642 73.5431 89.7332C73.1826 89.6132 72.7216 89.6102 72.2486 89.5582C70.3546 89.3802 68.8251 89.1757 68.8321 89.1007C68.8391 89.0262 70.3801 89.1097 72.2741 89.2872C72.7436 89.3412 73.2031 89.3447 73.6261 89.4967C74.0386 89.6657 74.3341 89.9067 74.5661 90.1302C75.0281 90.5882 75.1366 90.9947 75.1066 91.0007Z" fill="#FF9A6C"/>
<path d="M75.004 94.4467C74.9545 94.4542 74.9345 94.0387 74.619 93.4882C74.3145 92.9407 73.6665 92.2927 72.7685 91.9377C71.866 91.5847 70.9625 91.5402 70.321 91.5267C69.675 91.5172 69.2705 91.5332 69.267 91.4922C69.264 91.4582 69.661 91.3747 70.3175 91.3347C70.968 91.2997 71.9085 91.3107 72.869 91.6852C73.832 92.0657 74.5085 92.7892 74.789 93.3987C75.081 94.0147 75.0285 94.4522 75.004 94.4467Z" fill="#FF9A6C"/>
<path d="M74.533 97.6598C74.494 97.6783 74.332 97.2813 74.283 96.6273C74.2475 96.3058 74.2145 95.9218 74.048 95.5548C73.8935 95.1763 73.537 94.9198 73.0655 94.8083C72.127 94.5573 71.2215 94.5433 70.5735 94.4493C69.9225 94.3703 69.53 94.2428 69.5395 94.2083C69.5485 94.1698 69.944 94.2283 70.591 94.2578C71.234 94.3033 72.148 94.2833 73.137 94.5463C73.3835 94.6138 73.632 94.7083 73.838 94.8678C74.0465 95.0263 74.189 95.2428 74.277 95.4543C74.453 95.8828 74.462 96.2913 74.4745 96.6143C74.475 97.2658 74.5635 97.6463 74.533 97.6598Z" fill="#FF9A6C"/>
<path d="M77.141 89.3878L56.5035 110.703L57.298 111.508L72.0835 109.843L91.9795 90.8898L91.9575 89.9773L77.141 89.3878Z" fill="black" fill-opacity="0.8"/>
<g opacity="0.3">
<path d="M81.0085 99.3308C80.065 98.4188 78.694 98.0133 77.386 98.1183C76.0775 98.2233 74.8355 98.8048 73.812 99.6268C72.9895 100.287 72.2735 101.146 72.0335 102.173C71.615 103.966 73.089 106.47 74.713 107.338C76.773 105.684 78.7765 103.147 80.8365 101.492C81.1445 101.245 81.472 100.966 81.552 100.58C81.648 100.115 81.3495 99.6603 81.0085 99.3308Z" fill="black"/>
</g>
<path d="M91.8985 90.8488C91.8985 90.8563 91.8055 90.8613 91.6265 90.8638C91.4255 90.8643 91.1645 90.8648 90.8385 90.8653C90.124 90.8573 89.126 90.8453 87.8805 90.8313C85.324 90.7823 81.7565 90.7138 77.5935 90.6338L77.6885 90.5948C76.0905 92.2518 74.342 94.0653 72.517 95.9573C68.3375 100.259 64.5555 104.152 61.7955 106.993C60.428 108.381 59.3155 109.512 58.524 110.315C58.147 110.69 57.8475 110.987 57.6245 111.209C57.4165 111.411 57.3045 111.515 57.2975 111.508C57.2905 111.502 57.39 111.386 57.585 111.171C57.799 110.941 58.0865 110.631 58.4475 110.242C59.2235 109.424 60.3155 108.273 61.657 106.859C64.402 104.004 68.164 100.092 72.321 95.7683C74.15 93.8803 75.9025 92.0708 77.5045 90.4173L77.5435 90.3768L77.599 90.3783C81.761 90.4978 85.3275 90.6003 87.8835 90.6738C89.1285 90.7193 90.1255 90.7553 90.8395 90.7813C91.165 90.7978 91.4255 90.8108 91.6265 90.8208C91.806 90.8323 91.8985 90.8418 91.8985 90.8488Z" fill="black" fill-opacity="0.8"/>
<path d="M78.9811 97.1013C78.9811 97.1013 80.9831 97.1398 81.6346 97.4653C82.2856 97.7913 84.0801 99.7023 84.0801 99.7023C84.0801 99.7023 84.0801 101.003 83.5596 101.055C83.5596 101.055 83.6116 101.211 83.6636 101.939C83.7156 102.668 83.8196 103.084 82.8311 103.708C82.8311 103.708 82.9351 104.905 82.5711 105.217C82.2071 105.529 81.7906 105.79 81.7906 105.79C81.7906 105.79 81.7341 107.107 79.9696 107.09L78.3161 107.819C78.3161 107.819 74.6361 107.473 75.0241 107.042C75.4121 106.61 76.2976 104.451 76.2976 104.451C76.2976 104.451 73.7786 102.616 73.8306 102.044C73.8826 101.471 74.0906 101.419 74.0906 101.419C74.0906 101.419 73.9866 100.327 74.8711 100.223C74.8711 100.223 75.5476 98.8703 76.2236 98.8183C76.9001 98.7663 81.4781 100.431 81.4781 100.431L79.7611 98.9748C79.7611 98.9748 78.0441 98.7148 78.0961 98.1423C78.1486 97.5693 78.9811 97.1013 78.9811 97.1013Z" fill="#FFBF9D"/>
<path d="M78.6771 103.955C78.6346 104.022 77.6346 103.443 76.3551 102.828C75.0771 102.208 74.0026 101.784 74.0281 101.71C74.0496 101.642 75.1776 101.955 76.4736 102.583C77.7701 103.207 78.7171 103.896 78.6771 103.955Z" fill="#FF9A6C"/>
<path d="M81.0596 102.362C81.0331 102.433 79.6966 101.999 78.0741 101.394C76.4511 100.789 75.1571 100.241 75.1831 100.171C75.2091 100.1 76.5461 100.534 78.1691 101.139C79.7916 101.744 81.0856 102.292 81.0596 102.362Z" fill="#FF9A6C"/>
<path d="M48.49 56.2883C47.876 54.0063 47.272 51.7078 47.06 49.3543C46.848 47.0008 47.0445 44.5688 47.9805 42.3988C48.1225 42.0698 49.301 39.8748 49.655 39.9283C49.9085 39.9663 49.1455 42.0318 49.263 42.2593C50.3825 44.4313 50.5855 46.9848 50.264 49.4073C49.9425 51.8293 49.324 53.9913 48.49 56.2883Z" fill="black" fill-opacity="0.8"/>
<path d="M48.7216 47.2719C48.8341 41.3464 52.3766 36.4729 58.2966 36.7494L58.8421 36.8069C64.3326 37.3859 68.4606 42.0824 68.3251 47.6019C68.1991 52.7374 67.9936 58.4099 67.6721 61.1384C67.0061 66.7864 61.2571 67.0699 61.2571 67.0699C61.2446 67.0694 59.9506 75.7814 59.9506 75.7814L47.8741 67.3949L48.7216 47.2719Z" fill="#FFBF9D"/>
<path d="M61.2571 67.1133C61.2571 67.1133 57.67 66.9468 54.123 64.1603C54.123 64.1603 55.253 68.9963 60.9495 69.0818L61.2571 67.1133Z" fill="#FF9A6C"/>
<path d="M66.1691 52.3323C66.1391 52.7603 65.7521 53.0883 65.3046 53.0653C64.8576 53.0423 64.5191 52.6773 64.5491 52.2493C64.5791 51.8213 64.9661 51.4928 65.4131 51.5158C65.8601 51.5388 66.1986 51.9043 66.1691 52.3323Z" fill="black" fill-opacity="0.8"/>
<path d="M66.8691 49.8219C66.7581 49.9164 66.1936 49.3994 65.3246 49.3099C64.4576 49.2084 63.7726 49.5879 63.6896 49.4719C63.6481 49.4199 63.7706 49.2404 64.0691 49.0674C64.3636 48.8949 64.8506 48.7484 65.3916 48.8074C65.9326 48.8674 66.3671 49.1149 66.6071 49.3464C66.8531 49.5799 66.9236 49.7799 66.8691 49.8219Z" fill="black" fill-opacity="0.8"/>
<path d="M58.7351 51.9849C58.7051 52.4129 58.3181 52.7404 57.8706 52.7174C57.4241 52.6944 57.0851 52.3299 57.1151 51.9014C57.1451 51.4734 57.5321 51.1454 57.9791 51.1684C58.4266 51.1914 58.7651 51.5574 58.7351 51.9849Z" fill="black" fill-opacity="0.8"/>
<path d="M58.3191 49.2763C58.2076 49.3708 57.6426 48.8538 56.7741 48.7643C55.9071 48.6628 55.2221 49.0423 55.1391 48.9258C55.0981 48.8738 55.2191 48.6943 55.5191 48.5218C55.8136 48.3488 56.3006 48.2023 56.8416 48.2618C57.3826 48.3218 57.8171 48.5693 58.0576 48.8008C58.3021 49.0343 58.3731 49.2343 58.3191 49.2763Z" fill="black" fill-opacity="0.8"/>
<path d="M60.7325 56.2834C60.7335 56.2334 61.284 56.1969 62.171 56.1774C62.3955 56.1779 62.61 56.1559 62.6635 56.0084C62.7325 55.8539 62.665 55.6044 62.5845 55.3349C62.4325 54.7759 62.2735 54.1899 62.1065 53.5759C61.4485 51.0739 60.9975 49.0259 61.098 49.0004C61.199 48.9749 61.8145 50.9819 62.472 53.4844C62.629 54.1009 62.7791 54.6884 62.9216 55.2509C62.979 55.5119 63.093 55.8134 62.945 56.1339C62.868 56.2934 62.692 56.3964 62.546 56.4199C62.399 56.4484 62.274 56.4374 62.1635 56.4324C61.2775 56.3864 60.731 56.3329 60.7325 56.2834Z" fill="black" fill-opacity="0.8"/>
<path d="M58.1115 56.6144C58.254 56.6214 58.156 57.5648 58.893 58.3193C59.628 59.0758 60.645 59.0759 60.6385 59.2089C60.6455 59.2694 60.395 59.3684 59.9695 59.3354C59.5515 59.3059 58.9575 59.1079 58.507 58.6464C58.058 58.1839 57.9035 57.6133 57.9125 57.2233C57.9175 56.8248 58.0475 56.6024 58.1115 56.6144Z" fill="black" fill-opacity="0.8"/>
<path d="M58.6431 45.7443C58.5326 45.9718 57.6766 45.7683 56.6441 45.7833C55.6111 45.7778 54.7576 45.9898 54.6446 45.7638C54.5951 45.6563 54.7621 45.4488 55.1186 45.2553C55.4721 45.0618 56.0206 44.8998 56.6401 44.8963C57.2591 44.8938 57.8096 45.0503 58.1651 45.2403C58.5226 45.4308 58.6916 45.6363 58.6431 45.7443Z" fill="black" fill-opacity="0.8"/>
<path d="M66.8146 46.8953C66.6411 47.0768 66.0636 46.8083 65.3451 46.7228C64.6291 46.6123 64.0016 46.7153 63.8831 46.4938C63.8321 46.3873 63.9491 46.1998 64.2351 46.0408C64.5171 45.8823 64.9726 45.7763 65.4656 45.8433C65.9586 45.9113 66.3681 46.1353 66.5976 46.3638C66.8301 46.5938 66.8921 46.8058 66.8146 46.8953Z" fill="black" fill-opacity="0.8"/>
<path d="M48.7421 51.5083C48.6501 51.4563 44.9771 49.9493 44.6931 53.8288C44.4091 57.7083 48.3626 57.1933 48.3776 57.0823C48.3921 56.9718 48.7421 51.5083 48.7421 51.5083Z" fill="#FFBF9D"/>
<path d="M47.3001 55.5263C47.2841 55.5128 47.2291 55.5688 47.1111 55.6128C46.9961 55.6558 46.8016 55.6768 46.6051 55.5863C46.2061 55.4058 45.9086 54.7298 45.9411 54.0293C45.9571 53.6758 46.0556 53.3448 46.2011 53.0758C46.3406 52.8008 46.5386 52.6158 46.7476 52.5943C46.9566 52.5618 47.0936 52.6963 47.1331 52.8088C47.1771 52.9213 47.1466 52.9968 47.1671 53.0048C47.1771 53.0153 47.2551 52.9458 47.2356 52.7833C47.2251 52.7048 47.1861 52.6103 47.1006 52.5288C47.0131 52.4463 46.8791 52.3978 46.7341 52.4028C46.4336 52.4013 46.1441 52.6568 45.9841 52.9523C45.8076 53.2483 45.6886 53.6193 45.6706 54.0168C45.6381 54.8003 45.9851 55.5613 46.5341 55.7643C46.8016 55.8558 47.0356 55.7898 47.1596 55.7068C47.2861 55.6193 47.3131 55.5343 47.3001 55.5263Z" fill="#FF9A6C"/>
<path d="M66.2276 41.0098C66.8781 40.7038 65.1236 38.5478 63.6251 37.7478C61.3601 36.5388 57.8386 35.6578 55.6481 36.1293C53.0106 36.6968 50.7756 37.8473 49.3236 40.1213C47.8711 42.3953 47.2056 45.1103 47.1081 47.8068C47.0781 48.6298 47.1081 49.4908 47.5021 50.2138C47.9891 51.1068 48.9946 51.7143 48.8726 52.8953C48.8281 53.3268 48.9236 53.7718 49.1996 54.1063C49.8611 54.9078 50.7756 54.2538 51.2211 53.5673C52.1721 52.1018 52.3841 50.2928 52.5711 48.5558C52.7041 47.3213 52.8356 46.0598 52.5631 44.8483C52.4151 44.1893 52.1491 43.5583 52.0376 42.8918C51.9261 42.2253 51.9941 41.4813 52.4371 40.9718C52.5091 40.8888 52.6261 40.7858 52.7731 40.6733C53.9341 39.7803 55.4921 39.5913 56.8386 40.1673C58.9746 41.0813 62.6336 42.4768 63.6561 41.7973C65.1276 40.8203 65.5076 40.1458 65.5076 40.1458L66.2276 41.0098Z" fill="black" fill-opacity="0.8"/>
</svg>
