<svg width="227" height="240" viewBox="0 0 227 240" fill="none" xmlns="http://www.w3.org/2000/svg">
<path d="M46.9964 46.1682C46.9964 46.1682 57.4574 44.1648 57.071 24.4752C56.6846 4.7856 83.255 4.023 129.641 2.5914C176.028 1.1592 208.369 5.45521 218.677 33.3792C228.985 61.3026 215.069 79.4412 185.176 84.6918C155.283 89.9424 172.273 105.959 189.557 108.2C213.424 111.295 224.41 134.111 211.267 150.937C198.124 167.763 182.496 170.584 178.645 190.637C173.792 215.906 133.606 243.495 77.8598 239.21C15.806 234.439 -8.01581 194.332 3.23779 154.022C9.50359 131.578 34.5488 121.445 53.4896 116.433C72.4304 111.421 63.5402 89.5836 31.0694 94.9536C-1.40141 100.324 -6.05321 66.735 11.396 57.402C26.8538 49.1334 33.0806 51.8958 46.9964 46.1682Z" fill="#FFE3D6"/>
<path d="M39.284 39.8887C43.5434 39.8887 46.9964 36.4357 46.9964 32.1763C46.9964 27.9168 43.5434 24.4639 39.284 24.4639C35.0246 24.4639 31.5716 27.9168 31.5716 32.1763C31.5716 36.4357 35.0246 39.8887 39.284 39.8887Z" fill="#FFE3D6"/>
<path d="M48.647 22.6236C51.4511 22.6236 53.7242 20.3505 53.7242 17.5464C53.7242 14.7424 51.4511 12.4692 48.647 12.4692C45.843 12.4692 43.5698 14.7424 43.5698 17.5464C43.5698 20.3505 45.843 22.6236 48.647 22.6236Z" fill="#FFE3D6"/>
<path d="M21.9332 45.1368C24.1295 45.1368 25.91 43.3564 25.91 41.16C25.91 38.9637 24.1295 37.1832 21.9332 37.1832C19.7369 37.1832 17.9564 38.9637 17.9564 41.16C17.9564 43.3564 19.7369 45.1368 21.9332 45.1368Z" fill="#FFE3D6"/>
<path d="M29.8196 22.3968C32.8722 22.3968 35.3468 19.9222 35.3468 16.8696C35.3468 13.817 32.8722 11.3424 29.8196 11.3424C26.767 11.3424 24.2924 13.817 24.2924 16.8696C24.2924 19.9222 26.767 22.3968 29.8196 22.3968Z" fill="#FFE3D6"/>
<path d="M62.9636 6.52143C64.6682 6.52143 66.05 5.1396 66.05 3.43503C66.05 1.73046 64.6682 0.348633 62.9636 0.348633C61.2591 0.348633 59.8772 1.73046 59.8772 3.43503C59.8772 5.1396 61.2591 6.52143 62.9636 6.52143Z" fill="#FFE3D6"/>
<path d="M196.836 147.34L196.419 146.999C196.532 146.86 207.765 132.963 211.32 113.021C214.598 94.6339 211.828 67.1863 180.012 40.8505L180.355 40.4353C194.49 52.1353 204.154 65.0359 209.079 78.7789C213.022 89.7811 213.953 101.341 211.846 113.138C208.261 133.212 196.949 147.202 196.836 147.34Z" fill="white"/>
<path d="M184.533 44.4073C184.533 44.4073 174.399 42.4105 171.029 36.2095C167.659 30.0085 176.872 30.9019 184.533 44.4073Z" fill="#01BCA7"/>
<path d="M192.798 52.7022C192.798 52.7022 194.35 38.9052 190.576 34.7262C186.801 30.5472 182.895 39.3732 192.798 52.7022Z" fill="#01BCA7"/>
<path d="M191.587 51.2839C191.587 51.2839 179.311 44.7991 174.042 46.7869C168.773 48.7741 175.561 55.6345 191.587 51.2839Z" fill="#01BCA7"/>
<path d="M197.788 59.0089C197.788 59.0089 185.512 52.5241 180.243 54.5119C174.975 56.4997 181.763 63.3595 197.788 59.0089Z" fill="#01BCA7"/>
<path d="M203.765 67.5318C203.765 67.5318 191.488 61.047 186.22 63.0348C180.951 65.0226 187.74 71.8824 203.765 67.5318Z" fill="#01BCA7"/>
<path d="M208.71 78.1213C208.71 78.1213 196.992 70.6747 191.581 72.2335C186.169 73.7923 192.387 81.1747 208.71 78.1213Z" fill="#01BCA7"/>
<path d="M212.077 91.035C212.077 91.035 202.203 81.2742 196.585 81.651C190.966 82.0278 195.478 90.5598 212.077 91.035Z" fill="#01BCA7"/>
<path d="M212.674 105.589C212.674 105.589 206.443 93.1818 201 91.7406C195.556 90.2994 197.1 99.8268 212.674 105.589Z" fill="#01BCA7"/>
<path d="M209.597 121.248C209.597 121.248 207.867 107.472 203.217 104.296C198.567 101.12 196.841 110.615 209.597 121.248Z" fill="#01BCA7"/>
<path d="M203.793 135.629C203.793 135.629 205.278 121.825 201.483 117.664C197.688 113.503 193.824 122.348 203.793 135.629Z" fill="#01BCA7"/>
<path d="M199.72 61.4335C199.72 61.4335 205 50.7133 202.843 43.1917C200.686 35.6701 196.777 42.0061 197.047 46.4545C197.316 50.9035 199.72 61.4335 199.72 61.4335Z" fill="#01BCA7"/>
<path d="M204.389 68.9502C204.389 68.9502 211.298 59.1996 210.357 51.432C209.417 43.6638 204.555 49.302 204.118 53.7372C203.68 58.1724 204.389 68.9502 204.389 68.9502Z" fill="#01BCA7"/>
<path d="M208.27 77.2297C208.27 77.2297 217.251 69.3463 218.137 61.5721C219.022 53.7979 212.986 58.1551 211.533 62.3683C210.079 66.5809 208.27 77.2297 208.27 77.2297Z" fill="#01BCA7"/>
<path d="M211.371 87.2047C211.371 87.2047 220.352 79.3213 221.238 71.5471C222.123 63.7729 216.087 68.1301 214.633 72.3433C213.18 76.5559 211.371 87.2047 211.371 87.2047Z" fill="#01BCA7"/>
<path d="M212.674 99.7957C212.674 99.7957 222.596 93.1357 224.476 85.5403C226.357 77.9449 219.809 81.4879 217.825 85.4785C215.841 89.4691 212.674 99.7957 212.674 99.7957Z" fill="#01BCA7"/>
<path d="M211.038 115.308C211.038 115.308 222.043 110.653 225.331 103.552C228.619 96.4518 221.518 98.6874 218.812 102.229C216.107 105.77 211.038 115.308 211.038 115.308Z" fill="#01BCA7"/>
<path d="M206.973 128.475C206.973 128.475 218.689 126.125 223.337 119.831C227.985 113.536 220.579 114.299 217.217 117.225C213.855 120.151 206.973 128.475 206.973 128.475Z" fill="#01BCA7"/>
<path d="M169.808 173.354C169.808 173.354 181.311 152.684 190.658 153.403C200.004 154.122 201.083 141.72 206.835 139.204C212.586 136.687 220.135 139.743 214.204 149.449C208.272 159.155 208.632 160.053 213.664 166.344C218.697 172.635 206.295 183.06 199.824 187.014C193.354 190.968 207.373 188.906 203.059 196.048C198.745 203.191 178.761 205.707 164.219 202.471C149.677 199.236 157.765 171.789 162.978 168.437C168.19 165.086 165.135 173.894 169.808 173.354Z" fill="#C08B89"/>
<path d="M159.863 200.836C159.681 200.836 159.504 200.744 159.402 200.577C159.247 200.323 159.327 199.991 159.582 199.836C159.846 199.675 186.318 183.22 209.692 142.847C209.841 142.589 210.172 142.5 210.429 142.651C210.687 142.799 210.775 143.13 210.625 143.387C187.103 184.017 160.41 200.594 160.143 200.757C160.056 200.81 159.959 200.836 159.863 200.836Z" fill="white"/>
<path d="M202.794 154.859L202.252 145.664C202.234 145.367 202.461 145.112 202.758 145.094C203.053 145.079 203.311 145.304 203.328 145.601L203.797 153.556L210.052 152.293C210.348 152.234 210.629 152.423 210.688 152.715C210.747 153.007 210.558 153.292 210.266 153.35L202.794 154.859Z" fill="white"/>
<path d="M211.329 170.797C211.312 170.797 211.295 170.796 211.278 170.794L192.448 169.044L190.573 155.774C190.532 155.479 190.737 155.206 191.032 155.165C191.328 155.121 191.599 155.329 191.641 155.623L193.397 168.049L211.378 169.72C211.674 169.748 211.892 170.011 211.865 170.308C211.839 170.587 211.604 170.797 211.329 170.797Z" fill="white"/>
<path d="M200.184 184.996C200.176 184.996 200.168 184.996 200.16 184.996L179.184 184.07L177.987 165.439C177.967 165.142 178.193 164.885 178.49 164.866C178.798 164.854 179.043 165.073 179.063 165.37L180.198 183.035L200.207 183.919C200.505 183.932 200.735 184.183 200.722 184.481C200.71 184.771 200.472 184.996 200.184 184.996Z" fill="white"/>
<path d="M196.68 196.769C196.672 196.769 196.665 196.769 196.657 196.768L166.587 195.556L163.791 173.651C163.754 173.356 163.962 173.085 164.258 173.047C164.554 173.013 164.824 173.219 164.862 173.514L167.541 194.515L196.701 195.691C196.999 195.703 197.23 195.954 197.218 196.252C197.206 196.542 196.967 196.769 196.68 196.769Z" fill="white"/>
<path d="M166.458 148.293C166.458 148.293 169.086 124.784 177.984 121.837C186.883 118.891 183.088 107.034 187.422 102.492C191.755 97.9495 199.899 97.8522 198.176 109.096C196.453 120.34 197.132 121.03 204.204 124.889C211.276 128.748 203.863 143.154 199.422 149.3C194.98 155.447 207.116 148.13 205.895 156.384C204.675 164.638 187.213 174.677 172.549 177.31C157.886 179.942 154.746 151.502 158.259 146.396C161.773 141.292 162.356 150.596 166.458 148.293Z" fill="#01BCA7"/>
<path d="M180.663 120.424C179.926 121.003 179.049 121.486 177.985 121.838C169.086 124.784 166.459 148.294 166.459 148.294C162.357 150.596 161.773 141.292 158.26 146.397C154.746 151.502 157.887 179.943 172.55 177.311C173.337 177.169 174.134 177.002 174.935 176.82C181.748 158.902 183.657 139.565 180.663 120.424Z" fill="#01BCA7"/>
<path d="M167.899 177.482C167.732 177.553 167.533 177.536 167.374 177.422C167.133 177.247 167.079 176.91 167.254 176.669C167.435 176.417 185.498 151.016 191.466 104.747C191.503 104.452 191.773 104.242 192.069 104.282C192.365 104.32 192.573 104.59 192.535 104.885C186.53 151.447 168.31 177.048 168.127 177.301C168.067 177.385 167.988 177.445 167.899 177.482Z" fill="white"/>
<path d="M189.741 118.493L185.691 110.221C185.559 109.954 185.67 109.631 185.938 109.5C186.204 109.373 186.528 109.48 186.659 109.747L190.164 116.903L195.447 113.323C195.696 113.154 196.029 113.221 196.196 113.467C196.363 113.713 196.299 114.049 196.053 114.216L189.741 118.493Z" fill="white"/>
<path d="M203.769 129.897C203.754 129.904 203.738 129.91 203.722 129.914L185.677 135.572L178.822 124.056C178.67 123.8 178.754 123.469 179.01 123.317C179.266 123.162 179.597 123.248 179.749 123.505L186.168 134.287L203.4 128.885C203.684 128.796 203.986 128.954 204.076 129.238C204.159 129.507 204.023 129.791 203.769 129.897Z" fill="white"/>
<path d="M198.974 147.299C198.967 147.302 198.959 147.305 198.951 147.308L179.245 154.556L170.946 137.833C170.813 137.566 170.922 137.243 171.189 137.11C171.468 136.98 171.779 137.087 171.912 137.353L179.781 153.21L198.579 146.296C198.859 146.194 199.168 146.336 199.272 146.616C199.372 146.888 199.239 147.188 198.974 147.299Z" fill="white"/>
<path d="M200.288 159.512C200.281 159.515 200.274 159.518 200.268 159.52L172.062 170.016L161.023 150.891C160.874 150.633 160.962 150.303 161.22 150.154C161.48 150.008 161.809 150.094 161.957 150.352L172.54 168.688L199.891 158.51C200.17 158.407 200.481 158.548 200.585 158.827C200.686 159.099 200.553 159.401 200.288 159.512Z" fill="white"/>
<path d="M164.152 210.965H77.1944C71.0396 210.965 66.0506 205.976 66.0506 199.821V15.3145C66.0506 9.15966 71.0396 4.17065 77.1944 4.17065H164.152C170.307 4.17065 175.296 9.15966 175.296 15.3145V199.822C175.296 205.976 170.307 210.965 164.152 210.965Z" fill="black" fill-opacity="0.8"/>
<path d="M163.682 207.097H77.6642C72.9806 207.097 69.1832 203.3 69.1832 198.616V15.8863C69.1832 11.2027 72.98 7.40527 77.6642 7.40527H163.682C168.366 7.40527 172.163 11.2021 172.163 15.8863V198.616C172.162 203.3 168.366 207.097 163.682 207.097Z" fill="#C08B89"/>
<path d="M127.953 202.499H110.023C107.947 202.499 106.249 200.801 106.249 198.725C106.249 196.649 107.947 194.95 110.023 194.95H127.953C130.029 194.95 131.727 196.649 131.727 198.725C131.727 200.801 130.029 202.499 127.953 202.499Z" fill="black" fill-opacity="0.8"/>
<path d="M80.498 17.0106C82.0631 17.0106 83.3318 15.7419 83.3318 14.1768C83.3318 12.6118 82.0631 11.343 80.498 11.343C78.9329 11.343 77.6642 12.6118 77.6642 14.1768C77.6642 15.7419 78.9329 17.0106 80.498 17.0106Z" fill="black" fill-opacity="0.8"/>
<path d="M88.0922 15.8844C89.0353 15.8844 89.7998 15.1199 89.7998 14.1768C89.7998 13.2338 89.0353 12.4692 88.0922 12.4692C87.1491 12.4692 86.3846 13.2338 86.3846 14.1768C86.3846 15.1199 87.1491 15.8844 88.0922 15.8844Z" fill="black" fill-opacity="0.8"/>
<path d="M167.585 21.7261H73.0418V190.636H167.585V21.7261Z" fill="white"/>
<path d="M157.846 65H83.1539C80.8598 65 78.9998 61.6836 78.9998 57.5933V34.4067C78.9998 30.3164 80.8598 27 83.1539 27H157.846C160.14 27 162 30.3164 162 34.4067V57.5933C162 61.6836 160.14 65 157.846 65Z" fill="#FFE3D6"/>
<path d="M88.0562 34.2765H89.317L92.2816 41.5177H92.3838L95.3485 34.2765H96.6093V43H95.6211V36.3722H95.5359L92.8098 43H91.8557L89.1296 36.3722H89.0444V43H88.0562V34.2765ZM101.249 43.1363C100.658 43.1363 100.14 42.9957 99.6942 42.7146C99.2513 42.4335 98.9048 42.0402 98.6549 41.5347C98.4079 41.0293 98.2843 40.4386 98.2843 39.7628C98.2843 39.0812 98.4079 38.4863 98.6549 37.978C98.9048 37.4697 99.2513 37.075 99.6942 36.7939C100.14 36.5128 100.658 36.3722 101.249 36.3722C101.84 36.3722 102.356 36.5128 102.799 36.7939C103.245 37.075 103.592 37.4697 103.839 37.978C104.089 38.4863 104.214 39.0812 104.214 39.7628C104.214 40.4386 104.089 41.0293 103.839 41.5347C103.592 42.0402 103.245 42.4335 102.799 42.7146C102.356 42.9957 101.84 43.1363 101.249 43.1363ZM101.249 42.2333C101.698 42.2333 102.067 42.1183 102.356 41.8883C102.646 41.6583 102.86 41.3558 103 40.981C103.139 40.6062 103.208 40.2001 103.208 39.7628C103.208 39.3255 103.139 38.918 103 38.5403C102.86 38.1626 102.646 37.8573 102.356 37.6245C102.067 37.3916 101.698 37.2752 101.249 37.2752C100.8 37.2752 100.431 37.3916 100.141 37.6245C99.8518 37.8573 99.6374 38.1626 99.4983 38.5403C99.3592 38.918 99.2896 39.3255 99.2896 39.7628C99.2896 40.2001 99.3592 40.6062 99.4983 40.981C99.6374 41.3558 99.8518 41.6583 100.141 41.8883C100.431 42.1183 100.8 42.2333 101.249 42.2333ZM106.753 39.0642V43H105.748V36.4574H106.719V37.4797H106.804C106.958 37.1474 107.191 36.8805 107.503 36.6789C107.815 36.4744 108.219 36.3722 108.713 36.3722C109.156 36.3722 109.543 36.4631 109.876 36.6448C110.208 36.8237 110.466 37.0963 110.651 37.4626C110.835 37.8261 110.928 38.2861 110.928 38.8427V43H109.922V38.9109C109.922 38.3969 109.789 37.9965 109.522 37.7097C109.255 37.42 108.889 37.2752 108.423 37.2752C108.102 37.2752 107.815 37.3448 107.563 37.4839C107.313 37.6231 107.115 37.8261 106.971 38.093C106.826 38.36 106.753 38.6837 106.753 39.0642ZM115.235 43.1363C114.69 43.1363 114.209 42.9986 113.791 42.7231C113.374 42.4448 113.047 42.053 112.811 41.5475C112.576 41.0392 112.458 40.4386 112.458 39.7457C112.458 39.0585 112.576 38.4622 112.811 37.9567C113.047 37.4513 113.375 37.0608 113.795 36.7854C114.216 36.5099 114.701 36.3722 115.252 36.3722C115.678 36.3722 116.015 36.4432 116.262 36.5852C116.512 36.7243 116.702 36.8833 116.832 37.0622C116.966 37.2383 117.07 37.3831 117.143 37.4967H117.229V34.2765H118.234V43H117.263V41.9948H117.143C117.07 42.114 116.964 42.2645 116.828 42.4463C116.692 42.6252 116.497 42.7856 116.245 42.9276C115.992 43.0667 115.655 43.1363 115.235 43.1363ZM115.371 42.2333C115.775 42.2333 116.115 42.1282 116.394 41.9181C116.672 41.7051 116.884 41.4112 117.028 41.0364C117.173 40.6587 117.246 40.2228 117.246 39.7287C117.246 39.2403 117.175 38.8129 117.033 38.4466C116.891 38.0774 116.68 37.7906 116.402 37.5862C116.124 37.3789 115.78 37.2752 115.371 37.2752C114.945 37.2752 114.59 37.3845 114.307 37.6032C114.025 37.819 113.814 38.1129 113.672 38.4849C113.533 38.8541 113.463 39.2687 113.463 39.7287C113.463 40.1944 113.534 40.6175 113.676 40.998C113.821 41.3757 114.034 41.6767 114.315 41.901C114.599 42.1225 114.951 42.2333 115.371 42.2333ZM122.14 43.1533C121.725 43.1533 121.349 43.0753 121.011 42.9191C120.673 42.76 120.405 42.5315 120.206 42.2333C120.007 41.9323 119.908 41.5688 119.908 41.1429C119.908 40.768 119.982 40.4642 120.129 40.2313C120.277 39.9956 120.474 39.811 120.721 39.6776C120.968 39.5441 121.241 39.4447 121.539 39.3794C121.84 39.3113 122.143 39.2573 122.446 39.2175C122.844 39.1664 123.166 39.1281 123.413 39.1025C123.663 39.0741 123.845 39.0273 123.959 38.962C124.075 38.8967 124.133 38.7831 124.133 38.6212V38.5871C124.133 38.1669 124.018 37.8403 123.788 37.6075C123.561 37.3746 123.216 37.2582 122.753 37.2582C122.273 37.2582 121.897 37.3632 121.624 37.5734C121.352 37.7835 121.16 38.0078 121.049 38.2464L120.095 37.9056C120.266 37.5081 120.493 37.1985 120.777 36.977C121.064 36.7527 121.376 36.5965 121.714 36.5085C122.055 36.4176 122.39 36.3722 122.719 36.3722C122.929 36.3722 123.171 36.3977 123.443 36.4489C123.719 36.4971 123.984 36.5979 124.24 36.7513C124.498 36.9046 124.713 37.1361 124.883 37.4456C125.053 37.7551 125.138 38.1697 125.138 38.6894V43H124.133V42.114H124.082C124.014 42.256 123.9 42.4079 123.741 42.5698C123.582 42.7317 123.371 42.8694 123.107 42.983C122.843 43.0965 122.52 43.1533 122.14 43.1533ZM122.293 42.2503C122.691 42.2503 123.026 42.1722 123.298 42.0161C123.574 41.8599 123.781 41.6583 123.92 41.4112C124.062 41.1641 124.133 40.9043 124.133 40.6317V39.7117C124.091 39.7628 123.997 39.8096 123.852 39.8522C123.71 39.892 123.545 39.9275 123.358 39.9587C123.173 39.9871 122.993 40.0127 122.817 40.0354C122.644 40.0553 122.503 40.0723 122.395 40.0865C122.134 40.1206 121.89 40.1759 121.663 40.2526C121.438 40.3264 121.257 40.4386 121.117 40.5891C120.981 40.7368 120.913 40.9384 120.913 41.194C120.913 41.5432 121.042 41.8073 121.301 41.9862C121.562 42.1623 121.893 42.2503 122.293 42.2503ZM127.386 45.4535C127.216 45.4535 127.064 45.4393 126.931 45.4109C126.797 45.3853 126.705 45.3598 126.654 45.3342L126.909 44.4482C127.154 44.5107 127.369 44.5334 127.557 44.5164C127.744 44.4993 127.91 44.4156 128.055 44.2651C128.203 44.1174 128.338 43.8775 128.46 43.5452L128.647 43.0341L126.228 36.4574H127.318L129.124 41.671H129.192L130.998 36.4574H132.089L129.312 43.9541C129.187 44.2921 129.032 44.5718 128.847 44.7933C128.663 45.0176 128.448 45.1837 128.204 45.2916C127.963 45.3995 127.69 45.4535 127.386 45.4535ZM90.9697 49.2765V58H89.9133V50.384H89.8622L87.7325 51.7981V50.7247L89.9133 49.2765H90.9697ZM96.5454 49.2765V58H95.489V50.384H95.4379L93.3082 51.7981V50.7247L95.489 49.2765H96.5454ZM99.2885 58.0682C99.0784 58.0682 98.8981 57.9929 98.7476 57.8424C98.5971 57.6919 98.5218 57.5116 98.5218 57.3014C98.5218 57.0913 98.5971 56.911 98.7476 56.7605C98.8981 56.61 99.0784 56.5347 99.2885 56.5347C99.4987 56.5347 99.679 56.61 99.8295 56.7605C99.98 56.911 100.055 57.0913 100.055 57.3014C100.055 57.4406 100.02 57.5684 99.9487 57.6848C99.8806 57.8012 99.7883 57.8949 99.6719 57.9659C99.5583 58.0341 99.4305 58.0682 99.2885 58.0682ZM104.383 58.1193C103.741 58.1193 103.194 57.9446 102.743 57.5953C102.291 57.2432 101.946 56.7335 101.708 56.0662C101.469 55.396 101.35 54.5867 101.35 53.6383C101.35 52.6955 101.469 51.8904 101.708 51.2231C101.949 50.5529 102.296 50.0418 102.747 49.6897C103.202 49.3347 103.747 49.1572 104.383 49.1572C105.019 49.1572 105.563 49.3347 106.014 49.6897C106.469 50.0418 106.815 50.5529 107.054 51.2231C107.295 51.8904 107.416 52.6955 107.416 53.6383C107.416 54.5867 107.296 55.396 107.058 56.0662C106.819 56.7335 106.474 57.2432 106.023 57.5953C105.571 57.9446 105.025 58.1193 104.383 58.1193ZM104.383 57.1822C105.019 57.1822 105.513 56.8755 105.865 56.2621C106.217 55.6487 106.393 54.7741 106.393 53.6383C106.393 52.8829 106.312 52.2397 106.151 51.7087C105.992 51.1777 105.762 50.773 105.461 50.4947C105.162 50.2164 104.803 50.0773 104.383 50.0773C103.752 50.0773 103.26 50.3882 102.905 51.0101C102.55 51.6292 102.372 52.5052 102.372 53.6383C102.372 54.3936 102.452 55.0354 102.611 55.5636C102.77 56.0917 102.999 56.4936 103.297 56.769C103.598 57.0444 103.96 57.1822 104.383 57.1822ZM111.88 58.1193C111.238 58.1193 110.691 57.9446 110.24 57.5953C109.788 57.2432 109.443 56.7335 109.205 56.0662C108.966 55.396 108.847 54.5867 108.847 53.6383C108.847 52.6955 108.966 51.8904 109.205 51.2231C109.446 50.5529 109.792 50.0418 110.244 49.6897C110.698 49.3347 111.244 49.1572 111.88 49.1572C112.516 49.1572 113.06 49.3347 113.511 49.6897C113.965 50.0418 114.312 50.5529 114.55 51.2231C114.792 51.8904 114.912 52.6955 114.912 53.6383C114.912 54.5867 114.793 55.396 114.555 56.0662C114.316 56.7335 113.971 57.2432 113.52 57.5953C113.068 57.9446 112.521 58.1193 111.88 58.1193ZM111.88 57.1822C112.516 57.1822 113.01 56.8755 113.362 56.2621C113.714 55.6487 113.89 54.7741 113.89 53.6383C113.89 52.8829 113.809 52.2397 113.647 51.7087C113.488 51.1777 113.258 50.773 112.957 50.4947C112.659 50.2164 112.3 50.0773 111.88 50.0773C111.249 50.0773 110.757 50.3882 110.402 51.0101C110.047 51.6292 109.869 52.5052 109.869 53.6383C109.869 54.3936 109.949 55.0354 110.108 55.5636C110.267 56.0917 110.495 56.4936 110.793 56.769C111.094 57.0444 111.457 57.1822 111.88 57.1822ZM120.416 58H119.308L122.511 49.2765H123.602L126.805 58H125.698L123.091 50.6566H123.023L120.416 58ZM120.825 54.5924H125.289V55.5295H120.825V54.5924ZM128.164 49.2765H129.425L132.389 56.5177H132.491L135.456 49.2765H136.717V58H135.729V51.3722H135.644L132.917 58H131.963L129.237 51.3722H129.152V58H128.164V49.2765Z" fill="black" fill-opacity="0.8"/>
<path d="M95.975 75.7537H79.0562V92.6725H95.975V75.7537Z" fill="#F5F5F5"/>
<path d="M117.868 75.7537H100.949V92.6725H117.868V75.7537Z" fill="#F5F5F5"/>
<path d="M139.761 75.7537H122.842V92.6725H139.761V75.7537Z" fill="#F5F5F5"/>
<path d="M161.654 75.7537H144.735V92.6725H161.654V75.7537Z" fill="#F5F5F5"/>
<path d="M95.975 97.389H79.0562V114.308H95.975V97.389Z" fill="#F5F5F5"/>
<path d="M117.868 97.389H100.949V114.308H117.868V97.389Z" fill="#F5F5F5"/>
<path d="M139.761 97.389H122.842V114.308H139.761V97.389Z" fill="#C08B89"/>
<path d="M161.654 97.389H144.735V114.308H161.654V97.389Z" fill="#F5F5F5"/>
<path d="M95.975 119.024H79.0562V135.943H95.975V119.024Z" fill="#F5F5F5"/>
<path d="M117.868 119.024H100.949V135.943H117.868V119.024Z" fill="#F5F5F5"/>
<path d="M139.761 119.024H122.842V135.943H139.761V119.024Z" fill="#F5F5F5"/>
<path d="M161.654 119.024H144.735V135.943H161.654V119.024Z" fill="#F5F5F5"/>
<path d="M148.848 158.983C148.549 158.983 148.308 159.224 148.308 159.522V171.65C148.308 172.976 147.229 174.056 145.902 174.056H143.99C143.353 174.056 142.753 173.809 142.299 173.362L115.172 146.578C114.516 145.93 113.646 145.573 112.723 145.573H87.0746C85.931 145.573 84.8954 146.107 84.2336 147.039C83.5712 147.971 83.4074 149.125 83.7842 150.204L84.9644 153.587C85.4522 154.985 86.774 155.924 88.2542 155.924H106.848C107.491 155.924 108.096 156.174 108.55 156.628L115.263 163.342C116.101 164.18 116.082 165.247 115.785 165.964C115.487 166.682 114.747 167.45 113.562 167.45H98.2742C96.353 167.45 94.7894 169.013 94.7894 170.934V174.48C94.7894 176.401 96.3524 177.964 98.2742 177.964H115.165C116.492 177.964 117.571 179.044 117.571 180.411C117.571 181.738 116.492 182.817 115.165 182.817H81.3764V183.895H115.165C117.087 183.895 118.65 182.332 118.65 180.37C118.65 178.448 117.087 176.885 115.165 176.885H98.2742C96.9476 176.885 95.8682 175.806 95.8682 174.479V170.933C95.8682 169.607 96.9476 168.527 98.2742 168.527H113.562C114.998 168.527 116.232 167.703 116.781 166.376C117.33 165.049 117.041 163.594 116.025 162.579L109.312 155.865C108.654 155.207 107.779 154.844 106.848 154.844H88.2542C87.2324 154.844 86.3192 154.196 85.9826 153.231L84.8024 149.848C84.542 149.102 84.6554 148.306 85.1126 147.662C85.5698 147.019 86.285 146.65 87.0746 146.65H112.723C113.361 146.65 113.961 146.896 114.414 147.344L141.542 174.128C142.198 174.775 143.068 175.133 143.99 175.133H145.902C147.824 175.133 149.386 173.57 149.386 171.649V159.521C149.386 159.224 149.145 158.983 148.848 158.983Z" fill="#BEFCF3"/>
<path d="M156.127 147.364C156.127 151.385 148.848 162.058 148.848 162.058C148.848 162.058 141.568 151.385 141.568 147.364C141.568 143.344 144.828 140.085 148.848 140.085C152.868 140.085 156.127 143.344 156.127 147.364Z" fill="#01BCA7"/>
<path d="M148.848 150.937C151.007 150.937 152.757 149.186 152.757 147.027C152.757 144.868 151.007 143.117 148.848 143.117C146.688 143.117 144.938 144.868 144.938 147.027C144.938 149.186 146.688 150.937 148.848 150.937Z" fill="#FFE3D6"/>
<path d="M83.5568 187.536C85.8648 187.536 87.7358 185.665 87.7358 183.357C87.7358 181.049 85.8648 179.178 83.5568 179.178C81.2488 179.178 79.3778 181.049 79.3778 183.357C79.3778 185.665 81.2488 187.536 83.5568 187.536Z" fill="#01BCA7"/>
<path d="M83.5568 185.514C84.7481 185.514 85.7138 184.548 85.7138 183.357C85.7138 182.166 84.7481 181.2 83.5568 181.2C82.3655 181.2 81.3998 182.166 81.3998 183.357C81.3998 184.548 82.3655 185.514 83.5568 185.514Z" fill="#FFE3D6"/>
<path d="M38.6654 93.8627C38.6654 93.8627 40.403 106.697 40.3166 110.125C40.2302 113.552 37.8998 124.862 37.0364 128.354C36.173 131.846 34.9646 134.756 36.3458 137.584C37.727 140.411 37.4678 143.239 37.6406 144.818C37.8134 146.398 38.0432 146.87 37.6694 146.98C37.2956 147.091 35.8262 145.871 35.7194 144.915C35.6126 143.959 35.4686 142.697 35.3246 142.337C35.1806 141.977 33.9866 143.321 34.1594 144.458C34.3322 145.594 34.5332 146.093 34.5332 146.093L34.142 147.729C34.142 147.729 30.9368 145.65 30.5912 143.377C30.2456 141.104 30.2462 139.386 31.0802 136.753C31.9142 134.119 31.0514 115.022 32.4326 110.476C33.8138 105.93 30.8216 92.1263 30.8216 92.1263L38.6654 93.8627Z" fill="#FFAE83"/>
<path d="M38.8562 95.3117C38.7398 94.4147 38.6648 93.8627 38.6648 93.8627L30.8216 92.1263C30.8216 92.1263 33.8138 105.93 32.4326 110.476C31.4324 113.768 31.3508 129.367 31.2074 136.142C35.8358 117.077 32.885 108.766 36.5546 97.7555C36.9086 97.0487 37.7276 95.8823 38.8562 95.3117Z" fill="#F9A37D"/>
<path d="M31.3682 137.889C31.3682 137.889 33.2096 137.279 33.929 138.332C34.6484 139.385 33.1232 141.353 32.951 142.185C32.7782 143.017 32.8646 144.153 32.951 144.347C33.0374 144.541 32.8934 144.901 32.8934 144.901C32.8934 144.901 33.7544 145.559 34.121 145.76C34.4876 145.961 35.6558 146.065 36.0296 146.813C35.0804 147.506 33.4958 146.731 32.4752 146.384C31.4552 146.038 30.56 145.289 30.3746 144.319C30.1892 143.349 30.1304 139.875 30.5342 138.965C30.9368 138.056 31.067 137.969 31.3682 137.889Z" fill="#FFB797"/>
<path d="M30.6488 144.652C30.6488 144.652 30.8504 146.897 32.5766 147.729C34.3028 148.561 37.1228 148.672 37.8992 148.256C38.072 147.563 35.7818 147.124 35.1086 146.815C34.4348 146.505 31.6562 144.736 31.6562 144.653C31.6562 144.569 30.6488 144.652 30.6488 144.652Z" fill="#FFB797"/>
<path d="M31.7426 146.731C31.7426 146.731 31.8428 147.757 33.1304 148.491C34.418 149.226 36.3746 150.085 36.7202 150.113C37.0652 150.14 36.9218 148.616 35.7134 148.117C34.505 147.619 31.7426 146.731 31.7426 146.731Z" fill="#FFB797"/>
<path d="M30.3038 73.053C30.3038 73.053 28.4048 81.1854 27.8294 93.8628C31.1672 95.4528 40.316 94.6212 40.316 94.6212C40.0856 93.0138 39.7982 92.5698 40.0856 91.905C40.3736 91.2396 39.7406 86.7972 37.0358 83.946C34.3316 81.0948 32.0876 73.881 30.3038 73.053Z" fill="#C08B89"/>
<path d="M46.301 171.068C46.5314 174.838 45.8408 186.479 48.9482 198.675C52.0556 210.871 53.2064 217.19 53.2064 218.854C56.0834 219.63 58.2704 218.41 58.2704 218.41C58.2704 218.41 57.9254 203.221 58.2704 194.684C58.6154 186.146 58.2704 161.089 57.4646 155.435C57.0692 152.66 56.9246 148.897 56.9876 145.246L40.7432 147.085C42.9662 157.523 46.1342 168.345 46.301 171.068Z" fill="#FFAE83"/>
<path d="M51.1136 167.315C51.59 164.456 55.0124 163.285 58.0352 164.166C57.8858 160.235 57.6938 157.046 57.464 155.434C57.0686 152.659 56.924 148.896 56.987 145.246L40.7426 147.085C42.9668 157.523 46.1348 168.344 46.301 171.067C46.5314 174.837 45.8408 186.478 48.9482 198.674C52.0556 210.871 53.2064 217.19 53.2064 218.853C54.0368 219.077 54.8066 219.132 55.4864 219.101C53.813 201.771 48.758 184.749 51.1136 167.315Z" fill="#F9A37D"/>
<path d="M74.6696 112.804C71.9078 108.148 44.4596 110.975 44.4596 110.975C44.4596 110.975 37.5542 123.392 38.8202 135.7C39.1718 139.117 39.8876 143.072 40.7426 147.085L56.987 145.246C57.0524 141.459 57.3404 137.792 57.8096 135.478C59.7662 139.913 60.5714 156.1 59.7662 168.518C58.9604 180.936 61.7666 203.554 60.0758 213.089C58.8452 219.631 59.7662 220.518 63.9092 220.573C68.1674 220.241 66.2108 216.415 65.7506 212.923C65.2904 209.431 70.1816 198.787 71.9078 188.476C73.634 178.164 73.4738 170.514 73.5542 164.527C73.634 158.54 77.432 147.564 77.7776 138.583C78.1232 129.602 77.4314 117.461 74.6696 112.804Z" fill="#FFAE83"/>
<path d="M77.777 138.582C78.122 129.601 77.432 117.461 74.6696 112.804C71.9078 108.148 44.4596 110.975 44.4596 110.975C44.4596 110.975 37.5542 123.392 38.8202 135.7C39.1718 139.117 39.8876 143.072 40.7426 147.085L56.987 145.246C57.0524 141.459 57.3404 137.792 57.8096 135.478C59.7662 139.913 60.5714 156.1 59.7662 168.518C58.9604 180.936 61.7666 203.554 60.0758 213.089C58.9754 218.941 59.5982 220.267 62.7068 220.522C60.9356 213.094 67.961 205.454 65.6732 198.591C60.8204 187.267 63.5162 175.405 65.6732 164.62C66.089 161.293 70.0334 163.419 73.5482 165.06C73.55 164.882 73.5518 164.702 73.5542 164.527C73.634 158.539 77.4314 147.563 77.777 138.582Z" fill="#F9A37D"/>
<path d="M40.9586 118.246C40.9586 118.246 34.6946 123.279 36.8828 138.467C39.071 153.655 41.6774 160.126 41.6774 160.126C41.6774 160.126 58.157 163.48 75.665 157.983C77.8592 145.207 83.018 123.818 73.5812 111.146C59.0222 112.045 40.9586 118.246 40.9586 118.246Z" fill="black"/>
<path d="M50.0354 127.952C57.6938 121.729 69.5954 122.722 75.9458 115.105C75.2852 113.713 74.5052 112.387 73.5812 111.146C59.0222 112.045 40.9586 118.246 40.9586 118.246C40.9586 118.246 34.6946 123.278 36.8828 138.466C39.071 153.654 41.6774 160.126 41.6774 160.126C41.6774 160.126 42.4166 160.275 43.7354 160.459C38.8466 149.427 41.0102 135.407 50.0354 127.952Z" fill="black" fill-opacity="0.8"/>
<path d="M58.5716 217.205C58.5716 217.205 53.8244 216.498 52.9178 218.203C52.0112 219.907 51.5042 224.065 51.7922 225.063C53.1158 226.393 58.3796 225.677 60.455 224.999C62.531 224.321 58.5716 217.205 58.5716 217.205Z" fill="#101431"/>
<path d="M60.6896 221.966C60.7718 222.736 60.632 223.313 60.11 223.484C58.157 224.122 53.381 224.793 51.7214 223.761C51.6968 224.34 51.7178 224.806 51.7922 225.063C53.1158 226.393 58.3796 225.677 60.455 224.999C61.2848 224.728 61.1498 223.429 60.6896 221.966Z" fill="#171F42"/>
<path d="M59.4458 216.914C59.6468 216.812 63.1862 214.696 66.5108 216.914C67.3616 218.909 67.016 221.959 67.7066 223.954C68.3972 225.95 71.2148 231.845 69.6032 234.451C66.5534 235.837 59.7536 235.762 59.7536 235.762C59.7536 235.762 57.7364 232.048 58.262 228.722C58.7876 225.395 58.9028 226.283 58.6724 223.012C58.442 219.74 58.4024 217.442 59.4458 216.914Z" fill="#101431"/>
<path d="M59.651 223.316C59.651 223.316 61.9814 227.641 61.55 229.719C61.1186 231.798 58.9604 233.295 59.651 235.54C60.3416 237.785 68.6276 235.124 69.4046 234.625C70.1816 234.125 69.6638 233.101 67.937 229.871C66.2108 226.642 66.4694 225.311 66.5558 223.316C66.6422 221.32 65.0882 220.239 63.3332 219.962C61.5782 219.685 58.6436 220.739 59.651 223.316Z" fill="#171F42"/>
<path d="M30.3038 73.0531C30.3038 73.0531 47.7968 58.1995 70.9292 60.3061C71.5046 62.8561 73.1156 72.2803 70.9292 80.2633C68.7428 88.2463 70.7378 95.6743 72.0422 97.5595C73.346 99.4441 76.2236 111.197 77.144 115.41C67.1312 122.728 43.1138 120.843 38.6654 119.845C43.5392 107.205 45.956 101.44 44.4596 99.4441C42.9632 97.4485 41.6978 97.3375 41.6978 95.7853C41.6978 94.2331 40.7774 92.9029 40.0868 91.9045C39.3962 90.9067 39.7418 90.2023 39.281 88.7251C38.8202 87.2479 35.5982 84.4759 34.217 82.1479C32.8358 79.8199 30.3038 73.0531 30.3038 73.0531Z" fill="#C08B89"/>
<path d="M52.7312 108.001C60.8822 93.2274 73.3604 76.5288 63.8012 60.1788C44.2988 61.1832 30.3032 73.0536 30.3032 73.0536C30.3032 73.0536 32.8352 79.8204 34.2164 82.1484C35.5976 84.477 38.8196 87.2484 39.2804 88.7256C39.7406 90.2028 39.3956 90.9072 40.0862 91.905C40.7768 92.9028 41.6972 94.2336 41.6972 95.7858C41.6972 97.338 42.9632 97.449 44.459 99.4446C45.9554 101.44 43.5386 107.206 38.6648 119.845C40.481 120.253 45.56 120.807 51.6152 120.824C50.6162 116.315 50.8376 111.788 52.7312 108.001Z" fill="#C08B89"/>
<path d="M75.962 64.977C75.962 64.977 79.8752 63.8682 81.026 63.2586C82.1768 62.649 85.457 53.8344 85.6292 51.1734C85.802 48.5124 84.3056 47.4594 84.3056 45.186C84.3056 42.9126 87.7004 34.4868 88.7366 34.3206C89.7722 34.1544 89.3408 36.0324 88.7366 37.5084C88.1324 38.9844 87.6146 40.8762 87.7874 41.2506C87.9602 41.625 88.5968 41.313 89.039 41.1984C89.4812 41.0838 89.8592 41.313 89.8916 42.342C89.9132 42.6228 90.9596 42.165 91.1216 43.2876C91.2512 43.5786 92.1248 43.3914 92.2004 44.3892C92.276 45.387 91.7582 46.9878 90.2042 47.8194C89.9024 48.6096 91.4126 55.9686 90.161 61.3734C88.9094 66.7782 88.7798 66.8616 87.7874 67.6518C86.795 68.442 82.9538 71.2272 77.9474 72.8904C72.941 74.5536 75.962 64.977 75.962 64.977Z" fill="#FFAE83"/>
<path d="M86.6348 48.4848C85.8944 46.6344 84.9008 45.2922 84.524 43.7604C84.3854 44.3454 84.305 44.8386 84.305 45.1866C84.305 47.4594 85.8014 48.513 85.6286 51.174C85.4558 53.835 82.1762 62.649 81.0254 63.2592C79.8746 63.8688 75.9614 64.9776 75.9614 64.9776C75.9614 64.9776 75.2186 67.3356 75.0806 69.5082C84.2978 68.1414 89.003 57.483 86.6348 48.4848Z" fill="#F9A37D"/>
<path d="M70.9292 60.306C70.9292 60.306 72.5978 60.6666 73.202 62.5788C73.8062 64.4916 77.8586 63.2454 78.0746 63.2454C80.4482 65.7816 80.4092 67.2768 80.4956 70.6446C80.582 74.0124 78.2948 75.8418 77.9492 76.0914C76.3526 76.299 72.0656 77.7408 70.9292 80.2632C69.9224 76.2996 70.469 60.5694 70.9292 60.306Z" fill="#C08B89"/>
<path d="M66.4406 60.1014C67.5884 60.1158 69.4328 60.306 69.4328 60.306C69.4328 60.306 65.75 59.7516 64.484 57.534C63.218 55.3164 62.6426 53.2098 63.5636 49.551C64.4846 45.8922 62.4266 40.11 60.6866 38.1312C58.562 35.715 53.4056 34.599 51.2486 36.6888C51.2486 36.6888 46.8764 34.6944 43.769 39.462C40.6616 44.2296 41.0072 57.534 39.5108 60.306C38.0144 63.078 32.8214 70.2918 34.6772 76.8258C35.57 79.9686 37.199 81.9216 38.6648 83.547C36.7346 78.7932 37.4384 73.2636 37.664 71.856C37.745 73.962 38.0336 77.8098 39.0488 81.0396C40.5314 85.758 38.4914 86.9004 41.4752 93.1722C40.1948 88.3866 40.7336 86.3982 41.0708 84.3762C41.2196 83.4828 41.4602 82.4778 41.6192 81.3816C42.044 84.7056 41.6954 87.2136 41.6318 88.1202C41.6642 88.3164 41.6912 88.5156 41.6972 88.725C41.8124 92.6802 42.2726 97.7808 50.3288 101.55C48.257 97.6692 48.257 91.5324 52.5152 88.725C56.7734 85.917 57.809 78.267 57.3488 76.2714C59.7656 79.2648 58.73 84.9192 56.543 87.4698C54.3566 90.0198 52.4 94.233 53.7236 98.4462C54.587 92.1264 56.7734 91.905 60.1112 88.0242C63.4484 84.1434 66.5558 76.3008 64.139 68.913C66.4406 70.839 67.8218 80.7066 63.3332 87.6912C68.7422 81.4824 68.192 68.2302 66.287 64.1862C64.3814 60.1428 65.2934 60.087 66.4406 60.1014Z" fill="#101431"/>
<path d="M66.4406 60.1015C67.5884 60.1159 69.4328 60.3061 69.4328 60.3061C69.4328 60.3061 65.75 59.7517 64.484 57.5341C63.218 55.3165 62.6426 53.2099 63.5636 49.5511C64.4846 45.8923 62.4266 40.1101 60.6866 38.1313C59.3714 36.6361 56.8952 35.6407 54.6878 35.5933C53.0078 35.7817 51.5276 36.4723 50.5748 37.9015C46.8002 44.9113 52.1924 51.3817 53.81 57.8527C54.8882 61.6273 55.4276 65.9407 53.2706 69.7153C48.056 79.2751 43.9004 91.9831 50.0984 101.073C48.2696 97.1833 48.4256 91.4209 52.5152 88.7239C56.7734 85.9159 57.809 78.2659 57.3488 76.2703C59.7656 79.2637 58.73 84.9181 56.543 87.4687C54.3566 90.0187 52.4 94.2319 53.7236 98.4451C54.587 92.1253 56.7734 91.9039 60.1112 88.0231C63.4484 84.1423 66.5558 76.2997 64.139 68.9119C66.4406 70.8379 67.8218 80.7055 63.3332 87.6901C68.7422 81.4813 68.192 68.2291 66.287 64.1851C64.3814 60.1429 65.2934 60.0871 66.4406 60.1015Z" fill="#131938"/>
<path d="M53.2706 69.7165C55.4276 65.9419 54.8882 61.6285 53.81 57.8539C52.1924 51.3835 46.8002 44.9125 50.5748 37.9027C51.5276 36.4735 53.0078 35.7823 54.6878 35.5945C53.3288 35.5651 52.0706 35.8933 51.2492 36.6895C51.2492 36.6895 46.877 34.6951 43.7696 39.4627C40.6622 44.2303 41.0078 57.5347 39.5114 60.3067C38.015 63.0787 32.822 70.2925 34.6778 76.8265C35.5706 79.9693 37.1996 81.9223 38.6654 83.5477C36.7352 78.7939 37.439 73.2643 37.6646 71.8567C37.7456 73.9627 38.0342 77.8105 39.0494 81.0403C40.532 85.7587 38.492 86.9011 41.4758 93.1729C40.1954 88.3872 40.7342 86.3989 41.0714 84.3769C41.2202 83.4835 41.4608 82.4785 41.6198 81.3822C42.0446 84.7062 41.696 87.2143 41.6324 88.1208C41.6648 88.3171 41.6918 88.5163 41.6978 88.7257C41.813 92.6809 42.2732 97.7815 50.3294 101.551C50.2472 101.397 50.1746 101.234 50.0996 101.074C43.9004 91.9843 48.0566 79.2763 53.2706 69.7165Z" fill="#0D1128"/>
</svg>
