<svg width="506" height="368" viewBox="0 0 506 368" fill="none" xmlns="http://www.w3.org/2000/svg">
<path d="M358.096 159.559H290.544V344.69H358.096V159.559Z" stroke="#C08B89" stroke-miterlimit="10"/>
<path d="M333.74 141.041H314.9V147.668H333.74V141.041Z" stroke="#C08B89" stroke-miterlimit="10"/>
<path d="M358.096 159.559H290.544V344.69H358.096V159.559Z" stroke="#C08B89" stroke-miterlimit="10"/>
<path d="M311.219 163.855H296.607V209.175H311.219V163.855Z" stroke="#C08B89" stroke-miterlimit="10"/>
<path d="M331.626 163.855H317.014V209.175H331.626V163.855Z" stroke="#C08B89" stroke-miterlimit="10"/>
<path d="M352.033 163.855H337.421V209.175H352.033V163.855Z" stroke="#C08B89" stroke-miterlimit="10"/>
<path d="M358.096 209.176H290.544V214.785H358.096V209.176Z" stroke="#C08B89" stroke-miterlimit="10"/>
<path d="M358.096 159.559H290.544V163.855H358.096V159.559Z" stroke="#C08B89" stroke-miterlimit="10"/>
<path d="M311.219 214.784H296.607V260.104H311.219V214.784Z" stroke="#C08B89" stroke-miterlimit="10"/>
<path d="M331.626 214.784H317.014V260.104H331.626V214.784Z" stroke="#C08B89" stroke-miterlimit="10"/>
<path d="M352.033 214.784H337.421V260.104H352.033V214.784Z" stroke="#C08B89" stroke-miterlimit="10"/>
<path d="M358.096 260.104H290.544V265.713H358.096V260.104Z" stroke="#C08B89" stroke-miterlimit="10"/>
<path d="M311.219 265.713H296.607V311.033H311.219V265.713Z" stroke="#C08B89" stroke-miterlimit="10"/>
<path d="M331.626 265.713H317.014V311.033H331.626V265.713Z" stroke="#C08B89" stroke-miterlimit="10"/>
<path d="M352.033 265.713H337.421V311.033H352.033V265.713Z" stroke="#C08B89" stroke-miterlimit="10"/>
<path d="M358.096 311.033H290.544V344.69H358.096V311.033Z" stroke="#C08B89" stroke-miterlimit="10"/>
<path d="M360.071 147.668H288.569V159.559H360.071V147.668Z" stroke="#C08B89" stroke-miterlimit="10"/>
<path d="M444.465 214.542H370.302V342.561H444.465V214.542Z" stroke="#C08B89" stroke-miterlimit="10"/>
<path d="M415.068 227.224H375.167V237.34H415.068V227.224Z" stroke="#C08B89" stroke-miterlimit="10"/>
<path d="M437.592 241.549H397.691V251.665H437.592V241.549Z" stroke="#C08B89" stroke-miterlimit="10"/>
<path d="M415.068 284.525H375.167V294.64H415.068V284.525Z" stroke="#C08B89" stroke-miterlimit="10"/>
<path d="M435.019 298.85H395.117V308.966H435.019V298.85Z" stroke="#C08B89" stroke-miterlimit="10"/>
<path d="M399.7 255.874H375.167V265.99H399.7V255.874Z" stroke="#C08B89" stroke-miterlimit="10"/>
<path d="M429.331 255.874H404.798V265.99H429.331V255.874Z" stroke="#C08B89" stroke-miterlimit="10"/>
<path d="M429.331 313.175H404.798V323.29H429.331V313.175Z" stroke="#C08B89" stroke-miterlimit="10"/>
<path d="M438.721 270.199H414.188V280.315H438.721V270.199Z" stroke="#C08B89" stroke-miterlimit="10"/>
<path d="M410.653 270.199H375.167V280.315H410.653V270.199Z" stroke="#C08B89" stroke-miterlimit="10"/>
<path d="M444.465 214.542H370.302V219.744H444.465V214.542Z" stroke="#C08B89" stroke-miterlimit="10"/>
<path d="M395.117 195.195H370.302V203.087H395.117V195.195Z" stroke="#C08B89" stroke-miterlimit="10"/>
<path d="M448.89 203.087H365.878V214.542H448.89V203.087Z" stroke="#C08B89" stroke-miterlimit="10"/>
<path d="M208.236 167.946H105.103V345.971H208.236V167.946Z" stroke="#C08B89" stroke-miterlimit="10"/>
<path d="M167.355 185.582H111.867V199.649H167.355V185.582Z" stroke="#C08B89" stroke-miterlimit="10"/>
<path d="M198.679 205.502H143.191V219.57H198.679V205.502Z" stroke="#C08B89" stroke-miterlimit="10"/>
<path d="M167.355 265.266H111.867V279.333H167.355V265.266Z" stroke="#C08B89" stroke-miterlimit="10"/>
<path d="M195.099 285.186H139.611V299.254H195.099V285.186Z" stroke="#C08B89" stroke-miterlimit="10"/>
<path d="M145.984 225.423H111.867V239.49H145.984V225.423Z" stroke="#C08B89" stroke-miterlimit="10"/>
<path d="M187.19 225.423H153.073V239.49H187.19V225.423Z" stroke="#C08B89" stroke-miterlimit="10"/>
<path d="M187.19 305.108H153.073V319.175H187.19V305.108Z" stroke="#C08B89" stroke-miterlimit="10"/>
<path d="M200.248 245.345H166.131V259.412H200.248V245.345Z" stroke="#C08B89" stroke-miterlimit="10"/>
<path d="M161.214 245.345H111.867V259.412H161.214V245.345Z" stroke="#C08B89" stroke-miterlimit="10"/>
<path d="M208.236 167.946H105.103V175.18H208.236V167.946Z" stroke="#C08B89" stroke-miterlimit="10"/>
<path d="M139.612 141.041H105.103V152.016H139.612V141.041Z" stroke="#C08B89" stroke-miterlimit="10"/>
<path d="M214.389 152.015H98.95V167.946H214.389V152.015Z" stroke="#C08B89" stroke-miterlimit="10"/>
<path d="M281.891 101.825H218.999V345.972H281.891V101.825Z" stroke="#C08B89" stroke-miterlimit="10"/>
<path d="M239.774 111.938H225.693V155.082H239.774V111.938Z" stroke="#C08B89" stroke-miterlimit="10"/>
<path d="M257.208 111.938H243.127V155.082H257.208V111.938Z" stroke="#C08B89" stroke-miterlimit="10"/>
<path d="M275.197 111.938H261.116V155.082H275.197V111.938Z" stroke="#C08B89" stroke-miterlimit="10"/>
<path d="M239.774 158.985H225.693V202.128H239.774V158.985Z" stroke="#C08B89" stroke-miterlimit="10"/>
<path d="M257.208 158.985H243.127V202.128H257.208V158.985Z" stroke="#C08B89" stroke-miterlimit="10"/>
<path d="M275.197 158.985H261.116V202.128H275.197V158.985Z" stroke="#C08B89" stroke-miterlimit="10"/>
<path d="M239.774 204.659H225.693V247.803H239.774V204.659Z" stroke="#C08B89" stroke-miterlimit="10"/>
<path d="M257.208 204.659H243.127V247.803H257.208V204.659Z" stroke="#C08B89" stroke-miterlimit="10"/>
<path d="M275.197 204.659H261.116V247.803H275.197V204.659Z" stroke="#C08B89" stroke-miterlimit="10"/>
<path d="M239.774 252.561H225.693V295.705H239.774V252.561Z" stroke="#C08B89" stroke-miterlimit="10"/>
<path d="M257.208 252.561H243.127V295.705H257.208V252.561Z" stroke="#C08B89" stroke-miterlimit="10"/>
<path d="M275.197 252.561H261.116V295.705H275.197V252.561Z" stroke="#C08B89" stroke-miterlimit="10"/>
<path d="M239.774 298.466H225.693V341.61H239.774V298.466Z" stroke="#C08B89" stroke-miterlimit="10"/>
<path d="M257.208 298.466H243.127V341.61H257.208V298.466Z" stroke="#C08B89" stroke-miterlimit="10"/>
<path d="M275.197 298.466H261.116V341.61H275.197V298.466Z" stroke="#C08B89" stroke-miterlimit="10"/>
<path d="M281.938 101.825H218.999V108.192H281.938V101.825Z" stroke="#C08B89" stroke-miterlimit="10"/>
<path d="M287.536 85.4075H213.354V101.825H287.536V85.4075Z" stroke="#C08B89" stroke-miterlimit="10"/>
<path d="M241.244 85.4075L232.505 74.775H218.999V85.4075H241.244Z" stroke="#C08B89" stroke-miterlimit="10"/>
<path d="M253 367.49C392.728 367.49 506 359.886 506 350.507C506 341.127 392.728 333.524 253 333.524C113.272 333.524 0 341.127 0 350.507C0 359.886 113.272 367.49 253 367.49Z" fill="#C08B89"/>
<path d="M454.115 156.074C453.737 150.249 449.982 145.389 444.84 143.541C444.843 143.404 444.86 143.27 444.86 143.131C444.86 131.269 435.518 121.653 423.993 121.653C414.242 121.653 406.077 128.547 403.788 137.851C395.064 138.167 388.081 145.526 388.081 154.582C388.081 155.062 388.112 155.535 388.151 156.005H387.976C380.901 156.005 375.166 161.908 375.166 169.19C375.166 176.472 380.901 182.375 387.976 182.375H452.81C459.885 182.375 465.62 176.472 465.62 169.19C465.621 162.363 460.577 156.747 454.115 156.074Z" stroke="#C08B89" stroke-miterlimit="10"/>
<path d="M126.624 79.7465C126.396 76.2253 124.126 73.2877 121.018 72.1699C121.019 72.0865 121.03 72.0052 121.03 71.9219C121.03 64.7519 115.383 58.9385 108.416 58.9385C102.522 58.9385 97.586 63.106 96.202 68.7301C90.929 68.9215 86.707 73.3701 86.707 78.8438C86.707 79.1341 86.726 79.4202 86.749 79.7043H86.643C82.366 79.7043 78.899 83.2728 78.899 87.6751C78.899 92.0773 82.366 95.6448 86.643 95.6448H125.835C130.112 95.6448 133.579 92.0763 133.579 87.6751C133.58 83.5476 130.531 80.153 126.624 79.7465Z" stroke="#C08B89" stroke-miterlimit="10"/>
<path d="M366.143 108.71C365.922 105.295 363.72 102.446 360.706 101.363C360.707 101.281 360.718 101.203 360.718 101.122C360.718 94.1678 355.241 88.5315 348.486 88.5315C342.77 88.5315 337.983 92.5735 336.641 98.0277C331.527 98.2129 327.433 102.527 327.433 107.836C327.433 108.118 327.451 108.395 327.474 108.67H327.371C323.224 108.67 319.862 112.131 319.862 116.399C319.862 120.668 323.224 124.129 327.371 124.129H365.378C369.525 124.129 372.887 120.669 372.887 116.399C372.888 112.395 369.931 109.104 366.143 108.71Z" stroke="#C08B89" stroke-miterlimit="10"/>
<path d="M227.656 34.2974C227.291 28.6744 223.666 23.9819 218.702 22.1972C218.705 22.0644 218.721 21.9347 218.721 21.8009C218.721 10.3491 209.701 1.06494 198.575 1.06494C189.161 1.06494 181.278 7.72132 179.068 16.7039C170.646 17.0085 163.904 24.1137 163.904 32.8575C163.904 33.3217 163.934 33.7776 163.972 34.2315H163.803C156.973 34.2315 151.435 39.9307 151.435 46.9607C151.435 53.9907 156.972 59.6898 163.803 59.6898H226.398C233.228 59.6898 238.765 53.9907 238.765 46.9607C238.764 40.3692 233.895 34.9469 227.656 34.2974Z" stroke="#C08B89" stroke-miterlimit="10"/>
</svg>
