<svg width="521" height="498" viewBox="0 0 521 498" fill="none" xmlns="http://www.w3.org/2000/svg">
<g clip-path="url(#clip0_10_14147)">
<path d="M541.859 31.2914C499.706 11.6691 449.162 9.51566 404.638 25.8695C366.729 39.7932 337.227 63.3472 299.255 77.2368C247.323 96.2311 190.454 106.612 138.015 124.805C85.5758 142.998 35.3947 171.524 16.5909 212.434C-5.61993 260.759 2.2258 317.583 36.1063 361.764C91.1704 433.57 200.411 459.064 305.566 458.136C527.797 456.173 642.254 254.715 605.972 109.981C598.097 78.5653 578.796 48.4867 541.859 31.2914Z" fill="#C08B89"/>
<path opacity="0.7" d="M541.859 31.2914C499.706 11.6691 449.162 9.51566 404.638 25.8695C366.729 39.7932 337.227 63.3472 299.255 77.2368C247.323 96.2311 190.454 106.612 138.015 124.805C85.5757 142.998 35.3947 171.524 16.5909 212.434C-5.61993 260.759 2.2258 317.583 36.1063 361.764C91.1703 433.57 200.411 459.064 305.566 458.136C533 458.136 661 242 605.972 109.981C598.097 78.5653 578.796 48.4867 541.859 31.2914Z" fill="white"/>
<path d="M424.669 127.622C426.333 126.031 426.333 123.452 424.669 121.862C423.005 120.271 420.307 120.271 418.643 121.862C416.978 123.452 416.978 126.031 418.643 127.622C420.307 129.213 423.005 129.213 424.669 127.622Z" fill="white"/>
<path d="M400.141 95.2171C398.842 93.9754 396.736 93.9754 395.437 95.2171C394.138 96.4588 394.138 98.4719 395.437 99.7136C396.736 100.955 398.842 100.955 400.141 99.7136C401.44 98.4719 401.44 96.4588 400.141 95.2171Z" fill="white"/>
<path d="M377.646 79.3446C378.005 79.6874 378.586 79.6874 378.945 79.3446C379.303 79.0018 379.303 78.4461 378.945 78.1033C378.586 77.7605 378.005 77.7605 377.646 78.1033C377.287 78.4457 377.287 79.0014 377.646 79.3446Z" fill="white"/>
<path d="M390.806 121.011C390.057 120.295 388.843 120.295 388.094 121.011C387.345 121.727 387.345 122.887 388.094 123.603C388.843 124.319 390.057 124.319 390.806 123.603C391.555 122.888 391.555 121.727 390.806 121.011Z" fill="white"/>
<path d="M365.674 107.816C365.138 107.303 364.268 107.303 363.732 107.816C363.196 108.328 363.196 109.159 363.732 109.672C364.268 110.184 365.138 110.184 365.674 109.672C366.21 109.159 366.21 108.328 365.674 107.816Z" fill="white"/>
<path d="M365.729 118.277C365.11 117.685 364.107 117.685 363.488 118.277C362.869 118.868 362.869 119.827 363.488 120.419C364.107 121.011 365.11 121.011 365.729 120.419C366.349 119.827 366.349 118.868 365.729 118.277Z" fill="white"/>
<path d="M380.528 149.515C379.456 148.49 377.717 148.49 376.644 149.515C375.572 150.54 375.572 152.202 376.644 153.228C377.717 154.253 379.456 154.253 380.528 153.228C381.601 152.203 381.601 150.541 380.528 149.515Z" fill="white"/>
<path d="M402.67 144.807C401.543 143.729 399.715 143.729 398.587 144.807C397.46 145.884 397.46 147.632 398.587 148.709C399.715 149.787 401.543 149.787 402.67 148.709C403.798 147.632 403.798 145.884 402.67 144.807Z" fill="white"/>
<path d="M373.101 177.186C372.367 176.484 371.176 176.484 370.442 177.186C369.708 177.888 369.708 179.026 370.442 179.728C371.176 180.429 372.367 180.429 373.102 179.728C373.835 179.026 373.835 177.888 373.101 177.186Z" fill="white"/>
<path d="M350.138 171.81C348.791 170.523 346.608 170.523 345.262 171.81C343.915 173.098 343.915 175.184 345.262 176.472C346.608 177.759 348.791 177.758 350.138 176.472C351.485 175.184 351.485 173.097 350.138 171.81Z" fill="white"/>
<path d="M354.978 153.095C354.422 152.564 353.521 152.564 352.965 153.095C352.409 153.627 352.409 154.489 352.965 155.02C353.521 155.552 354.422 155.552 354.979 155.02C355.534 154.488 355.534 153.627 354.978 153.095Z" fill="white"/>
<path d="M335.379 126.658C334.92 126.22 334.176 126.22 333.717 126.658C333.259 127.096 333.259 127.807 333.717 128.246C334.176 128.684 334.92 128.684 335.379 128.246C335.837 127.807 335.837 127.097 335.379 126.658Z" fill="white"/>
<path d="M434.91 103.741C434.217 103.078 433.093 103.078 432.399 103.741C431.706 104.404 431.706 105.478 432.399 106.141C433.093 106.804 434.217 106.804 434.91 106.141C435.603 105.479 435.603 104.404 434.91 103.741Z" fill="white"/>
<path d="M361.95 136.456C361.109 135.653 359.746 135.653 358.904 136.456C358.063 137.26 358.063 138.564 358.904 139.368C359.745 140.172 361.109 140.172 361.95 139.368C362.791 138.564 362.791 137.261 361.95 136.456Z" fill="white"/>
<path d="M398.037 176.66C400.922 176.66 403.261 174.424 403.261 171.667C403.261 168.909 400.922 166.673 398.037 166.673C395.152 166.673 392.813 168.909 392.813 171.667C392.813 174.424 395.152 176.66 398.037 176.66Z" fill="white"/>
<path d="M440.546 120.159C441.675 121.28 443.539 121.314 444.712 120.236C445.884 119.157 445.92 117.375 444.791 116.254C443.663 115.134 441.798 115.1 440.626 116.178C439.454 117.256 439.418 119.039 440.546 120.159Z" fill="white"/>
<path d="M460.818 104.203C461.733 103.361 461.761 101.969 460.88 101.094C459.999 100.219 458.543 100.193 457.628 101.035C456.713 101.877 456.685 103.268 457.566 104.143C458.447 105.018 459.903 105.045 460.818 104.203Z" fill="white"/>
<path d="M468.553 90.5197C468.3 90.7521 468.293 91.1364 468.536 91.3779C468.779 91.6194 469.181 91.6269 469.434 91.3945C469.686 91.1621 469.694 90.7778 469.451 90.5363C469.208 90.2948 468.806 90.2873 468.553 90.5197Z" fill="white"/>
<path d="M450.007 90.8567C450.534 90.3715 450.55 89.5693 450.043 89.0647C449.535 88.5605 448.696 88.5451 448.168 89.0302C447.641 89.5154 447.625 90.3176 448.132 90.8222C448.64 91.3269 449.479 91.3418 450.007 90.8567Z" fill="white"/>
<path d="M483.592 48.7142C483.97 48.3665 483.981 47.7921 483.617 47.4311C483.254 47.07 482.653 47.0588 482.275 47.4066C481.897 47.7539 481.886 48.3287 482.249 48.6898C482.613 49.0508 483.214 49.0616 483.592 48.7142Z" fill="white"/>
<path d="M452.316 74.3243C452.752 73.923 452.765 73.2598 452.345 72.8432C451.925 72.4265 451.232 72.4136 450.796 72.8149C450.36 73.2163 450.346 73.8794 450.766 74.2961C451.186 74.7127 451.88 74.7252 452.316 74.3243Z" fill="white"/>
<path d="M429.529 83.6892C430.285 82.9941 430.308 81.8449 429.581 81.1228C428.853 80.4007 427.651 80.3787 426.896 81.0739C426.14 81.769 426.117 82.9177 426.844 83.6402C427.572 84.3623 428.774 84.3843 429.529 83.6892Z" fill="white"/>
<path d="M432.642 98.381C433.436 97.6502 433.46 96.4426 432.696 95.6835C431.931 94.9245 430.668 94.9013 429.874 95.6321C429.08 96.3629 429.055 97.5705 429.82 98.3296C430.584 99.0886 431.848 99.1118 432.642 98.381Z" fill="white"/>
<path d="M409.617 78.4158C410.134 77.9398 410.149 77.1534 409.652 76.6591C409.154 76.1648 408.331 76.1495 407.814 76.6255C407.297 77.1015 407.281 77.8879 407.779 78.3822C408.276 78.8769 409.1 78.8918 409.617 78.4158Z" fill="white"/>
<path d="M423.362 61.7996C423.753 61.4394 423.765 60.8434 423.388 60.4695C423.011 60.0952 422.388 60.0836 421.996 60.4442C421.605 60.8044 421.592 61.4 421.97 61.7747C422.346 62.1486 422.97 62.1598 423.362 61.7996Z" fill="white"/>
<path d="M446.426 60.7401C446.749 60.443 446.759 59.9516 446.448 59.6424C446.138 59.3337 445.623 59.3241 445.3 59.6217C444.977 59.9188 444.967 60.4102 445.278 60.7194C445.589 61.0281 446.103 61.0373 446.426 60.7401Z" fill="white"/>
<path d="M461.913 120.225C462.401 119.776 462.416 119.033 461.946 118.566C461.476 118.099 460.699 118.085 460.21 118.535C459.722 118.984 459.707 119.727 460.177 120.194C460.647 120.661 461.425 120.675 461.913 120.225Z" fill="white"/>
<path d="M465.87 56.8254C466.462 56.2801 466.48 55.3791 465.91 54.8127C465.339 54.2462 464.397 54.2292 463.804 54.7741C463.212 55.319 463.194 56.2203 463.764 56.7868C464.334 57.3533 465.277 57.3707 465.87 56.8254Z" fill="white"/>
<path d="M250.091 388.005C210.713 388.005 173.692 373.347 145.847 346.732C118.003 320.116 102.668 284.73 102.668 247.09C102.668 209.45 118.003 174.064 145.847 147.449C173.692 120.833 210.713 106.176 250.091 106.176C289.469 106.176 326.49 120.833 354.335 147.449C382.179 174.064 397.514 209.45 397.514 247.09C397.514 284.73 382.179 320.116 354.335 346.732C326.49 373.347 289.469 388.005 250.091 388.005ZM250.091 107.421C211.061 107.421 174.367 121.949 146.769 148.329C119.171 174.709 103.971 209.783 103.971 247.09C103.971 284.398 119.171 319.471 146.769 345.852C174.367 372.232 211.061 386.76 250.091 386.76C289.121 386.76 325.815 372.232 353.413 345.851C381.011 319.471 396.211 284.397 396.211 247.09C396.211 209.783 381.011 174.709 353.413 148.329C325.815 121.949 289.121 107.421 250.091 107.421Z" fill="black" fill-opacity="0.8"/>
<path d="M169.018 258.497C166.971 258.497 165.302 258.998 164.012 259.999C162.72 261.001 162.074 262.386 162.074 264.156C162.074 265.926 162.55 267.311 163.5 268.313C164.45 269.315 165.704 270.084 167.264 270.618C168.823 271.154 170.528 271.631 172.38 272.05C174.232 272.469 176.082 272.983 177.935 273.587C179.786 274.193 181.491 274.939 183.051 275.823C184.61 276.708 185.865 278 186.815 279.7C187.766 281.401 188.24 283.462 188.24 285.883C188.24 289.889 186.571 293.335 183.234 296.223C179.896 299.111 175.462 300.554 169.932 300.554C164.401 300.554 159.93 299.309 156.519 296.817C153.108 294.325 151.403 290.821 151.403 286.302H162.367C162.756 290.588 165.314 292.73 170.041 292.73C172.38 292.73 174.231 292.148 175.596 290.983C176.96 289.819 177.642 288.27 177.642 286.337C177.642 284.405 176.741 282.879 174.938 281.761C173.135 280.644 170.954 279.805 168.397 279.246C165.838 278.687 163.268 278.013 160.686 277.22C158.102 276.429 155.91 275.044 154.107 273.063C152.304 271.084 151.403 268.464 151.403 265.204C151.403 260.779 153.084 257.239 156.446 254.584C159.808 251.929 164.132 250.602 169.42 250.602C174.706 250.602 178.958 251.755 182.174 254.06C185.39 256.365 187.144 259.871 187.436 264.574H176.181C175.985 262.712 175.254 261.233 173.988 260.138C172.72 259.045 171.065 258.497 169.018 258.497Z" fill="black" fill-opacity="0.8"/>
<path d="M221.349 300.554C213.992 300.554 207.803 298.203 202.785 293.498C197.766 288.794 195.257 282.821 195.257 275.578C195.257 268.336 197.778 262.363 202.821 257.658C207.864 252.954 214.052 250.602 221.386 250.602C228.719 250.602 234.895 252.954 239.914 257.658C244.933 262.363 247.443 268.336 247.443 275.578C247.443 282.821 244.933 288.794 239.914 293.498C234.895 298.203 228.706 300.554 221.349 300.554ZM232.606 287.176C235.48 284.265 236.918 280.388 236.918 275.544C236.918 270.7 235.48 266.835 232.606 263.947C229.73 261.059 225.978 259.615 221.349 259.615C216.72 259.615 212.956 261.071 210.057 263.981C207.157 266.892 205.708 270.758 205.708 275.578C205.708 280.399 207.157 284.265 210.057 287.175C212.956 290.087 216.72 291.542 221.349 291.542C225.978 291.542 229.73 290.087 232.606 287.176Z" fill="black" fill-opacity="0.8"/>
<path d="M278.798 300.554C271.44 300.554 265.251 298.203 260.233 293.498C255.214 288.794 252.705 282.821 252.705 275.578C252.705 268.336 255.226 262.363 260.27 257.658C265.312 252.954 271.5 250.602 278.834 250.602C286.168 250.602 292.343 252.954 297.363 257.658C302.381 262.363 304.891 268.336 304.891 275.578C304.891 282.821 302.381 288.794 297.363 293.498C292.343 298.203 286.155 300.554 278.798 300.554ZM290.054 287.176C292.928 284.265 294.366 280.388 294.366 275.544C294.366 270.7 292.928 266.835 290.054 263.947C287.178 261.059 283.426 259.615 278.798 259.615C274.168 259.615 270.404 261.071 267.505 263.981C264.606 266.892 263.156 270.758 263.156 275.578C263.156 280.399 264.606 284.265 267.505 287.175C270.404 290.087 274.168 291.542 278.798 291.542C283.426 291.542 287.178 290.087 290.054 287.176Z" fill="black" fill-opacity="0.8"/>
<path d="M346.406 251.161H356.711V300.065H346.406L323.309 266.251V300.065H313.004V251.161H323.309L346.406 284.975V251.161Z" fill="black" fill-opacity="0.8"/>
<path d="M151.31 230.529C147.76 227.201 145.985 222.985 145.985 217.878C145.985 212.772 147.768 208.555 151.335 205.227C154.903 201.899 159.271 200.236 164.442 200.236C168.371 200.236 171.861 201.191 174.911 203.102C177.961 205.013 180.141 207.697 181.45 211.157H172.713C171.093 208.126 168.336 206.61 164.441 206.61C161.166 206.61 158.503 207.64 156.454 209.699C154.402 211.758 153.378 214.492 153.378 217.902C153.378 221.312 154.402 224.047 156.454 226.105C158.504 228.164 161.166 229.194 164.441 229.194C168.301 229.194 171.059 227.679 172.713 224.647H181.45C180.141 228.106 177.961 230.783 174.911 232.678C171.861 234.573 168.37 235.519 164.442 235.519C159.237 235.52 154.859 233.857 151.31 230.529Z" fill="black" fill-opacity="0.8"/>
<path d="M204.199 235.569C198.994 235.569 194.617 233.906 191.067 230.578C187.517 227.251 185.742 223.025 185.742 217.902C185.742 212.78 187.525 208.555 191.092 205.227C194.66 201.899 199.037 200.236 204.224 200.236C209.411 200.236 213.78 201.899 217.33 205.227C220.88 208.555 222.656 212.78 222.656 217.902C222.656 223.025 220.88 227.251 217.33 230.578C213.78 233.906 209.403 235.569 204.199 235.569ZM212.16 226.106C214.194 224.047 215.211 221.305 215.211 217.878C215.211 214.452 214.194 211.718 212.16 209.674C210.126 207.632 207.473 206.611 204.199 206.611C200.924 206.611 198.261 207.641 196.211 209.699C194.16 211.758 193.135 214.493 193.135 217.902C193.135 221.312 194.16 224.047 196.211 226.106C198.261 228.165 200.924 229.194 204.199 229.194C207.473 229.194 210.126 228.165 212.16 226.106Z" fill="black" fill-opacity="0.8"/>
<path d="M267.738 200.73V235.223H260.5V213.43L250.677 235.223H245.455L235.684 213.529V235.223H228.394V200.73H236.511L248.092 226.279L259.673 200.73H267.738Z" fill="black" fill-opacity="0.8"/>
<path d="M275.493 235.224V200.73H282.782V235.224H275.493Z" fill="black" fill-opacity="0.8"/>
<path d="M314.163 200.631H321.453V235.224H314.163L297.826 211.305V235.224H290.537V200.631H297.826L314.163 224.549V200.631Z" fill="black" fill-opacity="0.8"/>
<path d="M332.517 230.529C328.966 227.201 327.191 222.985 327.191 217.878C327.191 212.772 328.975 208.555 332.542 205.227C336.11 201.899 340.478 200.236 345.648 200.236C349.578 200.236 353.067 201.191 356.117 203.102C359.168 205.013 361.347 207.697 362.657 211.157H353.92C352.3 208.126 349.542 206.61 345.648 206.61C342.373 206.61 339.71 207.64 337.661 209.699C335.609 211.758 334.584 214.492 334.584 217.902C334.584 221.312 335.609 224.047 337.661 226.105C339.711 228.164 342.227 229.194 345.209 229.194C348.19 229.194 350.534 228.494 352.24 227.093C353.946 225.693 355.006 223.807 355.419 221.435H343.425V216.147H363.226V221.435C362.605 225.191 360.675 228.477 357.436 231.293C354.195 234.111 350.12 235.519 345.209 235.519C340.297 235.519 336.066 233.857 332.517 230.529Z" fill="black" fill-opacity="0.8"/>
<path d="M158.102 372.71C155.951 372.069 153.664 373.215 152.993 375.271C152.322 377.327 153.522 379.513 155.673 380.154C157.824 380.796 160.111 379.649 160.782 377.593C161.452 375.538 160.253 373.351 158.102 372.71Z" fill="white"/>
<path d="M144.624 404.991C144.1 406.596 145.036 408.303 146.715 408.803C148.394 409.304 150.18 408.409 150.704 406.804C151.227 405.199 150.291 403.492 148.612 402.992C146.933 402.491 145.147 403.386 144.624 404.991Z" fill="white"/>
<path d="M144.775 426.527C144.92 426.084 144.661 425.613 144.198 425.474C143.734 425.336 143.241 425.584 143.097 426.026C142.952 426.47 143.21 426.941 143.674 427.079C144.138 427.217 144.631 426.97 144.775 426.527Z" fill="white"/>
<path d="M167.051 414.303C166.749 415.228 167.289 416.212 168.257 416.501C169.224 416.789 170.254 416.274 170.555 415.348C170.857 414.423 170.318 413.439 169.35 413.151C168.382 412.862 167.353 413.378 167.051 414.303Z" fill="white"/>
<path d="M155.671 486.849C155.455 487.511 155.842 488.216 156.534 488.423C157.227 488.629 157.965 488.26 158.181 487.597C158.397 486.935 158.011 486.23 157.317 486.023C156.624 485.817 155.887 486.186 155.671 486.849Z" fill="white"/>
<path d="M175.776 435.84C175.526 436.605 175.973 437.419 176.773 437.657C177.573 437.895 178.424 437.469 178.674 436.704C178.923 435.939 178.477 435.126 177.677 434.887C176.876 434.649 176.026 435.076 175.776 435.84Z" fill="white"/>
<path d="M196.903 409.957C196.471 411.282 197.244 412.692 198.63 413.105C200.017 413.518 201.491 412.779 201.923 411.454C202.356 410.129 201.582 408.719 200.196 408.306C198.81 407.893 197.336 408.632 196.903 409.957Z" fill="white"/>
<path d="M182.881 394.108C182.427 395.5 183.24 396.982 184.697 397.416C186.154 397.851 187.704 397.074 188.158 395.681C188.613 394.288 187.8 392.807 186.343 392.372C184.886 391.938 183.336 392.715 182.881 394.108Z" fill="white"/>
<path d="M224.749 403.672C224.453 404.58 224.982 405.544 225.931 405.827C226.88 406.11 227.89 405.604 228.185 404.697C228.482 403.79 227.952 402.825 227.003 402.542C226.054 402.259 225.045 402.765 224.749 403.672Z" fill="white"/>
<path d="M219.652 432.597C219.428 433.283 219.829 434.014 220.547 434.228C221.266 434.443 222.03 434.06 222.254 433.373C222.478 432.686 222.078 431.955 221.359 431.741C220.641 431.526 219.876 431.909 219.652 432.597Z" fill="white"/>
<path d="M192.396 448.576C192.211 449.142 192.542 449.745 193.134 449.922C193.727 450.099 194.358 449.783 194.543 449.216C194.728 448.65 194.397 448.047 193.804 447.87C193.211 447.693 192.581 448.009 192.396 448.576Z" fill="white"/>
<path d="M125.492 387.866C125.212 388.723 125.712 389.634 126.608 389.901C127.504 390.168 128.457 389.69 128.737 388.834C129.017 387.977 128.516 387.066 127.62 386.799C126.724 386.532 125.771 387.01 125.492 387.866Z" fill="white"/>
<path d="M171.526 465.714C171.187 466.753 171.793 467.858 172.88 468.182C173.968 468.506 175.124 467.927 175.463 466.887C175.802 465.848 175.195 464.743 174.108 464.419C173.021 464.095 171.865 464.675 171.526 465.714Z" fill="white"/>
<path d="M306.421 269.391H194.863V270.221H306.421V269.391Z" fill="#C08B89"/>
<path d="M306.421 272.128H194.863V272.958H306.421V272.128Z" fill="#C08B89"/>
<path d="M306.421 274.866H194.863V275.696H306.421V274.866Z" fill="#C08B89"/>
<path d="M306.421 277.605H194.863V278.435H306.421V277.605Z" fill="#C08B89"/>
<path d="M306.421 280.343H194.863V281.173H306.421V280.343Z" fill="#C08B89"/>
<path d="M306.421 283.081H194.863V283.911H306.421V283.081Z" fill="#C08B89"/>
<path d="M124.724 137.16C137.7 124.617 137.832 104.188 125.02 91.5317C112.207 78.8755 91.3019 78.7841 78.3261 91.3276C65.3503 103.871 65.2179 124.3 78.0303 136.956C90.8428 149.612 111.748 149.704 124.724 137.16Z" fill="white" stroke="black" stroke-opacity="0.8" stroke-miterlimit="10" stroke-linecap="round" stroke-linejoin="round"/>
<path d="M128.966 109.418C128.938 113.73 126.128 117.751 121.724 119.18L106.963 123.975L88.9836 129.829C83.4811 131.618 77.4831 128.684 75.6657 123.291C75.3001 122.206 75.1319 121.1 75.1389 120.017C75.1668 115.715 77.9767 111.683 82.37 110.244L98.7018 104.941L115.111 99.6061C120.624 97.8066 126.611 100.751 128.428 106.133C128.794 107.218 128.973 108.335 128.966 109.418Z" fill="white"/>
<path d="M128.966 109.431C128.938 113.742 126.129 117.761 121.725 119.19L106.967 123.983C106.396 113.975 101.287 107.562 98.7069 104.955L115.113 99.6225C120.625 97.8236 126.611 100.767 128.428 106.147C128.794 107.232 128.973 108.348 128.966 109.431Z" fill="#C08B89"/>
<path d="M128.966 109.418C128.938 113.73 126.128 117.751 121.724 119.18L106.963 123.975L88.9836 129.829C83.4811 131.618 77.4831 128.684 75.6657 123.291C75.3001 122.206 75.1319 121.1 75.1389 120.017C75.1668 115.715 77.9767 111.683 82.37 110.244L98.7018 104.941L115.111 99.6061C120.624 97.8066 126.611 100.751 128.428 106.133C128.794 107.218 128.973 108.335 128.966 109.418Z" stroke="black" stroke-opacity="0.8" stroke-miterlimit="10" stroke-linecap="round" stroke-linejoin="round"/>
<path d="M106.959 123.967C106.959 123.967 107.183 113.675 98.7074 104.95" stroke="black" stroke-opacity="0.8" stroke-miterlimit="10" stroke-linecap="round" stroke-linejoin="round"/>
<path d="M125.508 105.527C126.115 106.525 126.503 107.764 126.491 109.3" stroke="white" stroke-miterlimit="10" stroke-linecap="round" stroke-linejoin="round"/>
<path d="M102.879 106.562L116.025 102.373C118.435 101.606 121.097 101.868 123.185 103.192" stroke="white" stroke-miterlimit="10" stroke-linecap="round" stroke-linejoin="round"/>
<path d="M316.464 90.2396C333.328 83.3692 341.314 64.4758 334.301 48.0399C327.289 31.604 307.933 23.8497 291.069 30.72C274.205 37.5904 266.219 56.4838 273.232 72.9196C280.245 89.3555 299.6 97.1099 316.464 90.2396Z" fill="white" stroke="black" stroke-opacity="0.8" stroke-miterlimit="10" stroke-linecap="round" stroke-linejoin="round"/>
<path d="M315.062 74.0632L286.316 64.5135C281.364 62.8692 278.699 57.5579 280.392 52.7112C282.085 47.8645 287.522 45.2452 292.473 46.8906L321.22 56.4402C326.171 58.0845 328.837 63.3959 327.143 68.2425C325.449 73.0882 320.014 75.7075 315.062 74.0632Z" fill="#C08B89"/>
<path d="M294.024 63.7785L298.911 52.5368" stroke="black" stroke-opacity="0.8" stroke-miterlimit="10" stroke-linecap="round" stroke-linejoin="round"/>
<path d="M309.88 69.0157L314.756 57.8039" stroke="black" stroke-opacity="0.8" stroke-miterlimit="10" stroke-linecap="round" stroke-linejoin="round"/>
<path d="M298.001 64.4676C298.542 64.4699 298.983 64.0434 298.986 63.5151C298.99 62.9868 298.555 62.5567 298.014 62.5544C297.474 62.5522 297.033 62.9787 297.03 63.507C297.026 64.0353 297.461 64.4654 298.001 64.4676Z" fill="black" fill-opacity="0.8"/>
<path d="M307.6 66.3663C307.597 66.895 307.156 67.3211 306.616 67.3189C306.075 67.3166 305.64 66.8869 305.644 66.3582C305.647 65.8295 306.088 65.4034 306.629 65.4057C307.168 65.409 307.604 65.8387 307.6 66.3663Z" fill="black" fill-opacity="0.8"/>
<path d="M301.834 56.0001C302.375 56.0023 302.816 55.5758 302.819 55.0475C302.823 54.5192 302.388 54.0891 301.847 54.0869C301.307 54.0846 300.866 54.5111 300.863 55.0394C300.859 55.5677 301.294 55.9978 301.834 56.0001Z" fill="black" fill-opacity="0.8"/>
<path d="M311.292 57.8153C311.289 58.344 310.848 58.7701 310.308 58.7678C309.768 58.7656 309.332 58.3358 309.336 57.8071C309.339 57.2784 309.78 56.8523 310.32 56.8546C310.861 56.8569 311.296 57.2866 311.292 57.8153Z" fill="black" fill-opacity="0.8"/>
<path d="M315.062 74.0632L286.316 64.5135C281.364 62.8692 278.699 57.5579 280.392 52.7112C282.085 47.8645 287.522 45.2452 292.473 46.8906L321.22 56.4402C326.171 58.0845 328.837 63.3959 327.143 68.2425C325.449 73.0882 320.014 75.7075 315.062 74.0632Z" stroke="black" stroke-opacity="0.8" stroke-miterlimit="10" stroke-linecap="round" stroke-linejoin="round"/>
<path d="M195.302 94.4748C214.076 94.557 229.392 79.6652 229.512 61.213C229.631 42.7608 214.509 27.7356 195.734 27.6534C176.96 27.5711 161.644 42.463 161.525 60.9152C161.405 79.3674 176.528 94.3926 195.302 94.4748Z" fill="white" stroke="black" stroke-opacity="0.8" stroke-miterlimit="10" stroke-linecap="round" stroke-linejoin="round"/>
<path d="M214.983 62.0001L214.891 75.6978C214.868 79.1738 212.601 81.9824 209.828 81.9708L180.938 81.8504C178.165 81.8388 175.938 79.0127 175.961 75.5355L176.053 61.8378C176.077 58.3618 178.343 55.5533 181.115 55.5649L185.867 55.5847L185.92 47.6371L205.143 47.7172L205.09 55.6648L210.006 55.6853C212.778 55.6979 215.007 58.5241 214.983 62.0001Z" fill="white" stroke="black" stroke-opacity="0.8" stroke-miterlimit="10" stroke-linecap="round" stroke-linejoin="round"/>
<path d="M214.987 63.5641L176.032 63.4016L175.974 71.9219L214.93 72.0844L214.987 63.5641Z" fill="#C08B89" stroke="black" stroke-opacity="0.8" stroke-miterlimit="10"/>
<path d="M208.876 50.6346L182.447 50.5295L182.491 44.3213C182.514 41.0171 185.253 38.3495 188.61 38.3628L202.884 38.4196C206.24 38.433 208.942 41.1222 208.919 44.4264L208.876 50.6346Z" fill="#C08B89" stroke="black" stroke-opacity="0.8" stroke-miterlimit="10"/>
<path d="M187.134 38.7349L187.066 50.5247" stroke="black" stroke-opacity="0.8" stroke-miterlimit="10" stroke-linecap="round" stroke-linejoin="round"/>
<path d="M193.382 38.3941L193.312 50.5553" stroke="black" stroke-opacity="0.8" stroke-miterlimit="10" stroke-linecap="round" stroke-linejoin="round"/>
<path d="M199.629 38.4254L199.559 50.5866" stroke="black" stroke-opacity="0.8" stroke-miterlimit="10" stroke-linecap="round" stroke-linejoin="round"/>
<path d="M205.869 39.1438L205.803 50.6198" stroke="black" stroke-opacity="0.8" stroke-miterlimit="10" stroke-linecap="round" stroke-linejoin="round"/>
<path d="M86.5753 217.518C89.6382 199.935 77.5789 183.281 59.6401 180.321C41.7014 177.361 24.6762 189.216 21.6134 206.8C18.5505 224.384 30.6098 241.037 48.5485 243.997C66.4873 246.957 83.5124 235.102 86.5753 217.518Z" fill="white" stroke="black" stroke-opacity="0.8" stroke-miterlimit="10" stroke-linecap="round" stroke-linejoin="round"/>
<path d="M70.7545 220.542C74.3972 213.12 69.5296 203.439 59.8825 198.918C50.2354 194.398 39.462 196.75 35.8194 204.171C32.1768 211.593 37.0443 221.274 46.6914 225.795C56.3385 230.315 67.1119 227.963 70.7545 220.542Z" fill="#C08B89" stroke="black" stroke-opacity="0.8" stroke-miterlimit="10" stroke-linecap="round" stroke-linejoin="round"/>
<path d="M71.9685 218.009C75.3857 211.047 70.3351 201.737 60.6877 197.217C51.0402 192.696 40.4492 194.675 37.0319 201.638C33.6147 208.601 38.6652 217.91 48.3127 222.431C57.9601 226.951 68.5512 224.972 71.9685 218.009Z" fill="#C08B89" stroke="black" stroke-opacity="0.8" stroke-miterlimit="10" stroke-linecap="round" stroke-linejoin="round"/>
<path d="M60.1495 200.307L48.0878 216.752" stroke="black" stroke-opacity="0.8" stroke-miterlimit="10" stroke-linecap="round" stroke-linejoin="round"/>
<path d="M52.9665 197.623C55.6564 197.976 57.675 198.684 57.675 198.684" stroke="white" stroke-miterlimit="10" stroke-linecap="round" stroke-linejoin="round"/>
<path d="M42.2372 213.078C42.2372 213.078 36.1708 206.502 42.1793 200.228C43.5686 198.778 45.381 198.012 47.2727 197.663" stroke="white" stroke-miterlimit="10" stroke-linecap="round" stroke-linejoin="round"/>
<path d="M102.527 321.176C105.631 303.596 93.3704 286.942 75.1416 283.98C56.9127 281.017 39.6189 292.866 36.5148 310.447C33.4107 328.027 45.6718 344.68 63.9006 347.643C82.1295 350.605 99.4232 338.756 102.527 321.176Z" fill="white" stroke="black" stroke-opacity="0.8" stroke-miterlimit="10" stroke-linecap="round" stroke-linejoin="round"/>
<path d="M88.7551 319.132C88.4971 319.485 88.239 319.849 87.9698 320.202C82.9112 326.886 75.1432 333.108 69.4099 334.318L69.4105 334.232C63.8493 333.008 56.4191 327.022 51.4494 320.5C51.1739 320.145 50.9095 319.779 50.6562 319.424C45.8766 312.731 43.8895 305.717 49.2782 302.843C60.234 297.01 69.5759 309.654 69.5759 309.654C69.5759 309.654 79.109 297.185 89.9636 303.099C95.1694 305.931 93.3355 312.639 88.7551 319.132Z" fill="#C08B89" stroke="black" stroke-opacity="0.8" stroke-miterlimit="10"/>
<path d="M88.7558 319.131C88.4977 319.484 88.2394 319.848 87.9701 320.201L85.213 320.19L82.0276 324.205L79.9654 312.255L76.5957 320.36L68.7135 320.329L64.61 326.852L61.5891 313.685L57.5278 320.531L51.4466 320.507C51.1712 320.152 50.9069 319.786 50.6537 319.43L56.8905 319.455L62.0543 310.745L65.0967 324.019L68.0985 319.253L75.8472 319.283L80.4154 308.305L82.7018 321.587L84.6647 319.114L88.7558 319.131Z" fill="white"/>
<path d="M395.761 143.578C413.861 143.657 428.627 129.265 428.742 111.433C428.858 93.6011 414.278 79.0812 396.179 79.002C378.079 78.9228 363.312 93.3144 363.197 111.146C363.082 128.979 377.661 143.499 395.761 143.578Z" fill="white" stroke="black" stroke-opacity="0.8" stroke-miterlimit="10" stroke-linecap="round" stroke-linejoin="round"/>
<path d="M393.584 96.3467C393.897 97.0481 391.919 98.5898 389.167 99.7912C386.415 100.993 383.93 101.397 383.617 100.696C383.304 99.9945 385.282 98.4528 388.034 97.2514C390.788 96.0499 393.272 95.6442 393.584 96.3467Z" fill="white" stroke="black" stroke-opacity="0.8" stroke-miterlimit="10" stroke-linecap="round" stroke-linejoin="round"/>
<path d="M408.136 126.351L398.303 130.994L389.652 113.114L383.67 100.753L393.494 96.1094L399.329 108.169L408.136 126.351Z" fill="white" stroke="black" stroke-opacity="0.8" stroke-miterlimit="10" stroke-linecap="round" stroke-linejoin="round"/>
<path d="M385.427 104.444C385.404 104.396 389.701 102.512 389.701 102.512L385.427 104.444Z" fill="#C08B89"/>
<path d="M385.427 104.444C385.404 104.396 389.701 102.512 389.701 102.512" stroke="black" stroke-opacity="0.8" stroke-miterlimit="10" stroke-linecap="round" stroke-linejoin="round"/>
<path d="M387.258 108.332C387.235 108.285 391.531 106.401 391.531 106.401L387.258 108.332Z" fill="#C08B89"/>
<path d="M387.258 108.332C387.235 108.285 391.531 106.401 391.531 106.401" stroke="black" stroke-opacity="0.8" stroke-miterlimit="10" stroke-linecap="round" stroke-linejoin="round"/>
<path d="M402.116 129.207L407.118 135.773L404.648 128.012L402.116 129.207Z" fill="white" stroke="black" stroke-opacity="0.8" stroke-miterlimit="10" stroke-linecap="round" stroke-linejoin="round"/>
<path d="M408.151 126.35C405.844 128.612 402.903 130.139 399.709 130.733L398.315 130.993L389.662 113.11L399.341 108.164L408.151 126.35Z" fill="#C08B89" stroke="black" stroke-opacity="0.8" stroke-miterlimit="10"/>
<path d="M391.475 116.511L395.484 114.698" stroke="black" stroke-opacity="0.8" stroke-miterlimit="10" stroke-linecap="round" stroke-linejoin="round"/>
<path d="M393.644 120.669C393.621 120.622 397.59 118.905 397.59 118.905L393.644 120.669Z" fill="#C08B89"/>
<path d="M393.644 120.669C393.621 120.622 397.59 118.905 397.59 118.905" stroke="black" stroke-opacity="0.8" stroke-miterlimit="10" stroke-linecap="round" stroke-linejoin="round"/>
<path d="M387.039 99.1466L383.984 92.2626L386.423 90.9122L389.721 97.8798L387.039 99.1466Z" fill="white" stroke="black" stroke-opacity="0.8" stroke-miterlimit="10" stroke-linecap="round" stroke-linejoin="round"/>
<path d="M392.412 90.0966L391.689 88.4758L378.59 94.1917L379.313 95.8126C379.615 96.4902 382.793 95.7597 386.41 94.1818C390.026 92.6027 392.714 90.7742 392.412 90.0966Z" fill="white" stroke="black" stroke-opacity="0.8" stroke-miterlimit="10" stroke-linecap="round" stroke-linejoin="round"/>
<path d="M391.687 88.4773C391.385 87.7994 388.207 88.5297 384.59 90.1078C380.972 91.6859 378.285 93.5158 378.588 94.1936C378.89 94.8715 382.068 94.1411 385.685 92.5631C389.301 90.985 391.989 89.1562 391.687 88.4773Z" fill="white" stroke="black" stroke-opacity="0.8" stroke-miterlimit="10" stroke-linecap="round" stroke-linejoin="round"/>
<path d="M53.7759 83.5537L44.753 85.0677L42.9802 76.0001L32.2501 77.7999L34.0218 86.8674L25 88.3814L27.0103 98.668L36.0332 97.1551L37.8049 106.222L48.5361 104.422L46.7633 95.3544L55.7862 93.8404L53.7759 83.5537Z" stroke="#C08B89" stroke-miterlimit="10" stroke-linecap="round" stroke-linejoin="round"/>
<path d="M142.442 25.6489L133.796 22.8193L137.108 14.1302L126.825 10.7657L123.513 19.4538L114.867 16.6252L111.109 26.4826L119.755 29.3112L116.443 38.0003L126.724 41.3658L130.038 32.6767L138.683 35.5063L142.442 25.6489Z" stroke="#C08B89" stroke-miterlimit="10" stroke-linecap="round" stroke-linejoin="round"/>
<path d="M412.846 42.1703L404.743 46.1444L400.089 38.0001L390.451 42.7261L395.104 50.8704L387 54.8444L392.278 64.0843L400.383 60.1103L405.036 68.2546L414.674 63.5286L410.021 55.3843L418.126 51.4092L412.846 42.1703Z" stroke="#C08B89" stroke-miterlimit="10" stroke-linecap="round" stroke-linejoin="round"/>
<path d="M14.5793 142.894C18.213 142.894 21.1586 140.165 21.1586 136.799C21.1586 133.432 18.213 130.703 14.5793 130.703C10.9457 130.703 8 133.432 8 136.799C8 140.165 10.9457 142.894 14.5793 142.894Z" stroke="#C08B89" stroke-miterlimit="10" stroke-linecap="round" stroke-linejoin="round"/>
<path d="M130.479 71.6116C130.479 72.502 129.699 73.2231 128.739 73.2231C127.778 73.2231 127 72.501 127 71.6116C127 70.7212 127.779 70.0001 128.739 70.0001C129.699 69.9991 130.479 70.7212 130.479 71.6116Z" stroke="#C08B89" stroke-miterlimit="10" stroke-linecap="round" stroke-linejoin="round"/>
<path d="M57.3072 35.7012C57.3072 38.8495 54.5518 41.4023 51.1536 41.4023C47.7554 41.4023 45 38.8495 45 35.7012C45 32.5528 47.7554 30.0001 51.1536 30.0001C54.5518 30.0001 57.3072 32.5528 57.3072 35.7012Z" stroke="#C08B89" stroke-miterlimit="10" stroke-linecap="round" stroke-linejoin="round"/>
<path d="M326.962 103.226C326.962 105.007 325.403 106.451 323.481 106.451C321.559 106.451 320 105.007 320 103.226C320 101.444 321.559 100 323.481 100C325.403 100 326.962 101.444 326.962 103.226Z" stroke="#C08B89" stroke-miterlimit="10" stroke-linecap="round" stroke-linejoin="round"/>
<path d="M260.792 32.438C265.095 32.438 268.584 29.206 268.584 25.219C268.584 21.2321 265.095 18 260.792 18C256.489 18 253 21.2321 253 25.219C253 29.206 256.489 32.438 260.792 32.438Z" stroke="#C08B89" stroke-miterlimit="10" stroke-linecap="round" stroke-linejoin="round"/>
<path d="M136.931 421.724H31.8894V476.848H136.931V421.724Z" fill="white" stroke="black" stroke-opacity="0.8" stroke-miterlimit="10" stroke-linecap="round" stroke-linejoin="round"/>
<path d="M31.4767 476.848L14.588 461.492V406.368L31.4767 421.724V476.848Z" fill="white" stroke="black" stroke-opacity="0.8" stroke-miterlimit="10" stroke-linecap="round" stroke-linejoin="round"/>
<path d="M136.93 421.724L120.042 406.368H14.9996L31.8894 421.724H136.93Z" fill="white" stroke="black" stroke-opacity="0.8" stroke-miterlimit="10" stroke-linecap="round" stroke-linejoin="round"/>
<path d="M98.2992 442.4H89.0149V433.122H75.9316V442.4H65.8023V454.906H75.9316V464.184H89.0149V454.906H98.2992V442.4Z" fill="#C08B89" stroke="black" stroke-opacity="0.8" stroke-miterlimit="10"/>
<path d="M83.4924 421.724L66.6036 406.368" stroke="black" stroke-opacity="0.8" stroke-miterlimit="10" stroke-linecap="round" stroke-linejoin="round"/>
<path d="M470.902 258.909C471.293 259.485 482.918 261.759 488.943 270.374C494.968 278.988 497.725 286.222 497.725 286.222C497.725 286.222 507.811 292.117 512.979 296.981C518.148 301.844 524.311 308.295 529.069 311.684C533.828 315.072 543.596 321.493 546.066 329.016C546.066 329.016 531.398 368.482 527.255 377.205C523.112 385.928 512.874 404.445 512.874 404.445L494.671 480.612H388.803L385.191 454.486C385.191 454.486 352.8 448.234 339.203 436.581C339.203 436.581 337.924 407.711 343.596 381.925C349.269 356.138 368.529 302.589 381.583 286.225C381.583 286.225 402.438 276.42 420.83 273.237C420.83 273.237 432.769 263.966 440.591 262.975C448.413 261.982 470.902 258.909 470.902 258.909Z" fill="white"/>
<path d="M386.623 466.259C396.015 468.019 404.211 469.548 413.772 469.44C423.334 469.333 433.112 467.218 440.943 461.828C442.551 460.721 444.118 459.459 446.007 458.938C450.166 457.791 454.28 460.492 458.405 461.75C463.636 463.345 469.376 462.583 474.498 460.675C479.62 458.768 484.239 455.779 488.811 452.814C488.129 461.974 487.911 471.168 488.159 480.35L494.672 480.612L511.371 408.429C511.371 408.429 482.814 441.024 468.894 450.754L442.201 444.001C442.201 444.001 439.681 446.056 434.392 447.09C434.392 447.09 431.969 456.244 418.351 456.261C404.732 456.278 385.191 454.487 385.191 454.487L386.623 466.259Z" fill="#C08B89"/>
<path opacity="0.5" d="M386.623 466.259C396.015 468.019 404.211 469.548 413.772 469.44C423.334 469.333 433.112 467.218 440.943 461.828C442.551 460.721 444.118 459.459 446.007 458.938C450.166 457.791 454.28 460.492 458.405 461.75C463.636 463.345 469.376 462.583 474.498 460.675C479.62 458.768 484.239 455.779 488.811 452.814C488.129 461.974 487.911 471.168 488.159 480.35L494.672 480.612L511.371 408.429C511.371 408.429 482.814 441.024 468.894 450.754L442.201 444.001C442.201 444.001 439.681 446.056 434.392 447.09C434.392 447.09 431.969 456.244 418.351 456.261C404.732 456.278 385.191 454.487 385.191 454.487L386.623 466.259Z" fill="white"/>
<path d="M359.269 331.581C359.269 331.581 346.847 390.711 347.498 411.026C347.498 411.026 364.338 406.383 376.097 411.026C376.097 411.026 356.092 408.832 347.474 417.846C338.855 426.861 365.374 450.541 418.438 445.737C418.438 445.737 429.024 449.004 434.393 447.089C434.393 447.089 432.952 456.506 418.352 456.26C403.804 455.689 361.25 455.342 339.204 436.581C339.204 436.581 336.431 382.215 359.269 331.581Z" fill="#C08B89"/>
<path opacity="0.6" d="M359.269 331.581C359.269 331.581 346.847 390.711 347.498 411.026C347.498 411.026 364.338 406.383 376.097 411.026C376.097 411.026 356.092 408.832 347.474 417.846C338.855 426.861 365.374 450.541 418.438 445.737C418.438 445.737 429.024 449.004 434.393 447.089C434.393 447.089 432.952 456.506 418.352 456.26C403.804 455.689 361.25 455.342 339.204 436.581C339.204 436.581 336.431 382.215 359.269 331.581Z" fill="white"/>
<path d="M384.611 342.913C384.611 342.913 388.275 369.095 394.181 374.573C400.087 380.051 427.664 378.268 438.543 384.166C438.543 384.166 448.805 366.692 467.376 355.75L442.2 394.711L420.434 389.653L393.866 385.624L391.635 390.662L387.641 390.629C387.641 390.631 387.194 362.769 384.611 342.913Z" fill="#C08B89"/>
<path opacity="0.5" d="M384.611 342.913C384.611 342.913 388.275 369.095 394.181 374.573C400.087 380.051 427.664 378.268 438.543 384.166C438.543 384.166 448.805 366.692 467.376 355.75L442.2 394.711L420.434 389.653L393.866 385.624L391.635 390.662L387.641 390.629C387.641 390.631 387.194 362.769 384.611 342.913Z" fill="white"/>
<path d="M488.706 289.575C500.084 296.159 501.36 303.582 503.709 308.882C497.789 310.034 491.665 311.271 486.776 314.748C480.659 319.097 477.399 326.278 474.849 333.262C472.437 339.867 470.412 346.608 468.789 353.44C474.252 343.717 482.145 335.323 491.579 329.204C497.048 325.657 503.799 322.798 510.028 324.802C504.8 326.975 498.89 329.933 497.78 335.403C497.595 336.314 497.565 337.28 497.883 338.157C498.82 340.734 502.085 341.43 504.561 342.685C509.382 345.131 511.891 350.691 512.111 356.018C512.331 361.344 510.653 366.55 508.995 371.624C507.544 376.064 506.093 380.504 504.642 384.945C502.786 390.624 500.893 396.383 497.545 401.358C494.197 406.333 489.15 410.51 483.164 411.494C480.664 411.904 478.017 411.731 475.725 410.668C473.908 409.826 472.398 408.475 470.837 407.233C463.701 401.551 454.956 397.841 445.853 396.633C457.636 404.28 463.207 418.171 468.094 431.188C465.866 427.351 462.599 424.103 458.723 421.867C457.678 421.265 456.519 420.72 455.311 420.815C452.117 421.067 451.101 425.071 449.168 427.584C446.863 430.582 442.637 431.639 438.843 431.166C435.049 430.693 431.561 428.943 428.164 427.221C413.799 419.941 399.434 412.662 385.07 405.383L381.988 414.347C381.988 414.347 416.311 441.226 468.894 450.754C468.894 450.754 503.06 424.226 515.158 400.715C527.255 377.205 546.066 329.016 546.066 329.016C546.066 329.016 539.18 316.208 527.378 309.518C527.378 309.518 518.573 305.427 516.719 300.366C514.863 295.307 498.308 286.573 498.308 286.573C498.308 286.573 500.477 291.917 488.706 289.575Z" fill="#C08B89"/>
<path opacity="0.6" d="M488.706 289.575C500.084 296.159 501.36 303.582 503.709 308.882C497.789 310.034 491.665 311.271 486.776 314.748C480.659 319.097 477.399 326.278 474.849 333.262C472.437 339.867 470.412 346.608 468.789 353.44C474.252 343.717 482.145 335.323 491.579 329.204C497.048 325.657 503.799 322.798 510.028 324.802C504.8 326.975 498.89 329.933 497.78 335.403C497.595 336.314 497.565 337.28 497.883 338.157C498.82 340.734 502.085 341.43 504.561 342.685C509.382 345.131 511.891 350.691 512.111 356.018C512.331 361.344 510.653 366.55 508.995 371.624C507.544 376.064 506.093 380.504 504.642 384.945C502.786 390.624 500.893 396.383 497.545 401.358C494.197 406.333 489.15 410.51 483.164 411.494C480.664 411.904 478.017 411.731 475.725 410.668C473.908 409.826 472.398 408.475 470.837 407.233C463.701 401.551 454.956 397.841 445.853 396.633C457.636 404.28 463.207 418.171 468.094 431.188C465.866 427.351 462.599 424.103 458.723 421.867C457.678 421.265 456.519 420.72 455.311 420.815C452.117 421.067 451.101 425.071 449.168 427.584C446.863 430.582 442.637 431.639 438.843 431.166C435.049 430.693 431.561 428.943 428.164 427.221C413.799 419.941 399.434 412.662 385.07 405.383L381.988 414.347C381.988 414.347 416.311 441.226 468.894 450.754C468.894 450.754 503.06 424.226 515.158 400.715C527.255 377.205 546.066 329.016 546.066 329.016C546.066 329.016 539.18 316.208 527.378 309.518C527.378 309.518 518.573 305.427 516.719 300.366C514.863 295.307 498.308 286.573 498.308 286.573C498.308 286.573 500.477 291.917 488.706 289.575Z" fill="white"/>
<path d="M485.085 197.9C485.085 197.9 487.386 171.531 475.817 168.996C464.248 166.46 457.759 156.065 457.759 156.065L416.724 167.318L410.355 191.56L414.452 203.838C414.452 203.838 415.307 215.216 415.495 220.849C415.684 226.481 415.514 230.849 419.841 237.641C424.167 244.433 428.207 251.26 437.583 257.161V272.69C437.583 272.69 431.789 289.314 434.988 299.515C434.988 299.515 436.903 301.499 442.201 298.506C447.499 295.513 470.125 280.658 478.025 265.142L480.478 225.689C480.478 225.689 486.991 226.674 489.803 220.85C493.922 215.143 493.757 208.482 492.163 203.065C490.568 197.648 483.669 201.161 483.669 201.161L485.085 197.9Z" fill="#FFE3D6"/>
<path d="M422.713 163.969C422.713 163.969 412.9 176.643 413.46 189.869C414.021 203.095 415.984 212.462 415.424 222.657C414.863 232.852 425.798 249.935 437.015 256.823C445.405 261.975 455.91 261.095 464.069 255.777C473.173 249.844 478.215 239.058 480.045 228.753C480.225 227.737 480.371 226.714 480.478 225.688" stroke="black" stroke-opacity="0.8" stroke-miterlimit="10" stroke-linecap="round" stroke-linejoin="round"/>
<path d="M437.014 256.822C437.014 256.822 438.61 271.1 437.014 275.994C435.263 281.36 433.147 293.859 434.987 299.513C436.828 305.166 471.35 281.421 478.024 265.14C478.024 265.14 478.94 233.499 481.242 225.584" stroke="black" stroke-opacity="0.8" stroke-miterlimit="10" stroke-linecap="round" stroke-linejoin="round"/>
<path d="M437.334 260.259C437.334 260.259 440.681 270.444 447.899 271.056C455.117 271.668 473.16 257.447 479.279 240.711V232.329C479.279 232.329 474.195 254.197 459.367 258.244C444.538 262.292 437.584 257.16 437.584 257.16L437.334 260.259Z" fill="black" fill-opacity="0.8"/>
<path d="M476.738 210.442C476.738 210.442 482.166 197.65 489.235 200.403C494.114 202.302 494.407 210.566 491.821 216.282C489.235 221.999 487.943 227.926 479.323 224.644" stroke="black" stroke-opacity="0.8" stroke-miterlimit="10" stroke-linecap="round" stroke-linejoin="round"/>
<path d="M477.7 208.48C477.7 208.48 472.492 206.67 471.531 198.36C470.57 190.05 475.759 181.742 473.837 175.698C471.916 169.655 456.733 172.676 453.273 162.29C453.273 162.29 441.883 170.636 419.84 168.845C419.84 168.845 415.179 176.63 414.37 181.391C413.586 186.005 413.041 195.846 414.452 203.836C414.498 204.091 414.545 204.345 414.593 204.596C416.181 212.711 408.301 193.56 408.493 185.384C408.686 177.208 403.689 166.822 410.223 159.079C416.757 151.336 440.751 146.804 445.474 143.215C450.198 139.628 459.423 149.258 469.993 152.847C480.563 156.435 489.404 160.668 488.058 175.453C486.713 190.238 488.138 192.224 488.194 200.012C488.195 200.014 483.292 198.205 477.7 208.48Z" fill="black" fill-opacity="0.8"/>
<path d="M442.003 301.934C446.932 298.855 453.444 300.004 458.844 302.191C461.806 303.39 464.62 304.909 467.567 306.136C469.033 306.747 470.525 307.307 472.068 307.703C475.77 308.653 474.438 304.136 474.227 302.113C473.924 299.221 473.707 296.316 473.354 293.429C473.28 292.828 473.219 292.169 473.555 291.661C473.868 291.186 474.451 290.965 474.999 290.794C481.495 288.765 488.499 289.681 495.314 289.819C495.927 289.831 496.582 289.826 497.094 289.493C498.1 288.84 497.999 287.375 497.724 286.221C495.379 276.379 487.118 266.591 478.141 261.672" stroke="black" stroke-opacity="0.8" stroke-miterlimit="10" stroke-linecap="round" stroke-linejoin="round"/>
<path d="M437.585 263.287C433.115 265.12 428.524 267.022 424.672 269.831C423.283 270.837 421.986 271.962 420.83 273.237C419.989 274.173 419.188 275.279 419.178 276.534C419.168 277.719 419.857 278.705 420.79 279.492C421.459 280.05 422.249 280.508 423.02 280.867C424.885 281.733 427.023 282.58 427.865 284.422C428.037 284.811 428.149 285.249 428.067 285.667C427.996 286.056 427.763 286.394 427.5 286.703C425.959 288.546 423.243 289.97 423.415 292.35C423.547 294.193 425.422 295.378 427.125 296.155C428.828 296.942 430.774 297.819 431.352 299.581" stroke="black" stroke-opacity="0.8" stroke-miterlimit="10" stroke-linecap="round" stroke-linejoin="round"/>
<path d="M411.126 169.892C411.779 165.886 416.018 163.338 420.092 162.685C424.167 162.034 428.348 162.714 432.459 162.342C439.31 161.72 445.809 158.01 449.751 152.468" stroke="white" stroke-miterlimit="10" stroke-linecap="round" stroke-linejoin="round"/>
<path d="M415.736 158.691C423.094 154.422 433.434 158.863 440.61 154.306C442.716 152.968 444.296 150.985 445.835 149.04" stroke="white" stroke-miterlimit="10" stroke-linecap="round" stroke-linejoin="round"/>
<path d="M509.603 322.171C483.213 327.335 473.421 346.394 473.421 346.394L442.2 394.712" stroke="#C08B89" stroke-miterlimit="10" stroke-linecap="round" stroke-linejoin="round"/>
<path d="M487.324 316.935C489.531 314.951 491.974 313.262 494.672 312.011" stroke="black" stroke-opacity="0.8" stroke-miterlimit="10" stroke-linecap="round" stroke-linejoin="round"/>
<path d="M468.894 353.402C468.894 353.402 472.225 335.957 481.775 323.1" stroke="#F5F5F5" stroke-miterlimit="10" stroke-linecap="round" stroke-linejoin="round"/>
<path d="M387.641 390.631C387.641 390.631 386.274 337.177 381.58 329.015" stroke="#C08B89" stroke-miterlimit="10" stroke-linecap="round" stroke-linejoin="round"/>
<path d="M497.725 286.221C497.725 286.221 512.926 295.169 519.676 303.611C526.427 312.053 542.383 317.633 546.066 329.014C546.066 329.014 525.048 394.067 503.031 417.586C481.013 441.104 468.894 450.752 468.894 450.752C468.894 450.752 415.935 441.707 381.58 413.363L393.867 385.624C393.867 385.624 428.504 389.929 442.201 394.711C455.898 399.494 468.894 428.44 468.894 428.44" stroke="#C08B89" stroke-miterlimit="10" stroke-linecap="round" stroke-linejoin="round"/>
<path d="M442.201 394.712C442.201 394.712 466.448 399.335 474.32 410.189" stroke="#F5F5F5" stroke-miterlimit="10" stroke-linecap="round" stroke-linejoin="round"/>
<path d="M511.964 405.865L494.671 480.611H388.803L385.191 454.485" stroke="#F5F5F5" stroke-miterlimit="10" stroke-linecap="round" stroke-linejoin="round"/>
<path d="M434.392 447.089C428.544 458.862 420.83 456.262 420.83 456.262C361.179 458.483 339.203 436.581 339.203 436.581C339.203 436.581 336.183 405.775 347.89 364.202C359.597 322.619 381.583 286.225 381.583 286.225C391.324 279.861 413.056 274.891 419.188 273.576C420.232 273.357 420.83 273.237 420.83 273.237" stroke="#F5F5F5" stroke-miterlimit="10" stroke-linecap="round" stroke-linejoin="round"/>
<path d="M420.834 456.259C420.834 456.259 417.675 455.747 418.483 435.216" stroke="#C08B89" stroke-miterlimit="10" stroke-linecap="round" stroke-linejoin="round"/>
<path d="M383.196 414.673C383.196 414.673 368.291 409.514 349.835 422.069" stroke="#C08B89" stroke-miterlimit="10" stroke-linecap="round" stroke-linejoin="round"/>
<path d="M353.185 410.189C353.185 410.189 372.707 404.479 381.58 413.623" stroke="#C08B89" stroke-miterlimit="10" stroke-linecap="round" stroke-linejoin="round"/>
<path d="M379.458 413.099L381.987 414.346L391.635 390.663C391.635 390.663 381.645 389.057 365.807 408.428C365.807 408.428 372.568 408.058 379.458 413.099Z" fill="#FFE3D6" stroke="#C08B89" stroke-miterlimit="10"/>
<path d="M418.483 435.216L418.437 445.737C418.437 445.737 432.097 449.724 442.201 443.999L418.483 435.216Z" fill="#FFE3D6" stroke="#C08B89" stroke-miterlimit="10"/>
<path d="M492.483 289.731C492.493 289.92 492.473 290.119 492.422 290.309C491.996 291.952 481.586 330.567 448.269 347.748C447.965 347.907 447.651 347.977 447.326 347.977C446.596 347.977 445.897 347.589 445.532 346.911C445.015 345.935 445.39 344.73 446.383 344.222C476.762 328.555 487.506 292.848 488.439 289.562L492.483 289.731Z" fill="black" fill-opacity="0.8"/>
<path d="M420.79 279.492C417.384 286.892 412.934 299.711 412.427 316.942C412.407 317.988 412.387 319.053 412.387 320.139C412.387 320.408 412.387 320.677 412.397 320.946C412.093 320.956 411.799 320.985 411.495 321.035C410.4 321.195 409.336 321.523 408.342 322.001C408.312 320.537 408.312 319.113 408.342 317.709C408.778 295.358 415.569 280.149 419.188 273.576C420.232 273.357 420.83 273.237 420.83 273.237C419.989 274.173 419.188 275.279 419.178 276.534C419.168 277.719 419.857 278.705 420.79 279.492Z" fill="black" fill-opacity="0.8"/>
<path d="M460.703 338.765C463.083 342.004 461.136 347.38 456.352 350.774C451.57 354.167 445.763 354.294 443.383 351.055C441.003 347.816 442.95 342.439 447.734 339.046C452.516 335.652 458.323 335.526 460.703 338.765Z" fill="white" stroke="black" stroke-opacity="0.8" stroke-miterlimit="10" stroke-linecap="round" stroke-linejoin="round"/>
<path d="M454.808 336.845C456.49 339.135 455.114 342.936 451.732 345.336C448.351 347.735 444.245 347.825 442.562 345.534C440.88 343.244 442.256 339.442 445.639 337.043C449.02 334.644 453.125 334.555 454.808 336.845Z" fill="white" stroke="black" stroke-opacity="0.8" stroke-miterlimit="10" stroke-linecap="round" stroke-linejoin="round"/>
<path d="M428.017 377.269C427.115 377.927 425.848 377.728 425.189 376.851C424.53 375.965 424.712 374.74 425.594 374.082C425.766 373.943 432.568 368.256 429.588 349.103C429.334 347.479 429.01 345.746 428.605 343.923C427.317 338.117 425.331 330.766 421.266 325.368C418.945 322.28 415.823 320.736 412.397 320.946C412.093 320.956 411.799 320.985 411.495 321.035C410.4 321.195 409.336 321.523 408.342 322.001C405.464 323.396 403.132 326.015 401.936 329.352L401.571 330.388C400.041 334.651 397.507 341.702 395.946 349.103C394.324 356.921 393.777 365.118 396.655 370.845C398.287 374.082 400.862 376.224 404.521 377.389C405.585 377.728 406.163 378.853 405.818 379.899C405.545 380.736 404.744 381.273 403.893 381.273C403.69 381.273 403.477 381.243 403.264 381.174C398.581 379.68 395.135 376.801 393.027 372.608C389.783 366.164 390.209 357.389 391.851 349.103C393.412 341.125 396.118 333.595 397.75 329.063L398.115 328.037C399.909 323.027 403.7 319.252 408.342 317.709C409.163 317.43 410.015 317.221 410.887 317.091C411.403 317.021 411.92 316.972 412.427 316.942C417.11 316.762 421.459 318.914 424.53 323.007C429.051 329.013 431.199 336.882 432.568 343.077C433.044 345.208 433.409 347.21 433.683 349.103C436.855 370.596 428.412 376.991 428.017 377.269Z" fill="black" fill-opacity="0.8" stroke="black" stroke-opacity="0.8" stroke-miterlimit="10"/>
<path d="M402.445 380.893C402.445 380.893 409.794 383.865 411.653 380.893C413.512 377.921 412.017 376.498 409.471 376.259C406.925 376.021 401.851 376.259 401.851 376.259L402.445 380.893Z" fill="black" fill-opacity="0.8" stroke="black" stroke-opacity="0.8" stroke-miterlimit="10"/>
<path d="M405.816 379.899C405.543 380.736 404.742 381.273 403.891 381.273C403.688 381.273 403.475 381.243 403.262 381.174C398.579 379.68 395.133 376.801 393.025 372.608C389.781 366.164 390.207 357.389 391.849 349.103H395.944C394.322 356.921 393.775 365.118 396.653 370.845C398.285 374.082 400.86 376.224 404.519 377.389C405.583 377.728 406.161 378.852 405.816 379.899Z" fill="white" stroke="black" stroke-opacity="0.8" stroke-miterlimit="10" stroke-linecap="round" stroke-linejoin="round"/>
<path d="M421.25 375.103C420.674 375.843 420.296 376.792 420.483 377.706C420.766 379.095 422.331 379.976 423.77 379.874C425.208 379.772 426.484 378.898 427.456 377.852C428.493 376.736 431.986 369.443 428.742 370.69C426.38 371.597 422.823 373.081 421.25 375.103Z" fill="black" fill-opacity="0.8" stroke="black" stroke-opacity="0.8" stroke-miterlimit="10"/>
<path d="M428.015 377.268C427.113 377.926 425.846 377.727 425.187 376.85C424.528 375.964 424.71 374.739 425.592 374.081C425.764 373.942 432.566 368.255 429.586 349.102H433.681C436.853 370.595 428.41 376.99 428.015 377.268Z" fill="white" stroke="black" stroke-opacity="0.8" stroke-miterlimit="10" stroke-linecap="round" stroke-linejoin="round"/>
</g>
<defs>
<clipPath id="clip0_10_14147">
<rect width="521" height="498" fill="white"/>
</clipPath>
</defs>
</svg>
