<svg width="200" height="225" viewBox="0 0 200 225" fill="none" xmlns="http://www.w3.org/2000/svg">
<path d="M41.0553 224.384C26.3002 224.384 14.3389 218.055 14.3389 210.249C14.3389 202.443 26.3002 196.114 41.0553 196.114C55.8104 196.114 67.7721 202.442 67.7721 210.249C67.7719 218.055 55.8102 224.384 41.0553 224.384Z" fill="url(#paint0_linear_10_9963)"/>
<path d="M41.0553 221.828C26.3002 221.828 14.3389 215.5 14.3389 207.694C14.3389 199.887 26.3002 193.559 41.0553 193.559C55.8104 193.559 67.7721 199.887 67.7721 207.694C67.7719 215.5 55.8102 221.828 41.0553 221.828Z" fill="#F5F5F5"/>
<path d="M38.8353 195.759C38.8353 195.759 36.1359 200.002 39.2999 200.794C42.4639 201.585 43.9519 200.683 46.7555 203.747C49.5591 206.811 53.1504 208.189 55.1335 207.534C57.1167 206.879 62.5651 203.249 58.0456 201.199C53.5261 199.148 49.6154 197.303 48.7135 195.881C47.8117 194.46 48.1983 193.031 48.1983 193.031L38.8353 195.759Z" fill="#C08B89"/>
<path d="M32.2764 206.033C32.2764 206.033 32.161 209.953 36.0004 211.561C39.8398 213.17 42.5037 214.228 40.1982 216.256C37.8927 218.284 35.3652 219.241 32.3598 217.555C29.3544 215.869 27.4522 213.837 25.8381 213.938C24.2241 214.04 20.667 214.732 20.6815 211.382C20.6961 208.032 20.6738 205.856 20.6738 205.856L32.2764 206.033Z" fill="#C08B89"/>
<path d="M38.2088 153.711C38.2088 153.711 37.1836 165.713 37.8481 177.469C38.5127 189.225 38.2078 194.786 38.2078 194.786C38.2078 194.786 38.883 197.078 42.9752 197.448C47.0673 197.819 48.7962 194.754 48.7962 194.754C48.7962 194.754 49.2672 166.166 50.0928 158.091C50.9186 150.017 50.7869 145.24 50.7869 145.24L38.2088 153.711Z" fill="url(#paint1_linear_10_9963)"/>
<path d="M19.3019 153.312C19.3019 153.312 16.9421 176.475 18.5982 189.049C20.2542 201.623 20.674 205.856 20.674 205.856C20.674 205.856 21.592 207.358 26.9138 207.37C32.2354 207.382 33.5899 204.727 33.5899 204.727C33.5899 204.727 30.7363 178.489 33.213 167.865C35.6896 157.24 34.096 150.82 34.096 150.82C34.096 150.82 19.5594 150.509 19.3019 153.312Z" fill="url(#paint2_linear_10_9963)"/>
<path d="M86.9603 91.5531C86.9603 91.5531 78.6549 102.142 73.4783 103.529C68.3073 104.916 55.4518 87.513 55.4518 87.513L53.381 146.06C53.381 146.06 48.1306 154.199 33.6165 155.648C19.1028 157.098 16.5572 150.492 16.5572 150.492L16.1313 121.159C16.1313 121.159 5.06608 121.696 1.50878 119.508C-2.05484 117.32 1.44018 97.9212 4.31619 86.844C7.18644 75.7663 9.46614 72.0413 14.9156 69.7775C18.8922 68.1258 33.7292 63.3789 43.0416 60.6771C46.5115 59.6645 49.9396 60.8448 51.0197 60.667C52.3488 60.4549 72.5215 90.8745 73.5812 91.273C74.6413 91.6715 82.0112 84.3295 82.0112 84.3295L86.9603 91.5531Z" fill="white"/>
<path d="M21.4595 67.4615C21.4595 67.4615 30.7013 77.3129 34.3894 81.4806C38.0774 85.6483 38.6849 88.5508 38.6849 88.5508C38.6849 88.5508 43.0343 78.9648 43.2383 70.4178C43.4423 61.8709 42.5643 60.9191 42.5643 60.9191C42.5643 60.9191 22.5376 67.1025 21.4595 67.4615Z" fill="white"/>
<path opacity="0.4" d="M53.4912 70.191C53.4912 70.191 55.5134 76.7334 55.5702 81.4997C55.627 86.266 55.4501 87.5108 55.4501 87.5108C55.4501 87.5108 67.7785 102.502 71.3783 103.298C74.9781 104.094 80.8192 98.3667 80.8192 98.3667C80.8192 98.3667 73.8435 102.191 71.1024 101.11C68.3613 100.029 57.5344 87.5552 57.6608 86.1069C57.7872 84.6588 55.1452 72.2774 53.4912 70.191Z" fill="#F5F5F5"/>
<path d="M82.2703 84.7117C82.2703 84.7117 81.3034 89.2939 84.2925 90.1372C87.2814 90.9805 90.65 90.5773 91.444 87.0943C92.238 83.6114 94.5605 77.2164 93.4943 76.5418C92.428 75.8672 89.3616 74.8406 89.3616 74.8406C89.3616 74.8406 91.9609 67.7358 90.8045 67.2378C89.648 66.7399 85.4862 80.0904 85.2319 80.1702C84.9776 80.2499 85.1143 76.3796 84.4764 75.4521C83.8383 74.5247 82.5319 74.5615 82.5319 74.5615L82.2703 84.7117Z" fill="url(#paint3_linear_10_9963)"/>
<path d="M39.863 41.4166C39.863 41.4166 41.2165 46.9425 40.8118 47.9567C40.4071 48.9708 40.4071 48.9708 40.4071 48.9708C40.4071 48.9708 40.9945 51.1356 41.1342 53.4404C41.2739 55.7454 41.6411 59.9624 40.8766 60.724C40.1121 61.4856 36.8406 62.2239 36.8406 62.2239L36.7831 63.8506C36.7831 63.8506 37.518 68.0827 33.2781 69.0986C29.0381 70.1146 25.8317 66.8804 25.8317 66.8804C25.8317 66.8804 25.4105 57.9848 25.0224 56.4456C24.6342 54.9066 23.8523 47.8183 24.811 43.6554C25.7693 39.4928 39.863 41.4166 39.863 41.4166Z" fill="url(#paint4_linear_10_9963)"/>
<path d="M40.3465 40.2468C40.3766 43.7367 38.8043 44.2273 35.8191 45.2154C32.8338 46.2033 30.6633 45.0047 30.6633 45.0047C30.6633 45.0047 32.8569 47.6315 31.4016 49.1577C29.9461 50.6839 31.0387 55.2477 30.2937 55.4551C29.5487 55.6626 28.859 52.2251 27.2442 52.0006C25.6295 51.7761 27.4977 55.2617 27.0678 56.9883C26.6378 58.715 25.4936 59.6988 23.4684 56.524C21.4433 53.3492 19.4473 49.3035 18.5618 45.1445C17.6762 40.9855 19.3554 39.3892 19.3554 39.3892C19.3554 39.3892 18.9687 32.5549 29.5998 33.8616C40.2312 35.168 40.3465 40.2468 40.3465 40.2468Z" fill="url(#paint5_linear_10_9963)"/>
<path d="M25.774 65.7391L32.7839 69.198L29.0549 73.8032L23.1904 66.893L25.774 65.7391Z" fill="white"/>
<path d="M36.84 62.2239L36.0269 67.3469L40.2458 69.061L40.9709 61.3866L36.84 62.2239Z" fill="white"/>
<path d="M36.0269 67.3469L32.3477 68.9829L33.0754 70.6988L33.486 70.7157L35.3151 82.5787L38.6843 88.5508L40.4533 83.9861L37.3662 68.9432L37.8354 68.9625L36.0269 67.3469Z" fill="url(#paint6_linear_10_9963)"/>
<path d="M38.6846 88.5509C38.6846 88.5509 39.6871 124.177 39.693 135.361C39.6988 146.544 39.0079 154.729 39.0079 154.729" stroke="#F5F5F5" stroke-width="0.6894" stroke-miterlimit="10"/>
<path d="M27.7926 133.234L20.2422 137.523L21.036 139.505L28.7085 135.083L27.7926 133.234Z" fill="white"/>
<path d="M53.8898 131.671L53.8095 133.938L48.9321 131.195L50.0316 129.47L53.8898 131.671Z" fill="white"/>
<path d="M44.5693 80.0469L52.5024 77.0938L52.3867 80.3662L44.4536 83.3191L44.5693 80.0469Z" fill="url(#paint7_linear_10_9963)"/>
<path d="M36.8404 62.2238C36.8404 62.2238 33.2383 61.5341 31.6681 60.2496C30.0979 58.9651 29.8662 58.1108 29.8662 58.1108C29.8662 58.1108 30.7616 60.7343 32.5353 62.0478C34.309 63.3612 34.8188 67.8842 34.8188 67.8842L36.0272 67.3468L36.6503 67.6L36.8404 62.2238Z" fill="#FFE3D6"/>
<path d="M27.9747 95.4688C27.9441 95.3219 24.9149 80.6873 22.9333 72.1805C20.8341 63.1677 25.303 60.8406 25.4726 60.7533L25.4735 62.0746L25.5304 61.5946L25.5583 62.021C25.5255 62.0388 22.2321 63.9503 24.0771 71.8729C26.0628 80.3959 29.0953 95.0467 29.1253 95.1936L27.9747 95.4688Z" fill="#F5F5F5"/>
<path d="M49.1598 120.794L35.3389 88.0381C34.9775 87.1818 34.2244 86.5926 33.3553 86.4863L17.6212 84.5614C16.7858 84.4592 16.1656 85.375 16.5129 86.1982L30.3223 118.927C30.621 119.635 31.2436 120.122 31.9621 120.209L48.2097 122.197C48.9258 122.285 49.4574 121.5 49.1598 120.794Z" fill="#C08B89"/>
<path d="M49.405 92.1784C49.399 92.1218 48.7887 86.4052 47.9961 77.2872C46.9277 65.004 40.6658 61.3209 40.6025 61.2855L41.1476 60.1613C41.4285 60.3176 48.0378 64.1488 49.1701 77.1691C49.9614 86.2738 50.5704 91.9762 50.5765 92.0329L49.405 92.1784Z" fill="#F5F5F5"/>
<path d="M48.8785 121.314L35.0576 88.5579C34.6963 87.7016 33.9432 87.1123 33.074 87.006L17.34 85.0812C16.5045 84.979 15.8844 85.8948 16.2317 86.7179L30.0411 119.447C30.3397 120.154 30.9624 120.641 31.6809 120.729L47.9285 122.717C48.6446 122.805 49.1762 122.02 48.8785 121.314Z" fill="#C08B89"/>
<path d="M30.8135 108.184C30.8135 108.184 31.9411 109.811 32.4446 112.175C32.948 114.539 33.2414 115.723 33.2414 115.723C33.2414 115.723 43.0656 115.355 44.091 112.447C45.1162 109.538 45.8934 104.162 44.4053 103.56C42.9172 102.959 39.8041 105.626 38.7154 105.581C37.6269 105.537 37.7711 103.83 39.6196 103.725C41.4681 103.62 41.3535 102.121 41.3535 102.121C41.3535 102.121 38.7104 100.984 36.5437 102.968C34.3771 104.953 30.8135 108.184 30.8135 108.184Z" fill="url(#paint8_linear_10_9963)"/>
<path d="M19.4268 108.064L30.8143 108.184C30.8143 108.184 31.8958 111.144 32.716 113.427C33.5362 115.709 33.4127 116.017 33.4127 116.017L30.1147 117.637L21.8375 119.627L19.4268 108.064Z" fill="#F5F5F5"/>
<path opacity="0.4" d="M13.5811 79.2996C13.5811 79.2996 15.3395 86.7077 14.7904 91.6108C14.2414 96.5138 13.4281 106.989 12.543 108.649C11.6579 110.308 10.1045 113.879 10.1045 113.879C10.1045 113.879 13.2068 108.999 15.1627 108.917C17.1187 108.836 30.8135 108.184 30.8135 108.184C30.8135 108.184 15.2776 107.792 15.3176 106.663C15.3574 105.534 16.8199 93.2864 15.7965 88.2383C14.7732 83.1903 14.1784 79.4048 13.5811 79.2996Z" fill="#F5F5F5"/>
<path opacity="0.4" d="M30.1142 117.637C29.1094 117.596 16.2305 121.141 16.2305 121.141L16.385 149.487L17.7356 150.971C17.7356 150.971 17.9395 122.818 19.1533 121.696C20.3668 120.573 30.1142 117.637 30.1142 117.637Z" fill="#F5F5F5"/>
<path d="M53.4786 92.1988C53.8131 94.205 52.598 96.4862 50.7642 97.2941C48.9304 98.1019 47.1727 97.1305 46.8381 95.1242C46.5036 93.1179 47.7187 90.8368 49.5525 90.0289C51.3863 89.221 53.144 90.1925 53.4786 92.1988Z" fill="url(#paint9_linear_10_9963)"/>
<path d="M53.8917 92.426C54.2262 94.4323 53.0111 96.7135 51.1773 97.5213C49.3435 98.3292 47.5857 97.3577 47.2512 95.3515C46.9166 93.3452 48.1318 91.064 49.9656 90.2561C51.7994 89.4482 53.5571 90.4199 53.8917 92.426Z" fill="url(#paint10_linear_10_9963)"/>
<path d="M52.5027 93.0386C52.6971 94.2058 51.9897 95.5328 50.9226 96.0028C49.8556 96.4728 48.833 95.9075 48.6386 94.7405C48.4442 93.5733 49.1516 92.2461 50.2186 91.7763C51.2857 91.3063 52.3083 91.8716 52.5027 93.0386Z" fill="#01BCA7"/>
<path opacity="0.3" d="M72.7236 26.6914L108.669 8.49706C110.494 7.57293 112.594 9.00474 112.594 11.174V106.312C112.594 108.403 111.471 110.306 109.711 111.196L73.43 129.561C71.391 130.593 69.0464 128.994 69.0464 126.572V32.9218C69.0464 30.2548 70.479 27.8277 72.7236 26.6914Z" fill="#C08B89"/>
<path d="M77.3287 107.741L102.107 95.3799C103.622 94.624 105.355 95.8132 105.355 97.6087V100.665C105.355 102.529 104.349 104.223 102.776 105.008L77.6154 117.56C76.0729 118.33 74.3086 117.119 74.3086 115.291V112.827C74.3087 110.644 75.487 108.66 77.3287 107.741Z" fill="url(#paint11_linear_10_9963)"/>
<path d="M90.8201 43.9379L100.373 49.8072C97.9158 53.5834 94.5427 56.7991 90.82 58.5773C83.2977 62.1705 77.2007 58.5292 77.2007 50.4435C77.2007 42.3577 83.2977 32.8914 90.82 29.2982C93.0719 28.2225 95.1961 27.7949 97.067 27.9422L90.8201 43.9379Z" fill="#01BCA7"/>
<path d="M104.439 37.4321C104.439 41.5164 102.884 45.9534 100.373 49.807L90.8203 43.9378L102.003 30.2409C103.54 31.876 104.439 34.3252 104.439 37.4321Z" fill="url(#paint12_linear_10_9963)"/>
<path d="M101.955 30.3005L90.8203 43.9374L97.0673 27.9419C99.0002 28.0936 100.663 28.8562 101.915 30.151L101.955 30.3005Z" fill="url(#paint13_linear_10_9963)"/>
<g opacity="0.65">
<path d="M105.121 58.3776L79.5572 70.9967C79.4282 71.0602 79.3227 70.9986 79.3227 70.8599C79.3227 70.7214 79.4282 70.556 79.5572 70.4925L105.121 57.8734C105.25 57.8099 105.355 57.8716 105.355 58.0101C105.355 58.1487 105.25 58.3141 105.121 58.3776Z" fill="white"/>
<path d="M105.121 60.0287L77.4352 73.6912C77.3062 73.7546 77.2007 73.6931 77.2007 73.5544C77.2007 73.4158 77.3062 73.2504 77.4352 73.1869L105.121 59.5245C105.25 59.461 105.355 59.5226 105.355 59.6612C105.355 59.7999 105.25 59.9652 105.121 60.0287Z" fill="white"/>
<path d="M105.121 61.6797L77.4352 75.3422C77.3062 75.4057 77.2007 75.344 77.2007 75.2054C77.2007 75.0669 77.3062 74.9015 77.4352 74.838L105.121 61.1755C105.25 61.112 105.355 61.1735 105.355 61.3122C105.355 61.451 105.25 61.6162 105.121 61.6797Z" fill="white"/>
<path d="M102.27 64.7325L77.4352 76.9932C77.3062 77.0567 77.2007 76.9952 77.2007 76.8565C77.2007 76.7179 77.3062 76.5525 77.4352 76.489L102.27 64.2283C102.399 64.1649 102.505 64.2264 102.505 64.3651C102.505 64.5038 102.399 64.6692 102.27 64.7325Z" fill="white"/>
</g>
<g opacity="0.65">
<path d="M105.121 68.1838L79.5572 80.8029C79.4282 80.8664 79.3227 80.8049 79.3227 80.6662C79.3227 80.5276 79.4282 80.3622 79.5572 80.2987L105.121 67.6796C105.25 67.6161 105.355 67.6777 105.355 67.8164C105.355 67.9551 105.25 68.1205 105.121 68.1838Z" fill="white"/>
<path d="M105.121 69.8346L77.4352 83.4971C77.3062 83.5606 77.2007 83.4991 77.2007 83.3604C77.2007 83.2218 77.3062 83.0564 77.4352 82.9929L105.121 69.3304C105.25 69.2669 105.355 69.3285 105.355 69.4672C105.355 69.6059 105.25 69.7713 105.121 69.8346Z" fill="white"/>
<path d="M105.121 71.4859L77.4352 85.1484C77.3062 85.2118 77.2007 85.1503 77.2007 85.0116C77.2007 84.873 77.3062 84.7076 77.4352 84.6441L105.121 70.9817C105.25 70.9182 105.355 70.9797 105.355 71.1184C105.355 71.257 105.25 71.4224 105.121 71.4859Z" fill="white"/>
<path d="M102.27 74.5388L77.4352 86.7994C77.3062 86.8629 77.2007 86.8014 77.2007 86.6627C77.2007 86.5241 77.3062 86.3587 77.4352 86.2952L102.27 74.0345C102.399 73.9711 102.505 74.0326 102.505 74.1713C102.505 74.31 102.399 74.4753 102.27 74.5388Z" fill="white"/>
</g>
<g opacity="0.65">
<path d="M105.121 77.9897L79.5572 90.6087C79.4282 90.6722 79.3227 90.6107 79.3227 90.472C79.3227 90.3334 79.4282 90.168 79.5572 90.1045L105.121 77.4854C105.25 77.422 105.355 77.4835 105.355 77.6222C105.355 77.7609 105.25 77.9262 105.121 77.9897Z" fill="white"/>
<path d="M105.121 79.6409L77.4352 93.3034C77.3062 93.3669 77.2007 93.3054 77.2007 93.1667C77.2007 93.0281 77.3062 92.8627 77.4352 92.7992L105.121 79.1367C105.25 79.0732 105.355 79.1348 105.355 79.2735C105.355 79.4122 105.25 79.5774 105.121 79.6409Z" fill="white"/>
<path d="M105.121 81.292L77.4352 94.9545C77.3062 95.018 77.2007 94.9565 77.2007 94.8178C77.2007 94.6792 77.3062 94.5138 77.4352 94.4503L105.121 80.7878C105.25 80.7244 105.355 80.7859 105.355 80.9246C105.355 81.0633 105.25 81.2287 105.121 81.292Z" fill="white"/>
<path d="M102.27 84.3449L77.4352 96.6056C77.3062 96.6691 77.2007 96.6076 77.2007 96.4688C77.2007 96.3303 77.3062 96.1649 77.4352 96.1014L102.27 83.8407C102.399 83.7772 102.505 83.8387 102.505 83.9775C102.505 84.1162 102.399 84.2814 102.27 84.3449Z" fill="white"/>
</g>
<path d="M136.018 24.8394C136.018 33.3173 142.411 36.7544 150.298 32.5162C158.185 28.2781 164.579 17.9697 164.579 9.49181C164.579 1.01389 158.185 -2.42315 150.298 1.81498C142.411 6.05311 136.018 16.3615 136.018 24.8394Z" fill="#C08B89"/>
<path d="M141.512 19.277L147.87 15.8604V9.02618L152.725 6.41724V13.2515L159.084 9.83482V15.0539L152.725 18.4706V25.3053L147.87 27.9143V21.0795L141.512 24.4959V19.277Z" fill="white"/>
<path d="M195.664 27.3191C193.043 31.3465 189.446 34.776 185.476 36.6725C177.453 40.5047 170.951 36.6212 170.951 27.9978C170.951 19.3744 177.453 9.27874 185.476 5.44651C187.877 4.29922 190.143 3.84326 192.138 4.00037L189.604 10.4875C188.367 10.3907 186.965 10.6728 185.476 11.3841C180.505 13.7586 176.475 20.0143 176.475 25.359C176.475 30.7037 180.505 33.1091 185.476 30.7346C187.936 29.5593 190.166 27.4342 191.789 24.9385L195.664 27.3191Z" fill="#C08B89"/>
<path d="M200 14.1212C200 18.4771 198.34 23.2092 195.663 27.3192L191.788 24.9388C193.448 22.3924 194.476 19.4599 194.476 16.7599C194.476 14.7066 193.882 13.0869 192.866 12.0074L197.35 6.51602V6.51451L197.402 6.45209C199.04 8.19556 200 10.8077 200 14.1212Z" fill="#FFE3D6"/>
<path d="M197.351 6.51381V6.51531L192.867 12.0067L192.835 12.0458L192.809 11.9464C191.981 11.091 190.882 10.5877 189.604 10.4869L192.138 3.99969C194.2 4.16163 195.973 4.97494 197.309 6.35578L197.351 6.51381Z" fill="#01BCA7"/>
<path opacity="0.3" d="M128.127 69.0337L172.222 46.821C174.047 45.8969 176.147 47.3287 176.147 49.498V129.812C176.147 131.903 175.024 133.805 173.265 134.696L128.834 157.079C126.795 158.111 124.45 156.512 124.45 154.09V75.2641C124.45 72.5972 125.882 70.1699 128.127 69.0337Z" fill="#01BCA7"/>
<path d="M171.351 131.6L129.247 152.306V73.5394L171.351 52.8336V131.6Z" stroke="white" stroke-width="3" stroke-miterlimit="10"/>
<path d="M147.155 64.7324V143.598" stroke="white" stroke-width="3" stroke-miterlimit="10"/>
<path d="M129.247 79.0272L171.351 58.3216" stroke="white" stroke-width="3" stroke-miterlimit="10"/>
<path d="M129.247 97.3865L171.351 76.6808" stroke="white" stroke-width="3" stroke-miterlimit="10"/>
<path d="M129.247 115.746L171.351 95.04" stroke="white" stroke-width="3" stroke-miterlimit="10"/>
<path d="M129.247 134.105L171.351 113.399" stroke="white" stroke-width="3" stroke-miterlimit="10"/>
<path d="M144.52 74.4665L132.859 80.2014C132.729 80.2649 132.624 80.2033 132.624 80.0646C132.624 79.9261 132.729 79.7607 132.859 79.6972L144.52 73.9622C144.649 73.8988 144.755 73.9603 144.755 74.099C144.755 74.2377 144.649 74.403 144.52 74.4665Z" fill="white"/>
<path d="M144.52 76.1177L130.736 82.896C130.607 82.9595 130.502 82.898 130.502 82.7592C130.502 82.6207 130.607 82.4553 130.736 82.3918L144.52 75.6135C144.649 75.55 144.754 75.6115 144.754 75.7502C144.754 75.8889 144.649 76.0542 144.52 76.1177Z" fill="white"/>
<path d="M144.52 77.7686L130.736 84.547C130.607 84.6104 130.502 84.5489 130.502 84.4102C130.502 84.2715 130.607 84.1062 130.736 84.0428L144.52 77.2644C144.649 77.201 144.754 77.2625 144.754 77.4012C144.754 77.5399 144.649 77.7053 144.52 77.7686Z" fill="white"/>
<path d="M141.669 80.8218L130.736 86.1983C130.607 86.2618 130.502 86.2003 130.502 86.0615C130.502 85.923 130.607 85.7576 130.736 85.6941L141.669 80.3176C141.798 80.2541 141.904 80.3156 141.904 80.4543C141.904 80.593 141.798 80.7583 141.669 80.8218Z" fill="white"/>
<path d="M164.316 83.3632L152.654 89.0982C152.525 89.1617 152.419 89.1 152.419 88.9614C152.419 88.8228 152.525 88.6574 152.654 88.594L164.316 82.859C164.445 82.7956 164.55 82.8571 164.55 82.9958C164.55 83.1345 164.445 83.2998 164.316 83.3632Z" fill="white"/>
<path d="M164.316 85.0144L150.532 91.7927C150.403 91.8562 150.298 91.7947 150.298 91.656C150.298 91.5174 150.403 91.352 150.532 91.2885L164.316 84.5102C164.445 84.4467 164.55 84.5082 164.55 84.6469C164.55 84.7857 164.445 84.9511 164.316 85.0144Z" fill="white"/>
<path d="M164.316 86.6652L150.532 93.4435C150.403 93.507 150.298 93.4455 150.298 93.3068C150.298 93.1682 150.403 93.0028 150.532 92.9393L164.316 86.161C164.445 86.0975 164.55 86.159 164.55 86.2978C164.55 86.4365 164.445 86.6019 164.316 86.6652Z" fill="white"/>
<path d="M161.465 89.7182L150.532 95.0947C150.403 95.1582 150.298 95.0967 150.298 94.958C150.298 94.8194 150.403 94.654 150.532 94.5905L161.465 89.214C161.594 89.1505 161.7 89.2121 161.7 89.3508C161.7 89.4895 161.594 89.6547 161.465 89.7182Z" fill="white"/>
<path d="M164.316 121.092L152.654 126.827C152.525 126.89 152.419 126.829 152.419 126.69C152.419 126.551 152.525 126.386 152.654 126.323L164.316 120.588C164.445 120.524 164.55 120.586 164.55 120.724C164.55 120.863 164.445 121.028 164.316 121.092Z" fill="white"/>
<path d="M164.316 122.743L150.532 129.521C150.403 129.585 150.298 129.523 150.298 129.384C150.298 129.246 150.403 129.08 150.532 129.017L164.316 122.239C164.445 122.175 164.55 122.237 164.55 122.375C164.55 122.514 164.445 122.679 164.316 122.743Z" fill="white"/>
<path d="M164.316 124.394L150.532 131.172C150.403 131.236 150.298 131.174 150.298 131.036C150.298 130.897 150.403 130.732 150.532 130.668L164.316 123.89C164.445 123.826 164.55 123.888 164.55 124.027C164.55 124.165 164.445 124.331 164.316 124.394Z" fill="white"/>
<path d="M161.465 127.447L150.532 132.823C150.403 132.887 150.298 132.825 150.298 132.686C150.298 132.548 150.403 132.382 150.532 132.319L161.465 126.943C161.594 126.879 161.7 126.941 161.7 127.079C161.7 127.218 161.594 127.383 161.465 127.447Z" fill="white"/>
<path d="M144.52 82.8229L132.859 88.5578C132.729 88.6213 132.624 88.5596 132.624 88.421C132.624 88.2825 132.729 88.1171 132.859 88.0536L144.52 82.3187C144.649 82.2552 144.755 82.3167 144.755 82.4554C144.755 82.594 144.649 82.7594 144.52 82.8229Z" fill="white"/>
<path d="M144.52 84.4738L130.736 91.2521C130.607 91.3156 130.502 91.254 130.502 91.1153C130.502 90.9768 130.607 90.8113 130.736 90.7479L144.52 83.9695C144.649 83.9061 144.754 83.9676 144.754 84.1063C144.754 84.245 144.649 84.4103 144.52 84.4738Z" fill="white"/>
<path d="M144.52 86.125L130.736 92.9033C130.607 92.9668 130.502 92.9053 130.502 92.7666C130.502 92.628 130.607 92.4626 130.736 92.3991L144.52 85.6208C144.649 85.5573 144.754 85.6188 144.754 85.7575C144.754 85.8963 144.649 86.0615 144.52 86.125Z" fill="white"/>
<path d="M141.669 89.1777L130.736 94.5542C130.607 94.6177 130.502 94.5562 130.502 94.4175C130.502 94.2789 130.607 94.1135 130.736 94.05L141.669 88.6735C141.798 88.61 141.904 88.6716 141.904 88.8103C141.904 88.949 141.798 89.1144 141.669 89.1777Z" fill="white"/>
<path d="M144.52 97.1761L132.859 102.911C132.729 102.974 132.624 102.913 132.624 102.774C132.624 102.635 132.729 102.47 132.859 102.407L144.52 96.6718C144.649 96.6084 144.755 96.6699 144.755 96.8086C144.755 96.9473 144.649 97.1127 144.52 97.1761Z" fill="white"/>
<path d="M144.52 98.8271L130.736 105.605C130.607 105.669 130.502 105.607 130.502 105.469C130.502 105.33 130.607 105.165 130.736 105.101L144.52 98.3229C144.649 98.2594 144.754 98.3209 144.754 98.4596C144.754 98.5983 144.649 98.7636 144.52 98.8271Z" fill="white"/>
<path d="M144.52 100.478L130.736 107.257C130.607 107.32 130.502 107.258 130.502 107.12C130.502 106.981 130.607 106.816 130.736 106.752L144.52 99.9741C144.649 99.9106 144.754 99.9723 144.754 100.111C144.754 100.25 144.649 100.415 144.52 100.478Z" fill="white"/>
<path d="M141.669 103.531L130.736 108.908C130.607 108.971 130.502 108.909 130.502 108.771C130.502 108.632 130.607 108.467 130.736 108.403L141.669 103.027C141.798 102.963 141.904 103.025 141.904 103.164C141.904 103.302 141.798 103.468 141.669 103.531Z" fill="white"/>
<path d="M144.52 116.156L132.859 121.891C132.729 121.954 132.624 121.893 132.624 121.754C132.624 121.616 132.729 121.45 132.859 121.387L144.52 115.652C144.649 115.588 144.755 115.65 144.755 115.788C144.755 115.927 144.649 116.092 144.52 116.156Z" fill="white"/>
<path d="M144.52 117.807L130.736 124.585C130.607 124.649 130.502 124.587 130.502 124.448C130.502 124.31 130.607 124.144 130.736 124.081L144.52 117.303C144.649 117.239 144.754 117.301 144.754 117.439C144.754 117.578 144.649 117.743 144.52 117.807Z" fill="white"/>
<path d="M144.52 119.458L130.736 126.236C130.607 126.3 130.502 126.238 130.502 126.1C130.502 125.961 130.607 125.796 130.736 125.732L144.52 118.954C144.649 118.89 144.754 118.952 144.754 119.091C144.754 119.229 144.649 119.395 144.52 119.458Z" fill="white"/>
<path d="M141.669 122.511L130.736 127.887C130.607 127.951 130.502 127.889 130.502 127.751C130.502 127.612 130.607 127.447 130.736 127.383L141.669 122.007C141.798 121.943 141.904 122.005 141.904 122.144C141.904 122.282 141.798 122.448 141.669 122.511Z" fill="white"/>
<path d="M144.52 131.904L132.859 137.639C132.729 137.703 132.624 137.641 132.624 137.503C132.624 137.364 132.729 137.199 132.859 137.135L144.52 131.4C144.649 131.337 144.755 131.398 144.755 131.537C144.755 131.676 144.649 131.841 144.52 131.904Z" fill="white"/>
<path d="M144.52 133.556L130.736 140.334C130.607 140.397 130.502 140.336 130.502 140.197C130.502 140.059 130.607 139.893 130.736 139.83L144.52 133.051C144.649 132.988 144.754 133.049 144.754 133.188C144.754 133.327 144.649 133.492 144.52 133.556Z" fill="white"/>
<path d="M144.52 135.207L130.736 141.985C130.607 142.049 130.502 141.987 130.502 141.848C130.502 141.71 130.607 141.544 130.736 141.481L144.52 134.703C144.649 134.639 144.754 134.701 144.754 134.839C144.754 134.978 144.649 135.143 144.52 135.207Z" fill="white"/>
<path d="M141.669 138.26L130.736 143.636C130.607 143.7 130.502 143.638 130.502 143.499C130.502 143.361 130.607 143.196 130.736 143.132L141.669 137.756C141.798 137.692 141.904 137.754 141.904 137.892C141.904 138.031 141.798 138.196 141.669 138.26Z" fill="white"/>
<path d="M143.534 69.697L133.295 74.7321C133.071 74.8424 132.888 74.7355 132.888 74.4945C132.888 74.2536 133.071 73.9663 133.295 73.8561L143.534 68.821C143.758 68.7107 143.942 68.8176 143.942 69.0586C143.942 69.2994 143.758 69.5868 143.534 69.697Z" fill="white"/>
<path d="M163.91 59.6767L153.671 64.7119C153.447 64.8221 153.264 64.7152 153.264 64.4743C153.264 64.2333 153.447 63.9461 153.671 63.8359L163.91 58.8007C164.134 58.6905 164.318 58.7974 164.318 59.0383C164.318 59.2793 164.134 59.5665 163.91 59.6767Z" fill="white"/>
<path d="M152.42 82.24L150.298 83.2834V78.0767L152.42 77.0333V82.24Z" fill="white"/>
<path d="M155.999 80.4802L153.877 81.5236V74.314L155.999 73.2706V80.4802Z" fill="white"/>
<path d="M159.579 78.7197L157.457 79.7631V74.5563L159.579 73.5129V78.7197Z" fill="white"/>
<path d="M163.158 76.9595L161.036 78.0029V69.1423L163.158 68.0989V76.9595Z" fill="white"/>
<path d="M166.737 75.1995L164.616 76.2428V71.0363L166.737 69.9929V75.1995Z" fill="white"/>
<path d="M162.565 112.148C161.56 113.694 160.179 115.01 158.655 115.738C155.576 117.208 153.081 115.718 153.081 112.408C153.081 109.099 155.576 105.224 158.655 103.753C159.577 103.313 160.446 103.138 161.212 103.198L160.24 105.688C159.765 105.651 159.227 105.759 158.655 106.032C156.747 106.943 155.201 109.344 155.201 111.396C155.201 113.447 156.747 114.37 158.655 113.459C159.599 113.008 160.455 112.192 161.078 111.234L162.565 112.148Z" fill="white"/>
<path d="M164.229 107.082C164.229 108.754 163.592 110.57 162.565 112.148L161.078 111.234C161.714 110.257 162.109 109.131 162.109 108.095C162.109 107.307 161.881 106.686 161.491 106.271L163.212 104.164V104.163L163.232 104.139C163.861 104.808 164.229 105.811 164.229 107.082Z" fill="#F5F5F5"/>
<path d="M163.212 104.163V104.164L161.491 106.271L161.479 106.286L161.469 106.248C161.151 105.92 160.73 105.727 160.239 105.688L161.212 103.198C162.003 103.26 162.684 103.572 163.196 104.102L163.212 104.163Z" fill="#F5F5F5"/>
<g opacity="0.79">
<path opacity="0.5" d="M111.345 114.517L67.0548 137.215L66.9248 194.115L111.215 171.417L111.345 114.517Z" fill="#C08B89"/>
<path d="M80.2623 141.989C80.2623 141.989 80.1564 135.456 75.7037 139.75C72.4463 142.891 70.4652 150.766 74.1888 156.072C77.9123 161.378 80.0209 160.709 80.0209 160.709C80.0209 160.709 87.8701 149.783 89.0085 140.375C90.1471 130.966 83.7128 131.945 80.2623 141.989Z" fill="url(#paint14_linear_10_9963)"/>
<path d="M71.2456 154.915L79.293 151.862L81.7799 145.494L82.3717 155.474L84.0762 148.062L90.0169 145.531" fill="url(#paint15_linear_10_9963)"/>
<path d="M71.2456 154.915L79.293 151.862L81.7799 145.494L82.3717 155.474L84.0762 148.062L90.0169 145.531" stroke="white" stroke-width="5.2821" stroke-miterlimit="10"/>
<path opacity="0.5" d="M75.3668 168.137L73.2054 169.128L73.2041 171.9L75.3657 170.909L75.3668 168.137Z" fill="white"/>
<path opacity="0.5" d="M78.837 166.353L76.6756 167.344L76.6743 170.116L78.8358 169.125L78.837 166.353Z" fill="white"/>
<path opacity="0.5" d="M82.3068 164.568L80.1452 165.56L80.144 168.332L82.3055 167.34L82.3068 164.568Z" fill="white"/>
<path opacity="0.5" d="M85.7765 162.784L83.615 163.775L83.6138 166.547L85.7752 165.556L85.7765 162.784Z" fill="white"/>
<path opacity="0.5" d="M89.2464 161L87.0849 161.991L87.0837 164.763L89.2452 163.772L89.2464 161Z" fill="white"/>
<path opacity="0.5" d="M75.5143 172.035L73.3528 173.027L73.3516 175.798L75.5132 174.807L75.5143 172.035Z" fill="white"/>
<path opacity="0.5" d="M78.984 170.251L76.8226 171.242L76.8213 174.014L78.9829 173.023L78.984 170.251Z" fill="white"/>
<path opacity="0.5" d="M82.4542 168.467L80.2928 169.458L80.2915 172.23L82.453 171.239L82.4542 168.467Z" fill="white"/>
<path opacity="0.5" d="M85.9235 166.683L83.762 167.674L83.7607 170.446L85.9222 169.455L85.9235 166.683Z" fill="white"/>
<path opacity="0.5" d="M89.3938 164.898L87.2324 165.89L87.2311 168.662L89.3926 167.67L89.3938 164.898Z" fill="white"/>
<path opacity="0.5" d="M75.6636 175.933L73.5021 176.925L73.501 179.697L75.6624 178.705L75.6636 175.933Z" fill="white"/>
<path opacity="0.5" d="M79.1329 174.149L76.9715 175.141L76.9702 177.912L79.1318 176.921L79.1329 174.149Z" fill="white"/>
<path opacity="0.5" d="M82.6027 172.365L80.4412 173.356L80.4399 176.128L82.6015 175.137L82.6027 172.365Z" fill="white"/>
<path opacity="0.5" d="M86.0724 170.581L83.9109 171.572L83.9097 174.344L86.0713 173.353L86.0724 170.581Z" fill="white"/>
<path opacity="0.5" d="M89.5421 168.797L87.3806 169.788L87.3794 172.56L89.541 171.569L89.5421 168.797Z" fill="white"/>
<path opacity="0.5" d="M75.812 179.832L73.6505 180.823L73.6494 183.595L75.8109 182.604L75.812 179.832Z" fill="white"/>
<path opacity="0.5" d="M79.2817 178.048L77.1203 179.039L77.1191 181.811L79.2806 180.82L79.2817 178.048Z" fill="white"/>
<path opacity="0.5" d="M82.7519 176.264L80.5905 177.255L80.5894 180.027L82.7508 179.036L82.7519 176.264Z" fill="white"/>
<path opacity="0.5" d="M86.2213 174.479L84.0598 175.47L84.0586 178.242L86.2202 177.251L86.2213 174.479Z" fill="white"/>
<path opacity="0.5" d="M89.6912 172.695L87.5298 173.686L87.5285 176.458L89.6901 175.467L89.6912 172.695Z" fill="white"/>
<path d="M106.722 127.413L95.0598 133.148C94.9309 133.211 94.8252 133.15 94.8252 133.011C94.8252 132.873 94.9307 132.707 95.0598 132.644L106.722 126.909C106.851 126.845 106.956 126.907 106.956 127.046C106.956 127.184 106.851 127.35 106.722 127.413Z" fill="white"/>
<path d="M106.721 129.064L92.9377 135.843C92.8086 135.906 92.7031 135.845 92.7031 135.706C92.7031 135.567 92.8086 135.402 92.9377 135.338L106.721 128.56C106.85 128.497 106.956 128.558 106.956 128.697C106.956 128.836 106.85 129.001 106.721 129.064Z" fill="white"/>
<path d="M106.721 130.715L92.9377 137.493C92.8086 137.557 92.7031 137.495 92.7031 137.357C92.7031 137.218 92.8086 137.053 92.9377 136.989L106.721 130.211C106.85 130.147 106.956 130.209 106.956 130.348C106.956 130.486 106.85 130.652 106.721 130.715Z" fill="white"/>
<path d="M103.87 133.768L92.9377 139.145C92.8086 139.208 92.7031 139.147 92.7031 139.008C92.7031 138.869 92.8086 138.704 92.9377 138.64L103.87 133.264C104 133.2 104.105 133.262 104.105 133.401C104.105 133.539 104 133.705 103.87 133.768Z" fill="white"/>
<path d="M106.722 138.873L95.0598 144.608C94.9309 144.672 94.8252 144.61 94.8252 144.471C94.8252 144.333 94.9307 144.167 95.0598 144.104L106.722 138.369C106.851 138.305 106.956 138.367 106.956 138.506C106.956 138.644 106.851 138.81 106.722 138.873Z" fill="white"/>
<path d="M106.721 140.524L92.9377 147.303C92.8086 147.366 92.7031 147.304 92.7031 147.166C92.7031 147.027 92.8086 146.862 92.9377 146.798L106.721 140.02C106.85 139.957 106.956 140.018 106.956 140.157C106.956 140.295 106.85 140.461 106.721 140.524Z" fill="white"/>
<path d="M106.721 142.175L92.9377 148.954C92.8086 149.017 92.7031 148.955 92.7031 148.817C92.7031 148.678 92.8086 148.513 92.9377 148.449L106.721 141.671C106.85 141.608 106.956 141.669 106.956 141.808C106.956 141.946 106.85 142.112 106.721 142.175Z" fill="white"/>
<path d="M103.87 145.228L92.9377 150.605C92.8086 150.668 92.7031 150.607 92.7031 150.468C92.7031 150.329 92.8086 150.164 92.9377 150.1L103.87 144.724C104 144.66 104.105 144.722 104.105 144.861C104.105 144.999 104 145.165 103.87 145.228Z" fill="white"/>
<path d="M106.722 158.955L95.0598 164.69C94.9309 164.753 94.8252 164.691 94.8252 164.553C94.8252 164.414 94.9307 164.249 95.0598 164.185L106.722 158.45C106.851 158.387 106.956 158.449 106.956 158.587C106.956 158.726 106.851 158.891 106.722 158.955Z" fill="white"/>
<path d="M106.721 160.606L92.9377 167.384C92.8086 167.447 92.7031 167.386 92.7031 167.247C92.7031 167.108 92.8086 166.943 92.9377 166.88L106.721 160.101C106.85 160.038 106.956 160.099 106.956 160.238C106.956 160.377 106.85 160.542 106.721 160.606Z" fill="white"/>
<path d="M106.721 162.257L92.9377 169.035C92.8086 169.098 92.7031 169.037 92.7031 168.898C92.7031 168.759 92.8086 168.594 92.9377 168.531L106.721 161.752C106.85 161.689 106.956 161.75 106.956 161.889C106.956 162.028 106.85 162.193 106.721 162.257Z" fill="white"/>
<path d="M103.87 165.31L92.9377 170.686C92.8086 170.75 92.7031 170.688 92.7031 170.549C92.7031 170.411 92.8086 170.245 92.9377 170.182L103.87 164.805C104 164.742 104.105 164.803 104.105 164.942C104.105 165.081 104 165.246 103.87 165.31Z" fill="white"/>
<path d="M72.5322 181.714L75.8115 177.388L80.8647 175.934L84.9912 168.467L89.2446 163.772" stroke="#01BCA7" stroke-width="5.2821" stroke-miterlimit="10"/>
</g>
<g opacity="0.5">
<path d="M143.681 158.973L129.557 166.287C129.288 166.427 129.067 166.304 129.067 166.014C129.067 165.724 129.288 165.373 129.557 165.233L143.681 157.919C143.951 157.779 144.172 157.902 144.172 158.192C144.172 158.482 143.951 158.833 143.681 158.973Z" fill="#C08B89"/>
<path d="M156.168 155.154L129.557 168.934C129.288 169.074 129.067 168.951 129.067 168.661C129.067 168.372 129.288 168.02 129.557 167.881L156.168 154.1C156.438 153.961 156.658 154.084 156.658 154.373C156.658 154.663 156.438 155.014 156.168 155.154Z" fill="#C08B89"/>
<path d="M156.168 157.801L129.557 171.581C129.288 171.721 129.067 171.598 129.067 171.308C129.067 171.019 129.288 170.667 129.557 170.528L156.168 156.747C156.438 156.608 156.658 156.731 156.658 157.02C156.658 157.31 156.438 157.662 156.168 157.801Z" fill="#C08B89"/>
<path d="M156.168 160.448L129.557 174.229C129.288 174.368 129.067 174.245 129.067 173.956C129.067 173.666 129.288 173.314 129.557 173.175L156.168 159.394C156.438 159.255 156.658 159.378 156.658 159.667C156.658 159.957 156.438 160.309 156.168 160.448Z" fill="#C08B89"/>
<path d="M156.168 163.096L129.557 176.876C129.288 177.015 129.067 176.893 129.067 176.603C129.067 176.313 129.288 175.962 129.557 175.822L156.168 162.041C156.438 161.902 156.658 162.025 156.658 162.315C156.658 162.605 156.438 162.956 156.168 163.096Z" fill="#C08B89"/>
<path d="M148.028 169.958L129.557 179.523C129.288 179.662 129.067 179.54 129.067 179.25C129.067 178.96 129.288 178.608 129.557 178.469L148.028 168.904C148.297 168.764 148.518 168.887 148.518 169.177C148.518 169.467 148.297 169.818 148.028 169.958Z" fill="#C08B89"/>
</g>
<defs>
<linearGradient id="paint0_linear_10_9963" x1="14.3388" y1="210.249" x2="67.772" y2="210.249" gradientUnits="userSpaceOnUse">
<stop stop-color="#1C4566"/>
<stop offset="1" stop-color="#282828"/>
</linearGradient>
<linearGradient id="paint1_linear_10_9963" x1="39.3515" y1="171.041" x2="54.0442" y2="171.561" gradientUnits="userSpaceOnUse">
<stop stop-color="#1C4566"/>
<stop offset="1" stop-color="#282828"/>
</linearGradient>
<linearGradient id="paint2_linear_10_9963" x1="18.1112" y1="178.461" x2="33.813" y2="179.174" gradientUnits="userSpaceOnUse">
<stop stop-color="#1C4566"/>
<stop offset="1" stop-color="#282828"/>
</linearGradient>
<linearGradient id="paint3_linear_10_9963" x1="82.3888" y1="78.6099" x2="93.7156" y2="79.0106" gradientUnits="userSpaceOnUse">
<stop stop-color="#FFC0C0"/>
<stop offset="1" stop-color="#FFCACA"/>
</linearGradient>
<linearGradient id="paint4_linear_10_9963" x1="24.1153" y1="54.7814" x2="41.4478" y2="55.3946" gradientUnits="userSpaceOnUse">
<stop stop-color="#FFC0C0"/>
<stop offset="1" stop-color="#FFCACA"/>
</linearGradient>
<linearGradient id="paint5_linear_10_9963" x1="18.1948" y1="45.8042" x2="40.1329" y2="46.5802" gradientUnits="userSpaceOnUse">
<stop stop-color="#1C4566"/>
<stop offset="1" stop-color="#282828"/>
</linearGradient>
<linearGradient id="paint6_linear_10_9963" x1="36.0482" y1="86.4435" x2="36.8012" y2="68.0203" gradientUnits="userSpaceOnUse">
<stop stop-color="#1C4566"/>
<stop offset="1" stop-color="#282828"/>
</linearGradient>
<linearGradient id="paint7_linear_10_9963" x1="44.4536" y1="80.2065" x2="52.5024" y2="80.2065" gradientUnits="userSpaceOnUse">
<stop stop-color="#1C4566"/>
<stop offset="1" stop-color="#282828"/>
</linearGradient>
<linearGradient id="paint8_linear_10_9963" x1="30.8013" y1="108.529" x2="45.1364" y2="109.036" gradientUnits="userSpaceOnUse">
<stop stop-color="#FFC0C0"/>
<stop offset="1" stop-color="#FFCACA"/>
</linearGradient>
<linearGradient id="paint9_linear_10_9963" x1="46.5603" y1="93.513" x2="53.499" y2="92.3163" gradientUnits="userSpaceOnUse">
<stop stop-color="#1C4566"/>
<stop offset="1" stop-color="#282828"/>
</linearGradient>
<linearGradient id="paint10_linear_10_9963" x1="52.2461" y1="93.4581" x2="44.5256" y2="93.6023" gradientUnits="userSpaceOnUse">
<stop stop-color="#1C4566"/>
<stop offset="1" stop-color="#282828"/>
</linearGradient>
<linearGradient id="paint11_linear_10_9963" x1="74.3087" y1="106.472" x2="105.355" y2="106.472" gradientUnits="userSpaceOnUse">
<stop stop-color="#C08B89"/>
<stop offset="1" stop-color="#FFE3D6"/>
</linearGradient>
<linearGradient id="paint12_linear_10_9963" x1="104.468" y1="39.9992" x2="91.5919" y2="38.4037" gradientUnits="userSpaceOnUse">
<stop stop-color="#C08B89"/>
<stop offset="0.428063" stop-color="#FFE3D6"/>
</linearGradient>
<linearGradient id="paint13_linear_10_9963" x1="90.8203" y1="37.4317" x2="101.955" y2="37.4317" gradientUnits="userSpaceOnUse">
<stop stop-color="#1C4566"/>
<stop offset="1" stop-color="#282828"/>
</linearGradient>
<linearGradient id="paint14_linear_10_9963" x1="73.0593" y1="154.849" x2="92.0444" y2="150.796" gradientUnits="userSpaceOnUse">
<stop stop-color="#01BCA7"/>
<stop offset="1" stop-color="white"/>
</linearGradient>
<linearGradient id="paint15_linear_10_9963" x1="72.2271" y1="153.288" x2="87.8598" y2="143.345" gradientUnits="userSpaceOnUse">
<stop stop-color="#01BCA7"/>
<stop offset="1" stop-color="white"/>
</linearGradient>
</defs>
</svg>
