<svg width="1440" height="510" viewBox="0 0 1440 510" fill="none" xmlns="http://www.w3.org/2000/svg">
<g opacity="0.2">
<path d="M1310.12 224C1305.22 224 1301.25 227.705 1301.25 232.275C1301.25 236.844 1305.22 240.549 1310.12 240.549C1315.02 240.549 1319 236.844 1319 232.275C1319 227.705 1315.03 224 1310.12 224ZM1310.12 238.066C1306.69 238.066 1303.91 235.473 1303.91 232.274C1303.91 229.074 1306.69 226.481 1310.12 226.481C1313.55 226.481 1316.34 229.074 1316.34 232.274C1316.34 235.474 1313.56 238.066 1310.12 238.066Z" fill="#C08B89"/>
<path d="M1419.27 224C1414.37 224 1410.4 227.705 1410.4 232.275C1410.4 236.844 1414.37 240.549 1419.27 240.549C1424.17 240.549 1428.15 236.844 1428.15 232.275C1428.15 227.705 1424.18 224 1419.27 224ZM1419.27 238.066C1415.84 238.066 1413.06 235.473 1413.06 232.274C1413.06 229.074 1415.84 226.481 1419.27 226.481C1422.71 226.481 1425.49 229.074 1425.49 232.274C1425.49 235.474 1422.71 238.066 1419.27 238.066Z" fill="#C08B89"/>
<path d="M1310.12 400.519C1305.22 400.519 1301.25 404.223 1301.25 408.793C1301.25 413.363 1305.22 417.067 1310.12 417.067C1315.02 417.067 1319 413.363 1319 408.793C1319 404.223 1315.03 400.519 1310.12 400.519ZM1310.12 414.584C1306.69 414.584 1303.91 411.992 1303.91 408.793C1303.91 405.594 1306.69 402.999 1310.12 402.999C1313.55 402.999 1316.34 405.594 1316.34 408.793C1316.34 411.992 1313.56 414.584 1310.12 414.584Z" fill="#C08B89"/>
<path d="M1419.27 400.519C1414.37 400.519 1410.4 404.223 1410.4 408.793C1410.4 413.363 1414.37 417.067 1419.27 417.067C1424.17 417.067 1428.15 413.363 1428.15 408.793C1428.15 404.223 1424.18 400.519 1419.27 400.519ZM1419.27 414.584C1415.84 414.584 1413.06 411.992 1413.06 408.793C1413.06 405.594 1415.84 402.999 1419.27 402.999C1422.71 402.999 1425.49 405.594 1425.49 408.793C1425.49 411.992 1422.71 414.584 1419.27 414.584Z" fill="#C08B89"/>
<path d="M1255.88 312.106C1250.97 312.106 1247 315.811 1247 320.38C1247 324.95 1250.97 328.654 1255.88 328.654C1260.78 328.654 1264.75 324.95 1264.75 320.38C1264.75 315.811 1260.78 312.106 1255.88 312.106ZM1255.88 326.172C1252.45 326.172 1249.66 323.579 1249.66 320.38C1249.66 317.181 1252.45 314.588 1255.88 314.588C1259.31 314.588 1262.09 317.181 1262.09 320.38C1262.09 323.579 1259.31 326.172 1255.88 326.172Z" fill="#C08B89"/>
<path d="M1412.2 231.891H1317.85V233.27H1412.2V231.891Z" fill="#C08B89"/>
<path d="M1424.66 237.773L1423.38 238.454L1469.73 314.453L1471.02 313.772L1424.66 237.773Z" fill="#C08B89"/>
<path d="M1470.07 326.909L1422.73 402.91L1424.01 403.602L1471.35 327.6L1470.07 326.909Z" fill="#C08B89"/>
<path d="M1411.88 408.41H1317.52V409.789H1411.88V408.41Z" fill="#C08B89"/>
<path d="M1259.95 326.007L1258.67 326.699L1306.34 403.31L1307.62 402.618L1259.95 326.007Z" fill="#C08B89"/>
<path d="M1306.37 238.683L1259.03 314.376L1260.31 315.071L1307.65 239.378L1306.37 238.683Z" fill="#C08B89"/>
</g>
<g opacity="0.2">
<path d="M1198.02 341C1195.37 341 1193.23 343.284 1193.23 346.103C1193.23 348.92 1195.38 351.204 1198.02 351.204C1200.66 351.204 1202.8 348.92 1202.8 346.103C1202.8 343.284 1200.66 341 1198.02 341ZM1198.02 349.672C1196.17 349.672 1194.67 348.075 1194.67 346.103C1194.67 344.13 1196.17 342.532 1198.02 342.532C1199.87 342.532 1201.37 344.131 1201.37 346.103C1201.37 348.075 1199.87 349.672 1198.02 349.672Z" fill="#C08B89"/>
<path d="M1256.83 341C1254.19 341 1252.05 343.284 1252.05 346.103C1252.05 348.92 1254.19 351.204 1256.83 351.204C1259.48 351.204 1261.62 348.92 1261.62 346.103C1261.62 343.284 1259.48 341 1256.83 341ZM1256.83 349.672C1254.98 349.672 1253.49 348.075 1253.49 346.103C1253.49 344.13 1254.98 342.532 1256.83 342.532C1258.68 342.532 1260.18 344.131 1260.18 346.103C1260.18 348.075 1258.68 349.672 1256.83 349.672Z" fill="#C08B89"/>
<path d="M1198.02 449.836C1195.37 449.836 1193.23 452.122 1193.23 454.938C1193.23 457.755 1195.38 460.039 1198.02 460.039C1200.66 460.039 1202.8 457.755 1202.8 454.938C1202.8 452.122 1200.66 449.836 1198.02 449.836ZM1198.02 458.51C1196.17 458.51 1194.67 456.909 1194.67 454.938C1194.67 452.966 1196.17 451.367 1198.02 451.367C1199.87 451.367 1201.37 452.967 1201.37 454.938C1201.37 456.909 1199.87 458.51 1198.02 458.51Z" fill="#C08B89"/>
<path d="M1256.84 449.836C1254.19 449.836 1252.05 452.122 1252.05 454.938C1252.05 457.755 1254.19 460.039 1256.84 460.039C1259.48 460.039 1261.62 457.755 1261.62 454.938C1261.62 452.122 1259.48 449.836 1256.84 449.836ZM1256.84 458.51C1254.98 458.51 1253.49 456.909 1253.49 454.938C1253.49 452.966 1254.98 451.367 1256.84 451.367C1258.68 451.367 1260.18 452.967 1260.18 454.938C1260.18 456.909 1258.68 458.51 1256.84 458.51Z" fill="#C08B89"/>
<path d="M1285.54 395.324C1282.89 395.324 1280.75 397.61 1280.75 400.425C1280.75 403.244 1282.89 405.527 1285.54 405.527C1288.18 405.527 1290.32 403.244 1290.32 400.425C1290.32 397.61 1288.18 395.324 1285.54 395.324ZM1285.54 403.996C1283.69 403.996 1282.19 402.397 1282.19 400.425C1282.19 398.454 1283.69 396.856 1285.54 396.856C1287.39 396.856 1288.88 398.455 1288.88 400.425C1288.88 402.398 1287.39 403.996 1285.54 403.996Z" fill="#C08B89"/>
<path d="M1168.78 395.324C1166.14 395.324 1164 397.61 1164 400.425C1164 403.244 1166.14 405.527 1168.78 405.527C1171.43 405.527 1173.57 403.244 1173.57 400.425C1173.57 397.61 1171.43 395.324 1168.78 395.324ZM1168.78 403.996C1166.93 403.996 1165.44 402.397 1165.44 400.425C1165.44 398.454 1166.93 396.856 1168.78 396.856C1170.63 396.856 1172.13 398.455 1172.13 400.425C1172.13 402.398 1170.63 403.996 1168.78 403.996Z" fill="#C08B89"/>
<path d="M1253.03 345.866H1202.18V346.716H1253.03V345.866Z" fill="#C08B89"/>
<path d="M1259.76 349.463L1259.07 349.883L1284.05 396.742L1284.74 396.322L1259.76 349.463Z" fill="#C08B89"/>
<path d="M1284.24 404.476L1258.73 451.336L1259.41 451.763L1284.93 404.903L1284.24 404.476Z" fill="#C08B89"/>
<path d="M1252.85 454.703H1202V455.551H1252.85V454.703Z" fill="#C08B89"/>
<path d="M1170.98 403.884L1170.29 404.31L1195.98 451.548L1196.67 451.121L1170.98 403.884Z" fill="#C08B89"/>
<path d="M1196 350.058L1170.48 396.729L1171.17 397.156L1196.68 350.485L1196 350.058Z" fill="#C08B89"/>
</g>
<g opacity="0.2">
<path d="M1174.01 0C1172.69 0 1171.62 1.07 1171.62 2.391C1171.62 3.712 1172.69 4.784 1174.01 4.784C1175.33 4.784 1176.4 3.713 1176.4 2.391C1176.4 1.07 1175.33 0 1174.01 0ZM1174.01 4.06499C1173.08 4.06499 1172.33 3.316 1172.33 2.39C1172.33 1.465 1173.08 0.715996 1174.01 0.715996C1174.93 0.715996 1175.68 1.465 1175.68 2.39C1175.68 3.316 1174.93 4.06499 1174.01 4.06499Z" fill="#C08B89"/>
<path d="M1203.42 0C1202.1 0 1201.03 1.07 1201.03 2.391C1201.03 3.712 1202.1 4.784 1203.42 4.784C1204.74 4.784 1205.81 3.713 1205.81 2.391C1205.81 1.07 1204.74 0 1203.42 0ZM1203.42 4.06499C1202.49 4.06499 1201.74 3.316 1201.74 2.39C1201.74 1.465 1202.49 0.715996 1203.42 0.715996C1204.34 0.715996 1205.09 1.465 1205.09 2.39C1205.09 3.316 1204.34 4.06499 1203.42 4.06499Z" fill="#C08B89"/>
<path d="M1174.01 51.022C1172.69 51.022 1171.62 52.093 1171.62 53.414C1171.62 54.735 1172.69 55.805 1174.01 55.805C1175.33 55.805 1176.4 54.735 1176.4 53.414C1176.4 52.093 1175.33 51.022 1174.01 51.022ZM1174.01 55.088C1173.08 55.088 1172.33 54.339 1172.33 53.414C1172.33 52.488 1173.08 51.74 1174.01 51.74C1174.93 51.74 1175.68 52.489 1175.68 53.414C1175.68 54.339 1174.93 55.088 1174.01 55.088Z" fill="#C08B89"/>
<path d="M1203.42 51.022C1202.1 51.022 1201.03 52.093 1201.03 53.414C1201.03 54.735 1202.1 55.805 1203.42 55.805C1204.74 55.805 1205.81 54.735 1205.81 53.414C1205.81 52.093 1204.74 51.022 1203.42 51.022ZM1203.42 55.088C1202.49 55.088 1201.74 54.339 1201.74 53.414C1201.74 52.488 1202.49 51.74 1203.42 51.74C1204.34 51.74 1205.09 52.489 1205.09 53.414C1205.09 54.339 1204.34 55.088 1203.42 55.088Z" fill="#C08B89"/>
<path d="M1217.77 25.4661C1216.45 25.4661 1215.37 26.5381 1215.37 27.8581C1215.37 29.1791 1216.45 30.2501 1217.77 30.2501C1219.09 30.2501 1220.16 29.1791 1220.16 27.8581C1220.16 26.5371 1219.09 25.4661 1217.77 25.4661ZM1217.77 29.5321C1216.84 29.5321 1216.09 28.7831 1216.09 27.8581C1216.09 26.9331 1216.84 26.1841 1217.77 26.1841C1218.69 26.1841 1219.44 26.9341 1219.44 27.8581C1219.44 28.7831 1218.69 29.5321 1217.77 29.5321Z" fill="#C08B89"/>
<path d="M1159.39 25.4661C1158.07 25.4661 1157 26.5381 1157 27.8581C1157 29.1791 1158.07 30.2501 1159.39 30.2501C1160.71 30.2501 1161.78 29.1791 1161.78 27.8581C1161.78 26.5371 1160.71 25.4661 1159.39 25.4661ZM1159.39 29.5321C1158.47 29.5321 1157.72 28.7831 1157.72 27.8581C1157.72 26.9331 1158.47 26.1841 1159.39 26.1841C1160.32 26.1841 1161.07 26.9341 1161.07 27.8581C1161.07 28.7831 1160.32 29.5321 1159.39 29.5321Z" fill="#C08B89"/>
<path d="M1201.51 2.28003H1176.09V2.67802H1201.51V2.28003Z" fill="#C08B89"/>
<path d="M1204.87 3.98177L1204.52 4.17896L1217.01 26.147L1217.36 25.9498L1204.87 3.98177Z" fill="#C08B89"/>
<path d="M1217.1 29.741L1204.34 51.7095L1204.69 51.9088L1217.44 29.9403L1217.1 29.741Z" fill="#C08B89"/>
<path d="M1201.42 53.303H1176V53.702H1201.42V53.303Z" fill="#C08B89"/>
<path d="M1160.49 29.48L1160.14 29.6802L1172.99 51.825L1173.33 51.6249L1160.49 29.48Z" fill="#C08B89"/>
<path d="M1172.99 4.23718L1160.23 26.1172L1160.58 26.3181L1173.33 4.43812L1172.99 4.23718Z" fill="#C08B89"/>
</g>
<g opacity="0.2">
<path d="M1125.7 18C1124.79 18 1124.05 18.736 1124.05 19.644C1124.05 20.552 1124.79 21.289 1125.7 21.289C1126.61 21.289 1127.34 20.553 1127.34 19.644C1127.34 18.735 1126.61 18 1125.7 18ZM1125.7 20.796C1125.06 20.796 1124.54 20.28 1124.54 19.644C1124.54 19.008 1125.06 18.493 1125.7 18.493C1126.33 18.493 1126.85 19.008 1126.85 19.644C1126.85 20.28 1126.33 20.796 1125.7 20.796Z" fill="#C08B89"/>
<path d="M1145.92 18C1145.01 18 1144.28 18.736 1144.28 19.644C1144.28 20.552 1145.01 21.289 1145.92 21.289C1146.83 21.289 1147.57 20.553 1147.57 19.644C1147.57 18.735 1146.83 18 1145.92 18ZM1145.92 20.796C1145.29 20.796 1144.77 20.28 1144.77 19.644C1144.77 19.008 1145.29 18.493 1145.92 18.493C1146.56 18.493 1147.07 19.008 1147.07 19.644C1147.07 20.28 1146.56 20.796 1145.92 20.796Z" fill="#C08B89"/>
<path d="M1125.7 53.0879C1124.79 53.0879 1124.05 53.8249 1124.05 54.7329C1124.05 55.6419 1124.79 56.3779 1125.7 56.3779C1126.61 56.3779 1127.34 55.6419 1127.34 54.7329C1127.34 53.8249 1126.61 53.0879 1125.7 53.0879ZM1125.7 55.8839C1125.06 55.8839 1124.54 55.3679 1124.54 54.7319C1124.54 54.0959 1125.06 53.5819 1125.7 53.5819C1126.33 53.5819 1126.85 54.0959 1126.85 54.7319C1126.85 55.3679 1126.33 55.8839 1125.7 55.8839Z" fill="#C08B89"/>
<path d="M1145.92 53.0879C1145.01 53.0879 1144.28 53.8249 1144.28 54.7329C1144.28 55.6419 1145.01 56.3779 1145.92 56.3779C1146.83 56.3779 1147.57 55.6419 1147.57 54.7329C1147.57 53.8249 1146.83 53.0879 1145.92 53.0879ZM1145.92 55.8839C1145.29 55.8839 1144.77 55.3679 1144.77 54.7319C1144.77 54.0959 1145.29 53.5819 1145.92 53.5819C1146.56 53.5819 1147.07 54.0959 1147.07 54.7319C1147.07 55.3679 1146.56 55.8839 1145.92 55.8839Z" fill="#C08B89"/>
<path d="M1155.79 35.512C1154.88 35.512 1154.15 36.249 1154.15 37.157C1154.15 38.066 1154.88 38.803 1155.79 38.803C1156.7 38.803 1157.44 38.067 1157.44 37.157C1157.44 36.249 1156.7 35.512 1155.79 35.512ZM1155.79 38.309C1155.16 38.309 1154.64 37.794 1154.64 37.158C1154.64 36.522 1155.16 36.007 1155.79 36.007C1156.43 36.007 1156.94 36.522 1156.94 37.158C1156.94 37.794 1156.43 38.309 1155.79 38.309Z" fill="#C08B89"/>
<path d="M1115.65 35.512C1114.74 35.512 1114 36.249 1114 37.157C1114 38.066 1114.74 38.803 1115.65 38.803C1116.55 38.803 1117.29 38.067 1117.29 37.157C1117.29 36.249 1116.55 35.512 1115.65 35.512ZM1115.65 38.309C1115.01 38.309 1114.49 37.794 1114.49 37.158C1114.49 36.522 1115.01 36.007 1115.65 36.007C1116.28 36.007 1116.8 36.522 1116.8 37.158C1116.8 37.794 1116.28 38.309 1115.65 38.309Z" fill="#C08B89"/>
<path d="M1144.61 19.5681H1127.13V19.8421H1144.61V19.5681Z" fill="#C08B89"/>
<path d="M1146.91 20.7296L1146.68 20.865L1155.27 35.9726L1155.5 35.8371L1146.91 20.7296Z" fill="#C08B89"/>
<path d="M1155.33 38.4529L1146.56 53.5601L1146.8 53.6976L1155.57 38.5904L1155.33 38.4529Z" fill="#C08B89"/>
<path d="M1144.55 54.656H1127.07V54.93H1144.55V54.656Z" fill="#C08B89"/>
<path d="M1116.4 38.271L1116.16 38.4084L1124.99 53.6376L1125.23 53.5002L1116.4 38.271Z" fill="#C08B89"/>
<path d="M1116.46 36.1L1125.24 21.053L1125 20.916L1116.23 35.962L1116.46 36.1Z" fill="#C08B89"/>
</g>
<g opacity="0.2">
<path d="M1244.02 9C1241.37 9 1239.23 10.9954 1239.23 13.4582C1239.23 15.9211 1241.37 17.9173 1244.02 17.9173C1246.66 17.9173 1248.8 15.9202 1248.8 13.4582C1248.8 10.9954 1246.66 9 1244.02 9ZM1244.02 16.5804C1242.17 16.5804 1240.67 15.1833 1240.67 13.4591C1240.67 11.7349 1242.17 10.3378 1244.02 10.3378C1245.87 10.3378 1247.36 11.7358 1247.36 13.4591C1247.36 15.1833 1245.87 16.5804 1244.02 16.5804Z" fill="#C08B89"/>
<path d="M1302.83 9C1300.19 9 1298.05 10.9954 1298.05 13.4582C1298.05 15.9211 1300.19 17.9173 1302.83 17.9173C1305.48 17.9173 1307.62 15.9202 1307.62 13.4582C1307.62 10.9954 1305.48 9 1302.83 9ZM1302.83 16.5804C1300.98 16.5804 1299.49 15.1833 1299.49 13.4591C1299.49 11.7349 1300.98 10.3378 1302.83 10.3378C1304.68 10.3378 1306.18 11.7358 1306.18 13.4591C1306.18 15.1833 1304.68 16.5804 1302.83 16.5804Z" fill="#C08B89"/>
<path d="M1244.02 104.122C1241.37 104.122 1239.23 106.119 1239.23 108.581C1239.23 111.044 1241.37 113.041 1244.02 113.041C1246.66 113.041 1248.8 111.045 1248.8 108.581C1248.8 106.119 1246.66 104.122 1244.02 104.122ZM1244.02 111.703C1242.17 111.703 1240.67 110.303 1240.67 108.581C1240.67 106.856 1242.17 105.459 1244.02 105.459C1245.87 105.459 1247.36 106.856 1247.36 108.581C1247.36 110.303 1245.87 111.703 1244.02 111.703Z" fill="#C08B89"/>
<path d="M1302.83 104.122C1300.19 104.122 1298.05 106.119 1298.05 108.581C1298.05 111.044 1300.19 113.041 1302.83 113.041C1305.48 113.041 1307.62 111.045 1307.62 108.581C1307.62 106.119 1305.48 104.122 1302.83 104.122ZM1302.83 111.703C1300.98 111.703 1299.49 110.303 1299.49 108.581C1299.49 106.856 1300.98 105.459 1302.83 105.459C1304.68 105.459 1306.18 106.856 1306.18 108.581C1306.18 110.303 1304.68 111.703 1302.83 111.703Z" fill="#C08B89"/>
<path d="M1331.53 56.4778C1328.89 56.4778 1326.75 58.4749 1326.75 60.9369C1326.75 63.3997 1328.89 65.3969 1331.53 65.3969C1334.18 65.3969 1336.32 63.3997 1336.32 60.9369C1336.32 58.4749 1334.18 56.4778 1331.53 56.4778ZM1331.53 64.0582C1329.69 64.0582 1328.19 62.6602 1328.19 60.9369C1328.19 59.2136 1329.69 57.8156 1331.53 57.8156C1333.39 57.8156 1334.88 59.2136 1334.88 60.9369C1334.88 62.6611 1333.38 64.0582 1331.53 64.0582Z" fill="#C08B89"/>
<path d="M1214.78 56.4778C1212.14 56.4778 1210 58.4749 1210 60.9369C1210 63.3997 1212.14 65.3969 1214.78 65.3969C1217.43 65.3969 1219.57 63.3997 1219.57 60.9369C1219.57 58.4749 1217.42 56.4778 1214.78 56.4778ZM1214.78 64.0582C1212.93 64.0582 1211.44 62.6602 1211.44 60.9369C1211.44 59.2136 1212.93 57.8156 1214.78 57.8156C1216.63 57.8156 1218.13 59.2136 1218.13 60.9369C1218.13 62.6611 1216.63 64.0582 1214.78 64.0582Z" fill="#C08B89"/>
<path d="M1299.03 13.2524H1248.18V13.9955H1299.03V13.2524Z" fill="#C08B89"/>
<path d="M1305.74 16.4257L1305.05 16.7925L1330.03 57.7473L1330.72 57.3805L1305.74 16.4257Z" fill="#C08B89"/>
<path d="M1330.21 64.4596L1304.7 105.415L1305.39 105.788L1330.89 64.8326L1330.21 64.4596Z" fill="#C08B89"/>
<path d="M1298.85 108.375H1248V109.117H1298.85V108.375Z" fill="#C08B89"/>
<path d="M1216.98 63.9712L1216.29 64.344L1241.98 105.629L1242.67 105.256L1216.98 63.9712Z" fill="#C08B89"/>
<path d="M1242 16.9058L1216.48 57.6958L1217.17 58.0701L1242.69 17.28L1242 16.9058Z" fill="#C08B89"/>
</g>
<g opacity="0.2">
<path d="M1393.19 266.011C1380.84 266.011 1369.91 271.536 1363.58 280.049C1357.26 271.536 1346.33 266.011 1333.98 266.011C1314.5 266.011 1298.65 279.915 1298.65 297.007C1298.65 298.392 1298.76 299.792 1298.97 301.173C1299.44 305.956 1300.86 313.331 1304.84 321.993H1336.81L1340.89 307.271L1341.92 307.376L1342.85 332.163L1347.15 318.801L1347.64 320.399L1349.15 325.339L1351.85 313.618L1352.88 313.666L1355.11 332.407L1363.85 290.753L1364.89 290.842L1365.37 345.128L1370.64 318.498L1371.66 318.468L1374.23 328.048L1377.95 310.703H1378.98L1380.51 317.867L1383.17 303.417L1384.2 303.456L1386.56 328.519L1388.4 322.348L1388.51 321.993H1423.42C1426.49 314.73 1428.16 307.197 1428.4 299.485C1428.47 298.658 1428.52 297.827 1428.52 297.006C1428.52 279.915 1412.67 266.011 1393.19 266.011ZM1386.8 331.371L1385.77 331.283L1383.52 307.29L1381.06 320.615L1380.04 320.629L1378.46 313.282L1374.8 330.362L1373.78 330.384L1371.23 320.879L1365.4 350.308L1364.36 350.224L1363.88 295.666L1355.48 335.713L1354.45 335.673L1352.19 316.755L1349.73 327.449L1348.72 327.48L1347.12 322.265L1342.94 335.273L1341.92 335.151L1341 310.768L1337.72 322.601L1337.62 322.966H1305.29C1312.66 338.43 1328.22 357.759 1360.95 373.774L1363.57 375.056L1366.28 373.921C1368.88 372.828 1382.56 366.823 1396.43 355.755C1405.35 348.627 1412.55 340.84 1417.81 332.612C1419.83 329.46 1421.56 326.24 1423 322.967H1389.3L1386.8 331.371Z" fill="#C08B89"/>
<path d="M1301.47 322.967C1301.31 322.641 1301.16 322.316 1301.01 321.994H1286.24V322.967H1301.47Z" fill="#C08B89"/>
<path d="M1427.31 321.994C1427.17 322.319 1427.04 322.644 1426.89 322.967H1442.17V321.994H1427.31Z" fill="#C08B89"/>
</g>
<g opacity="0.2">
<path d="M1288.1 32.916C1281.73 32.916 1276.1 35.7652 1272.84 40.1519C1269.58 35.7643 1263.95 32.916 1257.58 32.916C1247.54 32.916 1239.37 40.083 1239.37 48.8931C1239.37 49.6074 1239.42 50.3286 1239.53 51.0403C1239.78 53.5048 1240.51 57.3073 1242.56 61.7725H1259.04L1261.14 54.1842L1261.67 54.2383L1262.15 67.0147L1264.37 60.1277L1264.62 60.9509L1265.4 63.4984L1266.79 57.4564L1267.32 57.4817L1268.47 67.1412L1272.98 45.6698L1273.51 45.716L1273.75 73.6977L1276.47 59.9716L1277 59.9559L1278.32 64.8946L1280.24 55.9546H1280.77L1281.56 59.6463L1282.93 52.1984L1283.47 52.2185L1284.68 65.1388L1285.63 61.9574L1285.68 61.7742H1303.68C1305.26 58.0311 1306.12 54.1485 1306.25 50.1725C1306.29 49.746 1306.31 49.317 1306.31 48.8949C1306.31 40.083 1298.14 32.916 1288.1 32.916ZM1284.8 66.6057L1284.28 66.5612L1283.11 54.1929L1281.85 61.0634L1281.32 61.0695L1280.51 57.282L1278.62 66.0868L1278.09 66.099L1276.78 61.1986L1273.78 76.3681L1273.24 76.3254L1273 48.2024L1268.66 68.8453L1268.13 68.8244L1266.97 59.0724L1265.7 64.585L1265.18 64.6007L1264.35 61.912L1262.2 68.6168L1261.67 68.554L1261.2 55.9869L1259.51 62.0856L1259.46 62.2739H1242.79C1246.59 70.2459 1254.61 80.2081 1271.49 88.4635L1272.84 89.1237L1274.23 88.5385C1275.57 87.976 1282.62 84.8808 1289.77 79.1755C1294.37 75.5013 1298.08 71.4878 1300.79 67.2458C1301.83 65.6202 1302.72 63.9606 1303.46 62.2739H1286.09L1284.8 66.6057Z" fill="#C08B89"/>
<path d="M1240.82 62.2749C1240.74 62.1066 1240.66 61.94 1240.59 61.7734H1232.97V62.2749H1240.82Z" fill="#C08B89"/>
<path d="M1305.68 61.7725C1305.62 61.9399 1305.55 62.1073 1305.47 62.2739H1313.35V61.7725H1305.68Z" fill="#C08B89"/>
</g>
<g opacity="0.2">
<path d="M1141.03 31.512C1141.03 28.472 1138.55 26 1135.51 26C1132.47 26 1130 28.473 1130 31.512V45.018C1130 48.058 1132.47 50.53 1135.51 50.53C1138.55 50.53 1141.03 48.057 1141.02 45.018L1141.03 31.512ZM1140.2 45.018C1140.2 47.601 1138.1 49.704 1135.51 49.704C1132.93 49.704 1130.83 47.602 1130.83 45.018V31.513C1130.83 28.929 1132.93 26.827 1135.51 26.827C1138.1 26.827 1140.2 28.929 1140.2 31.513V45.018Z" fill="#C08B89"/>
<path d="M1139.31 38.2651V31.1451C1139.31 29.1801 1137.61 27.5811 1135.51 27.5811C1133.42 27.5811 1131.72 29.1801 1131.72 31.1451V38.2651H1139.31Z" fill="#C08B89"/>
</g>
<g opacity="0.2">
<path d="M1198.38 399.641H1183.31V401.399H1198.38V399.641Z" fill="#C08B89"/>
<path d="M1249.23 388.265H1206.92C1201.9 388.265 1197.81 392.623 1197.81 397.979V403.06C1197.81 408.417 1201.9 412.773 1206.92 412.773H1249.23L1249.8 412.774V412.172V388.869V388.265H1249.23ZM1249.23 411.568H1206.92C1202.52 411.568 1198.94 407.751 1198.94 403.06V397.979C1198.94 393.287 1202.52 389.471 1206.92 389.471H1249.23L1248.67 388.869V412.172L1249.23 411.568Z" fill="#C08B89"/>
<path d="M1254.13 381.435H1248.48V419.604H1254.13V381.435Z" fill="#C08B89"/>
<path d="M1271.01 399.39H1250.36V401.649H1271.01V399.39Z" fill="#C08B89"/>
<path d="M1271.01 391.278H1269.17V409.759H1271.01V391.278Z" fill="#C08B89"/>
<path d="M1202 398.305V402.734C1202 406.017 1204.69 408.688 1208 408.688C1208 408.688 1208.26 408.688 1208.74 408.688V400.251H1209.87V408.688H1214.39V400.251H1215.52V408.688H1220.04V400.251H1221.17V408.688H1225.69V400.251H1226.82V408.688H1231.34V400.251H1232.47V408.688H1245.61V392.351C1242 392.351 1208 392.351 1208 392.351C1204.69 392.351 1202 395.022 1202 398.305Z" fill="#C08B89"/>
</g>
<g opacity="0.2">
<path d="M67.0167 331C64.3745 331 62.2339 333.284 62.2339 336.103C62.2339 338.92 64.3755 341.204 67.0167 341.204C69.6579 341.204 71.8014 338.92 71.8014 336.103C71.8004 333.284 69.6579 331 67.0167 331ZM67.0167 339.672C65.1679 339.672 63.6682 338.075 63.6682 336.103C63.6682 334.13 65.167 332.532 67.0167 332.532C68.8664 332.532 70.3652 334.131 70.3652 336.103C70.3652 338.075 68.8654 339.672 67.0167 339.672Z" fill="#C08B89"/>
<path d="M125.835 331C123.194 331 121.051 333.284 121.051 336.103C121.051 338.92 123.193 341.204 125.835 341.204C128.477 341.204 130.618 338.92 130.618 336.103C130.619 333.284 128.477 331 125.835 331ZM125.835 339.672C123.984 339.672 122.486 338.075 122.486 336.103C122.486 334.13 123.984 332.532 125.835 332.532C127.684 332.532 129.183 334.131 129.183 336.103C129.183 338.075 127.684 339.672 125.835 339.672Z" fill="#C08B89"/>
<path d="M67.0167 439.836C64.3745 439.836 62.2339 442.122 62.2339 444.938C62.2339 447.755 64.3755 450.039 67.0167 450.039C69.6579 450.039 71.8014 447.755 71.8014 444.938C71.8004 442.122 69.6579 439.836 67.0167 439.836ZM67.0167 448.51C65.1679 448.51 63.6682 446.909 63.6682 444.938C63.6682 442.966 65.167 441.367 67.0167 441.367C68.8664 441.367 70.3652 442.967 70.3652 444.938C70.3652 446.909 68.8654 448.51 67.0167 448.51Z" fill="#C08B89"/>
<path d="M125.835 439.836C123.194 439.836 121.051 442.122 121.051 444.938C121.051 447.755 123.193 450.039 125.835 450.039C128.477 450.039 130.618 447.755 130.618 444.938C130.619 442.122 128.477 439.836 125.835 439.836ZM125.835 448.51C123.984 448.51 122.486 446.909 122.486 444.938C122.486 442.966 123.984 441.367 125.835 441.367C127.684 441.367 129.184 442.967 129.184 444.938C129.184 446.909 127.684 448.51 125.835 448.51Z" fill="#C08B89"/>
<path d="M154.536 385.324C151.894 385.324 149.753 387.61 149.753 390.425C149.753 393.244 151.895 395.527 154.536 395.527C157.178 395.527 159.32 393.244 159.32 390.425C159.319 387.61 157.177 385.324 154.536 385.324ZM154.536 393.996C152.687 393.996 151.187 392.397 151.187 390.425C151.187 388.454 152.687 386.856 154.536 386.856C156.386 386.856 157.884 388.455 157.884 390.425C157.884 392.398 156.386 393.996 154.536 393.996Z" fill="#C08B89"/>
<path d="M37.7837 385.324C35.1416 385.324 33 387.61 33 390.425C33 393.244 35.1425 395.527 37.7837 395.527C40.4259 395.527 42.5665 393.244 42.5665 390.425C42.5675 387.61 40.4259 385.324 37.7837 385.324ZM37.7837 393.996C35.934 393.996 34.4352 392.397 34.4352 390.425C34.4352 388.454 35.934 386.856 37.7837 386.856C39.6334 386.856 41.1322 388.455 41.1322 390.425C41.1322 392.398 39.6334 393.996 37.7837 393.996Z" fill="#C08B89"/>
<path d="M122.027 335.866H71.1792V336.716H122.027V335.866Z" fill="#C08B89"/>
<path d="M128.761 339.463L128.068 339.883L153.051 386.742L153.744 386.322L128.761 339.463Z" fill="#C08B89"/>
<path d="M153.24 394.476L127.726 441.336L128.415 441.763L153.93 394.903L153.24 394.476Z" fill="#C08B89"/>
<path d="M121.85 444.703H71.0034V445.551H121.85V444.703Z" fill="#C08B89"/>
<path d="M39.98 393.884L39.2905 394.31L64.9794 441.548L65.6689 441.121L39.98 393.884Z" fill="#C08B89"/>
<path d="M64.9971 340.058L39.4829 386.729L40.1708 387.156L65.6849 340.485L64.9971 340.058Z" fill="#C08B89"/>
</g>
<g opacity="0.2">
<path d="M67.3755 389.641H52.3076V391.399H67.3755V389.641Z" fill="#C08B89"/>
<path d="M118.232 378.265H75.9186C70.8973 378.265 66.8105 382.623 66.8105 387.979V393.06C66.8105 398.417 70.8973 402.773 75.9186 402.773H118.232L118.798 402.774V402.172V378.869V378.265H118.232ZM118.232 401.568H75.9186C71.5194 401.568 67.9408 397.751 67.9408 393.06V387.979C67.9408 383.287 71.5194 379.471 75.9186 379.471H118.232L117.668 378.869V402.172L118.232 401.568Z" fill="#C08B89"/>
<path d="M123.13 371.435H117.48V409.604H123.13V371.435Z" fill="#C08B89"/>
<path d="M140.011 389.39H119.362V391.649H140.011V389.39Z" fill="#C08B89"/>
<path d="M140.012 381.278H138.169V399.759H140.012V381.278Z" fill="#C08B89"/>
<path d="M71.001 388.305V392.734C71.001 396.017 73.6908 398.688 76.9982 398.688C76.9982 398.688 77.262 398.688 77.7354 398.688V390.251H78.8657V398.688H83.3865V390.251H84.5167V398.688H89.0375V390.251H90.1668V398.688H94.6876V390.251H95.8178V398.688H100.339V390.251H101.469V398.688H114.609V382.351C111.005 382.351 76.9982 382.351 76.9982 382.351C73.6908 382.351 71.001 385.022 71.001 388.305Z" fill="#C08B89"/>
</g>
<g opacity="0.2">
<path d="M1172.59 27.5979H1165V28.4289H1172.59V27.5979Z" fill="#C08B89"/>
<path d="M1198.21 22.2251H1176.89C1174.37 22.2251 1172.31 24.2841 1172.31 26.8131V29.2131C1172.31 31.7421 1174.37 33.8001 1176.89 33.8001H1198.21H1198.49V33.5151V22.5111V22.2251H1198.21ZM1198.21 33.2311H1176.89C1174.68 33.2311 1172.88 31.4291 1172.88 29.2141V26.8141C1172.88 24.5991 1174.68 22.7951 1176.89 22.7951H1198.21L1197.93 22.5121V33.5171L1198.21 33.2311Z" fill="#C08B89"/>
<path d="M1200.68 19H1197.83V37.028H1200.68V19Z" fill="#C08B89"/>
<path d="M1209.18 27.48H1198.78V28.548H1209.18V27.48Z" fill="#C08B89"/>
<path d="M1209.18 23.6479H1208.25V32.379H1209.18V23.6479Z" fill="#C08B89"/>
<path d="M1174.42 26.967V29.06C1174.42 30.61 1175.77 31.871 1177.44 31.871C1177.44 31.871 1177.57 31.871 1177.81 31.871V27.886H1178.38V31.871H1180.65V27.886H1181.22V31.871H1183.5V27.886H1184.07V31.871H1186.35V27.886H1186.92V31.871H1189.19V27.886H1189.76V31.871H1196.38V24.156C1194.56 24.156 1177.43 24.156 1177.43 24.156C1175.77 24.156 1174.42 25.416 1174.42 26.967Z" fill="#C08B89"/>
</g>
<g opacity="0.2">
<path d="M1330.96 90C1327.54 90 1324.77 92.5788 1324.77 95.7603C1324.77 98.9426 1327.54 101.522 1330.96 101.522C1334.37 101.522 1337.14 98.9426 1337.14 95.7603C1337.14 92.578 1334.37 90 1330.96 90ZM1330.96 99.7938C1328.57 99.7938 1326.63 97.9886 1326.63 95.7603C1326.63 93.5329 1328.57 91.7268 1330.96 91.7268C1333.35 91.7268 1335.28 93.5329 1335.28 95.7603C1335.28 97.9886 1333.35 99.7938 1330.96 99.7938Z" fill="#C08B89"/>
<path d="M1406.96 90C1403.55 90 1400.78 92.5788 1400.78 95.7603C1400.78 98.9426 1403.55 101.522 1406.96 101.522C1410.37 101.522 1413.14 98.9426 1413.14 95.7603C1413.14 92.578 1410.37 90 1406.96 90ZM1406.96 99.7938C1404.57 99.7938 1402.63 97.9886 1402.63 95.7603C1402.63 93.5329 1404.57 91.7268 1406.96 91.7268C1409.35 91.7268 1411.29 93.5329 1411.29 95.7603C1411.29 97.9886 1409.35 99.7938 1406.96 99.7938Z" fill="#C08B89"/>
<path d="M1330.96 212.916C1327.54 212.916 1324.77 215.494 1324.77 218.678C1324.77 221.859 1327.54 224.439 1330.96 224.439C1334.37 224.439 1337.14 221.858 1337.14 218.678C1337.14 215.494 1334.37 212.916 1330.96 212.916ZM1330.96 222.71C1328.57 222.71 1326.63 220.904 1326.63 218.678C1326.63 216.449 1328.57 214.645 1330.96 214.645C1333.35 214.645 1335.28 216.45 1335.28 218.678C1335.28 220.904 1333.35 222.71 1330.96 222.71Z" fill="#C08B89"/>
<path d="M1406.96 212.916C1403.55 212.916 1400.78 215.494 1400.78 218.678C1400.78 221.859 1403.55 224.439 1406.96 224.439C1410.37 224.439 1413.14 221.858 1413.14 218.678C1413.14 215.494 1410.37 212.916 1406.96 212.916ZM1406.96 222.71C1404.57 222.71 1402.63 220.904 1402.63 218.678C1402.63 216.449 1404.57 214.645 1406.96 214.645C1409.35 214.645 1411.29 216.45 1411.29 218.678C1411.29 220.904 1409.35 222.71 1406.96 222.71Z" fill="#C08B89"/>
<path d="M1444.05 151.35C1440.63 151.35 1437.87 153.93 1437.87 157.111C1437.87 160.294 1440.63 162.873 1444.05 162.873C1447.46 162.873 1450.23 160.293 1450.23 157.111C1450.23 153.93 1447.46 151.35 1444.05 151.35ZM1444.05 161.145C1441.66 161.145 1439.72 159.34 1439.72 157.112C1439.72 154.885 1441.66 153.079 1444.05 153.079C1446.44 153.079 1448.38 154.885 1448.38 157.112C1448.38 159.34 1446.44 161.145 1444.05 161.145Z" fill="#C08B89"/>
<path d="M1293.18 151.35C1289.77 151.35 1287 153.93 1287 157.111C1287 160.294 1289.77 162.873 1293.18 162.873C1296.6 162.873 1299.36 160.293 1299.36 157.111C1299.36 153.93 1296.6 151.35 1293.18 151.35ZM1293.18 161.145C1290.79 161.145 1288.85 159.34 1288.85 157.112C1288.85 154.885 1290.79 153.079 1293.18 153.079C1295.57 153.079 1297.51 154.885 1297.51 157.112C1297.51 159.34 1295.57 161.145 1293.18 161.145Z" fill="#C08B89"/>
<path d="M1402.04 95.4944H1336.34V96.4546H1402.04V95.4944Z" fill="#C08B89"/>
<path d="M1410.72 99.595L1409.82 100.069L1442.1 152.991L1442.99 152.517L1410.72 99.595Z" fill="#C08B89"/>
<path d="M1442.33 161.662L1409.37 214.585L1410.26 215.067L1443.22 162.144L1442.33 161.662Z" fill="#C08B89"/>
<path d="M1401.81 218.41H1336.11V219.37H1401.81V218.41Z" fill="#C08B89"/>
<path d="M1296.02 161.03L1295.13 161.511L1328.32 214.858L1329.21 214.377L1296.02 161.03Z" fill="#C08B89"/>
<path d="M1328.35 100.22L1295.38 152.928L1296.27 153.412L1329.24 100.704L1328.35 100.22Z" fill="#C08B89"/>
</g>
<g opacity="0.2">
<path d="M1390.17 132.603C1390.17 121.523 1380.5 112.509 1368.62 112.51C1356.73 112.51 1347.06 121.523 1347.06 132.604L1347.06 181.834C1347.06 192.914 1356.73 201.927 1368.61 201.927C1380.5 201.927 1390.17 192.914 1390.17 181.834L1390.17 132.603ZM1386.94 181.834C1386.94 191.252 1378.72 198.914 1368.61 198.914C1358.51 198.914 1350.29 191.252 1350.29 181.835V132.605C1350.29 123.186 1358.51 115.525 1368.62 115.525C1378.72 115.525 1386.94 123.187 1386.94 132.604L1386.94 181.834Z" fill="#C08B89"/>
<path d="M1383.45 157.219V131.265C1383.45 124.1 1376.79 118.273 1368.61 118.274C1360.43 118.274 1353.78 124.101 1353.78 131.265V157.218L1383.45 157.219Z" fill="#C08B89"/>
</g>
<g opacity="0.2">
<path d="M21.98 173C18.331 173 15.374 175.957 15.374 179.605C15.374 183.254 18.331 186.212 21.98 186.212C25.628 186.212 28.586 183.255 28.586 179.605C28.586 175.957 25.628 173 21.98 173ZM21.98 184.23C19.426 184.23 17.355 182.161 17.355 179.606C17.355 177.052 19.426 174.981 21.98 174.981C24.534 174.981 26.604 177.052 26.604 179.606C26.604 182.16 24.534 184.23 21.98 184.23Z" fill="#C08B89"/>
<path d="M103.216 173C99.568 173 96.61 175.957 96.61 179.605C96.61 183.254 99.567 186.212 103.216 186.212C106.865 186.212 109.823 183.255 109.823 179.605C109.824 175.957 106.866 173 103.216 173ZM103.216 184.23C100.662 184.23 98.593 182.161 98.593 179.606C98.593 177.052 100.662 174.981 103.216 174.981C105.771 174.981 107.841 177.052 107.841 179.606C107.841 182.16 105.771 184.23 103.216 184.23Z" fill="#C08B89"/>
<path d="M21.98 313.94C18.331 313.94 15.374 316.897 15.374 320.545C15.374 324.194 18.331 327.153 21.98 327.153C25.628 327.153 28.586 324.194 28.586 320.545C28.586 316.897 25.628 313.94 21.98 313.94ZM21.98 325.172C19.426 325.172 17.355 323.1 17.355 320.546C17.355 317.992 19.426 315.923 21.98 315.923C24.534 315.923 26.604 317.992 26.604 320.546C26.604 323.1 24.534 325.172 21.98 325.172Z" fill="#C08B89"/>
<path d="M103.216 313.94C99.568 313.94 96.61 316.897 96.61 320.545C96.61 324.194 99.567 327.153 103.216 327.153C106.865 327.153 109.823 324.194 109.823 320.545C109.824 316.897 106.866 313.94 103.216 313.94ZM103.216 325.172C100.662 325.172 98.593 323.1 98.593 320.546C98.593 317.992 100.662 315.923 103.216 315.923C105.771 315.923 107.841 317.992 107.841 320.546C107.841 323.1 105.771 325.172 103.216 325.172Z" fill="#C08B89"/>
<path d="M142.856 243.347C139.207 243.347 136.25 246.306 136.25 249.954C136.25 253.602 139.207 256.561 142.856 256.561C146.504 256.561 149.462 253.602 149.462 249.954C149.462 246.306 146.504 243.347 142.856 243.347ZM142.856 254.578C140.302 254.578 138.231 252.509 138.231 249.953C138.231 247.398 140.302 245.329 142.856 245.329C145.411 245.329 147.481 247.398 147.481 249.953C147.481 252.509 145.411 254.578 142.856 254.578Z" fill="#C08B89"/>
<path d="M97.958 179.3H27.73V180.401H97.958V179.3Z" fill="#C08B89"/>
<path d="M107.248 183.953L106.292 184.497L140.797 245.179L141.753 244.635L107.248 183.953Z" fill="#C08B89"/>
<path d="M141.018 255.163L105.785 315.846L106.737 316.399L141.97 255.715L141.018 255.163Z" fill="#C08B89"/>
<path d="M97.712 320.24H27.486V321.342H97.712V320.24Z" fill="#C08B89"/>
<path d="M-15.3688 254.434L-16.3203 254.986L19.1584 316.156L20.1099 315.604L-15.3688 254.434Z" fill="#C08B89"/>
<path d="M19.1983 184.724L-16.0396 245.161L-15.0884 245.715L20.1494 185.279L19.1983 184.724Z" fill="#C08B89"/>
</g>
<g opacity="0.2">
<path d="M34.358 48C31.533 48 29.245 50.288 29.245 53.112C29.245 55.936 31.533 58.225 34.358 58.225C37.18 58.225 39.47 55.936 39.47 53.112C39.47 50.288 37.181 48 34.358 48ZM34.358 56.691C32.382 56.691 30.778 55.089 30.778 53.112C30.778 51.136 32.382 49.533 34.358 49.533C36.335 49.533 37.936 51.136 37.936 53.112C37.937 55.089 36.335 56.691 34.358 56.691Z" fill="#C08B89"/>
<path d="M97.226 48C94.402 48 92.113 50.288 92.113 53.112C92.113 55.936 94.402 58.225 97.226 58.225C100.05 58.225 102.338 55.936 102.338 53.112C102.338 50.288 100.05 48 97.226 48ZM97.226 56.691C95.247 56.691 93.647 55.089 93.647 53.112C93.647 51.136 95.248 49.533 97.226 49.533C99.202 49.533 100.804 51.136 100.804 53.112C100.804 55.089 99.201 56.691 97.226 56.691Z" fill="#C08B89"/>
<path d="M34.358 157.071C31.533 157.071 29.245 159.361 29.245 162.184C29.245 165.007 31.533 167.296 34.358 167.296C37.18 167.296 39.47 165.007 39.47 162.184C39.471 159.361 37.181 157.071 34.358 157.071ZM34.358 165.763C32.382 165.763 30.778 164.158 30.778 162.184C30.778 160.205 32.382 158.605 34.358 158.605C36.335 158.605 37.936 160.205 37.936 162.184C37.937 164.159 36.335 165.763 34.358 165.763Z" fill="#C08B89"/>
<path d="M97.226 157.071C94.402 157.071 92.113 159.361 92.113 162.184C92.113 165.007 94.402 167.296 97.226 167.296C100.05 167.296 102.338 165.007 102.338 162.184C102.338 159.361 100.05 157.071 97.226 157.071ZM97.226 165.763C95.247 165.763 93.647 164.158 93.647 162.184C93.647 160.205 95.248 158.605 97.226 158.605C99.202 158.605 100.804 160.205 100.804 162.184C100.804 164.159 99.201 165.763 97.226 165.763Z" fill="#C08B89"/>
<path d="M127.901 102.439C125.077 102.439 122.789 104.73 122.789 107.553C122.789 110.376 125.077 112.666 127.901 112.666C130.724 112.666 133.013 110.376 133.013 107.553C133.014 104.73 130.725 102.439 127.901 102.439ZM127.901 111.132C125.924 111.132 124.321 109.53 124.321 107.553C124.321 105.576 125.925 103.974 127.901 103.974C129.878 103.974 131.481 105.577 131.481 107.553C131.481 109.53 129.878 111.132 127.901 111.132Z" fill="#C08B89"/>
<path d="M3.11298 102.439C0.289976 102.439 -2 104.73 -2 107.553C-2 110.376 0.289976 112.666 3.11298 112.666C5.93698 112.666 8.22601 110.376 8.22601 107.553C8.22701 104.73 5.93798 102.439 3.11298 102.439ZM3.11298 111.132C1.13598 111.132 -0.465027 109.53 -0.465027 107.553C-0.465027 105.576 1.13698 103.974 3.11298 103.974C5.08998 103.974 6.69202 105.577 6.69202 107.553C6.69302 109.53 5.08998 111.132 3.11298 111.132Z" fill="#C08B89"/>
<path d="M93.155 52.876H38.808V53.727H93.155V52.876Z" fill="#C08B89"/>
<path d="M100.312 56.5154L99.57 56.937L126.267 103.897L127.009 103.476L100.312 56.5154Z" fill="#C08B89"/>
<path d="M126.467 111.574L99.2005 158.536L99.9373 158.964L127.203 112.002L126.467 111.574Z" fill="#C08B89"/>
<path d="M92.965 161.946H38.618V162.798H92.965V161.946Z" fill="#C08B89"/>
<path d="M5.44426 111.014L4.70813 111.441L32.1647 158.78L32.9008 158.353L5.44426 111.014Z" fill="#C08B89"/>
<path d="M32.1608 57.0601L4.89636 103.831L5.6324 104.26L32.8968 57.4892L32.1608 57.0601Z" fill="#C08B89"/>
</g>
<g opacity="0.2">
<path d="M149.115 25C147.086 25 145.441 26.644 145.441 28.672C145.441 30.701 147.086 32.345 149.115 32.345C151.141 32.345 152.787 30.701 152.787 28.672C152.787 26.643 151.141 25 149.115 25ZM149.115 31.244C147.695 31.244 146.543 30.093 146.543 28.672C146.543 27.252 147.695 26.101 149.115 26.101C150.534 26.101 151.685 27.252 151.685 28.672C151.685 30.092 150.534 31.244 149.115 31.244Z" fill="#C08B89"/>
<path d="M194.269 25C192.24 25 190.596 26.644 190.596 28.672C190.596 30.701 192.24 32.345 194.269 32.345C196.296 32.345 197.941 30.701 197.941 28.672C197.941 26.643 196.296 25 194.269 25ZM194.269 31.244C192.848 31.244 191.698 30.093 191.698 28.672C191.698 27.252 192.848 26.101 194.269 26.101C195.687 26.101 196.839 27.252 196.839 28.672C196.839 30.092 195.687 31.244 194.269 31.244Z" fill="#C08B89"/>
<path d="M149.115 103.341C147.086 103.341 145.441 104.985 145.441 107.013C145.441 109.04 147.086 110.685 149.115 110.685C151.141 110.685 152.787 109.04 152.787 107.013C152.787 104.984 151.141 103.341 149.115 103.341ZM149.115 109.582C147.695 109.582 146.543 108.432 146.543 107.013C146.543 105.593 147.695 104.442 149.115 104.442C150.534 104.442 151.685 105.593 151.685 107.013C151.685 108.431 150.534 109.582 149.115 109.582Z" fill="#C08B89"/>
<path d="M194.269 103.341C192.24 103.341 190.596 104.985 190.596 107.013C190.596 109.04 192.24 110.685 194.269 110.685C196.296 110.685 197.941 109.04 197.941 107.013C197.941 104.984 196.296 103.341 194.269 103.341ZM194.269 109.582C192.848 109.582 191.698 108.432 191.698 107.013C191.698 105.593 192.848 104.442 194.269 104.442C195.687 104.442 196.839 105.593 196.839 107.013C196.839 108.431 195.687 109.582 194.269 109.582Z" fill="#C08B89"/>
<path d="M216.302 64.1011C214.273 64.1011 212.628 65.7461 212.628 67.7731C212.628 69.8021 214.273 71.4461 216.302 71.4461C218.328 71.4461 219.974 69.8021 219.974 67.7731C219.974 65.7471 218.329 64.1011 216.302 64.1011ZM216.302 70.3431C214.881 70.3431 213.73 69.1941 213.73 67.7731C213.73 66.3531 214.881 65.2041 216.302 65.2041C217.721 65.2041 218.871 66.3531 218.871 67.7731C218.872 69.1941 217.721 70.3431 216.302 70.3431Z" fill="#C08B89"/>
<path d="M126.672 64.1011C124.645 64.1011 123 65.7461 123 67.7731C123 69.8021 124.645 71.4461 126.672 71.4461C128.701 71.4461 130.345 69.8021 130.345 67.7731C130.345 65.7471 128.702 64.1011 126.672 64.1011ZM126.672 70.3431C125.253 70.3431 124.102 69.1941 124.102 67.7731C124.102 66.3531 125.253 65.2041 126.672 65.2041C128.093 65.2041 129.243 66.3531 129.243 67.7731C129.244 69.1941 128.093 70.3431 126.672 70.3431Z" fill="#C08B89"/>
<path d="M191.344 28.502H152.31V29.114H191.344V28.502Z" fill="#C08B89"/>
<path d="M196.471 31.105L195.939 31.4075L215.115 65.1372L215.647 64.8347L196.471 31.105Z" fill="#C08B89"/>
<path d="M215.334 70.6789L195.747 104.409L196.276 104.716L215.864 70.9863L215.334 70.6789Z" fill="#C08B89"/>
<path d="M191.208 106.842H152.174V107.454H191.208V106.842Z" fill="#C08B89"/>
<path d="M128.335 70.2557L127.807 70.5623L147.527 104.563L148.056 104.256L128.335 70.2557Z" fill="#C08B89"/>
<path d="M147.591 31.5311L128.004 65.1248L128.533 65.433L148.12 31.8394L147.591 31.5311Z" fill="#C08B89"/>
</g>
<g opacity="0.2">
<path d="M164.114 400C162.086 400 160.441 401.643 160.441 403.672C160.441 405.701 162.085 407.345 164.114 407.345C166.141 407.345 167.786 405.701 167.786 403.672C167.786 401.644 166.141 400 164.114 400ZM164.114 406.244C162.695 406.244 161.543 405.093 161.543 403.672C161.543 402.252 162.695 401.101 164.114 401.101C165.534 401.101 166.685 402.252 166.685 403.672C166.685 405.093 165.534 406.244 164.114 406.244Z" fill="#C08B89"/>
<path d="M209.268 400C207.24 400 205.596 401.643 205.596 403.672C205.596 405.701 207.239 407.345 209.268 407.345C211.296 407.345 212.941 405.701 212.941 403.672C212.941 401.644 211.297 400 209.268 400ZM209.268 406.244C207.848 406.244 206.697 405.093 206.697 403.672C206.697 402.252 207.848 401.101 209.268 401.101C210.687 401.101 211.839 402.252 211.839 403.672C211.84 405.093 210.687 406.244 209.268 406.244Z" fill="#C08B89"/>
<path d="M164.114 478.341C162.086 478.341 160.441 479.984 160.441 482.013C160.441 484.04 162.085 485.686 164.114 485.686C166.141 485.686 167.786 484.04 167.786 482.013C167.786 479.985 166.141 478.341 164.114 478.341ZM164.114 484.582C162.695 484.582 161.543 483.432 161.543 482.013C161.543 480.593 162.695 479.442 164.114 479.442C165.534 479.442 166.685 480.593 166.685 482.013C166.685 483.432 165.534 484.582 164.114 484.582Z" fill="#C08B89"/>
<path d="M209.268 478.341C207.24 478.341 205.596 479.984 205.596 482.013C205.596 484.04 207.239 485.686 209.268 485.686C211.296 485.686 212.941 484.04 212.941 482.013C212.941 479.985 211.297 478.341 209.268 478.341ZM209.268 484.582C207.848 484.582 206.697 483.432 206.697 482.013C206.697 480.593 207.848 479.442 209.268 479.442C210.687 479.442 211.839 480.593 211.839 482.013C211.84 483.432 210.687 484.582 209.268 484.582Z" fill="#C08B89"/>
<path d="M231.301 439.102C229.274 439.102 227.629 440.748 227.629 442.774C227.629 444.803 229.273 446.447 231.301 446.447C233.329 446.447 234.975 444.803 234.975 442.774C234.974 440.747 233.329 439.102 231.301 439.102ZM231.301 445.344C229.882 445.344 228.731 444.195 228.731 442.774C228.731 441.354 229.882 440.205 231.301 440.205C232.722 440.205 233.872 441.354 233.872 442.774C233.872 444.195 232.721 445.344 231.301 445.344Z" fill="#C08B89"/>
<path d="M141.673 439.102C139.645 439.102 138 440.748 138 442.774C138 444.803 139.645 446.447 141.673 446.447C143.701 446.447 145.346 444.803 145.346 442.774C145.345 440.747 143.701 439.102 141.673 439.102ZM141.673 445.344C140.253 445.344 139.103 444.195 139.103 442.774C139.103 441.354 140.253 440.205 141.673 440.205C143.093 440.205 144.244 441.354 144.244 442.774C144.244 444.195 143.093 445.344 141.673 445.344Z" fill="#C08B89"/>
<path d="M206.344 403.502H167.309V404.114H206.344V403.502Z" fill="#C08B89"/>
<path d="M211.476 406.095L210.945 406.397L230.12 440.126L230.651 439.824L211.476 406.095Z" fill="#C08B89"/>
<path d="M230.327 445.689L210.741 479.418L211.27 479.725L230.857 445.996L230.327 445.689Z" fill="#C08B89"/>
<path d="M206.208 481.843H167.175V482.453H206.208V481.843Z" fill="#C08B89"/>
<path d="M143.345 445.249L142.816 445.556L162.536 479.557L163.065 479.25L143.345 445.249Z" fill="#C08B89"/>
<path d="M162.53 406.495L142.946 440.09L143.475 440.398L163.059 406.804L162.53 406.495Z" fill="#C08B89"/>
</g>
<g opacity="0.2">
<path d="M289.698 31C288.79 31 288.055 31.736 288.055 32.645C288.055 33.552 288.79 34.291 289.698 34.291C290.605 34.291 291.343 33.553 291.343 32.645C291.342 31.736 290.605 31 289.698 31ZM289.698 33.796C289.062 33.796 288.547 33.28 288.547 32.645C288.547 32.009 289.063 31.495 289.698 31.495C290.333 31.495 290.849 32.01 290.849 32.645C290.849 33.28 290.333 33.796 289.698 33.796Z" fill="#C08B89"/>
<path d="M309.921 31C309.013 31 308.276 31.736 308.276 32.645C308.276 33.552 309.012 34.291 309.921 34.291C310.831 34.291 311.567 33.553 311.567 32.645C311.567 31.736 310.832 31 309.921 31ZM309.921 33.796C309.286 33.796 308.771 33.28 308.771 32.645C308.771 32.009 309.287 31.495 309.921 31.495C310.558 31.495 311.074 32.01 311.074 32.645C311.075 33.28 310.558 33.796 309.921 33.796Z" fill="#C08B89"/>
<path d="M289.698 66.0879C288.79 66.0879 288.055 66.8259 288.055 67.7329C288.055 68.6409 288.79 69.3779 289.698 69.3779C290.605 69.3779 291.343 68.6419 291.343 67.7329C291.342 66.8259 290.605 66.0879 289.698 66.0879ZM289.698 68.8849C289.062 68.8849 288.547 68.3669 288.547 67.7329C288.547 67.0969 289.063 66.5819 289.698 66.5819C290.333 66.5819 290.849 67.0979 290.849 67.7329C290.849 68.3679 290.333 68.8849 289.698 68.8849Z" fill="#C08B89"/>
<path d="M309.921 66.0879C309.013 66.0879 308.276 66.8259 308.276 67.7329C308.276 68.6409 309.012 69.3779 309.921 69.3779C310.831 69.3779 311.567 68.6419 311.567 67.7329C311.567 66.8259 310.832 66.0879 309.921 66.0879ZM309.921 68.8849C309.286 68.8849 308.771 68.3669 308.771 67.7329C308.771 67.0969 309.287 66.5819 309.921 66.5819C310.558 66.5819 311.074 67.0979 311.074 67.7329C311.075 68.3679 310.558 68.8849 309.921 68.8849Z" fill="#C08B89"/>
<path d="M319.791 48.5129C318.883 48.5129 318.146 49.2489 318.146 50.1559C318.146 51.0659 318.882 51.8029 319.791 51.8029C320.7 51.8029 321.437 51.0669 321.437 50.1559C321.436 49.2499 320.699 48.5129 319.791 48.5129ZM319.791 51.309C319.155 51.309 318.64 50.794 318.64 50.157C318.64 49.523 319.156 49.0079 319.791 49.0079C320.428 49.0079 320.943 49.524 320.943 50.157C320.943 50.795 320.427 51.309 319.791 51.309Z" fill="#C08B89"/>
<path d="M279.645 48.5129C278.738 48.5129 278 49.2489 278 50.1559C278 51.0659 278.737 51.8029 279.645 51.8029C280.554 51.8029 281.291 51.0669 281.291 50.1559C281.291 49.2499 280.554 48.5129 279.645 48.5129ZM279.645 51.309C279.01 51.309 278.495 50.794 278.495 50.157C278.495 49.523 279.011 49.0079 279.645 49.0079C280.281 49.0079 280.797 49.524 280.797 50.157C280.797 50.795 280.281 51.309 279.645 51.309Z" fill="#C08B89"/>
<path d="M308.613 32.5691H291.13V32.8421H308.613V32.5691Z" fill="#C08B89"/>
<path d="M310.966 33.735L310.728 33.8704L319.317 48.9805L319.555 48.8451L310.966 33.735Z" fill="#C08B89"/>
<path d="M319.338 51.4609L310.566 66.5679L310.802 66.7039L319.574 51.598L319.338 51.4609Z" fill="#C08B89"/>
<path d="M308.551 67.657H291.068V67.93H308.551V67.657Z" fill="#C08B89"/>
<path d="M280.373 51.2717L280.136 51.4092L288.968 66.6375L289.205 66.5L280.373 51.2717Z" fill="#C08B89"/>
<path d="M280.465 49.1L289.237 34.053L289 33.916L280.228 48.963L280.465 49.1Z" fill="#C08B89"/>
</g>
<g opacity="0.2">
<path d="M227.697 471C226.788 471 226.051 471.734 226.051 472.643C226.051 473.552 226.787 474.288 227.697 474.288C228.604 474.288 229.341 473.552 229.341 472.643C229.34 471.734 228.604 471 227.697 471ZM227.697 473.796C227.06 473.796 226.544 473.278 226.544 472.643C226.544 472.008 227.061 471.493 227.697 471.493C228.331 471.493 228.847 472.008 228.847 472.643C228.847 473.278 228.33 473.796 227.697 473.796Z" fill="#C08B89"/>
<path d="M247.92 471C247.011 471 246.274 471.734 246.274 472.643C246.274 473.552 247.01 474.288 247.92 474.288C248.828 474.288 249.563 473.552 249.563 472.643C249.564 471.734 248.828 471 247.92 471ZM247.92 473.796C247.284 473.796 246.769 473.278 246.769 472.643C246.769 472.008 247.285 471.493 247.92 471.493C248.557 471.493 249.071 472.008 249.071 472.643C249.071 473.278 248.557 473.796 247.92 473.796Z" fill="#C08B89"/>
<path d="M227.697 506.088C226.788 506.088 226.051 506.824 226.051 507.734C226.051 508.642 226.787 509.377 227.697 509.377C228.604 509.377 229.341 508.643 229.341 507.734C229.34 506.824 228.604 506.088 227.697 506.088ZM227.697 508.884C227.06 508.884 226.544 508.367 226.544 507.734C226.544 507.096 227.061 506.583 227.697 506.583C228.331 506.583 228.847 507.097 228.847 507.734C228.847 508.367 228.33 508.884 227.697 508.884Z" fill="#C08B89"/>
<path d="M247.92 506.088C247.011 506.088 246.274 506.824 246.274 507.734C246.274 508.642 247.01 509.377 247.92 509.377C248.828 509.377 249.563 508.643 249.563 507.734C249.564 506.824 248.828 506.088 247.92 506.088ZM247.92 508.884C247.284 508.884 246.769 508.367 246.769 507.734C246.769 507.096 247.285 506.583 247.92 506.583C248.557 506.583 249.071 507.097 249.071 507.734C249.072 508.367 248.557 508.884 247.92 508.884Z" fill="#C08B89"/>
<path d="M257.789 488.512C256.879 488.512 256.143 489.248 256.143 490.158C256.143 491.066 256.878 491.803 257.789 491.803C258.697 491.803 259.433 491.067 259.433 490.158C259.434 489.248 258.698 488.512 257.789 488.512ZM257.789 491.308C257.153 491.308 256.637 490.793 256.637 490.158C256.637 489.522 257.154 489.007 257.789 489.007C258.425 489.007 258.94 489.523 258.94 490.158C258.941 490.793 258.425 491.308 257.789 491.308Z" fill="#C08B89"/>
<path d="M217.643 488.512C216.736 488.512 216 489.248 216 490.158C216 491.066 216.736 491.803 217.643 491.803C218.553 491.803 219.289 491.067 219.289 490.158C219.288 489.248 218.553 488.512 217.643 488.512ZM217.643 491.308C217.009 491.308 216.493 490.793 216.493 490.158C216.493 489.522 217.01 489.007 217.643 489.007C218.279 489.007 218.795 489.523 218.795 490.158C218.795 490.793 218.279 491.308 217.643 491.308Z" fill="#C08B89"/>
<path d="M246.609 472.567H229.128V472.842H246.609V472.567Z" fill="#C08B89"/>
<path d="M248.959 473.745L248.721 473.881L257.309 488.99L257.548 488.855L248.959 473.745Z" fill="#C08B89"/>
<path d="M257.336 491.459L248.563 506.566L248.801 506.704L257.573 491.596L257.336 491.459Z" fill="#C08B89"/>
<path d="M246.549 507.655H229.066V507.93H246.549V507.655Z" fill="#C08B89"/>
<path d="M227.235 506.507L218.402 491.277L218.165 491.413L226.998 506.643L227.235 506.507Z" fill="#C08B89"/>
<path d="M226.972 473.918L218.201 488.965L218.437 489.102L227.208 474.056L226.972 473.918Z" fill="#C08B89"/>
</g>
<g opacity="0.2">
<path d="M230.01 12C228.689 12 227.617 13.071 227.617 14.391C227.617 15.712 228.688 16.784 230.01 16.784C231.329 16.784 232.402 15.712 232.402 14.391C232.402 13.071 231.33 12 230.01 12ZM230.01 16.066C229.084 16.066 228.335 15.317 228.335 14.391C228.335 13.467 229.084 12.717 230.01 12.717C230.934 12.717 231.683 13.467 231.683 14.391C231.683 15.316 230.934 16.066 230.01 16.066Z" fill="#C08B89"/>
<path d="M259.419 12C258.098 12 257.028 13.071 257.028 14.391C257.028 15.712 258.097 16.784 259.419 16.784C260.74 16.784 261.811 15.712 261.811 14.391C261.81 13.071 260.74 12 259.419 12ZM259.419 16.066C258.495 16.066 257.745 15.317 257.745 14.391C257.745 13.467 258.495 12.717 259.419 12.717C260.344 12.717 261.095 13.467 261.095 14.391C261.094 15.316 260.343 16.066 259.419 16.066Z" fill="#C08B89"/>
<path d="M230.01 63.0229C228.689 63.0229 227.617 64.0919 227.617 65.4149C227.617 66.7359 228.688 67.8059 230.01 67.8059C231.329 67.8059 232.402 66.7369 232.402 65.4149C232.402 64.0929 231.33 63.0229 230.01 63.0229ZM230.01 67.0889C229.084 67.0889 228.335 66.3389 228.335 65.4149C228.335 64.4899 229.084 63.7399 230.01 63.7399C230.934 63.7399 231.683 64.4899 231.683 65.4149C231.683 66.3389 230.934 67.0889 230.01 67.0889Z" fill="#C08B89"/>
<path d="M259.419 63.0229C258.098 63.0229 257.028 64.0919 257.028 65.4149C257.028 66.7359 258.097 67.8059 259.419 67.8059C260.74 67.8059 261.811 66.7369 261.811 65.4149C261.81 64.0929 260.74 63.0229 259.419 63.0229ZM259.419 67.0889C258.495 67.0889 257.745 66.3389 257.745 65.4149C257.745 64.4899 258.495 63.7399 259.419 63.7399C260.344 63.7399 261.095 64.4899 261.095 65.4149C261.094 66.3389 260.343 67.0889 259.419 67.0889Z" fill="#C08B89"/>
<path d="M273.769 37.4661C272.447 37.4661 271.377 38.5371 271.377 39.8581C271.377 41.1791 272.446 42.2501 273.769 42.2501C275.09 42.2501 276.161 41.1791 276.161 39.8581C276.161 38.5371 275.091 37.4661 273.769 37.4661ZM273.769 41.5321C272.845 41.5321 272.094 40.7831 272.094 39.8581C272.094 38.9331 272.845 38.1841 273.769 38.1841C274.694 38.1841 275.444 38.9331 275.444 39.8581C275.444 40.7841 274.694 41.5321 273.769 41.5321Z" fill="#C08B89"/>
<path d="M215.393 37.4661C214.073 37.4661 213 38.5371 213 39.8581C213 41.1791 214.072 42.2501 215.393 42.2501C216.714 42.2501 217.786 41.1791 217.786 39.8581C217.786 38.5371 216.715 37.4661 215.393 37.4661ZM215.393 41.5321C214.469 41.5321 213.719 40.7831 213.719 39.8581C213.719 38.9331 214.469 38.1841 215.393 38.1841C216.319 38.1841 217.068 38.9331 217.068 39.8581C217.068 40.7841 216.319 41.5321 215.393 41.5321Z" fill="#C08B89"/>
<path d="M257.515 14.281H232.091V14.679H257.515V14.281Z" fill="#C08B89"/>
<path d="M260.85 15.9837L260.503 16.1809L272.992 38.149L273.339 37.9518L260.85 15.9837Z" fill="#C08B89"/>
<path d="M273.111 41.752L260.354 63.7189L260.698 63.9189L273.454 41.9519L273.111 41.752Z" fill="#C08B89"/>
<path d="M257.426 65.303H232.004V65.701H257.426V65.303Z" fill="#C08B89"/>
<path d="M216.475 41.5068L216.129 41.707L228.973 63.8519L229.319 63.6517L216.475 41.5068Z" fill="#C08B89"/>
<path d="M229.017 16.251L216.26 38.1301L216.605 38.3311L229.362 16.452L229.017 16.251Z" fill="#C08B89"/>
</g>
<g opacity="0.2">
<path d="M182.683 45.248C177.912 45.248 173.689 47.538 171.248 51.065C168.805 47.538 164.584 45.248 159.814 45.248C152.287 45.248 146.164 51.01 146.164 58.093C146.164 58.667 146.205 59.247 146.289 59.82C146.471 61.801 147.017 64.858 148.555 68.448H160.907L162.481 62.347L162.877 62.39L163.238 72.662L164.898 67.125L165.087 67.787L165.671 69.835L166.714 64.978L167.111 64.998L167.974 72.764L171.351 55.502L171.751 55.539L171.935 78.035L173.972 67L174.366 66.987L175.358 70.958L176.795 63.7701H177.192L177.786 66.738L178.811 60.75L179.211 60.767L180.121 71.154L180.832 68.596L180.873 68.448H194.359C195.544 65.438 196.191 62.317 196.283 59.121C196.312 58.778 196.328 58.433 196.328 58.094C196.33 51.009 190.209 45.248 182.683 45.248ZM180.214 72.333L179.818 72.297L178.947 62.354L178 67.877L177.604 67.882L176.995 64.837L175.581 71.915L175.187 71.925L174.203 67.986L171.951 80.181L171.551 80.147L171.367 57.538L168.119 74.134L167.721 74.117L166.85 66.277L165.901 70.709L165.51 70.722L164.891 68.561L163.274 73.952L162.88 73.901L162.526 63.797L161.26 68.7L161.221 68.851H148.733C151.579 75.26 157.59 83.269 170.235 89.906L171.247 90.437L172.29 89.966C173.296 89.514 178.581 87.026 183.936 82.439C187.383 79.485 190.165 76.258 192.198 72.848C192.975 71.541 193.643 70.207 194.202 68.851H181.184L180.214 72.333Z" fill="#C08B89"/>
<path d="M147.253 68.85C147.193 68.714 147.134 68.58 147.077 68.447H141.37V68.85H147.253Z" fill="#C08B89"/>
<path d="M195.861 68.447C195.81 68.582 195.757 68.717 195.703 68.85H201.605V68.447H195.861Z" fill="#C08B89"/>
</g>
<path opacity="0.2" d="M256.924 34.0081H250.476V27.5591C250.476 26.3681 249.51 25.4031 248.32 25.4031H240.843C239.652 25.4031 238.687 26.3681 238.687 27.5591V34.0081H232.238C231.048 34.0081 230.082 34.9731 230.082 36.1641V43.6411C230.082 44.8321 231.048 45.7971 232.238 45.7971H238.687V52.2461C238.687 53.4371 239.652 54.4021 240.843 54.4021H248.32C249.51 54.4021 250.476 53.4371 250.476 52.2461V45.7971H256.924C258.115 45.7971 259.08 44.8321 259.08 43.6411V36.1641C259.081 34.9731 258.116 34.0081 256.924 34.0081Z" fill="#C08B89"/>
<path opacity="0.2" d="M206.492 433.289H196.042V422.838C196.042 420.906 194.477 419.343 192.547 419.343H180.429C178.498 419.343 176.934 420.907 176.934 422.838V433.289H166.483C164.552 433.289 162.988 434.854 162.988 436.784V448.901C162.988 450.832 164.552 452.396 166.483 452.396H176.934V462.847C176.934 464.779 178.499 466.342 180.429 466.342H192.547C194.477 466.342 196.042 464.779 196.042 462.847V452.396H206.492C208.424 452.396 209.987 450.831 209.987 448.901V436.784C209.987 434.854 208.424 433.289 206.492 433.289Z" fill="#C08B89"/>
<g opacity="0.2">
<path d="M79.8161 231.044V210.171C79.8161 206.26 76.6341 203.077 72.7211 203.077H51.7411C47.8281 203.077 44.6461 206.26 44.6461 210.171V231.044L45.7021 229.306C33.7511 235.518 26.3291 247.73 26.3291 261.175C26.3291 280.971 42.4341 297.077 62.2311 297.077C82.0281 297.077 98.1331 280.971 98.1331 261.175C98.1331 247.73 90.7111 235.518 78.7601 229.306L79.8161 231.044ZM94.2171 261.175C94.2171 278.812 79.8691 293.16 62.2311 293.16C44.5921 293.16 30.2451 278.811 30.2451 261.175C30.2451 249.196 36.8591 238.316 47.5071 232.78L48.5631 232.232V231.044V210.171C48.5631 208.42 49.9891 206.994 51.7421 206.994H72.7221C74.4751 206.994 75.9011 208.42 75.9011 210.171V231.044V232.233L76.9571 232.781C87.6031 238.315 94.2171 249.195 94.2171 261.175Z" fill="#C08B89"/>
<path d="M91.6061 261.175C91.6061 277.397 78.4541 290.55 62.2311 290.55C46.0081 290.55 32.8561 277.397 32.8561 261.175H91.6061Z" fill="#C08B89"/>
</g>
<g opacity="0.2">
<path d="M305.231 43.4351C305.23 40.3961 302.757 37.9231 299.718 37.9231C296.678 37.9231 294.205 40.3961 294.205 43.4351V56.9411C294.205 59.9821 296.678 62.4551 299.718 62.4551C302.757 62.4551 305.231 59.9821 305.23 56.9411L305.231 43.4351ZM304.404 56.9411C304.404 59.5251 302.302 61.6271 299.718 61.6271C297.134 61.6271 295.032 59.5251 295.033 56.9411V43.4371C295.033 40.8531 297.135 38.7491 299.718 38.7491C302.301 38.7491 304.404 40.8531 304.404 43.4351V56.9411Z" fill="#C08B89"/>
<path d="M303.511 50.1891V43.0681C303.512 41.1031 301.81 39.5051 299.718 39.5051C297.626 39.5051 295.924 41.1031 295.924 43.0681V50.1891H303.511Z" fill="#C08B89"/>
</g>
</svg>
