<svg width="611" height="512" viewBox="0 0 611 512" fill="none" xmlns="http://www.w3.org/2000/svg">
<path d="M309.174 123.509H303.784C303.63 122.625 303.347 121.842 302.934 121.16C302.521 120.468 302.007 119.882 301.392 119.402C300.777 118.921 300.076 118.561 299.288 118.321C298.51 118.071 297.669 117.946 296.766 117.946C295.161 117.946 293.74 118.35 292.5 119.157C291.261 119.954 290.29 121.126 289.589 122.673C288.888 124.21 288.537 126.088 288.537 128.308C288.537 130.566 288.888 132.468 289.589 134.015C290.3 135.552 291.27 136.714 292.5 137.502C293.74 138.28 295.157 138.67 296.752 138.67C297.635 138.67 298.462 138.554 299.23 138.324C300.008 138.083 300.705 137.733 301.32 137.272C301.944 136.81 302.468 136.244 302.891 135.571C303.323 134.899 303.621 134.13 303.784 133.265L309.174 133.294C308.972 134.697 308.535 136.013 307.863 137.243C307.2 138.473 306.33 139.558 305.254 140.5C304.178 141.432 302.92 142.162 301.478 142.69C300.037 143.209 298.438 143.468 296.679 143.468C294.085 143.468 291.77 142.868 289.733 141.667C287.696 140.466 286.092 138.732 284.92 136.465C283.748 134.197 283.162 131.478 283.162 128.308C283.162 125.128 283.753 122.409 284.934 120.151C286.116 117.884 287.725 116.15 289.762 114.949C291.799 113.748 294.105 113.147 296.679 113.147C298.322 113.147 299.85 113.378 301.262 113.839C302.675 114.3 303.933 114.977 305.038 115.871C306.143 116.755 307.051 117.84 307.762 119.128C308.482 120.406 308.953 121.866 309.174 123.509ZM323.495 143.497C321.334 143.497 319.46 143.022 317.875 142.071C316.29 141.119 315.06 139.789 314.186 138.079C313.321 136.369 312.889 134.37 312.889 132.084C312.889 129.797 313.321 127.794 314.186 126.074C315.06 124.354 316.29 123.019 317.875 122.068C319.46 121.117 321.334 120.641 323.495 120.641C325.657 120.641 327.53 121.117 329.116 122.068C330.701 123.019 331.926 124.354 332.79 126.074C333.665 127.794 334.102 129.797 334.102 132.084C334.102 134.37 333.665 136.369 332.79 138.079C331.926 139.789 330.701 141.119 329.116 142.071C327.53 143.022 325.657 143.497 323.495 143.497ZM323.524 139.318C324.696 139.318 325.676 138.996 326.464 138.352C327.252 137.699 327.838 136.825 328.222 135.73C328.616 134.634 328.813 133.414 328.813 132.069C328.813 130.714 328.616 129.49 328.222 128.394C327.838 127.289 327.252 126.41 326.464 125.757C325.676 125.104 324.696 124.777 323.524 124.777C322.323 124.777 321.324 125.104 320.526 125.757C319.739 126.41 319.148 127.289 318.754 128.394C318.37 129.49 318.177 130.714 318.177 132.069C318.177 133.414 318.37 134.634 318.754 135.73C319.148 136.825 319.739 137.699 320.526 138.352C321.324 138.996 322.323 139.318 323.524 139.318ZM343.747 130.095V143.065H338.53V120.929H343.516V124.691H343.775C344.285 123.451 345.096 122.466 346.211 121.736C347.335 121.006 348.723 120.641 350.376 120.641C351.903 120.641 353.234 120.968 354.368 121.621C355.511 122.274 356.395 123.221 357.019 124.46C357.653 125.699 357.966 127.203 357.956 128.971V143.065H352.739V129.778C352.739 128.298 352.355 127.141 351.586 126.305C350.827 125.469 349.775 125.051 348.43 125.051C347.518 125.051 346.706 125.253 345.995 125.656C345.293 126.05 344.741 126.622 344.337 127.371C343.944 128.12 343.747 129.028 343.747 130.095ZM368.476 130.095V143.065H363.259V120.929H368.246V124.691H368.505C369.014 123.451 369.826 122.466 370.941 121.736C372.065 121.006 373.453 120.641 375.106 120.641C376.633 120.641 377.964 120.968 379.097 121.621C380.241 122.274 381.125 123.221 381.749 124.46C382.383 125.699 382.695 127.203 382.686 128.971V143.065H377.469V129.778C377.469 128.298 377.085 127.141 376.316 126.305C375.557 125.469 374.505 125.051 373.16 125.051C372.247 125.051 371.435 125.253 370.724 125.656C370.023 126.05 369.471 126.622 369.067 127.371C368.673 128.12 368.476 129.028 368.476 130.095ZM397.789 143.497C395.569 143.497 393.653 143.036 392.039 142.114C390.434 141.182 389.2 139.866 388.335 138.165C387.47 136.455 387.038 134.442 387.038 132.127C387.038 129.85 387.47 127.851 388.335 126.132C389.209 124.402 390.429 123.057 391.996 122.097C393.562 121.126 395.401 120.641 397.515 120.641C398.879 120.641 400.167 120.862 401.377 121.304C402.597 121.736 403.673 122.409 404.605 123.322C405.547 124.234 406.287 125.397 406.825 126.809C407.363 128.212 407.632 129.883 407.632 131.824V133.424H389.488V129.907H402.631C402.621 128.908 402.405 128.02 401.983 127.241C401.56 126.454 400.969 125.834 400.21 125.382C399.461 124.931 398.586 124.705 397.587 124.705C396.521 124.705 395.584 124.964 394.777 125.483C393.97 125.992 393.341 126.665 392.889 127.501C392.447 128.327 392.221 129.235 392.212 130.225V133.294C392.212 134.582 392.447 135.686 392.918 136.609C393.389 137.521 394.047 138.223 394.892 138.713C395.738 139.193 396.727 139.433 397.861 139.433C398.62 139.433 399.307 139.328 399.922 139.116C400.537 138.895 401.07 138.573 401.521 138.151C401.973 137.728 402.314 137.204 402.545 136.58L407.416 137.128C407.108 138.415 406.522 139.539 405.657 140.5C404.802 141.451 403.707 142.191 402.372 142.719C401.036 143.238 399.509 143.497 397.789 143.497ZM421.701 143.497C419.491 143.497 417.593 143.012 416.008 142.042C414.433 141.071 413.217 139.731 412.362 138.021C411.517 136.301 411.094 134.322 411.094 132.084C411.094 129.835 411.526 127.851 412.391 126.132C413.256 124.402 414.476 123.057 416.051 122.097C417.637 121.126 419.51 120.641 421.672 120.641C423.468 120.641 425.059 120.972 426.442 121.635C427.835 122.289 428.945 123.216 429.771 124.417C430.597 125.608 431.068 127.001 431.183 128.596H426.197C425.995 127.53 425.515 126.641 424.756 125.93C424.007 125.209 423.003 124.849 421.744 124.849C420.678 124.849 419.741 125.137 418.934 125.714C418.127 126.281 417.497 127.097 417.046 128.164C416.604 129.23 416.383 130.508 416.383 131.997C416.383 133.505 416.604 134.802 417.046 135.888C417.488 136.964 418.107 137.795 418.905 138.381C419.712 138.958 420.658 139.246 421.744 139.246C422.513 139.246 423.199 139.102 423.805 138.814C424.42 138.516 424.934 138.088 425.347 137.531C425.76 136.974 426.043 136.296 426.197 135.499H431.183C431.058 137.065 430.597 138.453 429.8 139.664C429.002 140.865 427.917 141.806 426.543 142.488C425.169 143.161 423.555 143.497 421.701 143.497ZM446.52 120.929V124.964H433.795V120.929H446.52ZM436.937 115.626H442.154V136.407C442.154 137.108 442.26 137.646 442.471 138.021C442.692 138.386 442.98 138.636 443.336 138.77C443.691 138.905 444.085 138.972 444.517 138.972C444.844 138.972 445.142 138.948 445.411 138.9C445.689 138.852 445.901 138.809 446.045 138.77L446.924 142.849C446.645 142.945 446.247 143.051 445.728 143.166C445.219 143.281 444.594 143.348 443.854 143.368C442.548 143.406 441.371 143.209 440.324 142.777C439.276 142.335 438.445 141.653 437.831 140.73C437.225 139.808 436.927 138.655 436.937 137.272V115.626ZM465.518 143.065L459.264 120.929H464.581L468.472 136.493H468.674L472.652 120.929H477.912L481.889 136.407H482.105L485.939 120.929H491.271L485.002 143.065H479.569L475.419 128.106H475.116L470.966 143.065H465.518ZM494.913 143.065V120.929H500.13V143.065H494.913ZM497.536 117.788C496.71 117.788 495.999 117.514 495.403 116.966C494.808 116.409 494.51 115.741 494.51 114.963C494.51 114.175 494.808 113.507 495.403 112.96C495.999 112.403 496.71 112.124 497.536 112.124C498.372 112.124 499.083 112.403 499.669 112.96C500.265 113.507 500.563 114.175 500.563 114.963C500.563 115.741 500.265 116.409 499.669 116.966C499.083 117.514 498.372 117.788 497.536 117.788ZM516.548 120.929V124.964H503.823V120.929H516.548ZM506.965 115.626H512.182V136.407C512.182 137.108 512.287 137.646 512.499 138.021C512.72 138.386 513.008 138.636 513.364 138.77C513.719 138.905 514.113 138.972 514.545 138.972C514.872 138.972 515.17 138.948 515.439 138.9C515.717 138.852 515.929 138.809 516.073 138.77L516.952 142.849C516.673 142.945 516.275 143.051 515.756 143.166C515.247 143.281 514.622 143.348 513.882 143.368C512.576 143.406 511.399 143.209 510.352 142.777C509.304 142.335 508.473 141.653 507.858 140.73C507.253 139.808 506.955 138.655 506.965 137.272V115.626ZM526.604 130.095V143.065H521.387V113.551H526.489V124.691H526.748C527.267 123.442 528.069 122.457 529.155 121.736C530.25 121.006 531.643 120.641 533.334 120.641C534.871 120.641 536.211 120.963 537.355 121.607C538.498 122.25 539.382 123.192 540.006 124.431C540.64 125.671 540.957 127.184 540.957 128.971V143.065H535.741V129.778C535.741 128.289 535.356 127.131 534.588 126.305C533.829 125.469 532.762 125.051 531.388 125.051C530.466 125.051 529.64 125.253 528.91 125.656C528.189 126.05 527.622 126.622 527.209 127.371C526.806 128.12 526.604 129.028 526.604 130.095ZM570.45 133.755V120.929H575.667V143.065H570.609V139.131H570.378C569.878 140.37 569.057 141.384 567.914 142.171C566.78 142.959 565.382 143.353 563.72 143.353C562.269 143.353 560.987 143.031 559.872 142.388C558.767 141.734 557.903 140.788 557.278 139.549C556.654 138.3 556.341 136.791 556.341 135.023V120.929H561.558V134.216C561.558 135.619 561.943 136.734 562.711 137.56C563.48 138.386 564.489 138.799 565.738 138.799C566.506 138.799 567.251 138.612 567.971 138.237C568.692 137.862 569.283 137.305 569.744 136.565C570.215 135.816 570.45 134.879 570.45 133.755ZM598.527 126.78L593.771 127.299C593.637 126.819 593.401 126.367 593.065 125.944C592.738 125.522 592.296 125.181 591.739 124.921C591.182 124.662 590.5 124.532 589.693 124.532C588.607 124.532 587.694 124.767 586.955 125.238C586.224 125.709 585.864 126.319 585.874 127.068C585.864 127.712 586.1 128.236 586.58 128.639C587.07 129.043 587.877 129.374 589.001 129.634L592.777 130.441C594.871 130.892 596.428 131.608 597.446 132.588C598.474 133.568 598.993 134.851 599.002 136.436C598.993 137.829 598.584 139.059 597.777 140.125C596.98 141.182 595.87 142.008 594.448 142.604C593.027 143.199 591.393 143.497 589.549 143.497C586.839 143.497 584.658 142.93 583.006 141.797C581.353 140.653 580.369 139.063 580.052 137.027L585.139 136.537C585.369 137.536 585.859 138.29 586.609 138.799C587.358 139.308 588.333 139.563 589.534 139.563C590.774 139.563 591.768 139.308 592.517 138.799C593.276 138.29 593.656 137.661 593.656 136.911C593.656 136.277 593.411 135.754 592.921 135.341C592.44 134.927 591.691 134.61 590.673 134.389L586.897 133.597C584.774 133.155 583.203 132.41 582.184 131.363C581.166 130.306 580.662 128.971 580.671 127.357C580.662 125.992 581.032 124.811 581.781 123.812C582.54 122.803 583.592 122.025 584.937 121.477C586.292 120.92 587.853 120.641 589.621 120.641C592.215 120.641 594.256 121.193 595.745 122.298C597.244 123.403 598.171 124.897 598.527 126.78Z" fill="black" fill-opacity="0.8"/>
<path d="M346.57 83.8061C364.704 79.2906 375.883 60.3516 371.538 41.5046C367.193 22.6577 348.97 11.0397 330.836 15.5553C312.701 20.0708 301.522 39.0098 305.867 57.8568C310.212 76.7037 328.435 88.3216 346.57 83.8061Z" fill="#C08B89"/>
<path d="M345.242 56.1929C341.804 59.9583 336.073 60.0737 332.45 56.5009C330.639 54.7335 329.641 52.2359 329.641 49.661C329.641 44.4743 333.708 40.2474 338.699 40.2474C343.689 40.2474 347.756 44.4743 347.756 49.661V52.4655C347.756 54.0413 348.976 55.27 350.455 55.27C351.97 55.27 353.153 54.0022 353.153 52.4655V49.661C353.153 41.3618 346.646 34.5993 338.661 34.5993C330.675 34.5993 324.168 41.3618 324.168 49.661C324.168 57.9602 330.675 64.7228 338.661 64.7228C340.547 64.7228 342.432 64.3386 344.206 63.5703C345.093 63.1089 346.202 63.4549 346.646 64.4159C347.09 65.3768 346.757 66.4912 345.833 66.9516C345.758 66.9897 345.685 67.0288 345.574 67.0669C336.331 71.0631 325.721 66.4902 321.913 56.885C318.104 47.2799 322.468 36.2524 331.71 32.2943C340.953 28.3362 351.563 32.8711 355.371 42.4762C356.369 44.7431 356.85 47.2026 356.85 49.661V52.4655C356.85 56.1156 354.04 59.0746 350.528 59.0746C348.422 59.1138 346.425 57.9994 345.242 56.1929ZM338.735 55.3092C341.73 55.3092 344.17 52.7735 344.17 49.661C344.17 46.5485 341.73 44.0129 338.735 44.0129C335.74 44.0129 333.301 46.5485 333.301 49.661C333.301 52.7735 335.741 55.3092 338.735 55.3092Z" fill="white"/>
<path d="M452.738 74.5024C465.923 60.7989 465.923 38.581 452.738 24.8775C439.552 11.174 418.174 11.174 404.989 24.8775C391.803 38.581 391.803 60.7988 404.989 74.5024C418.174 88.2059 439.552 88.2059 452.738 74.5024Z" fill="#C08B89"/>
<path d="M444.312 61.6474C441.944 60.928 435.101 57.4379 434.319 58.1616C433.538 58.8842 430.22 61.9564 430.22 61.9564C428.026 61.4417 424.22 58.2269 422.222 55.8947C420.224 53.5647 417.589 49.266 417.348 46.9404C417.348 46.9404 420.669 43.8671 421.449 43.1434C422.23 42.4208 419.681 34.9552 419.267 32.4271C418.852 29.9001 414.943 30.2429 413.251 30.7185C411.557 31.1941 404.309 44.0913 417.875 59.9192C431.444 75.746 444.604 69.7463 445.256 68.053C445.901 66.3618 446.68 62.3656 444.312 61.6474Z" fill="white"/>
<path d="M524.165 83.7994C542.299 79.2839 553.478 60.3449 549.133 41.4979C544.788 22.6509 526.565 11.033 508.431 15.5485C490.296 20.0641 479.117 39.0031 483.462 57.85C487.807 76.697 506.03 88.3149 524.165 83.7994Z" fill="#C08B89"/>
<path d="M516.381 25.8862C507.549 25.8862 500.408 33.3072 500.408 42.4868C500.408 51.4705 507.549 63.5787 513.75 72.1718C515.065 73.9293 517.508 73.9293 518.823 72.1718C525.024 63.5787 532.165 51.4705 532.165 42.4868C532.166 33.3083 525.025 25.8862 516.381 25.8862ZM516.287 52.5871C511.075 52.5871 506.85 48.1959 506.85 42.7796C506.85 37.3632 511.075 32.972 516.287 32.972C521.499 32.972 525.724 37.3632 525.724 42.7796C525.724 48.1959 521.499 52.5871 516.287 52.5871Z" fill="white"/>
<mask id="mask0_10_11911" style="mask-type:luminance" maskUnits="userSpaceOnUse" x="0" y="61" width="277" height="451">
<path d="M276.098 61.0649H0V511.916H276.098V61.0649Z" fill="white"/>
</mask>
<g mask="url(#mask0_10_11911)">
<path d="M86.384 330.361L151.437 329.013L151.159 336.312L158.53 642.102H109.056L119.224 471.114L116.153 379.718L98.554 642.331H39.73L75.662 475.032L87.084 338.398L86.384 330.361Z" fill="#204E5F"/>
<path d="M126.08 642.102L134.062 471.403C134.062 471.403 127.127 411.496 126.516 398.233C125.906 384.969 143.058 376.099 143.058 376.099L116.153 379.718L119.224 471.114L109.056 642.102H126.08Z" fill="#18414C"/>
<path d="M136.068 191.398C136.068 191.398 132.496 196.555 124.185 197.797C115.874 199.039 106.747 192.768 106.747 192.768L105.767 132.989C105.767 132.989 126.115 134.306 126.037 135.415C125.958 136.524 136.068 191.398 136.068 191.398Z" fill="#FFC6A8"/>
<path d="M108.887 139.708C108.717 137.417 108.682 135.271 108.707 133.194C109.039 133.218 109.396 133.245 109.767 133.273C109.832 133.278 109.9 133.283 109.965 133.288C110.273 133.312 110.593 133.336 110.922 133.362C110.995 133.368 111.067 133.373 111.141 133.38C111.532 133.41 111.935 133.443 112.348 133.477C112.403 133.481 112.459 133.485 112.514 133.49C112.869 133.519 113.231 133.55 113.597 133.58C113.695 133.589 113.792 133.596 113.891 133.605C114.306 133.641 114.725 133.677 115.146 133.715C115.226 133.723 115.307 133.729 115.388 133.737C115.744 133.768 116.1 133.802 116.455 133.835C116.562 133.845 116.669 133.854 116.776 133.865C117.179 133.903 117.579 133.942 117.976 133.983C118.088 133.994 118.199 134.006 118.311 134.016C118.647 134.051 118.98 134.086 119.307 134.121C119.396 134.131 119.487 134.141 119.575 134.15C119.956 134.193 120.328 134.235 120.691 134.278C120.798 134.291 120.902 134.303 121.007 134.316C121.321 134.354 121.627 134.392 121.922 134.431C121.982 134.439 122.045 134.447 122.104 134.455C122.443 134.501 122.762 134.546 123.068 134.592C123.146 134.604 123.222 134.616 123.298 134.628C123.564 134.669 123.817 134.711 124.051 134.753C124.089 134.76 124.131 134.766 124.168 134.773C124.424 134.82 124.651 134.866 124.86 134.913C124.913 134.925 124.962 134.937 125.011 134.949C125.199 134.994 125.368 135.039 125.508 135.084C125.519 135.087 125.535 135.092 125.545 135.095C125.688 135.143 125.791 135.19 125.873 135.236C125.893 135.248 125.91 135.259 125.927 135.271C125.994 135.319 126.04 135.366 126.037 135.414C125.984 136.171 130.687 162.034 133.671 178.339C116.257 179.294 110.282 158.534 108.887 139.708Z" fill="#EAA98C"/>
<path d="M140.433 169.524C130.847 172.08 111.715 169.019 109.684 138.278C107.653 107.538 122.256 95.2096 132.799 97.6441C143.341 100.079 150.395 125.947 151.437 138.975C152.478 152.001 152.576 166.285 140.433 169.524Z" fill="#FFC6A8"/>
<path d="M127.777 126.642C127.888 125.543 128.797 124.751 129.806 124.872C130.816 124.993 131.544 125.982 131.433 127.08C131.322 128.179 130.414 128.971 129.404 128.851C128.394 128.73 127.666 127.742 127.777 126.642Z" fill="#18414C"/>
<path d="M140.06 125.199C140.171 124.1 141.08 123.308 142.089 123.429C143.099 123.549 143.827 124.539 143.716 125.637C143.605 126.736 142.696 127.528 141.687 127.407C140.678 127.287 139.949 126.297 140.06 125.199Z" fill="#18414C"/>
<path d="M135.669 148.414C133.998 148.414 132.195 147.933 130.429 146.573C130.223 146.413 130.174 146.103 130.32 145.879C130.468 145.654 130.754 145.603 130.958 145.76C135.204 149.032 139.74 146.669 141.586 145.422C139.473 144.442 137.023 140.953 136.703 140.487C136.594 140.329 136.581 140.115 136.672 139.942C136.761 139.77 136.933 139.669 137.118 139.693C139.454 139.955 142.467 137.617 143.673 136.562C141.911 135.66 137.496 133.21 136.645 130.908C136.55 130.654 136.665 130.363 136.899 130.261C137.131 130.158 137.401 130.283 137.494 130.537C138.23 132.527 142.95 135.141 144.707 135.98C144.849 136.048 144.95 136.19 144.974 136.356C144.999 136.523 144.945 136.693 144.83 136.806C144.669 136.964 141.208 140.337 138.008 140.681C139.416 142.547 141.533 144.816 142.678 144.674C142.877 144.646 143.072 144.773 143.151 144.978C143.23 145.181 143.175 145.417 143.017 145.557C142.971 145.597 139.708 148.414 135.669 148.414Z" fill="#18414C"/>
<path d="M132.903 150.753C131.32 150.753 129.978 149.872 129.495 149.16C129.345 148.938 129.388 148.627 129.591 148.463C129.796 148.302 130.08 148.347 130.231 148.569C130.609 149.126 132.033 149.982 133.527 149.7C133.769 149.642 134.012 149.834 134.055 150.105C134.099 150.376 133.932 150.633 133.683 150.68C133.419 150.73 133.158 150.753 132.903 150.753Z" fill="#18414C"/>
<path d="M143.728 90.4114C124.685 95.3935 119.724 89.6529 108.7 96.176C97.676 102.7 81.167 124.784 105.978 145.874L112.783 134.811C112.783 134.811 122.643 122.793 120.917 117.479C119.192 112.165 118.142 108.346 118.142 108.346C118.142 108.346 133.099 117.474 135.148 113.741C135.606 112.907 135.528 112.047 135.158 111.214C138.577 113.646 142.66 115.588 145.447 113.741C146.691 112.916 146.975 111.982 146.666 111.028C148.892 111.709 151.088 111.49 152.733 109.343C156.423 104.526 162.771 85.4293 143.728 90.4114Z" fill="#18414C"/>
<path d="M114.735 134.055C112.679 130.055 103.385 119.278 102.208 125.846C101.031 132.413 104.365 140.08 109.33 141.793C114.293 143.506 117.025 138.511 114.735 134.055Z" fill="#FFC6A8"/>
<path d="M133.735 160.708L126.718 162.702C126.072 162.886 125.412 162.465 125.243 161.762L124.611 159.126C124.442 158.423 124.829 157.704 125.475 157.521L132.492 155.526C133.138 155.342 133.799 155.764 133.967 156.467L134.599 159.102C134.768 159.805 134.381 160.524 133.735 160.708Z" fill="#204E5F"/>
<path d="M117.842 163.462C113.57 163.462 110.213 161.639 107.945 158.028C103.7 151.272 105.042 139.004 105.406 136.28C102.916 133.632 89.119 118.105 96.705 106.911C97.005 106.469 97.579 106.373 97.985 106.701C98.392 107.027 98.479 107.652 98.178 108.094C91.001 118.685 106.847 135.029 107.008 135.192L107.367 135.557L107.286 136.085C107.265 136.225 105.181 150.099 109.456 156.904C113.309 163.035 120.294 161.847 125.475 159.769C125.949 159.58 126.476 159.842 126.651 160.36C126.825 160.877 126.583 161.45 126.108 161.64C123.07 162.856 120.304 163.462 117.842 163.462Z" fill="#C08B89"/>
<path d="M109.392 138.55H102.14C101.472 138.55 100.931 137.961 100.931 137.235V134.511C100.931 133.784 101.472 133.195 102.14 133.195H109.392C110.06 133.195 110.601 133.784 110.601 134.511V137.235C110.601 137.96 110.06 138.55 109.392 138.55Z" fill="#204E5F"/>
<path d="M81.729 348.436C81.729 348.436 101.97 351.319 104.581 350.327C107.191 349.334 107.938 350.835 106.641 351.619C105.344 352.402 102.521 355.787 99.011 355.714C95.501 355.641 92.523 355.798 92.523 355.798C92.523 355.798 95.971 363.404 94.496 369.133C93.022 374.862 89.155 402.585 87.163 403.384C85.171 404.181 84.398 402.362 84.7 400.218C84.7 400.218 80.185 401.841 81.234 397.654C81.234 397.654 78.144 398.276 79.174 394.79C80.204 391.303 81.93 376.478 82.521 373.622C83.112 370.764 78.179 359.565 78.179 359.565L81.729 348.436Z" fill="#FFC6A8"/>
<path d="M234.39 149.308L250.648 126.093C251.125 125.412 251.939 125.121 252.694 125.361L253.729 125.691L241.164 146.22C241.164 146.22 250.828 143.095 248.959 148.076C248.959 148.076 254.186 146.241 251.439 151.517C251.439 151.517 256.932 150.291 253.728 154.302C250.524 158.313 247.875 176.568 237.297 176.895C226.719 177.22 227.892 174.604 227.892 174.604L234.39 149.308Z" fill="#FFC6A8"/>
<path d="M248.076 163.854C246.289 162.524 247.243 162.376 247.243 162.376C247.243 162.376 244.725 162.976 244.115 162.376C243.505 161.776 243.123 160.611 243.123 160.611C243.123 160.611 241.673 160.939 240.91 160.611C240.147 160.282 238.24 155.155 239.842 153.484C241.444 151.812 246.174 152.395 246.441 149.115C246.562 147.635 246.906 146.316 247.248 145.295C244.87 145.023 241.163 146.22 241.163 146.22L242.042 144.784L236.593 146.16L234.389 149.307L227.892 174.603C227.892 174.603 227.651 175.172 228.451 175.745C228.451 175.745 239.078 170.743 240.223 165.698C240.223 165.698 242.626 166.185 243.656 166.097C243.656 166.097 244.686 167.13 245.601 166.881C245.601 166.881 246.274 168.097 247.988 167.557C248.494 166.514 248.962 165.454 249.396 164.393C248.95 164.324 248.497 164.167 248.076 163.854Z" fill="#EAA98C"/>
<path d="M227.893 174.604L225.894 152.811C225.555 149.122 227.939 145.795 231.309 145.252L246.442 142.815C246.442 142.815 247.091 151.437 240.453 151.251C233.816 151.066 247.377 163.519 227.893 174.604Z" fill="#FFC6A8"/>
<path d="M223.608 172.759C223.608 172.759 216.483 209.567 199.453 212.225C188.61 213.917 174.278 203.965 165.295 196.51C159.314 191.546 151.978 188.928 144.458 189.104L93.461 190.3C81.569 190.579 70.726 197.773 65.051 209.149L12.095 309.684L73.857 376.006L89.725 342.613L45.36 299.566L78.35 238.077L87.084 338.398L151.159 336.311L154.846 239.657C163.795 242.317 173.796 245.286 180.838 247.374C196.707 252.077 235.061 246.764 241.974 210.562C248.887 174.359 248.887 174.359 248.887 174.359L223.608 172.759Z" fill="#FFE3D6"/>
<path d="M78.379 238.421L82.843 289.69C88.15 262.635 89.483 216.333 89.483 216.333L78.379 238.421Z" fill="#FFE3D6"/>
<path d="M223.099 180.528L222.876 182.507L245.976 185.587L246.199 183.608L223.099 180.528Z" fill="white"/>
<path d="M222.012 184.639L221.79 186.618L244.889 189.698L245.112 187.719L222.012 184.639Z" fill="white"/>
<path d="M81.909 337.197L66.367 362.419L64.69 361.166L80.231 335.944L81.909 337.197Z" fill="white"/>
<path d="M85.047 340.522L69.506 365.744L67.829 364.491L83.37 339.269L85.047 340.522Z" fill="white"/>
<path d="M118.145 204.176C118.145 204.176 113.953 304.757 111.582 314.518L125.077 329.886L134.062 314.518C134.062 314.518 129.185 215.057 125.077 204.176H118.145Z" fill="#204E5F"/>
<path d="M125.077 204.176H118.145C118.145 204.176 118.004 207.567 117.759 213.149C118.087 213.24 118.426 213.284 118.77 213.254L124.795 212.707C125.467 212.646 126.089 212.334 126.615 211.853C126.098 208.191 125.582 205.512 125.077 204.176Z" fill="#18414C"/>
<path d="M130.301 198.64L126.939 206.185C126.645 206.845 126.049 207.285 125.376 207.337L117.691 207.941C117.018 207.994 116.371 207.653 115.992 207.044L111.669 200.103C111.29 199.496 111.239 198.715 111.533 198.054L114.895 190.509C115.189 189.848 115.785 189.409 116.458 189.356L124.143 188.753C124.816 188.699 125.463 189.041 125.842 189.649L130.165 196.59C130.543 197.198 130.595 197.979 130.301 198.64Z" fill="#204E5F"/>
<path d="M129.303 200.879L129.906 199.526C130.445 198.317 130.35 196.886 129.657 195.774L126.35 190.465C125.657 189.353 124.471 188.727 123.239 188.824L117.361 189.287C116.129 189.384 115.038 190.188 114.5 191.398L111.929 197.169C111.39 198.378 111.485 199.809 112.178 200.921L112.738 201.819L121.427 196.649L129.303 200.879Z" fill="#18414C"/>
<path d="M120.897 190.715L139.701 204.256L136.773 180.629L120.911 180.99L104.673 181.36L102.497 205.105L120.897 190.715Z" fill="#C08B89"/>
</g>
</svg>
