<svg width="250" height="250" viewBox="0 0 250 250" fill="none" xmlns="http://www.w3.org/2000/svg">
<path d="M51.5535 135.059C9.73899 159.201 9.73998 198.342 51.556 222.484C93.372 246.626 161.168 246.626 202.982 222.484C244.797 198.342 244.796 159.2 202.98 135.059C161.164 110.917 93.368 110.917 51.5535 135.059Z" fill="white"/>
<path d="M197.906 196.434L203.653 199.752C203.577 197.701 203.398 194.65 203.681 192.597C205.417 180.035 210.31 175.894 212.637 169.78C215.087 163.341 212.099 161.269 208.217 162.427C204.756 163.459 199.746 168.582 198.168 177.956C197.12 184.193 197.305 190.966 197.906 196.434Z" fill="#01BCA7"/>
<path opacity="0.65" d="M197.906 196.434L203.653 199.752C203.577 197.701 203.398 194.65 203.681 192.597C205.417 180.035 210.31 175.894 212.637 169.78C215.087 163.341 212.099 161.269 208.217 162.427C204.756 163.459 199.746 168.582 198.168 177.956C197.12 184.193 197.305 190.966 197.906 196.434Z" fill="white"/>
<path d="M200.953 198.193L201.528 198.525C199.473 183.88 204.48 171.179 209.422 165.933C209.517 165.834 209.512 165.673 209.412 165.578C209.308 165.483 209.15 165.488 209.055 165.588C204.115 170.835 199.111 183.622 200.953 198.193Z" fill="white"/>
<path d="M202.038 198.819L205.273 200.687H205.275C206.995 195.625 208.76 193.597 210.953 190.267C212.95 187.237 215.273 185.36 216.507 183.23C217.6 181.344 218.421 178.975 216.797 177.541C214.212 175.258 210.839 177.673 208.519 180.284C206.514 182.541 202.482 188.546 202.038 198.819Z" fill="#01BCA7"/>
<path opacity="0.3" d="M202.038 198.819L205.273 200.687H205.275C206.995 195.625 208.76 193.597 210.953 190.267C212.95 187.237 215.273 185.36 216.507 183.23C217.6 181.344 218.421 178.975 216.797 177.541C214.212 175.258 210.839 177.673 208.519 180.284C206.514 182.541 202.482 188.546 202.038 198.819Z" fill="white"/>
<path d="M203.366 199.585L203.837 199.859C205.194 191.852 210.633 182.588 214.013 180.4C214.132 180.323 214.166 180.163 214.087 180.042C214.011 179.922 213.853 179.887 213.732 179.966C210.233 182.235 204.806 191.455 203.366 199.585Z" fill="white"/>
<path d="M47.51 196.434L41.763 199.752C41.8395 197.701 42.018 194.65 41.735 192.597C39.9995 180.035 35.106 175.894 32.779 169.78C30.329 163.341 33.3175 161.269 37.199 162.427C40.661 163.459 45.67 168.582 47.248 177.956C48.2965 184.193 48.111 190.966 47.51 196.434Z" fill="#01BCA7"/>
<path opacity="0.65" d="M47.51 196.434L41.763 199.752C41.8395 197.701 42.018 194.65 41.735 192.597C39.9995 180.035 35.106 175.894 32.779 169.78C30.329 163.341 33.3175 161.269 37.199 162.427C40.661 163.459 45.67 168.582 47.248 177.956C48.2965 184.193 48.111 190.966 47.51 196.434Z" fill="white"/>
<path d="M44.4635 198.193L43.888 198.525C45.9435 183.88 40.9365 171.179 35.9945 165.933C35.8995 165.834 35.904 165.673 36.004 165.578C36.1085 165.483 36.266 165.488 36.3615 165.588C41.301 170.835 46.3055 183.622 44.4635 198.193Z" fill="white"/>
<path d="M43.3775 198.819L40.143 200.687H40.1405C38.421 195.625 36.6555 193.597 34.463 190.267C32.4655 187.237 30.143 185.36 28.9085 183.23C27.8155 181.344 26.9945 178.975 28.6185 177.541C31.2035 175.258 34.577 177.673 36.897 180.284C38.902 182.541 42.9345 188.546 43.3775 198.819Z" fill="#01BCA7"/>
<path opacity="0.3" d="M43.3775 198.819L40.143 200.687H40.1405C38.421 195.625 36.6555 193.597 34.463 190.267C32.4655 187.237 30.143 185.36 28.9085 183.23C27.8155 181.344 26.9945 178.975 28.6185 177.541C31.2035 175.258 34.577 177.673 36.897 180.284C38.902 182.541 42.9345 188.546 43.3775 198.819Z" fill="white"/>
<path d="M42.0505 199.585L41.5795 199.859C40.222 191.852 34.7835 182.588 31.403 180.4C31.2845 180.323 31.25 180.163 31.329 180.042C31.4055 179.922 31.5635 179.887 31.684 179.966C35.1825 182.235 40.6095 191.455 42.0505 199.585Z" fill="white"/>
<path d="M180.333 219.96C195.867 219.96 208.46 212.689 208.46 203.72C208.46 194.751 195.867 187.48 180.333 187.48C164.798 187.48 152.204 194.751 152.204 203.72C152.204 212.689 164.798 219.96 180.333 219.96Z" fill="#F5F5F5"/>
<path d="M155.94 190.609L127.952 206.768C126.633 207.529 124.33 207.434 122.807 206.555L95.558 190.822C94.0355 189.943 93.87 188.613 95.1885 187.852L123.176 171.693C124.495 170.931 126.798 171.027 128.321 171.906L155.57 187.638C157.093 188.517 157.259 189.847 155.94 190.609Z" fill="#F5F5F5"/>
<path d="M63.568 219.96C79.1027 219.96 91.696 212.689 91.696 203.72C91.696 194.751 79.1027 187.48 63.568 187.48C48.0333 187.48 35.44 194.751 35.44 203.72C35.44 212.689 48.0333 219.96 63.568 219.96Z" fill="#F5F5F5"/>
<path d="M118.804 228.923L136.728 218.574C137.393 218.19 137.393 217.568 136.728 217.184L118.804 206.835C118.139 206.451 117.061 206.451 116.396 206.835L98.471 217.184C97.806 217.568 97.806 218.19 98.471 218.574L116.395 228.923C117.06 229.306 118.138 229.306 118.804 228.923Z" fill="#F5F5F5"/>
<path d="M107.714 191.339L124.975 201.305C126.707 202.305 129.515 202.305 131.247 201.305L148.508 191.339C150.239 190.339 151.643 187.908 151.643 185.908V165.977C151.643 163.978 150.239 161.546 148.508 160.546L131.247 150.581C129.515 149.581 126.707 149.581 124.975 150.581L107.714 160.546C105.983 161.546 104.579 163.978 104.579 165.977V185.908C104.578 187.908 105.982 190.339 107.714 191.339Z" fill="#C08B89"/>
<path opacity="0.4" d="M107.714 191.339L124.975 201.305C126.707 202.305 129.515 202.305 131.247 201.305L148.508 191.339C150.239 190.339 151.643 187.908 151.643 185.908V165.977C151.643 163.978 150.239 161.546 148.508 160.546L131.247 150.581C129.515 149.581 126.707 149.581 124.975 150.581L107.714 160.546C105.983 161.546 104.579 163.978 104.579 165.977V185.908C104.578 187.908 105.982 190.339 107.714 191.339Z" fill="black" fill-opacity="0.8"/>
<path d="M148.508 164.167L131.247 174.133C129.515 175.133 128.111 177.564 128.111 179.564V199.495C128.111 201.494 129.515 202.304 131.247 201.305L148.508 191.339C150.239 190.339 151.643 187.908 151.643 185.908V165.977C151.643 163.977 150.239 163.167 148.508 164.167Z" fill="#C08B89"/>
<path d="M140.781 174.378C141.582 173.916 142.277 173.655 142.867 173.596C143.456 173.536 143.948 173.653 144.344 173.944C144.738 174.235 145.042 174.688 145.252 175.302C145.463 175.915 145.59 176.664 145.634 177.548C145.677 178.591 145.677 179.658 145.634 180.75C145.59 181.684 145.463 182.58 145.252 183.437C145.042 184.294 144.741 185.095 144.352 185.839C143.962 186.583 143.478 187.263 142.899 187.878C142.32 188.494 141.642 189.026 140.863 189.476L136.773 191.837C136.654 191.906 136.551 191.908 136.465 191.842C136.378 191.777 136.335 191.664 136.335 191.506V177.528C136.335 177.37 136.378 177.208 136.465 177.042C136.552 176.877 136.654 176.76 136.773 176.691L140.781 174.378ZM143.442 178.813C143.42 178.364 143.353 177.974 143.24 177.642C143.126 177.312 142.958 177.062 142.737 176.894C142.515 176.727 142.236 176.657 141.901 176.684C141.566 176.712 141.165 176.86 140.7 177.129L138.526 178.384V188.121L140.781 186.819C141.225 186.563 141.609 186.258 141.934 185.905C142.258 185.551 142.529 185.168 142.745 184.755C142.962 184.341 143.127 183.9 143.24 183.43C143.354 182.961 143.421 182.489 143.443 182.015C143.486 180.923 143.486 179.855 143.442 178.813Z" fill="white"/>
<path d="M107.714 164.166L124.975 174.132C126.707 175.132 129.515 175.132 131.247 174.132L148.508 164.166C150.24 163.166 150.24 161.545 148.508 160.545L131.247 150.58C129.515 149.58 126.707 149.58 124.975 150.58L107.714 160.545C105.982 161.545 105.982 163.167 107.714 164.166Z" fill="#C08B89"/>
<path opacity="0.15" d="M107.714 164.166L124.975 174.132C126.707 175.132 129.515 175.132 131.247 174.132L148.508 164.166C150.24 163.166 150.24 161.545 148.508 160.545L131.247 150.58C129.515 149.58 126.707 149.58 124.975 150.58L107.714 160.545C105.982 161.545 105.982 163.167 107.714 164.166Z" fill="white"/>
<path d="M107.714 164.166L124.975 174.132C126.707 175.132 128.111 177.563 128.111 179.563V199.494C128.111 201.493 126.707 202.304 124.975 201.304L107.714 191.339C105.983 190.339 104.579 187.907 104.579 185.908V165.977C104.578 163.977 105.982 163.167 107.714 164.166Z" fill="#C08B89"/>
<path opacity="0.2" d="M107.714 164.167L124.975 174.132C126.707 175.132 128.11 177.564 128.11 179.563V199.494C128.11 201.494 126.706 202.304 124.975 201.305L107.714 191.339C105.982 190.339 104.578 187.907 104.578 185.908V165.977C104.578 163.977 105.982 163.167 107.714 164.167Z" fill="black" fill-opacity="0.8"/>
<path d="M102.452 164.602L119.713 174.568C121.445 175.568 124.253 175.568 125.985 174.568L143.246 164.602C144.978 163.602 146.381 161.171 146.381 159.171V139.24C146.381 137.241 144.977 134.809 143.246 133.809L125.985 123.844C124.253 122.844 121.445 122.844 119.714 123.844L102.453 133.809C100.721 134.809 99.317 137.241 99.317 139.24V159.171C99.3165 161.171 100.721 163.603 102.452 164.602Z" fill="#C08B89"/>
<path d="M143.245 137.43L125.984 147.395C124.253 148.395 122.849 150.827 122.849 152.826V172.757C122.849 174.757 124.253 175.567 125.984 174.568L143.245 164.602C144.977 163.602 146.381 161.171 146.381 159.171V139.24C146.381 137.241 144.977 136.43 143.245 137.43Z" fill="#C08B89"/>
<path opacity="0.35" d="M143.245 137.43L125.984 147.395C124.253 148.395 122.849 150.827 122.849 152.826V172.757C122.849 174.757 124.253 175.567 125.984 174.568L143.245 164.602C144.977 163.602 146.381 161.171 146.381 159.171V139.24C146.381 137.241 144.977 136.43 143.245 137.43Z" fill="white"/>
<path d="M137.804 161.765C137.62 161.872 137.48 161.888 137.382 161.814C137.285 161.74 137.215 161.68 137.171 161.633L132.627 155.255V164.17C132.627 164.328 132.583 164.491 132.497 164.655C132.41 164.821 132.308 164.938 132.189 165.007L130.874 165.766C130.755 165.834 130.652 165.837 130.566 165.77C130.479 165.705 130.436 165.593 130.436 165.434V151.457C130.436 151.298 130.479 151.136 130.566 150.971C130.652 150.805 130.755 150.688 130.874 150.62L132.01 149.964C132.194 149.858 132.335 149.841 132.432 149.915C132.53 149.988 132.6 150.049 132.643 150.096L137.187 156.474V147.559C137.187 147.401 137.23 147.239 137.317 147.073C137.404 146.908 137.506 146.791 137.625 146.722L138.939 145.963C139.058 145.895 139.161 145.893 139.248 145.958C139.334 146.024 139.378 146.136 139.378 146.294V160.272C139.378 160.43 139.334 160.593 139.248 160.757C139.161 160.923 139.058 161.04 138.939 161.108L137.804 161.765Z" fill="white"/>
<path d="M102.452 137.43L119.713 147.395C121.445 148.395 124.253 148.395 125.984 147.395L143.245 137.43C144.977 136.43 144.977 134.809 143.245 133.809L125.984 123.843C124.253 122.843 121.445 122.843 119.713 123.843L102.452 133.809C100.721 134.809 100.721 136.43 102.452 137.43Z" fill="#C08B89"/>
<path opacity="0.55" d="M102.452 137.43L119.713 147.395C121.445 148.395 124.253 148.395 125.984 147.395L143.245 137.43C144.977 136.43 144.977 134.809 143.245 133.809L125.984 123.843C124.253 122.843 121.445 122.843 119.713 123.843L102.452 133.809C100.721 134.809 100.721 136.43 102.452 137.43Z" fill="white"/>
<path d="M102.452 137.43L119.713 147.395C121.444 148.395 122.849 150.827 122.849 152.826V172.757C122.849 174.757 121.444 175.567 119.713 174.568L102.452 164.602C100.72 163.602 99.3165 161.171 99.3165 159.171V139.24C99.3165 137.24 100.721 136.43 102.452 137.43Z" fill="#C08B89"/>
<path opacity="0.15" d="M102.452 137.43L119.713 147.396C121.445 148.395 122.849 150.827 122.849 152.827V172.758C122.849 174.757 121.444 175.568 119.713 174.568L102.452 164.603C100.72 163.603 99.3165 161.171 99.3165 159.172V139.24C99.316 137.24 100.72 136.43 102.452 137.43Z" fill="white"/>
<path d="M104.485 133.92L121.746 143.886C123.478 144.886 126.286 144.886 128.018 143.886L145.279 133.92C147.01 132.92 148.414 130.489 148.414 128.489V108.558C148.414 106.559 147.01 104.127 145.279 103.127L128.018 93.162C126.286 92.162 123.478 92.162 121.746 93.162L104.485 103.127C102.754 104.127 101.35 106.559 101.35 108.558V128.489C101.35 130.489 102.754 132.92 104.485 133.92Z" fill="#C08B89"/>
<path opacity="0.4" d="M104.485 133.92L121.746 143.886C123.478 144.886 126.286 144.886 128.018 143.886L145.279 133.92C147.01 132.92 148.414 130.489 148.414 128.489V108.558C148.414 106.559 147.01 104.127 145.279 103.127L128.018 93.162C126.286 92.162 123.478 92.162 121.746 93.162L104.485 103.127C102.754 104.127 101.35 106.559 101.35 108.558V128.489C101.35 130.489 102.754 132.92 104.485 133.92Z" fill="black" fill-opacity="0.8"/>
<path d="M145.278 106.748L128.017 116.713C126.286 117.713 124.882 120.145 124.882 122.144V142.075C124.882 144.075 126.286 144.885 128.017 143.886L145.278 133.92C147.01 132.92 148.414 130.489 148.414 128.489V108.558C148.414 106.558 147.01 105.748 145.278 106.748Z" fill="#C08B89"/>
<path opacity="0.1" d="M145.278 106.748L128.017 116.713C126.286 117.713 124.882 120.145 124.882 122.144V142.075C124.882 144.075 126.286 144.885 128.017 143.886L145.278 133.92C147.01 132.92 148.414 130.489 148.414 128.489V108.558C148.414 106.558 147.01 105.748 145.278 106.748Z" fill="black" fill-opacity="0.8"/>
<path d="M137.54 117.106C137.713 117.006 137.843 116.992 137.93 117.065C138.016 117.137 138.092 117.278 138.157 117.485L142.133 128.864C142.143 128.902 142.149 128.949 142.149 129.007C142.149 129.165 142.106 129.328 142.019 129.493C141.933 129.659 141.83 129.775 141.711 129.844L140.543 130.519C140.326 130.644 140.175 130.67 140.088 130.597C140.002 130.525 139.942 130.44 139.91 130.343L139.212 128.344L134.084 131.305L133.386 134.109C133.353 134.243 133.294 134.397 133.207 134.569C133.121 134.742 132.969 134.89 132.753 135.015L131.585 135.69C131.466 135.758 131.363 135.761 131.277 135.694C131.19 135.629 131.147 135.517 131.147 135.358C131.147 135.301 131.152 135.247 131.163 135.197L135.139 119.227C135.204 118.945 135.279 118.717 135.366 118.544C135.453 118.372 135.582 118.236 135.756 118.136L137.54 117.106ZM138.433 126.089L136.648 120.953L134.863 128.15L138.433 126.089Z" fill="white"/>
<path d="M104.485 106.748L121.746 116.714C123.478 117.714 126.286 117.714 128.018 116.714L145.279 106.748C147.011 105.748 147.011 104.127 145.279 103.127L128.018 93.1615C126.286 92.1615 123.478 92.1615 121.746 93.1615L104.485 103.127C102.754 104.127 102.754 105.748 104.485 106.748Z" fill="#C08B89"/>
<path d="M104.485 106.748L121.746 116.713C123.478 117.713 124.882 120.145 124.882 122.144V142.075C124.882 144.075 123.478 144.885 121.746 143.886L104.485 133.92C102.754 132.92 101.35 130.489 101.35 128.489V108.558C101.35 106.558 102.754 105.748 104.485 106.748Z" fill="#C08B89"/>
<path opacity="0.25" d="M104.485 106.748L121.746 116.714C123.478 117.713 124.881 120.145 124.881 122.145V142.076C124.881 144.075 123.477 144.886 121.746 143.886L104.485 133.92C102.753 132.921 101.349 130.489 101.349 128.489V108.558C101.349 106.559 102.753 105.748 104.485 106.748Z" fill="black" fill-opacity="0.8"/>
<path d="M100.615 215.395L116.532 206.205C116.828 206.032 117.213 205.948 117.598 205.948C117.983 205.948 118.374 206.032 118.67 206.205L134.582 215.395C134.878 215.568 135.021 215.79 135.021 216.013V217.173C135.021 217.395 134.878 217.618 134.582 217.79L118.67 226.976C118.374 227.149 117.983 227.233 117.598 227.233C117.213 227.233 116.828 227.149 116.532 226.976L100.615 217.79C100.318 217.617 100.175 217.395 100.175 217.173V216.013C100.175 215.791 100.318 215.568 100.615 215.395Z" fill="#01BCA7"/>
<path opacity="0.1" d="M100.175 216.013V217.173C100.175 217.395 100.318 217.618 100.615 217.79L116.532 226.976C116.828 227.149 117.213 227.233 117.598 227.233V205.948C117.213 205.948 116.828 206.032 116.532 206.205L100.615 215.395C100.318 215.568 100.175 215.791 100.175 216.013Z" fill="black" fill-opacity="0.8"/>
<path opacity="0.3" d="M117.598 205.948V227.233C117.983 227.233 118.374 227.149 118.67 226.976L134.582 217.79C134.878 217.617 135.021 217.395 135.021 217.173V216.013C135.021 215.791 134.878 215.568 134.582 215.395L118.67 206.205C118.374 206.032 117.984 205.948 117.598 205.948Z" fill="black" fill-opacity="0.8"/>
<path d="M118.668 225.82L134.584 216.631C135.174 216.29 135.174 215.737 134.584 215.396L118.668 206.207C118.077 205.866 117.12 205.866 116.529 206.207L100.613 215.396C100.022 215.737 100.022 216.29 100.613 216.631L116.529 225.82C117.12 226.161 118.077 226.161 118.668 225.82Z" fill="#01BCA7"/>
<path opacity="0.5" d="M118.668 225.82L134.584 216.631C135.174 216.29 135.174 215.737 134.584 215.396L118.668 206.207C118.077 205.866 117.12 205.866 116.529 206.207L100.613 215.396C100.022 215.737 100.022 216.29 100.613 216.631L116.529 225.82C117.12 226.161 118.077 226.161 118.668 225.82Z" fill="white"/>
<path opacity="0.05" d="M117.598 205.951C117.985 205.951 118.373 206.037 118.668 206.207L134.584 215.396C135.174 215.737 135.174 216.29 134.584 216.631L118.668 225.82C118.372 225.99 117.985 226.076 117.598 226.076V205.951Z" fill="black" fill-opacity="0.8"/>
<path d="M107.774 214.855H107.77L114.813 193.7C114.814 193.696 114.815 193.693 114.817 193.689L114.823 193.669H114.827C114.937 193.369 115.189 193.082 115.593 192.849C116.701 192.21 118.497 192.21 119.605 192.849C120.009 193.082 120.262 193.369 120.371 193.669H120.375L120.383 193.692C120.383 193.694 120.384 193.695 120.385 193.697L127.427 214.855H127.424C128.072 216.695 127.164 218.681 124.692 220.109C120.775 222.37 114.424 222.37 110.507 220.109C108.035 218.681 107.126 216.695 107.774 214.855Z" fill="#01BCA7"/>
<path d="M112.793 199.767L112.801 199.744L113.802 196.737C113.635 197.249 113.783 197.786 114.239 198.25C114.407 198.421 114.613 198.583 114.866 198.729C116.375 199.6 118.822 199.6 120.331 198.729C120.584 198.583 120.79 198.421 120.958 198.25C121.416 197.784 121.563 197.245 121.394 196.732L122.398 199.748L122.403 199.764C122.569 200.268 122.493 200.791 122.182 201.276C121.945 201.647 121.573 201.995 121.058 202.293C120.693 202.503 120.277 202.661 119.843 202.791C118.435 203.213 116.762 203.213 115.354 202.791C114.92 202.661 114.504 202.503 114.139 202.293C113.624 201.995 113.252 201.647 113.015 201.276C112.705 200.792 112.629 200.269 112.793 199.767Z" fill="white"/>
<path d="M108.758 211.887L108.765 211.867L109.767 208.857C109.602 209.356 109.589 209.867 109.711 210.37C109.839 210.895 110.117 211.411 110.56 211.89C110.922 212.282 111.387 212.651 111.959 212.982C115.074 214.78 120.123 214.78 123.238 212.982C123.81 212.651 124.275 212.282 124.637 211.89C125.08 211.41 125.358 210.895 125.486 210.37C125.608 209.868 125.595 209.358 125.431 208.86L126.43 211.863L126.44 211.892C126.605 212.391 126.64 212.902 126.55 213.406C126.345 214.552 125.485 215.667 123.964 216.545C120.449 218.575 114.748 218.575 111.232 216.545C109.711 215.667 108.851 214.553 108.646 213.406C108.556 212.9 108.592 212.388 108.758 211.887Z" fill="white"/>
<path d="M110.776 205.827L110.783 205.806L111.784 202.797C111.619 203.298 111.654 203.815 111.879 204.309C112.132 204.863 112.625 205.388 113.367 205.826C113.383 205.836 113.396 205.846 113.412 205.855C115.724 207.19 119.472 207.19 121.784 205.855C121.8 205.846 121.814 205.836 121.83 205.826C122.572 205.388 123.066 204.863 123.318 204.309C123.543 203.814 123.578 203.297 123.413 202.796L124.414 205.805L124.422 205.828C124.588 206.33 124.587 206.847 124.419 207.348C124.241 207.88 123.87 208.394 123.317 208.856C123.081 209.054 122.816 209.243 122.511 209.419C121.734 209.867 120.817 210.183 119.843 210.375C118.389 210.661 116.808 210.661 115.355 210.375C114.38 210.183 113.463 209.867 112.686 209.419C112.382 209.243 112.117 209.054 111.881 208.856C111.328 208.393 110.957 207.88 110.778 207.348C110.61 206.846 110.61 206.329 110.776 205.827Z" fill="white"/>
<path opacity="0.1" d="M117.599 192.37C118.325 192.37 119.052 192.53 119.605 192.85C120.009 193.083 120.262 193.369 120.371 193.669H120.375L120.382 193.692C120.383 193.694 120.384 193.695 120.384 193.697L127.427 214.855H127.424C128.072 216.695 127.163 218.681 124.691 220.109C122.733 221.24 120.166 221.805 117.599 221.805C117.619 221.802 117.639 221.798 117.659 221.795C120.836 221.285 122.977 218.253 122.535 215.066L119.605 194.008L117.599 192.37Z" fill="black" fill-opacity="0.8"/>
<path d="M119.605 195.165C120.713 194.526 120.713 193.489 119.605 192.849C118.497 192.209 116.7 192.209 115.593 192.849C114.485 193.488 114.485 194.525 115.593 195.165C116.701 195.805 118.497 195.805 119.605 195.165Z" fill="#01BCA7"/>
<path opacity="0.5" d="M119.605 195.165C120.713 194.526 120.713 193.489 119.605 192.849C118.497 192.209 116.7 192.209 115.593 192.849C114.485 193.488 114.485 194.525 115.593 195.165C116.701 195.805 118.497 195.805 119.605 195.165Z" fill="white"/>
<path d="M173.612 200.941L172.058 200.2L173.585 199.769L173.612 200.941Z" fill="black" fill-opacity="0.8"/>
<path d="M158.257 203.864C158.257 203.864 176.494 195.589 176.73 196.805C176.782 197.073 176.775 197.315 176.725 197.537C176.741 197.515 176.76 197.493 176.774 197.471L176.452 199.744C176.452 199.744 175.151 200.855 173.613 200.941C173.61 200.831 173.595 200.155 173.586 199.769C173.091 199.978 172.581 200.225 171.978 200.625C170.811 201.399 170.066 202.744 168.832 204.309C167.933 205.45 166.32 205.99 163.927 206.342C161.351 206.721 159.076 206.248 158.431 205.569C157.916 205.028 158.165 204.024 158.257 203.864Z" fill="black" fill-opacity="0.8"/>
<path d="M158.759 203.44C158.934 203.257 159.581 202.543 160.459 201.763C161.226 201.082 162.12 200.221 163.083 199.524C163.468 199.246 164.057 198.801 164.387 198.447C164.704 198.106 165.007 197.754 165.288 197.384C166.163 196.236 166.872 194.976 167.471 193.671C167.755 193.052 168.107 192.395 168.228 191.723C168.356 191.011 168.43 190.289 168.43 189.566C168.431 186.306 168.356 185.788 168.324 183.308L176.056 183.508C175.811 184.884 175.438 186.766 175.315 188.329C175.128 190.707 175.067 191.236 176.022 193.601C176.303 194.297 176.721 194.965 176.761 195.713C176.828 196.928 175.868 197.985 174.79 198.587C173.897 199.086 172.867 199.304 172.001 199.835C171.09 200.394 170.385 201.232 169.738 202.06C169.128 202.842 168.64 203.764 167.78 204.316C166.827 204.929 165.915 205.124 164.807 205.354C163.532 205.618 161.895 205.657 160.805 205.58C158.906 205.446 157.487 204.774 158.759 203.44Z" fill="#C8856A"/>
<path d="M165.874 199.673C164.539 198.991 163.335 199.283 163.035 199.437C161.693 200.501 160.583 201.445 159.799 202.106C158.847 202.907 158.015 203.639 158.056 204.548C158.121 205.976 163.743 206.368 166.874 204.993C168.505 204.416 169.079 203.061 169.079 203.061C169.079 203.061 168.602 201.065 165.874 199.673ZM176.518 194.469C176.032 193.554 175.846 193.086 175.846 193.086C174.759 193.679 172.879 196.386 173.769 199.088C174.759 198.824 175.728 198.444 176.509 197.223C177.1 196.301 177.004 195.385 176.518 194.469Z" fill="black" fill-opacity="0.8"/>
<path d="M190.729 195.527C190.222 196.346 190.862 199.422 190.738 201.615C190.625 203.607 190.085 207.08 190.682 209.045C191.39 211.374 192.838 214.074 195.561 211.878C197.249 210.517 198.221 208.763 198.462 205.895C198.63 203.902 197.854 201.15 197.188 198.708C196.411 195.857 196.116 194.331 196.116 194.331L190.729 195.527Z" fill="black" fill-opacity="0.8"/>
<path d="M196.19 180.789C196.39 185.437 195.839 188.701 195.807 191.678C195.839 193.064 195.932 194.234 196.239 195.698C196.636 197.597 197.311 200.237 197.595 201.468C197.992 203.188 198.292 204.272 197.687 206.201C197.64 206.351 197.569 206.495 197.489 206.637C196.643 208.227 194.493 209.427 193.805 209.235C193.612 209.549 193.124 209.738 192.594 209.65C192.519 209.638 192.442 209.62 192.365 209.596C192.289 209.572 192.212 209.541 192.135 209.505C191.678 209.284 191.243 208.829 190.991 208.043C190.949 207.912 190.912 207.772 190.88 207.623C190.38 205.228 190.644 203.624 190.655 202.686C190.671 201.396 190.642 200.146 190.545 198.402C190.449 196.658 190.164 191.323 189.546 188.705C189.088 186.878 188.517 184.586 187.914 182.142L196.19 180.789Z" fill="#C8856A"/>
<path d="M198.014 203.708C196.318 202.973 191.403 202.871 190.619 205.22C190.599 207.432 190.585 208.931 192.008 210.856C193.899 213.413 196.366 210.702 197.312 208.98C198.257 207.259 198.245 204.899 198.014 203.708Z" fill="black" fill-opacity="0.8"/>
<path d="M189.78 120.076C192.175 124.29 194.107 127.843 194.73 138.976C195.434 151.54 195.329 156.324 195.391 157.841C195.452 159.357 196.448 162.138 197.293 169.605C198.138 177.072 197.248 195.174 197.248 195.174C197.248 195.174 196.65 196.394 193.741 196.671C191.057 196.926 189.482 196.002 189.482 196.002C189.482 196.002 185.217 172.233 184.165 167.739C183.113 163.246 180.044 148.468 180.044 148.468L179.036 162.573C179.036 162.573 179.885 166.691 179.115 173.25C178.345 179.808 176.367 192.204 176.367 192.204C176.367 192.204 175.227 193.338 171.718 193.271C167.987 193.199 167.208 192.181 167.208 192.181C167.208 192.181 166.372 165.521 166.317 158.093C166.261 150.666 165.822 131.378 168.121 120.364L189.78 120.076Z" fill="black" fill-opacity="0.8"/>
<path d="M169.646 131.018C170.81 134.077 174.977 136.195 176.804 136.611L179.033 148.315L179.036 162.573L180.045 148.468L177.542 134.202C177.542 134.202 172.48 133.884 169.646 131.018ZM186.941 129.398C187.249 130.601 187.529 131.812 187.827 133.022C188.118 134.233 188.411 135.444 188.725 136.664C188.744 135.404 188.622 134.149 188.444 132.907C188.27 131.664 188.022 130.431 187.724 129.21C187.411 127.992 187.055 126.782 186.603 125.604C186.154 124.426 185.63 123.266 184.935 122.205C185.326 123.403 185.674 124.594 186.006 125.792C186.33 126.991 186.648 128.191 186.941 129.398ZM189.074 127.061C189.491 127.785 189.888 128.518 190.288 129.252L191.469 131.494C191.389 130.639 191.159 129.806 190.863 129.003C190.571 128.197 190.194 127.426 189.779 126.678C189.351 125.937 188.884 125.217 188.356 124.542C187.832 123.865 187.261 123.221 186.611 122.649C186.995 123.419 187.415 124.151 187.832 124.88C188.244 125.611 188.67 126.331 189.074 127.061ZM187.426 160.992C186.667 157.149 186.119 153.263 185.577 149.374C185.048 145.482 184.523 141.586 183.943 137.696C184.213 141.619 184.53 145.537 184.954 149.447C185.369 153.358 185.885 157.265 186.633 161.141C187.432 165.007 188.235 168.841 189.088 172.682C189.928 176.522 190.821 180.353 191.764 184.175C191.129 180.295 190.442 176.422 189.704 172.559C188.979 168.698 188.204 164.829 187.426 160.992ZM169.943 148.291L170.52 138.041C170.008 141.429 169.615 144.835 169.318 148.248C169.031 151.666 168.758 155.07 168.773 158.533C168.916 161.978 169.009 175.606 169.444 179.005C169.745 175.2 169.646 165.16 169.646 165.16C169.546 163.456 169.627 160.206 169.579 158.514C169.538 156.83 169.627 155.116 169.694 153.412C169.761 151.705 169.86 149.999 169.943 148.291Z" fill="black" fill-opacity="0.8"/>
<path d="M188.834 77.5015C188.862 77.663 189.335 77.9885 189.467 78.1405C189.742 78.457 190.01 78.7545 190.218 79.1225C190.643 79.875 190.847 80.748 190.843 81.61C190.838 82.941 190.372 84.2375 189.71 85.392C189.048 86.5465 188.194 87.577 187.343 88.6005C186.612 89.4815 185.88 90.363 185.149 91.244C184.989 91.437 184.816 91.6385 184.578 91.7185C184.368 91.789 184.14 91.753 183.921 91.716C182.803 91.5255 181.689 91.319 180.577 91.096C179.552 90.8905 178.523 90.669 177.557 90.2685C175.944 89.599 174.562 88.4095 173.616 86.945C173.185 86.2775 172.612 85.3365 172.542 84.5255C172.51 84.1565 172.691 83.845 172.606 83.4655C172.496 82.9765 172.126 82.5845 171.928 82.1315C171.469 81.084 171.168 79.9195 171.293 78.7695C171.551 76.398 173.07 73.3405 177.45 72.5295C181.097 71.854 188.03 72.766 188.834 77.5015Z" fill="black" fill-opacity="0.8"/>
<path d="M135.647 92.3414C136.056 92.1789 136.518 92.1864 136.947 92.2834C137.646 92.4414 138.256 92.8159 138.916 93.0714C139.922 93.4604 141.542 94.1019 142.628 93.9214C142.849 93.8849 143.296 93.7419 142.96 93.5074C142.522 93.2019 142.054 92.9284 141.675 92.5539C141.296 92.1789 141.009 91.6749 141.043 91.1479C141.054 90.9894 141.098 90.8234 141.216 90.7134C141.382 90.5579 141.519 90.6269 141.676 90.7159C141.841 90.8094 142.023 90.8749 142.201 90.9474C142.567 91.0964 142.934 91.2459 143.298 91.3999C145.424 92.2984 147.575 93.3904 148.998 95.2444C149.205 95.5139 149.777 96.3324 151.886 98.2864C154.222 100.451 157.886 103.665 157.886 103.665C157.886 103.665 162.124 100.422 164.147 98.8814C167.855 96.0569 170.273 95.1694 173.566 95.2439L170.143 105.737C170.143 105.737 163.239 110.073 160.878 111.523C157.811 113.406 156.338 113.569 154.359 111.493C152.997 110.065 152.062 108.6 150.245 106.06C148.273 103.302 147.913 102.337 147.072 101.515C146.185 100.649 144.557 100.305 143.856 100.18C142.574 99.9509 142.249 99.8454 141.043 99.3604C140.249 99.0414 139.488 98.6354 138.806 98.1229C138.52 97.9084 138.05 97.6144 137.895 97.2859C137.751 96.9784 137.765 96.6204 137.579 96.3139C137.371 95.9704 137.003 95.7324 136.835 95.3684C136.702 95.0824 136.71 94.7559 136.656 94.4459C136.571 93.9534 136.226 93.7039 135.836 93.4304C135.646 93.2979 135.437 93.1724 135.328 92.9704C135.154 92.6464 135.37 92.4519 135.647 92.3414Z" fill="#C8856A"/>
<path d="M157.887 103.665C159.246 104.671 160.029 105.701 160.517 107.676C161.102 104.978 158.694 103.047 158.694 103.047L157.887 103.665Z" fill="#C08B89"/>
<path d="M143.988 94.7009C144.597 95.8674 146.025 97.1004 146.804 97.4134C146.804 97.4134 145.597 97.4389 144.877 96.7249C144.087 95.9419 143.986 95.2019 143.988 94.7009Z" fill="#C08B89"/>
<path d="M192.128 125.52C193.548 124.407 191.841 123.905 191.457 116.994C191.358 115.212 192.608 109.732 192.608 109.732C192.608 109.732 190.047 105.843 191.252 97.2715L185.752 95.845L177.493 95.385L173.567 95.245C172.451 96.195 169.829 99.14 168.19 101.434C165.825 104.744 165.964 109.059 168.409 111.764C168.438 112.291 168.453 115.87 168.192 117.935C167.831 120.798 166.186 123.563 167.829 125.007C172.624 129.221 185.455 129.728 192.128 125.52Z" fill="#C08B89"/>
<path opacity="0.6" d="M192.128 125.52C193.548 124.407 191.841 123.905 191.457 116.994C191.358 115.212 192.608 109.732 192.608 109.732C192.608 109.732 190.047 105.843 191.252 97.2715L185.752 95.845L177.493 95.385L173.567 95.245C172.451 96.195 169.829 99.14 168.19 101.434C165.825 104.744 165.964 109.059 168.409 111.764C168.438 112.291 168.453 115.87 168.192 117.935C167.831 120.798 166.186 123.563 167.829 125.007C172.624 129.221 185.455 129.728 192.128 125.52Z" fill="white"/>
<path d="M186.876 89.6765C187.829 89.8695 188.745 89.421 189.336 88.8045C190.649 87.436 190.794 86.022 190.21 85.0685C189.731 84.285 188.523 83.768 187.662 84.277C186.74 84.8215 186.703 85.2785 186.348 85.906C185.983 86.55 185.117 86.023 185.458 83.4825C183.702 82.634 184.037 79.727 183.101 78.5225C181.637 76.637 179.162 77.077 178.353 77.5C177.65 76.9185 176.222 76.6135 174.997 77.23C173.796 77.8345 172.982 79.1365 172.483 83.652C171.975 88.255 172.342 90.633 173.701 91.909C174.434 92.5965 175.912 93.5035 177.565 93.438L177.492 95.384C177.492 95.384 172.671 99.9795 178.763 99.6415C183.328 99.3885 185.722 95.925 185.722 95.925L185.882 88.934C185.882 88.934 185.97 89.4935 186.876 89.6765Z" fill="#C8856A"/>
<path d="M176.9 88.6875C177.034 89.412 177.74 89.893 178.478 89.7625C179.216 89.6315 179.706 88.938 179.572 88.2135L176.9 88.6875Z" fill="#C08B89"/>
<path d="M179.573 88.649C179.489 89.197 179.065 89.6579 178.478 89.7624C178.315 89.7914 178.153 89.786 177.999 89.759C178.124 89.027 178.827 88.5315 179.573 88.649Z" fill="#C08B89"/>
<path d="M173.843 80.7859L175.607 80.2434C175.469 79.7539 174.962 79.4784 174.474 79.6284C173.987 79.7784 173.705 80.2969 173.843 80.7859Z" fill="black" fill-opacity="0.8"/>
<path d="M180.333 80.3889L182.061 81.3464C182.35 80.8844 182.198 80.2954 181.72 80.0309C181.243 79.7669 180.622 79.9274 180.333 80.3889Z" fill="black" fill-opacity="0.8"/>
<path d="M180.999 83.6924C180.992 84.0909 180.663 84.4089 180.265 84.4019C179.866 84.3954 179.548 84.0664 179.555 83.6679C179.562 83.2694 179.891 82.9514 180.289 82.9584C180.688 82.9654 181.005 83.2939 180.999 83.6924Z" fill="black" fill-opacity="0.8"/>
<path d="M175.204 83.3739C175.197 83.7724 174.868 84.0904 174.47 84.0834C174.071 84.0769 173.753 83.7479 173.76 83.3494C173.767 82.9509 174.096 82.6329 174.494 82.6399C174.893 82.6469 175.21 82.9754 175.204 83.3739Z" fill="black" fill-opacity="0.8"/>
<path d="M171.186 81.7979C171.178 82.0989 171.354 82.3864 171.447 82.5079C171.496 82.5719 171.539 82.6554 171.555 82.7614C171.629 83.2409 171.64 84.1449 171.829 84.6604C172.018 85.1754 172.44 85.9974 173.857 86.0899C174.132 86.1084 174.379 86.0979 174.6 86.0644C174.619 86.0619 174.639 86.0584 174.657 86.0554C174.892 86.0159 175.098 85.9484 175.279 85.8614C175.292 85.8554 175.305 85.8489 175.317 85.8424C175.336 85.8334 175.354 85.8244 175.372 85.8144C175.388 85.8059 175.404 85.7969 175.441 85.7759C175.463 85.7634 175.483 85.7504 175.505 85.7364C175.529 85.7214 175.552 85.7059 175.575 85.6899C175.598 85.6744 175.621 85.6584 175.643 85.6409C175.687 85.6074 175.729 85.5729 175.77 85.5364C176.002 85.3329 176.18 85.0899 176.326 84.8434C176.707 84.2004 176.723 83.2779 177.248 83.1944C177.268 83.1914 177.289 83.1894 177.311 83.1884C177.332 83.1869 177.354 83.1874 177.378 83.1889C178.076 83.2289 177.894 84.2264 178.21 84.9579C178.526 85.6904 179.1 86.4164 180.615 86.5024C180.682 86.5064 180.748 86.5079 180.811 86.5094C180.865 86.5094 180.918 86.5089 180.969 86.5064C181.1 86.5034 181.224 86.4914 181.339 86.4739C181.379 86.4674 181.418 86.4614 181.457 86.4539C181.495 86.4469 181.533 86.4379 181.569 86.4294C181.593 86.4244 181.617 86.4184 181.641 86.4119C181.801 86.3684 181.942 86.3139 182.07 86.2499C182.121 86.2239 182.169 86.1974 182.217 86.1694C182.31 86.1134 182.393 86.0534 182.475 85.9854C182.725 85.7749 182.888 85.5364 183.004 85.3419C183.291 84.8564 183.447 83.9599 183.613 83.4974C183.658 83.3744 183.708 83.2899 183.758 83.2319C183.87 83.1009 184.129 82.8754 184.17 82.5754C184.21 82.2754 184.011 82.0039 183.809 81.9674C183.692 81.9464 183.569 81.9254 183.442 81.9049C182.259 81.7179 180.704 81.5899 179.746 81.7849C178.544 82.0324 178.101 82.3644 177.449 82.3274C176.84 82.2874 176.482 81.9074 175.408 81.5209C174.551 81.2139 173.092 81.1584 171.967 81.2044C171.847 81.2094 171.73 81.2154 171.619 81.2229C171.425 81.2364 171.195 81.4974 171.186 81.7979ZM178.817 82.8174C178.888 82.7354 179.013 82.6529 179.177 82.5784C179.197 82.5679 179.218 82.5584 179.24 82.5499C179.252 82.5444 179.263 82.5399 179.275 82.5354C179.329 82.5124 179.387 82.4904 179.448 82.4699C179.498 82.4524 179.551 82.4349 179.606 82.4184C179.766 82.3699 179.941 82.3274 180.121 82.2934C180.188 82.2809 180.256 82.2689 180.325 82.2589C180.498 82.2319 180.673 82.2149 180.847 82.2059C180.889 82.2034 180.93 82.2014 180.968 82.2024C182.104 82.1659 182.782 82.4449 183.015 82.6714C183.257 82.9069 183.035 83.8724 182.876 84.3614C182.872 84.3734 182.868 84.3859 182.864 84.3974C182.86 84.4094 182.856 84.4224 182.852 84.4354C182.833 84.4944 182.811 84.5614 182.783 84.6324C182.768 84.6714 182.751 84.7129 182.734 84.7544C182.733 84.7564 182.733 84.7579 182.731 84.7594C182.704 84.8254 182.672 84.8924 182.634 84.9624V84.9634C182.622 84.9859 182.609 85.0099 182.596 85.0324C182.589 85.0459 182.581 85.0594 182.571 85.0739C182.563 85.0894 182.553 85.1044 182.543 85.1199C182.531 85.1389 182.518 85.1589 182.506 85.1774C182.492 85.1989 182.477 85.2199 182.461 85.2409C182.445 85.2634 182.428 85.2854 182.409 85.3084C182.392 85.3309 182.373 85.3534 182.353 85.3759C182.033 85.7409 181.527 86.0384 180.705 86.0004C179.891 85.9634 179.4 85.6799 179.102 85.3359L179.101 85.3354C178.806 84.9929 178.701 84.5919 178.66 84.3154C178.578 83.7549 178.565 83.1079 178.817 82.8174ZM172.24 82.0134C172.308 81.9609 172.406 81.9079 172.533 81.8624C172.541 81.8594 172.547 81.8569 172.555 81.8544C172.594 81.8399 172.636 81.8274 172.682 81.8149C172.706 81.8089 172.733 81.8014 172.759 81.7959C172.779 81.7914 172.801 81.7859 172.823 81.7824C172.837 81.7789 172.852 81.7764 172.865 81.7739C172.871 81.7719 172.877 81.7714 172.882 81.7709C172.902 81.7669 172.923 81.7639 172.944 81.7604C173.026 81.7474 173.114 81.7379 173.208 81.7319C173.254 81.7284 173.301 81.7259 173.35 81.7254C173.377 81.7239 173.406 81.7239 173.435 81.7234C173.457 81.7229 173.479 81.7234 173.501 81.7239C173.559 81.7249 173.619 81.7264 173.681 81.7299C173.702 81.7309 173.724 81.7324 173.747 81.7339C173.767 81.7349 173.787 81.7364 173.808 81.7379C173.969 81.7509 174.141 81.7734 174.323 81.8064C175.116 81.9499 175.919 82.3339 176.106 82.6514C176.292 82.9689 176.176 83.6074 176.014 84.1514C175.981 84.2589 175.937 84.3834 175.874 84.5144C175.87 84.5229 175.865 84.5329 175.86 84.5429C175.855 84.5549 175.849 84.5669 175.842 84.5794C175.838 84.5874 175.834 84.5954 175.83 84.6039C175.822 84.6184 175.814 84.6329 175.805 84.6469C175.788 84.6774 175.771 84.7064 175.752 84.7359C175.737 84.7609 175.72 84.7869 175.702 84.8119C175.696 84.8209 175.689 84.8304 175.683 84.8384C175.671 84.8544 175.658 84.8719 175.644 84.8894C175.634 84.9034 175.622 84.9179 175.609 84.9329C175.608 84.9349 175.606 84.9374 175.604 84.9399C175.282 85.3274 174.747 85.6504 173.855 85.5799C173.519 85.5549 173.248 85.4724 173.032 85.3544C172.273 84.9409 172.156 84.0944 172.102 83.7024C172.033 83.2009 171.979 82.2174 172.24 82.0134Z" fill="black" fill-opacity="0.8"/>
<path d="M174.854 86.3298L177.411 87.4693L178.017 84.2288C177.931 83.7428 177.845 83.2413 177.423 83.1938L174.854 86.3298Z" fill="#C08B89"/>
<path d="M183.721 82.3419L187.662 84.2769C187.458 84.4059 187.339 84.4899 187.039 84.7499L183.606 83.1494L183.721 82.3419Z" fill="black" fill-opacity="0.8"/>
<path d="M177.565 93.4379C179.946 93.3919 183.15 92.6154 184.032 91.1234C183.528 92.7399 181.837 93.5529 180.493 93.8984C178.86 94.3189 177.568 94.3439 177.568 94.3439L177.565 93.4379Z" fill="#C08B89"/>
<path d="M177.124 108.126C175.625 107.091 174.875 106.696 174.185 106.525C173.495 106.353 171.066 105.439 170.139 105.239C169.551 105.112 169.34 106.03 170.101 106.637C170.687 107.105 172.193 107.697 172.856 108.03C173.519 108.363 174.843 109.857 174.843 109.857L177.124 108.126Z" fill="#C08B89"/>
<path d="M197.875 101.987C196.336 98.9815 193.728 97.972 191.252 97.271C189.935 100.473 190.9 107.266 190.9 107.266L192.706 114.679C192.706 114.679 184.068 113.691 183.057 113.095C182.047 112.499 179.304 109.759 178.387 108.942C177.139 107.829 176.54 107.999 175.924 108.107C173.907 108.461 173.468 108.641 173.046 108.92C172.625 109.199 172.674 109.704 172.674 109.704C172.138 109.785 171.333 109.791 171.253 110.661C171.2 111.235 171.24 111.356 171.24 111.356C171.24 111.356 171.047 111.381 170.896 111.563C170.462 112.084 171.278 113.824 171.777 114.24C172.128 114.532 172.617 114.557 173.255 114.454C173.798 114.366 173.53 113.829 173.53 113.829L174.293 113.853C175.972 114.955 176.118 117.229 178.308 117.67C178.771 117.763 179.715 117.724 180.981 118.104C185.711 119.52 193.524 123.994 197.71 124.232C201.796 124.464 201.621 122.335 201.617 119.882C201.613 117.693 199.41 104.984 197.875 101.987Z" fill="#C8856A"/>
<path d="M192.509 113.846L192.706 114.679C194.575 115.097 196.82 117.442 197.293 118.426C196.903 116.856 195.799 114.611 192.509 113.846Z" fill="#C08B89"/>
<path d="M172.674 109.705L175.066 109.162L172.716 109.376C172.681 109.488 172.667 109.598 172.674 109.705Z" fill="#C08B89"/>
<path d="M171.24 111.357L173.998 110.928L171.228 111.042C171.22 111.14 171.225 111.246 171.24 111.357Z" fill="#C08B89"/>
<path d="M173.745 113.427C173.413 113.108 173.387 112.914 173.387 112.914C173.387 112.914 172.718 112.92 172.42 112.877C172.295 112.854 172.169 112.823 172.048 112.783C171.9 112.727 171.751 112.662 171.638 112.543C171.726 112.681 171.869 112.783 172.02 112.85C172.153 112.914 172.294 112.953 172.439 112.982L172.606 113.311C172.501 113.325 172.403 113.365 172.322 113.428C172.203 113.522 172.132 113.656 172.091 113.79C172.158 113.665 172.254 113.56 172.364 113.486C172.476 113.419 172.614 113.388 172.734 113.408C173.348 113.531 173.53 113.828 173.53 113.828L174.294 113.852C174.294 113.853 173.923 113.598 173.745 113.427Z" fill="#C08B89"/>
<path d="M107.84 99.7539L125.18 109.579C126.92 110.565 129.728 110.542 131.452 109.528L148.631 99.4234C150.354 98.4099 151.739 95.9669 151.723 93.9669L151.561 74.0364C151.545 72.0369 150.122 69.6169 148.382 68.6309L131.04 58.8054C129.3 57.8194 126.493 57.8424 124.77 58.8564L107.59 68.9614C105.866 69.9754 104.482 72.4179 104.498 74.4179L104.66 94.3484C104.676 96.3479 106.1 98.7679 107.84 99.7539Z" fill="#C08B89"/>
<path d="M148.411 72.2519L131.232 82.3569C129.508 83.3704 128.124 85.8134 128.14 87.8134L128.301 107.744C128.317 109.743 129.728 110.542 131.452 109.529L148.632 99.4239C150.355 98.4104 151.739 95.9674 151.723 93.9674L151.561 74.0369C151.545 72.0374 150.135 71.2379 148.411 72.2519Z" fill="#C08B89"/>
<path opacity="0.35" d="M148.411 72.2519L131.232 82.3569C129.508 83.3704 128.124 85.8134 128.14 87.8134L128.301 107.744C128.317 109.743 129.728 110.542 131.452 109.529L148.632 99.4239C150.355 98.4104 151.739 95.9674 151.723 93.9674L151.561 74.0369C151.545 72.0374 150.135 71.2379 148.411 72.2519Z" fill="white"/>
<path d="M141.155 82.4494C142.501 81.6579 143.527 81.4749 144.234 81.8994C144.94 82.3244 145.3 83.2799 145.312 84.7654C145.32 85.8184 145.147 86.8229 144.793 87.7774C144.438 88.7329 143.912 89.5964 143.215 90.3684L145.487 94.4014C145.52 94.4689 145.537 94.5389 145.538 94.6109C145.539 94.7404 145.505 94.8734 145.435 95.0079C145.366 95.1434 145.283 95.2389 145.186 95.2959L143.813 96.1034C143.598 96.2304 143.438 96.2554 143.335 96.1779C143.232 96.1014 143.158 96.0179 143.114 95.9279L140.958 92.1309L138.809 93.3944L138.85 98.4359C138.852 98.5944 138.81 98.7574 138.725 98.9224C138.639 99.0889 138.538 99.2064 138.419 99.2764L137.111 100.046C136.992 100.115 136.889 100.118 136.803 100.053C136.715 99.9889 136.671 99.8769 136.67 99.7179L136.557 85.7409C136.556 85.5824 136.598 85.4204 136.683 85.2539C136.768 85.0879 136.87 84.9699 136.989 84.9004L141.155 82.4494ZM138.787 90.6899L141.129 89.3124C141.743 88.9514 142.231 88.5189 142.595 88.0154C142.959 87.5114 143.137 86.8564 143.131 86.0479C143.124 85.2404 142.937 84.8069 142.569 84.7484C142.2 84.6899 141.709 84.8404 141.096 85.2014L138.754 86.5789L138.787 90.6899Z" fill="white"/>
<path d="M107.62 72.5819L124.961 82.4074C126.7 83.3929 129.508 83.3704 131.232 82.3564L148.411 72.2514C150.135 71.2374 150.122 69.6164 148.382 68.6309L131.041 58.8054C129.301 57.8194 126.493 57.8424 124.77 58.8564L107.59 68.9614C105.867 69.9754 105.88 71.5964 107.62 72.5819Z" fill="#C08B89"/>
<path opacity="0.55" d="M107.62 72.5819L124.961 82.4074C126.7 83.3929 129.508 83.3704 131.232 82.3564L148.411 72.2514C150.135 71.2374 150.122 69.6164 148.382 68.6309L131.041 58.8054C129.301 57.8194 126.493 57.8424 124.77 58.8564L107.59 68.9614C105.867 69.9754 105.88 71.5964 107.62 72.5819Z" fill="white"/>
<path d="M107.619 72.5819L124.96 82.4074C126.7 83.3929 128.124 85.8134 128.14 87.8129L128.301 107.743C128.317 109.743 126.92 110.565 125.18 109.579L107.839 99.7534C106.099 98.7679 104.676 96.3474 104.66 94.3479L104.498 74.4174C104.482 72.4184 105.88 71.5964 107.619 72.5819Z" fill="#C08B89"/>
<path opacity="0.15" d="M107.619 72.5825L124.96 82.408C126.7 83.3935 128.123 85.814 128.139 87.8135L128.301 107.744C128.317 109.743 126.92 110.565 125.18 109.579L107.839 99.754C106.099 98.7685 104.675 96.348 104.659 94.3485L104.498 74.418C104.482 72.4185 105.88 71.5965 107.619 72.5825Z" fill="white"/>
<path d="M113.625 66.6462L131.44 75.5832C133.228 76.4797 136.031 76.3152 137.701 75.2157L154.348 64.2557C156.018 63.1562 157.277 60.6467 157.16 58.6502L155.992 38.7537C155.875 36.7572 154.331 34.4122 152.543 33.5157L134.728 24.5787C132.941 23.6817 130.138 23.8467 128.468 24.9462L111.821 35.9062C110.151 37.0057 108.892 39.5157 109.009 41.5117L110.177 61.4087C110.293 63.4042 111.837 65.7497 113.625 66.6462Z" fill="#C08B89"/>
<path opacity="0.4" d="M113.625 66.6462L131.44 75.5832C133.228 76.4797 136.031 76.3152 137.701 75.2157L154.348 64.2557C156.018 63.1562 157.277 60.6467 157.16 58.6502L155.992 38.7537C155.875 36.7572 154.331 34.4122 152.543 33.5157L134.728 24.5787C132.941 23.6817 130.138 23.8467 128.468 24.9462L111.821 35.9062C110.151 37.0057 108.892 39.5157 109.009 41.5117L110.177 61.4087C110.293 63.4042 111.837 65.7497 113.625 66.6462Z" fill="black" fill-opacity="0.8"/>
<path d="M152.755 37.1303L136.108 48.0903C134.438 49.1898 133.179 51.6993 133.296 53.6958L134.464 73.5928C134.581 75.5888 136.03 76.3158 137.701 75.2163L154.348 64.2563C156.018 63.1568 157.277 60.6473 157.16 58.6508L155.992 38.7543C155.874 36.7573 154.425 36.0303 152.755 37.1303Z" fill="#C08B89"/>
<path d="M142.271 66.1592C142.156 66.2347 142.053 66.2427 141.963 66.1822C141.873 66.1227 141.823 66.0127 141.814 65.8547L140.995 51.9012C140.985 51.7427 141.019 51.5787 141.096 51.4087C141.172 51.2387 141.268 51.1157 141.383 51.0402L146 48.0007C146.667 47.5612 147.234 47.3342 147.699 47.3192C148.164 47.3042 148.545 47.4202 148.841 47.6667C149.137 47.9132 149.36 48.2452 149.509 48.6627C149.658 49.0807 149.746 49.5052 149.771 49.9372C149.797 50.3692 149.777 50.7822 149.714 51.1752C149.65 51.5687 149.565 51.9232 149.459 52.2402C149.353 52.5572 149.245 52.8342 149.134 53.0712C149.024 53.3087 148.933 53.4802 148.864 53.5857C149.205 53.6747 149.527 53.9077 149.832 54.2837C150.136 54.6597 150.312 55.2722 150.362 56.1217C150.394 56.6692 150.353 57.2607 150.239 57.8967C150.125 58.5332 149.939 59.1597 149.683 59.7772C149.427 60.3947 149.095 60.9757 148.688 61.5202C148.281 62.0647 147.801 62.5192 147.248 62.8832L142.271 66.1592ZM147.665 51.4352C147.633 50.8882 147.484 50.5562 147.217 50.4407C146.95 50.3247 146.545 50.4452 146.002 50.8027L143.232 52.6267L143.428 55.9532L146.198 54.1292C146.74 53.7722 147.129 53.3707 147.363 52.9247C147.597 52.4787 147.697 51.9827 147.665 51.4352ZM143.803 62.3462L146.698 60.4397C147.272 60.0617 147.682 59.6162 147.928 59.1022C148.174 58.5892 148.281 58.0587 148.249 57.5112C148.217 56.9642 148.052 56.6092 147.756 56.4452C147.459 56.2812 147.034 56.3817 146.481 56.7457L143.586 58.6522L143.803 62.3462Z" fill="white"/>
<path d="M112.032 39.5202L129.847 48.4572C131.635 49.3537 134.438 49.1892 136.108 48.0897L152.755 37.1297C154.425 36.0302 154.33 34.4117 152.543 33.5152L134.728 24.5782C132.94 23.6812 130.137 23.8462 128.467 24.9457L111.82 35.9057C110.15 37.0052 110.245 38.6232 112.032 39.5202Z" fill="#C08B89"/>
<path opacity="0.15" d="M112.032 39.5202L129.847 48.4572C131.635 49.3537 134.438 49.1892 136.108 48.0897L152.755 37.1297C154.425 36.0302 154.33 34.4117 152.543 33.5152L134.728 24.5782C132.94 23.6812 130.137 23.8462 128.467 24.9457L111.82 35.9057C110.15 37.0052 110.245 38.6232 112.032 39.5202Z" fill="white"/>
<path d="M112.032 39.5202L129.847 48.4572C131.635 49.3537 133.179 51.6992 133.296 53.6952L134.464 73.5922C134.581 75.5882 133.227 76.4797 131.44 75.5832L113.624 66.6462C111.837 65.7497 110.293 63.4047 110.176 61.4082L109.008 41.5112C108.891 39.5147 110.245 38.6232 112.032 39.5202Z" fill="#C08B89"/>
<path opacity="0.2" d="M112.032 39.5203L129.847 48.4573C131.634 49.3538 133.178 51.6993 133.295 53.6953L134.463 73.5923C134.58 75.5883 133.226 76.4798 131.439 75.5833L113.624 66.6463C111.836 65.7498 110.292 63.4043 110.175 61.4083L109.007 41.5113C108.89 39.5153 110.244 38.6238 112.032 39.5203Z" fill="black" fill-opacity="0.8"/>
<path d="M184.761 62.2095L184.27 60.674C184.005 59.4335 189.065 62.3555 189.33 63.5955L187.699 67.9845C187.637 68.1275 187.54 68.234 187.426 68.304C187.067 68.5245 185.749 69.268 185.634 69.338C185.273 69.559 184.742 69.4205 184.592 68.951L182.479 61.707C182.349 61.0955 183.515 61.497 184.761 62.2095Z" fill="#C08B89"/>
<path opacity="0.1" d="M184.761 62.2095L184.27 60.674C184.005 59.4335 189.065 62.3555 189.33 63.5955L187.699 67.9845C187.637 68.1275 187.54 68.234 187.426 68.304C187.067 68.5245 185.749 69.268 185.634 69.338C185.273 69.559 184.742 69.4205 184.592 68.951L182.479 61.707C182.349 61.0955 183.515 61.497 184.761 62.2095Z" fill="white"/>
<path d="M178.597 32.2975L197.836 43.396C198.195 43.6035 198.486 44.1075 198.486 44.5225V67.319C198.486 67.7335 198.194 68.235 197.833 68.439L195.93 69.521C195.568 69.725 194.985 69.722 194.625 69.5145L175.386 58.4165C175.027 58.209 174.736 57.705 174.736 57.29V34.4935C174.736 34.079 175.028 33.5775 175.389 33.3735L177.292 32.2915C177.653 32.0875 178.238 32.0905 178.597 32.2975Z" fill="#C08B89"/>
<path opacity="0.1" d="M178.597 32.2975L197.836 43.396C198.195 43.6035 198.486 44.1075 198.486 44.5225V67.319C198.486 67.7335 198.194 68.235 197.833 68.439L195.93 69.521C195.568 69.725 194.985 69.722 194.625 69.5145L175.386 58.4165C175.027 58.209 174.736 57.705 174.736 57.29V34.4935C174.736 34.079 175.028 33.5775 175.389 33.3735L177.292 32.2915C177.653 32.0875 178.238 32.0905 178.597 32.2975Z" fill="white"/>
<path d="M175.386 34.118L194.625 45.2165C194.984 45.424 195.275 45.928 195.275 46.343V69.1395C195.275 69.554 194.985 69.7225 194.625 69.515L187.262 65.268L185.91 69.019C185.65 69.615 184.791 69.5715 184.592 68.9525L182.795 62.691L175.386 58.417C175.027 58.2095 174.736 57.7055 174.736 57.2905V34.4935C174.735 34.079 175.027 33.9105 175.386 34.118Z" fill="#C08B89"/>
<path opacity="0.3" d="M175.386 34.118L194.625 45.2165C194.984 45.424 195.275 45.928 195.275 46.343V69.1395C195.275 69.554 194.985 69.7225 194.625 69.515L187.262 65.268L185.91 69.019C185.65 69.615 184.791 69.5715 184.592 68.9525L182.795 62.691L175.386 58.417C175.027 58.2095 174.736 57.7055 174.736 57.2905V34.4935C174.735 34.079 175.027 33.9105 175.386 34.118Z" fill="white"/>
<path d="M182.023 58.4956C181.96 58.4956 181.895 58.4911 181.831 58.4826C181.35 58.4176 180.936 58.1136 180.73 57.6741L178.43 52.8276C178.094 52.1126 178.4 51.2606 179.115 50.9246C179.83 50.5876 180.681 50.8951 181.018 51.6106L182.378 54.4566L188.95 46.8036C189.465 46.2056 190.369 46.1366 190.968 46.6506C191.567 47.1661 191.636 48.0686 191.122 48.6686L183.109 57.9981C182.834 58.3161 182.437 58.4956 182.023 58.4956Z" fill="white"/>
<path opacity="0.7" d="M174.745 34.3756C174.796 34.0481 175.063 33.9311 175.387 34.1171L194.624 45.2161C194.804 45.3211 194.966 45.4986 195.083 45.7026L198.283 43.8581C198.166 43.6631 198.009 43.4946 197.835 43.3956L178.596 32.2966C178.238 32.0891 177.656 32.0861 177.292 32.2906L175.391 33.3721C175.063 33.5586 174.79 33.9881 174.745 34.3756Z" fill="white"/>
<path d="M62.8901 186.886C62.8901 186.886 60.6734 190.6 63.2716 191.293C65.8697 191.986 67.0916 191.196 69.3939 193.878C71.6961 196.561 74.6451 197.768 76.2736 197.194C77.9021 196.621 82.3762 193.443 78.6649 191.647C74.9537 189.852 71.7423 188.236 71.0017 186.992C70.2612 185.748 70.5787 184.497 70.5787 184.497L62.8901 186.886Z" fill="#C08B89"/>
<path d="M57.5042 195.88C57.5042 195.88 57.4094 199.311 60.5622 200.72C63.7149 202.128 65.9024 203.055 64.0092 204.83C62.116 206.605 60.0406 207.444 57.5726 205.967C55.1048 204.491 53.5427 202.712 52.2173 202.801C50.8919 202.89 47.9709 203.496 47.9829 200.563C47.9949 197.63 47.9766 195.724 47.9766 195.724L57.5042 195.88Z" fill="#C08B89"/>
<path d="M62.3757 150.072C62.3757 150.072 61.5338 160.58 62.0794 170.872C62.6252 181.164 62.3749 186.033 62.3749 186.033C62.3749 186.033 62.9293 188.04 66.2896 188.364C69.6499 188.688 71.0696 186.005 71.0696 186.005C71.0696 186.005 71.4564 160.977 72.1344 153.907C72.8125 146.838 72.7043 142.656 72.7043 142.656L62.3757 150.072Z" fill="url(#paint0_linear_25_2639)"/>
<path d="M46.85 149.723C46.85 149.723 44.9122 170.002 46.2721 181.011C47.632 192.019 47.9768 195.725 47.9768 195.725C47.9768 195.725 48.7305 197.039 53.1006 197.05C57.4705 197.061 58.5828 194.737 58.5828 194.737C58.5828 194.737 56.2395 171.766 58.2733 162.464C60.307 153.162 58.9984 147.541 58.9984 147.541C58.9984 147.541 47.0615 147.269 46.85 149.723Z" fill="url(#paint1_linear_25_2639)"/>
<path d="M102.409 95.6539C102.409 95.6539 95.5884 104.925 91.3376 106.139C87.0914 107.353 76.5349 92.1167 76.5349 92.1167L74.8345 143.375C74.8345 143.375 70.5231 150.5 58.6046 151.769C46.6865 153.038 44.5961 147.255 44.5961 147.255L44.2464 121.573C44.2464 121.573 35.1601 122.044 32.239 120.128C29.3126 118.213 32.1826 101.229 34.5443 91.531C36.9012 81.8326 38.7732 78.5714 43.2481 76.5894C46.5135 75.1434 58.6971 70.9876 66.3441 68.6222C69.1935 67.7356 72.0085 68.769 72.8955 68.6133C73.9869 68.4276 90.5519 95.0597 91.4222 95.4086C92.2926 95.7575 98.3445 89.3297 98.3445 89.3297L102.409 95.6539Z" fill="white"/>
<path d="M48.6217 74.5619C48.6217 74.5619 56.2108 83.1867 59.2392 86.8355C62.2677 90.4843 62.7666 93.0254 62.7666 93.0254C62.7666 93.0254 66.3382 84.6329 66.5057 77.1501C66.6731 69.6673 65.9522 68.8341 65.9522 68.8341C65.9522 68.8341 49.507 74.2476 48.6217 74.5619Z" fill="white"/>
<path opacity="0.4" d="M74.925 76.9515C74.925 76.9515 76.5855 82.6793 76.6322 86.8522C76.6788 91.025 76.5336 92.1149 76.5336 92.1149C76.5336 92.1149 86.6572 105.239 89.6132 105.936C92.5692 106.634 97.3657 101.619 97.3657 101.619C97.3657 101.619 91.6375 104.967 89.3866 104.021C87.1358 103.074 78.2451 92.1537 78.3489 90.8858C78.4527 89.618 76.2832 78.7781 74.925 76.9515Z" fill="#F5F5F5"/>
<path d="M98.5573 89.6643C98.5573 89.6643 97.7633 93.676 100.218 94.4143C102.672 95.1526 105.438 94.7996 106.09 91.7503C106.742 88.701 108.65 83.1022 107.774 82.5116C106.898 81.921 104.38 81.0222 104.38 81.0222C104.38 81.0222 106.515 74.802 105.565 74.366C104.616 73.9301 101.198 85.6184 100.989 85.6882C100.78 85.7581 100.893 82.3696 100.369 81.5576C99.8448 80.7456 98.7721 80.7779 98.7721 80.7779L98.5573 89.6643Z" fill="url(#paint2_linear_25_2639)"/>
<path d="M63.734 51.7597C63.734 51.7597 64.8455 56.5976 64.5132 57.4855C64.1808 58.3734 64.1808 58.3734 64.1808 58.3734C64.1808 58.3734 64.6631 60.2686 64.7779 62.2864C64.8926 64.3044 65.1941 67.9964 64.5664 68.6632C63.9386 69.3299 61.2521 69.9764 61.2521 69.9764L61.2049 71.4005C61.2049 71.4005 61.8084 75.1056 58.3267 75.9951C54.845 76.8845 52.2121 74.053 52.2121 74.053C52.2121 74.053 51.8662 66.265 51.5474 64.9175C51.2287 63.5701 50.5867 57.3643 51.3739 53.7197C52.1608 50.0754 63.734 51.7597 63.734 51.7597Z" fill="url(#paint3_linear_25_2639)"/>
<path d="M64.131 50.7356C64.1558 53.7909 62.8647 54.2204 60.4133 55.0855C57.9619 55.9504 56.1796 54.9011 56.1796 54.9011C56.1796 54.9011 57.9809 57.2008 56.7858 58.5369C55.5906 59.8731 56.4878 63.8687 55.8761 64.0503C55.2643 64.232 54.6979 61.2225 53.3719 61.0259C52.046 60.8294 53.5801 63.881 53.227 65.3926C52.874 66.9043 51.9344 67.7657 50.2713 64.9861C48.6084 62.2066 46.9694 58.6646 46.2422 55.0234C45.5151 51.3823 46.894 49.9847 46.894 49.9847C46.894 49.9847 46.5764 44.0014 55.3062 45.1454C64.0363 46.2891 64.131 50.7356 64.131 50.7356Z" fill="url(#paint4_linear_25_2639)"/>
<path d="M52.1646 73.0537L57.9209 76.0819L54.8588 80.1138L50.0431 74.064L52.1646 73.0537Z" fill="white"/>
<path d="M61.2516 69.9763L60.5839 74.4615L64.0484 75.9622L64.6437 69.2433L61.2516 69.9763Z" fill="white"/>
<path d="M60.5839 74.4614L57.5627 75.8937L58.1603 77.3959L58.4974 77.4107L59.9995 87.7968L62.7661 93.0253L64.2187 89.0289L61.6837 75.859L62.069 75.8759L60.5839 74.4614Z" fill="url(#paint5_linear_25_2639)"/>
<path d="M62.7663 93.0254C62.7663 93.0254 63.5896 124.216 63.5944 134.007C63.5991 143.798 63.0318 150.964 63.0318 150.964" stroke="#F5F5F5" stroke-width="0.6894" stroke-miterlimit="10"/>
<path d="M53.8223 132.145L47.6221 135.9L48.274 137.636L54.5743 133.764L53.8223 132.145Z" fill="white"/>
<path d="M75.2522 130.776L75.1864 132.761L71.1812 130.36L72.084 128.85L75.2522 130.776Z" fill="white"/>
<path d="M67.5987 85.5801L74.113 82.9948L74.018 85.8597L67.5036 88.4449L67.5987 85.5801Z" fill="url(#paint6_linear_25_2639)"/>
<path d="M61.252 69.9762C61.252 69.9762 58.2941 69.3725 57.0047 68.2479C55.7153 67.1233 55.525 66.3754 55.525 66.3754C55.525 66.3754 56.2603 68.6723 57.7168 69.8222C59.1733 70.9721 59.5919 74.9319 59.5919 74.9319L60.5842 74.4614L61.0959 74.6831L61.252 69.9762Z" fill="#FFE3D6"/>
<path d="M53.9717 99.0819C53.9466 98.9534 51.4592 86.1409 49.832 78.6932C48.1082 70.8027 51.7779 68.7653 51.9172 68.6888L51.9179 69.8456L51.9646 69.4254L51.9876 69.7988C51.9606 69.8143 49.2561 71.4878 50.7712 78.4239C52.4018 85.8857 54.892 98.7124 54.9166 98.841L53.9717 99.0819Z" fill="#F5F5F5"/>
<path d="M71.3682 121.254L60.019 92.5764C59.7222 91.8268 59.1038 91.3109 58.3901 91.2178L45.4699 89.5326C44.7838 89.4431 44.2746 90.2449 44.5598 90.9656L55.8996 119.619C56.1448 120.239 56.6561 120.665 57.2461 120.742L70.588 122.482C71.176 122.559 71.6126 121.872 71.3682 121.254Z" fill="#C08B89"/>
<path d="M71.5696 96.2012C71.5646 96.1517 71.0634 91.1468 70.4126 83.1641C69.5353 72.4103 64.3932 69.1858 64.3413 69.1548L64.7889 68.1705C65.0195 68.3074 70.4468 71.6616 71.3766 83.0608C72.0264 91.0318 72.5265 96.0242 72.5315 96.0738L71.5696 96.2012Z" fill="#F5F5F5"/>
<path d="M71.1372 121.709L59.788 93.0315C59.4913 92.2818 58.8728 91.766 58.1592 91.6729L45.2389 89.9877C44.5529 89.8982 44.0436 90.7 44.3288 91.4206L55.6686 120.074C55.9138 120.694 56.4251 121.12 57.0151 121.197L70.357 122.938C70.9451 123.014 71.3816 122.327 71.1372 121.709Z" fill="#C08B89"/>
<path d="M56.3029 110.214C56.3029 110.214 57.2288 111.638 57.6422 113.708C58.0556 115.778 58.2966 116.815 58.2966 116.815C58.2966 116.815 66.3638 116.492 67.2058 113.946C68.0477 111.4 68.686 106.693 67.464 106.166C66.2419 105.639 63.6856 107.974 62.7916 107.935C61.8978 107.896 62.0162 106.402 63.5341 106.31C65.0521 106.219 64.958 104.906 64.958 104.906C64.958 104.906 62.7875 103.91 61.0083 105.648C59.2292 107.385 56.3029 110.214 56.3029 110.214Z" fill="url(#paint7_linear_25_2639)"/>
<path d="M46.9525 110.109L56.3036 110.214C56.3036 110.214 57.1917 112.806 57.8652 114.804C58.5387 116.802 58.4373 117.072 58.4373 117.072L55.729 118.49L48.9321 120.232L46.9525 110.109Z" fill="#F5F5F5"/>
<path opacity="0.4" d="M42.1523 84.9259C42.1523 84.9259 43.5962 91.4117 43.1453 95.7043C42.6945 99.9969 42.0266 109.168 41.2998 110.621C40.573 112.074 39.2974 115.2 39.2974 115.2C39.2974 115.2 41.8449 110.928 43.451 110.856C45.0572 110.785 56.3029 110.214 56.3029 110.214C56.3029 110.214 43.5454 109.871 43.5782 108.882C43.6109 107.894 44.8119 97.1712 43.9715 92.7517C43.1312 88.3322 42.6428 85.018 42.1523 84.9259Z" fill="#F5F5F5"/>
<path opacity="0.4" d="M55.7287 118.49C54.9036 118.454 44.3279 121.558 44.3279 121.558L44.4548 146.375L45.5638 147.674C45.5638 147.674 45.7313 123.026 46.728 122.043C47.7245 121.061 55.7287 118.49 55.7287 118.49Z" fill="#F5F5F5"/>
<path d="M74.9146 96.2191C75.1893 97.9756 74.1915 99.9727 72.6856 100.68C71.1798 101.387 69.7364 100.537 69.4617 98.7803C69.187 97.0238 70.1848 95.0267 71.6907 94.3194C73.1965 93.6121 74.6399 94.4626 74.9146 96.2191Z" fill="url(#paint8_linear_25_2639)"/>
<path d="M75.2538 96.4181C75.5286 98.1745 74.5307 100.172 73.0249 100.879C71.519 101.586 70.0756 100.736 69.8009 98.9793C69.5262 97.2228 70.5241 95.2256 72.0299 94.5183C73.5357 93.8111 74.9791 94.6617 75.2538 96.4181Z" fill="url(#paint9_linear_25_2639)"/>
<path d="M74.1132 96.9544C74.2729 97.9762 73.692 99.138 72.8158 99.5495C71.9395 99.961 71.0998 99.4661 70.9402 98.4443C70.7805 97.4225 71.3614 96.2606 72.2376 95.8492C73.1139 95.4378 73.9536 95.9327 74.1132 96.9544Z" fill="#01BCA7"/>
<defs>
<linearGradient id="paint0_linear_25_2639" x1="63.314" y1="165.245" x2="75.3809" y2="165.645" gradientUnits="userSpaceOnUse">
<stop stop-color="#1C4566"/>
<stop offset="1" stop-color="#282828"/>
</linearGradient>
<linearGradient id="paint1_linear_25_2639" x1="45.8722" y1="171.741" x2="58.7692" y2="172.29" gradientUnits="userSpaceOnUse">
<stop stop-color="#1C4566"/>
<stop offset="1" stop-color="#282828"/>
</linearGradient>
<linearGradient id="paint2_linear_25_2639" x1="98.6546" y1="84.3223" x2="107.957" y2="84.6309" gradientUnits="userSpaceOnUse">
<stop stop-color="#FFC0C0"/>
<stop offset="1" stop-color="#FFCACA"/>
</linearGradient>
<linearGradient id="paint3_linear_25_2639" x1="50.8026" y1="63.4605" x2="65.0375" y2="63.9328" gradientUnits="userSpaceOnUse">
<stop stop-color="#FFC0C0"/>
<stop offset="1" stop-color="#FFCACA"/>
</linearGradient>
<linearGradient id="paint4_linear_25_2639" x1="45.9409" y1="55.601" x2="63.9583" y2="56.1988" gradientUnits="userSpaceOnUse">
<stop stop-color="#1C4566"/>
<stop offset="1" stop-color="#282828"/>
</linearGradient>
<linearGradient id="paint5_linear_25_2639" x1="60.6014" y1="91.1803" x2="61.3042" y2="75.0546" gradientUnits="userSpaceOnUse">
<stop stop-color="#1C4566"/>
<stop offset="1" stop-color="#282828"/>
</linearGradient>
<linearGradient id="paint6_linear_25_2639" x1="67.5037" y1="85.7199" x2="74.113" y2="85.7199" gradientUnits="userSpaceOnUse">
<stop stop-color="#1C4566"/>
<stop offset="1" stop-color="#282828"/>
</linearGradient>
<linearGradient id="paint7_linear_25_2639" x1="56.2928" y1="110.516" x2="68.0661" y2="110.907" gradientUnits="userSpaceOnUse">
<stop stop-color="#FFC0C0"/>
<stop offset="1" stop-color="#FFCACA"/>
</linearGradient>
<linearGradient id="paint8_linear_25_2639" x1="69.2335" y1="97.3697" x2="74.9512" y2="96.4448" gradientUnits="userSpaceOnUse">
<stop stop-color="#1C4566"/>
<stop offset="1" stop-color="#282828"/>
</linearGradient>
<linearGradient id="paint9_linear_25_2639" x1="73.9025" y1="97.3216" x2="67.5625" y2="97.4327" gradientUnits="userSpaceOnUse">
<stop stop-color="#1C4566"/>
<stop offset="1" stop-color="#282828"/>
</linearGradient>
</defs>
</svg>
