<svg width="250" height="250" viewBox="0 0 250 250" fill="none" xmlns="http://www.w3.org/2000/svg">
<path d="M228.585 44.6125H172.885V114.113H228.585V44.6125Z" fill="black" fill-opacity="0.8"/>
<path d="M226.197 47.067H175.273V111.703H226.197V47.067Z" fill="white"/>
<path d="M194.526 64.7215C190.339 64.2825 187.221 69.5225 184.53 77.721C181.839 85.9195 182.108 90.5535 182.467 91.899C182.826 93.2445 184.291 96.0845 187.191 96.4135C190.091 96.7425 192.244 94.53 193.799 93.274C195.353 92.0185 198.523 91.45 199.18 88.58C199.838 85.71 198.702 76.0525 198.493 74.3185C198.284 72.585 198.234 65.1105 194.526 64.7215Z" fill="#C08B89"/>
<path d="M197.845 89.3075C197.088 91.0225 194.098 91.1815 193.181 92.2185C192.265 93.254 189.634 95.407 187.601 95.5265C185.568 95.646 184.052 93.3345 183.535 92.1385C183.157 91.2665 182.991 88.3405 183.779 83.945C184.071 82.3115 184.495 80.4745 185.089 78.4655C185.578 76.8115 186.114 75.3025 186.674 73.9475C188.622 69.2305 190.858 66.394 192.424 65.868C197.646 64.1145 196.968 71.8475 197.527 75.1565C197.711 76.251 197.892 77.9835 198.023 79.8735C198.097 80.9425 198.156 82.062 198.191 83.1455C198.279 85.934 198.211 88.481 197.845 89.3075Z" fill="white"/>
<path d="M187.624 75.068C187.596 74.763 187.346 74.5935 187.055 74.714C186.747 74.841 186.589 75.235 186.517 75.539C186.453 75.8075 186.497 76.2515 186.87 76.208C187.101 76.181 187.247 75.942 187.357 75.7625C187.484 75.553 187.647 75.323 187.624 75.068Z" fill="#FFE3D6"/>
<path d="M188.059 72.3315C187.749 72.501 187.636 72.8525 187.54 73.172C187.462 73.43 187.343 73.9015 187.737 73.954C188.049 73.9955 188.206 73.645 188.306 73.413C188.411 73.17 188.532 72.9 188.544 72.633C188.555 72.3845 188.277 72.213 188.059 72.3315Z" fill="#FFE3D6"/>
<path d="M188.905 74.3095C188.87 74.1345 188.658 74.0465 188.505 74.13C188.16 74.3185 187.887 74.837 188.019 75.2335C188.076 75.4045 188.277 75.542 188.456 75.4295C188.806 75.208 188.985 74.7045 188.905 74.3095Z" fill="#FFE3D6"/>
<path d="M190.216 71.377C190.247 71.117 189.954 70.871 189.716 71.051C189.387 71.3 189.039 71.8675 189.198 72.29C189.246 72.419 189.389 72.487 189.52 72.4425C189.901 72.3135 190.172 71.754 190.216 71.377Z" fill="#FFE3D6"/>
<path d="M188.893 70.39C188.701 70.487 188.564 70.66 188.471 70.8505C188.374 71.05 188.336 71.2235 188.395 71.44C188.425 71.548 188.533 71.589 188.632 71.546C188.982 71.3935 189.226 71.007 189.289 70.6355C189.325 70.4235 189.055 70.3085 188.893 70.39Z" fill="#FFE3D6"/>
<path d="M190.192 68.9155C189.861 69.076 189.496 69.489 189.532 69.8815C189.551 70.091 189.756 70.2825 189.972 70.155C190.282 69.972 190.479 69.5565 190.554 69.215C190.601 68.9995 190.401 68.814 190.192 68.9155Z" fill="#FFE3D6"/>
<path d="M191.397 67.701C191.375 67.5615 191.21 67.474 191.08 67.506C190.9 67.551 190.816 67.6955 190.718 67.8395C190.636 67.9615 190.556 68.1195 190.598 68.271C190.622 68.3605 190.691 68.408 190.779 68.42C190.947 68.4425 191.102 68.3105 191.201 68.191C191.248 68.135 191.3 68.079 191.339 68.0175C191.405 67.9185 191.415 67.8145 191.397 67.701Z" fill="#FFE3D6"/>
<path d="M191.204 70.1825C191.183 70.037 191.008 69.947 190.875 69.98C190.664 70.0315 190.566 70.201 190.48 70.3845C190.401 70.555 190.354 70.8805 190.602 70.9395C190.807 70.9885 190.952 70.8355 191.052 70.6765C191.087 70.622 191.126 70.5675 191.157 70.511C191.215 70.4065 191.22 70.2975 191.204 70.1825Z" fill="#FFE3D6"/>
<path d="M190.124 73.119C190.107 72.899 189.893 72.7105 189.671 72.837C189.377 73.0045 189.148 73.491 189.273 73.826C189.329 73.977 189.493 74.095 189.656 73.9985C189.797 73.9145 189.903 73.7765 189.974 73.6295C190.054 73.463 190.139 73.31 190.124 73.119Z" fill="#FFE3D6"/>
<path d="M187.527 76.3445C187.326 76.536 187.224 76.8445 187.212 77.1185C187.205 77.2885 187.268 77.7575 187.556 77.652C187.751 77.5805 187.829 77.4035 187.911 77.2225C188 77.026 188.092 76.829 188.117 76.613C188.153 76.305 187.737 76.1455 187.527 76.3445Z" fill="#FFE3D6"/>
<path d="M186.166 77.1645C185.883 77.392 185.808 77.8315 185.873 78.1735C185.916 78.3995 186.223 78.427 186.341 78.2515C186.504 78.0115 186.672 77.692 186.68 77.3995C186.689 77.1205 186.368 77.002 186.166 77.1645Z" fill="#FFE3D6"/>
<path d="M186.998 79.528C186.961 79.3445 186.71 79.2115 186.544 79.3245C186.419 79.41 186.318 79.4915 186.262 79.637C186.218 79.7505 186.19 79.8845 186.192 80.006C186.196 80.261 186.368 80.581 186.666 80.4615C186.821 80.399 186.91 80.2045 186.956 80.0555C187.013 79.8735 187.035 79.717 186.998 79.528Z" fill="#FFE3D6"/>
<path d="M185.546 81.0995C185.54 80.8665 185.265 80.7175 185.082 80.888C184.914 81.045 184.763 81.387 184.846 81.617C184.915 81.8095 185.14 81.911 185.309 81.757C185.461 81.617 185.552 81.3035 185.546 81.0995Z" fill="#FFE3D6"/>
<path d="M185.816 82.2775C185.707 82.2485 185.553 82.2815 185.499 82.3935C185.462 82.4715 185.44 82.538 185.455 82.626C185.464 82.684 185.494 82.739 185.536 82.7805C185.605 82.85 185.707 82.8935 185.802 82.8455C185.83 82.831 185.853 82.82 185.879 82.801C185.965 82.7395 185.996 82.653 186.009 82.5515C186.025 82.437 185.924 82.3065 185.816 82.2775Z" fill="#FFE3D6"/>
<path d="M192.514 66.5945C192.405 66.5655 192.251 66.5985 192.197 66.7105C192.16 66.7885 192.138 66.855 192.153 66.943C192.162 67.001 192.192 67.056 192.233 67.098C192.303 67.1675 192.405 67.211 192.5 67.1625C192.528 67.1485 192.551 67.137 192.578 67.118C192.663 67.0565 192.694 66.97 192.707 66.8685C192.722 66.754 192.622 66.6235 192.514 66.5945Z" fill="#FFE3D6"/>
<path d="M206.944 64.7215C211.131 64.2825 214.249 69.5225 216.94 77.721C219.631 85.9195 219.362 90.5535 219.003 91.899C218.644 93.2445 217.179 96.0845 214.279 96.4135C211.379 96.7425 209.226 94.53 207.671 93.274C206.117 92.0185 202.947 91.45 202.29 88.58C201.632 85.71 202.768 76.0525 202.977 74.3185C203.187 72.585 203.237 65.1105 206.944 64.7215Z" fill="#C08B89"/>
<path d="M203.626 89.3075C204.383 91.0225 207.373 91.1815 208.29 92.2185C209.206 93.254 211.837 95.407 213.87 95.5265C215.903 95.646 217.418 93.3345 217.936 92.1385C218.314 91.2665 218.479 88.3405 217.691 83.945C217.399 82.3115 216.975 80.4745 216.381 78.4655C215.892 76.8115 215.356 75.3025 214.796 73.9475C212.848 69.2305 210.612 66.394 209.046 65.868C203.824 64.1145 204.502 71.8475 203.943 75.1565C203.759 76.251 203.579 77.9835 203.447 79.8735C203.373 80.9425 203.314 82.062 203.279 83.1455C203.191 85.934 203.26 88.481 203.626 89.3075Z" fill="white"/>
<path d="M204.882 76.694C204.774 76.582 204.584 76.5584 204.465 76.6719C204.169 76.9544 203.983 78.064 204.605 78.097C205.23 78.13 205.178 77 204.882 76.694Z" fill="#FFE3D6"/>
<path d="M205.994 77.989C205.917 77.909 205.767 77.8825 205.683 77.9725C205.413 78.2605 205.333 78.7715 205.497 79.1305C205.644 79.4555 206.08 79.3575 206.201 79.076C206.341 78.752 206.239 78.24 205.994 77.989Z" fill="#FFE3D6"/>
<path d="M204.475 79.2735C204.043 79.447 204.023 80.2305 204.217 80.57C204.391 80.874 204.828 80.8395 204.954 80.513C205.066 80.2195 205.041 79.046 204.475 79.2735Z" fill="#FFE3D6"/>
<path d="M205.823 81.278C205.688 81.059 205.411 81.0445 205.254 81.248C205.091 81.458 205.059 81.7975 205.175 82.033C205.298 82.282 205.669 82.302 205.818 82.067C205.959 81.8445 205.962 81.5045 205.823 81.278Z" fill="#FFE3D6"/>
<path d="M204.502 82.6885C204.404 82.556 204.169 82.5535 204.056 82.665C203.843 82.877 203.82 83.324 204.098 83.497C204.213 83.569 204.385 83.568 204.486 83.4675C204.693 83.2645 204.665 82.909 204.502 82.6885Z" fill="#FFE3D6"/>
<path d="M205.01 84.2775C205.008 84.2755 205.006 84.2735 205.003 84.272C204.937 84.218 204.807 84.211 204.735 84.258C204.733 84.2595 204.73 84.2615 204.728 84.263C204.622 84.3315 204.553 84.441 204.582 84.5725C204.608 84.6885 204.719 84.7915 204.841 84.7925C204.955 84.7935 205.056 84.7365 205.106 84.634C205.172 84.499 205.121 84.367 205.01 84.2775Z" fill="#FFE3D6"/>
<path d="M206.169 74.967C206.088 74.8455 205.905 74.7695 205.783 74.8965C205.447 75.2465 205.434 75.7775 205.485 76.236C205.508 76.444 205.745 76.584 205.936 76.5655C206.154 76.5445 206.301 76.383 206.327 76.167C206.372 75.785 206.392 75.2985 206.169 74.967Z" fill="#FFE3D6"/>
<path d="M205.177 73.666C205.107 73.562 204.996 73.5125 204.874 73.569C204.548 73.7205 204.432 74.0995 204.382 74.427C204.336 74.728 204.324 75.235 204.699 75.335C205.1 75.4415 205.232 74.972 205.273 74.6735C205.317 74.356 205.368 73.9455 205.177 73.666Z" fill="#FFE3D6"/>
<path d="M206.48 73.0895C206.478 72.886 206.428 72.699 206.292 72.543C206.187 72.423 205.987 72.412 205.87 72.5205C205.719 72.661 205.65 72.842 205.626 73.044C205.604 73.232 205.579 73.438 205.634 73.6215C205.752 74.0095 206.252 74.0365 206.41 73.6625C206.485 73.4865 206.482 73.279 206.48 73.0895Z" fill="#FFE3D6"/>
<path d="M205.561 70.865C205.506 70.7055 205.328 70.6245 205.187 70.745C204.895 70.994 204.759 71.392 204.914 71.757C205.016 71.998 205.371 71.9915 205.504 71.7885C205.683 71.5115 205.664 71.162 205.561 70.865Z" fill="#FFE3D6"/>
<path d="M206.981 80.25C206.977 80.202 206.969 80.155 206.955 80.1085C206.944 80.0565 206.919 80.0115 206.887 79.9705C206.885 79.9675 206.883 79.965 206.88 79.9605C206.879 79.9595 206.879 79.9585 206.878 79.957C206.877 79.9555 206.877 79.954 206.875 79.953C206.876 79.9545 206.877 79.955 206.878 79.9565C206.801 79.843 206.651 79.7635 206.517 79.844C206.396 79.9165 206.289 80.02 206.249 80.161C206.202 80.3245 206.217 80.4895 206.277 80.646C206.327 80.779 206.501 80.8485 206.629 80.838C206.773 80.8265 206.896 80.7315 206.944 80.5945C206.981 80.4885 206.99 80.362 206.981 80.25Z" fill="#FFE3D6"/>
<path d="M207.462 77.0405C207.407 76.8535 207.264 76.558 207.017 76.6675C206.61 76.8485 206.571 77.584 206.738 77.9285C206.894 78.25 207.316 78.158 207.443 77.874C207.546 77.646 207.532 77.2755 207.462 77.0405Z" fill="#FFE3D6"/>
<path d="M207.393 74.458C207.346 74.2815 207.156 74.088 206.962 74.1725C206.905 74.1975 206.856 74.2255 206.814 74.272C206.736 74.3585 206.71 74.43 206.693 74.544C206.671 74.6915 206.692 74.8125 206.788 74.9345C206.895 75.0725 207.147 75.0855 207.268 74.96C207.348 74.8775 207.399 74.788 207.405 74.6685C207.408 74.61 207.407 74.51 207.393 74.458Z" fill="#FFE3D6"/>
<path d="M207.182 70.717C207.163 70.519 207.014 70.135 206.754 70.1795C206.496 70.224 206.342 70.5405 206.307 70.767C206.263 71.061 206.285 71.3665 206.539 71.5565C206.622 71.619 206.776 71.6335 206.865 71.574C207.144 71.387 207.212 71.038 207.182 70.717Z" fill="#FFE3D6"/>
<path d="M206.298 68.5169C206.237 68.4299 206.107 68.4284 206.02 68.4659C205.706 68.6004 205.569 69.0234 205.59 69.3369C205.605 69.5439 205.709 69.7264 205.93 69.7649C206.115 69.7969 206.358 69.6964 206.402 69.4909C206.472 69.1654 206.5 68.8019 206.298 68.5169Z" fill="#FFE3D6"/>
<path d="M206.551 67.0445C206.509 66.918 206.396 66.788 206.246 66.8225C206.169 66.84 206.109 66.8735 206.053 66.9285C205.956 67.0225 205.927 67.113 205.909 67.242C205.888 67.402 206.027 67.548 206.174 67.5755C206.339 67.6065 206.479 67.513 206.542 67.362C206.586 67.2575 206.586 67.1505 206.551 67.0445Z" fill="#FFE3D6"/>
<path d="M205.519 79.013C205.292 79.0655 204.684 78.811 204.017 78.4045C203.923 78.347 203.829 78.2875 203.735 78.225C203.348 77.9725 202.957 77.677 202.619 77.369C202.603 77.3545 202.586 77.339 202.57 77.3235C202.457 77.216 202.338 77.088 202.216 76.9455C201.974 76.6635 201.718 76.3235 201.471 75.9745C201.416 75.8965 201.362 75.819 201.308 75.7425C201.165 75.5345 201.024 75.3265 200.892 75.128C200.817 75.0145 200.743 74.903 200.673 74.798C200.288 74.2145 200.007 73.7815 199.958 73.802C199.924 73.8165 199.761 74.0235 199.536 74.309C199.449 74.418 199.353 74.54 199.252 74.6655C199.192 74.7395 199.13 74.815 199.066 74.8905C198.966 75.0125 198.862 75.1345 198.758 75.253C198.624 75.405 198.489 75.5495 198.36 75.675C198.172 75.858 197.996 76.0025 197.851 76.071C197.782 76.1045 197.72 76.12 197.667 76.114C197.109 76.054 196.461 74.8585 196.49 74.32C196.495 74.2375 196.548 74.126 196.635 73.996C196.718 73.869 196.834 73.7235 196.97 73.568C197.12 73.3945 197.294 73.208 197.473 73.019C197.547 72.9415 197.623 72.8625 197.698 72.7835C197.805 72.671 197.911 72.56 198.014 72.451C198.074 72.3865 198.133 72.322 198.191 72.2595C198.481 71.94 198.709 71.6625 198.762 71.4895C198.767 71.475 198.766 71.42 198.759 71.3305C198.753 71.255 198.744 71.1535 198.731 71.0305C198.709 70.802 198.675 70.4995 198.637 70.1505C198.625 70.0405 198.612 69.9245 198.598 69.805C198.564 69.506 198.528 69.1845 198.491 68.8505C198.478 68.725 198.463 68.597 198.45 68.468C198.404 68.0445 198.359 67.613 198.319 67.2005C198.31 67.105 198.301 67.0105 198.292 66.917C198.27 66.66 198.248 66.4135 198.231 66.184C198.215 65.9625 198.201 65.758 198.192 65.574C198.173 65.1245 198.177 64.804 198.225 64.6985C198.363 64.3925 199.72 64.0935 200.897 63.9545C201.778 63.8495 202.559 63.835 202.649 63.976C202.693 64.0455 202.701 64.41 202.687 64.9445C202.682 65.107 202.676 65.2855 202.668 65.4755V65.4765C202.655 65.809 202.636 66.1775 202.614 66.566C202.607 66.6965 202.6 66.829 202.592 66.963C202.569 67.3375 202.545 67.7235 202.521 68.104C202.508 68.287 202.496 68.469 202.484 68.648C202.464 68.9575 202.444 69.259 202.424 69.5425C202.411 69.7425 202.399 69.9335 202.387 70.112C202.373 70.331 202.36 70.532 202.349 70.7075C202.339 70.8795 202.33 71.028 202.325 71.1475C202.315 71.3485 202.313 71.4705 202.32 71.4895C202.525 72.0395 202.833 72.5505 203.193 73.0205C203.292 73.1495 203.395 73.2765 203.501 73.3995C203.638 73.56 203.78 73.714 203.923 73.8625C204.018 73.9595 204.113 74.055 204.209 74.147C204.396 74.3275 204.584 74.5 204.77 74.6625C204.934 74.807 205.094 74.9435 205.251 75.075C205.443 75.2355 205.628 75.386 205.8 75.527C205.92 75.624 206.033 75.717 206.139 75.8055C206.243 75.8915 206.338 75.973 206.425 76.0495C206.667 76.267 206.837 76.4475 206.895 76.5925C207.193 77.339 205.908 78.9235 205.519 79.013Z" fill="#C08B89"/>
<path d="M202.687 64.943C202.682 65.1055 202.676 65.284 202.668 65.474V65.475C201.922 65.645 201.141 65.737 200.405 65.847C199.831 65.933 199.257 66.024 198.683 66.1125C198.533 66.1355 198.382 66.1625 198.231 66.182C198.215 65.9605 198.201 65.756 198.192 65.572C198.374 65.524 198.56 65.4885 198.741 65.45C199.269 65.3375 199.804 65.248 200.339 65.169C201.094 65.058 201.899 64.949 202.687 64.943Z" fill="black" fill-opacity="0.8"/>
<path d="M202.613 66.5645C202.606 66.695 202.599 66.8275 202.591 66.9615C202.038 67.013 201.48 67.037 200.931 67.074C200.07 67.1315 199.187 67.2235 198.318 67.1985C198.309 67.103 198.3 67.0085 198.292 66.915C199.083 66.7845 199.899 66.7525 200.694 66.6975C201.328 66.653 201.971 66.5885 202.613 66.5645Z" fill="black" fill-opacity="0.8"/>
<path d="M202.521 68.1025C202.508 68.2855 202.496 68.4675 202.484 68.6465C201.216 68.7925 199.462 68.9145 198.491 68.8485C198.478 68.723 198.463 68.595 198.45 68.466C199.412 68.2535 201.231 68.1205 202.521 68.1025Z" fill="black" fill-opacity="0.8"/>
<path d="M202.423 69.5415C202.41 69.7415 202.399 69.9325 202.387 70.111C201.112 70.208 199.489 70.2295 198.636 70.1495C198.624 70.0395 198.611 69.9235 198.598 69.804C199.444 69.6515 201.121 69.5415 202.423 69.5415Z" fill="black" fill-opacity="0.8"/>
<path d="M202.348 70.706C202.339 70.878 202.329 71.0265 202.324 71.146C201.849 71.189 201.372 71.214 200.901 71.2455C200.187 71.292 199.472 71.357 198.758 71.329C198.752 71.2535 198.744 71.152 198.731 71.029C199.368 70.9235 200.015 70.89 200.663 70.84C201.221 70.797 201.785 70.7385 202.348 70.706Z" fill="black" fill-opacity="0.8"/>
<path d="M198.359 75.674C198.171 75.857 197.995 76.0015 197.85 76.07C197.572 75.747 197.336 75.3705 197.137 75.044C196.934 74.709 196.763 74.36 196.634 73.995C196.717 73.868 196.833 73.7225 196.969 73.567C197.186 73.965 197.403 74.3635 197.646 74.7475C197.852 75.0715 198.115 75.368 198.359 75.674Z" fill="black" fill-opacity="0.8"/>
<path d="M199.066 74.8895C198.965 75.0115 198.861 75.1335 198.757 75.252C198.312 74.5895 197.813 73.7105 197.473 73.018C197.547 72.9405 197.622 72.8615 197.698 72.7825C198.089 73.396 198.632 74.216 199.066 74.8895Z" fill="black" fill-opacity="0.8"/>
<path d="M199.536 74.3085C199.448 74.4175 199.353 74.5395 199.251 74.665C199.063 74.3695 198.894 74.0565 198.726 73.7705C198.47 73.339 198.237 72.8975 198.013 72.45C198.073 72.3855 198.133 72.321 198.19 72.2585C198.47 72.7035 198.755 73.1445 199.04 73.586C199.194 73.8275 199.368 74.0655 199.536 74.3085Z" fill="black" fill-opacity="0.8"/>
<path d="M203.501 73.398C202.781 73.9995 201.589 74.7985 200.892 75.1275C200.816 75.014 200.742 74.9025 200.673 74.7975C201.25 74.3285 202.4 73.513 203.193 73.019C203.292 73.148 203.395 73.275 203.501 73.398Z" fill="black" fill-opacity="0.8"/>
<path d="M204.209 74.1455C203.465 74.735 202.281 75.5235 201.471 75.974C201.416 75.896 201.362 75.8185 201.308 75.742C202.032 75.2135 203.148 74.4075 203.924 73.861C204.018 73.958 204.114 74.0535 204.209 74.1455Z" fill="black" fill-opacity="0.8"/>
<path d="M205.251 75.0735C204.516 75.8535 203.354 76.835 202.569 77.323C202.457 77.2155 202.337 77.0875 202.215 76.945C202.839 76.303 203.94 75.321 204.77 74.661C204.934 74.8055 205.094 74.942 205.251 75.0735Z" fill="black" fill-opacity="0.8"/>
<path d="M206.424 76.0485C205.761 76.936 204.917 77.773 204.016 78.4045C203.923 78.347 203.829 78.2875 203.734 78.225C204.164 77.798 204.612 77.394 205.04 76.9645C205.416 76.588 205.774 76.192 206.139 75.8045C206.242 75.8905 206.338 75.972 206.424 76.0485Z" fill="black" fill-opacity="0.8"/>
<path d="M213.149 50.0985H188.321V51.984H213.149V50.0985Z" fill="#C08B89"/>
<path d="M207.749 53.4285H193.721V55.314H207.749V53.4285Z" fill="#C08B89"/>
<path d="M125 229.897C182.896 229.897 229.829 225.694 229.829 220.511C229.829 215.327 182.896 211.125 125 211.125C67.1043 211.125 20.1705 215.327 20.1705 220.511C20.1705 225.694 67.1043 229.897 125 229.897Z" fill="#EBEBEB"/>
<path d="M18.6629 189.455H115.401L115.401 34.5996H18.6629L18.6629 189.455Z" fill="#C08B89"/>
<path d="M23.5914 77.6531L110.472 77.6531V40.1576L23.5914 40.1576V77.6531Z" fill="#FFE3D6"/>
<path d="M23.5914 121.901L110.472 121.901V84.4053H23.5914V121.901Z" fill="#FFE3D6"/>
<path d="M23.5914 166.148H110.472V128.652H23.5914V166.148Z" fill="#FFE3D6"/>
<path d="M25.2583 77.6531H33.2763V64.3056H25.2583V77.6531Z" fill="white"/>
<path d="M24.1583 64.3056H34.3763V62.0351H24.1583V64.3056Z" fill="#01BCA7"/>
<path d="M26.2873 75.4749H32.2478V67.2439H26.2873V75.4749Z" fill="black" fill-opacity="0.8"/>
<path d="M25.2583 61.5126H33.2763V48.1651H25.2583V61.5126Z" fill="white"/>
<path d="M24.1582 48.165H34.3762V45.8945H24.1582V48.165Z" fill="#01BCA7"/>
<path d="M26.2873 59.3342H32.2478V51.1032H26.2873V59.3342Z" fill="black" fill-opacity="0.8"/>
<path d="M36.1326 77.6531H44.1506V64.3056H36.1326V77.6531Z" fill="white"/>
<path d="M35.032 64.3056H45.25V62.0351H35.032V64.3056Z" fill="#01BCA7"/>
<path d="M37.1611 75.4749H43.1216V67.2439H37.1611V75.4749Z" fill="black" fill-opacity="0.8"/>
<path d="M36.1326 61.5126H44.1506V48.1651H36.1326V61.5126Z" fill="white"/>
<path d="M35.032 48.165H45.25V45.8945H35.032V48.165Z" fill="#01BCA7"/>
<path d="M37.1611 59.3342H43.1216V51.1032H37.1611V59.3342Z" fill="black" fill-opacity="0.8"/>
<path d="M47.0063 77.6531H55.0243V64.3056H47.0063V77.6531Z" fill="white"/>
<path d="M45.9062 64.3056H56.1243V62.0351H45.9062V64.3056Z" fill="#01BCA7"/>
<path d="M48.0348 75.4749H53.9953V67.2439H48.0348V75.4749Z" fill="black" fill-opacity="0.8"/>
<path d="M47.0063 61.5126H55.0243V48.1651H47.0063V61.5126Z" fill="white"/>
<path d="M45.9062 48.165H56.1243V45.8945H45.9062V48.165Z" fill="#01BCA7"/>
<path d="M48.0348 59.3342H53.9953V51.1032H48.0348V59.3342Z" fill="black" fill-opacity="0.8"/>
<path d="M57.8801 77.6531H65.8981V64.3056H57.8801V77.6531Z" fill="white"/>
<path d="M56.78 64.3056H66.998V62.0351H56.78V64.3056Z" fill="#01BCA7"/>
<path d="M58.9086 75.4749H64.8691V67.2439H58.9086V75.4749Z" fill="black" fill-opacity="0.8"/>
<path d="M57.8801 61.5126H65.8981V48.1651H57.8801V61.5126Z" fill="white"/>
<path d="M56.78 48.165H66.998V45.8945H56.78V48.165Z" fill="#01BCA7"/>
<path d="M58.9086 59.3342H64.8691V51.1032H58.9086V59.3342Z" fill="black" fill-opacity="0.8"/>
<path d="M99.4895 121.901H108.739V112.015C108.739 110.549 107.551 109.361 106.085 109.361H102.144C100.678 109.361 99.4895 110.549 99.4895 112.015V121.901Z" fill="white"/>
<path d="M101.434 109.397H106.795V108.119H101.434V109.397Z" fill="white"/>
<path d="M100.069 108.119H108.16V106.753H100.069V108.119Z" fill="#01BCA7"/>
<path d="M100.972 119.168H108.739V112.399H100.972V119.168Z" fill="#C08B89"/>
<path d="M89.4455 121.901H98.6945V112.015C98.6945 110.549 97.5065 109.361 96.0405 109.361H92.0995C90.6335 109.361 89.4455 110.549 89.4455 112.015V121.901Z" fill="white"/>
<path d="M91.3892 109.397H96.7502V108.119H91.3892V109.397Z" fill="white"/>
<path d="M90.0242 108.119H98.1152V106.753H90.0242V108.119Z" fill="#01BCA7"/>
<path d="M90.9277 119.168H98.6942V112.399H90.9277V119.168Z" fill="#C08B89"/>
<path d="M79.401 121.901H88.65V112.015C88.65 110.549 87.462 109.361 85.996 109.361H82.055C80.589 109.361 79.401 110.549 79.401 112.015V121.901Z" fill="white"/>
<path d="M81.3453 109.397H86.7063V108.119H81.3453V109.397Z" fill="white"/>
<path d="M79.9802 108.119H88.0712V106.753H79.9802V108.119Z" fill="#01BCA7"/>
<path d="M80.8837 119.168H88.6503V112.399H80.8837V119.168Z" fill="#C08B89"/>
<path d="M69.357 121.901H78.606V112.015C78.606 110.549 77.418 109.361 75.952 109.361H72.011C70.545 109.361 69.357 110.549 69.357 112.015V121.901Z" fill="white"/>
<path d="M71.3008 109.397H76.6618V108.119H71.3008V109.397Z" fill="white"/>
<path d="M69.9359 108.119H78.0269V106.753H69.9359V108.119Z" fill="#01BCA7"/>
<path d="M70.8393 119.168H78.6058V112.399H70.8393V119.168Z" fill="#C08B89"/>
<path d="M59.313 121.901H68.562V112.015C68.562 110.549 67.374 109.361 65.908 109.361H61.967C60.5015 109.361 59.313 110.549 59.313 112.015V121.901Z" fill="white"/>
<path d="M61.2569 109.397H66.6179V108.119H61.2569V109.397Z" fill="white"/>
<path d="M59.8918 108.119H67.9828V106.753H59.8918V108.119Z" fill="#01BCA7"/>
<path d="M60.7953 119.168H68.5618V112.399H60.7953V119.168Z" fill="#C08B89"/>
<path d="M29.1665 121.814H38.4155V111.927C38.4155 110.461 37.2275 109.273 35.7615 109.273H31.8205C30.3545 109.273 29.1665 110.461 29.1665 111.927V121.814Z" fill="white"/>
<path d="M31.1107 109.311H36.4717V108.032H31.1107V109.311Z" fill="white"/>
<path d="M29.7457 108.032H37.8367V106.667H29.7457V108.032Z" fill="#01BCA7"/>
<path d="M30.6492 119.081H38.4157V112.312H30.6492V119.081Z" fill="#C08B89"/>
<path d="M39.1665 121.814H48.4155V111.927C48.4155 110.461 47.2275 109.273 45.7615 109.273H41.8205C40.3545 109.273 39.1665 110.461 39.1665 111.927V121.814Z" fill="white"/>
<path d="M41.1103 109.311H46.4713V108.032H41.1103V109.311Z" fill="white"/>
<path d="M39.7454 108.032H47.8364V106.667H39.7454V108.032Z" fill="#01BCA7"/>
<path d="M40.6488 119.081H48.4153V112.312H40.6488V119.081Z" fill="#C08B89"/>
<path d="M49.1665 121.814H58.4155V111.927C58.4155 110.461 57.2275 109.273 55.7615 109.273H51.8205C50.355 109.273 49.1665 110.461 49.1665 111.927V121.814Z" fill="white"/>
<path d="M51.1104 109.311H56.4714V108.032H51.1104V109.311Z" fill="white"/>
<path d="M49.7453 108.032H57.8363V106.667H49.7453V108.032Z" fill="#01BCA7"/>
<path d="M50.6489 119.081H58.4154V112.312H50.6489V119.081Z" fill="#C08B89"/>
<path d="M67.529 166.075H87.748V149.359C87.748 147.84 86.5165 146.609 84.998 146.609H70.2795C68.7605 146.609 67.5295 147.84 67.5295 149.359V166.075H67.529Z" fill="white"/>
<path d="M67.5286 146.609H87.7477V143.237H67.5286V146.609Z" fill="#FFE3D6"/>
<path d="M76.352 144.047H78.924C79.5375 144.047 80.035 143.549 80.035 142.936V142.104C80.035 141.49 79.5375 140.993 78.924 140.993H76.3515C75.738 140.993 75.2405 141.49 75.2405 142.104V142.936C75.241 143.549 75.7385 144.047 76.352 144.047Z" fill="#FFE3D6"/>
<path d="M68.6266 161.805H86.6496V152.793H68.6266V161.805Z" fill="#C08B89"/>
<path d="M46.3565 166.075H66.5755V149.359C66.5755 147.84 65.344 146.609 63.8255 146.609H49.1065C47.5875 146.609 46.3565 147.84 46.3565 149.359V166.075Z" fill="white"/>
<path d="M46.356 146.609H66.575V143.237H46.356V146.609Z" fill="#FFE3D6"/>
<path d="M55.1795 144.047H57.752C58.3655 144.047 58.863 143.549 58.863 142.936V142.104C58.863 141.49 58.3655 140.993 57.752 140.993H55.1795C54.566 140.993 54.0685 141.49 54.0685 142.104V142.936C54.0685 143.549 54.566 144.047 55.1795 144.047Z" fill="#FFE3D6"/>
<path d="M47.4544 161.805H65.4774V152.793H47.4544V161.805Z" fill="#C08B89"/>
<path d="M88.6615 166.075H108.88V149.359C108.88 147.84 107.649 146.609 106.13 146.609H91.4115C89.8925 146.609 88.6615 147.84 88.6615 149.359V166.075Z" fill="white"/>
<path d="M88.661 146.609H108.88V143.237H88.661V146.609Z" fill="#FFE3D6"/>
<path d="M97.4845 144.047H100.057C100.67 144.047 101.168 143.549 101.168 142.936V142.104C101.168 141.49 100.67 140.993 100.057 140.993H97.484C96.8705 140.993 96.373 141.49 96.373 142.104V142.936C96.3735 143.549 96.871 144.047 97.4845 144.047Z" fill="#FFE3D6"/>
<path d="M89.759 161.805H107.782V152.793H89.759V161.805Z" fill="#C08B89"/>
<path d="M25.1835 166.075H45.4025V149.359C45.4025 147.84 44.171 146.609 42.6525 146.609H27.934C26.415 146.609 25.184 147.84 25.184 149.359L25.1835 166.075Z" fill="white"/>
<path d="M25.1838 146.609H45.4028V143.237H25.1838V146.609Z" fill="#FFE3D6"/>
<path d="M34.007 144.047H36.5795C37.193 144.047 37.6905 143.549 37.6905 142.936V142.104C37.6905 141.49 37.193 140.993 36.5795 140.993H34.007C33.3935 140.993 32.896 141.49 32.896 142.104V142.936C32.896 143.549 33.3935 144.047 34.007 144.047Z" fill="#FFE3D6"/>
<path d="M26.2819 161.805H44.3049V152.793H26.2819V161.805Z" fill="#C08B89"/>
<path d="M68.9274 77.6528H80.5179V62.6598H68.9274V77.6528Z" fill="white"/>
<path d="M68.9275 62.66H80.518L78.294 59.6025H71.151L68.9275 62.66Z" fill="white"/>
<path d="M69.8269 59.6027H79.6184V56.6282H69.8269V59.6027Z" fill="black" fill-opacity="0.8"/>
<path d="M70.582 72.7349H80.5181V65.9949H70.582V72.7349Z" fill="#01BCA7"/>
<path d="M82.1678 77.6528H93.7583V62.6598H82.1678V77.6528Z" fill="white"/>
<path d="M82.1675 62.66H93.758L91.5345 59.6025H84.3915L82.1675 62.66Z" fill="white"/>
<path d="M83.0674 59.6027H92.8589V56.6282H83.0674V59.6027Z" fill="black" fill-opacity="0.8"/>
<path d="M83.8221 72.7349H93.7581V65.9949H83.8221V72.7349Z" fill="#01BCA7"/>
<path d="M95.4077 77.6528H106.998V62.6598H95.4077V77.6528Z" fill="white"/>
<path d="M95.408 62.66H106.998L104.774 59.6025H97.6315L95.408 62.66Z" fill="white"/>
<path d="M96.3074 59.6027H106.099V56.6282H96.3074V59.6027Z" fill="black" fill-opacity="0.8"/>
<path d="M97.0625 72.7349H106.999V65.9949H97.0625V72.7349Z" fill="#01BCA7"/>
<path d="M17 189.455L44 189.333L71 189.289L125 189.206L179 189.288L206 189.333L232.999 189.455L206 189.577L179 189.621L125 189.704L71 189.62L44 189.577L17 189.455Z" fill="black" fill-opacity="0.8"/>
<path d="M127.809 184.535C127.809 184.535 130.387 203.5 130.387 203.513C130.433 207.14 130.539 210.32 130.747 211.959C130.747 211.968 130.747 211.977 130.751 211.986C130.829 212.604 130.921 212.999 131.033 213.103C131.042 213.112 131.046 213.121 131.055 213.125C132.144 213.843 161.141 214.315 162.158 213.991C163.179 213.671 162.331 210.743 161.221 209.827C160.101 208.911 149.084 203.765 149.084 203.765L146.326 184.811L127.809 184.535Z" fill="#F7A9A0"/>
<path d="M130.427 205.846C130.485 208.476 130.586 210.683 130.749 211.96C130.749 211.969 130.749 211.977 130.753 211.986C130.828 212.603 130.921 212.999 131.035 213.101C131.044 213.11 131.044 213.119 131.053 213.123C132.145 213.841 161.141 214.312 162.158 213.991C163.18 213.669 162.331 210.745 161.221 209.829C160.688 209.393 157.886 207.987 155.111 206.639C155.987 207.331 156.873 208.181 156.472 208.525C155.758 209.128 138.175 208.493 130.427 205.846Z" fill="black" fill-opacity="0.8"/>
<path d="M153.476 205.846C153.476 205.846 148.345 203.509 139.546 207.734L153.476 205.846Z" fill="black" fill-opacity="0.8"/>
<path d="M129.581 197.606L148.131 197.2L136.03 102.385H116.9L129.581 197.606Z" fill="#F7A9A0"/>
<path d="M118.876 184.813C118.876 184.813 116.447 202.893 116.447 202.906C116.424 206.534 116.339 209.713 116.141 211.354C116.142 211.363 116.141 211.371 116.137 211.38C116.063 211.999 115.974 212.394 115.863 212.499C115.854 212.508 115.85 212.517 115.841 212.521C114.757 213.246 88.866 213.905 87.8475 213.587C86.8245 213.274 87.653 210.34 88.758 209.417C89.8715 208.494 97.752 203.277 97.752 203.277L100.796 184.333L118.876 184.813Z" fill="#F7A9A0"/>
<path d="M87.847 213.59C88.8645 213.907 114.756 213.247 115.844 212.524C115.853 212.52 115.853 212.506 115.861 212.497C115.976 212.396 116.063 211.999 116.138 211.378C116.143 211.369 116.143 211.361 116.143 211.352C116.319 209.846 116.385 208.873 116.416 205.614C112.185 208.293 101.239 209.487 97.7595 208.726C94.676 208.047 95.353 205.564 96.0005 204.445C93.613 206.035 89.5385 208.771 88.759 209.419C87.653 210.339 86.825 213.272 87.847 213.59Z" fill="black" fill-opacity="0.8"/>
<path d="M96 204.445C96 204.445 104.714 203.027 110.672 207.734L96 204.445Z" fill="black" fill-opacity="0.8"/>
<path d="M134.289 102.367C134.289 102.367 134.289 102.372 134.285 102.385C134.209 102.737 133.012 108.296 131.77 113.071C130.867 116.559 129.937 119.625 129.404 119.942C128.801 120.299 128.404 120.508 127.418 120.917L117.193 197.343L98.772 196.93L108.535 114.582L110.842 102.368H134.289V102.367Z" fill="#F7A9A0"/>
<path d="M109.909 102.42H136.514L144.363 160.677C144.363 160.677 131.643 163.912 123.828 163.829C116.014 163.746 102.108 159.506 102.108 159.506L109.909 102.42Z" fill="black" fill-opacity="0.8"/>
<path d="M137.238 77.144C137.226 77.252 137.144 77.352 137.038 77.3505C136.796 77.331 136.507 77.3025 136.183 77.2725C135.729 75.03 135.153 73.213 135.273 73.905C135.446 74.907 135.478 76.3135 135.343 77.1915C134.966 77.1535 134.095 77.0575 133.658 77.009C133.536 73.17 133.09 70.2655 133.02 71.128C132.737 74.607 132.388 75.6835 131.995 76.83C127.931 76.3775 122.61 75.7215 118.772 75.159C118.626 73.024 118.56 70.728 118.471 70.8735C117.781 71.9555 117.396 73.6235 117.198 74.924C115.977 74.7355 115.005 74.561 114.418 74.4225C114.418 74.4225 114.382 72.6415 114.423 72.0645C114.521 70.5935 114.885 69.1285 115.475 67.7875C116.088 66.407 116.972 65.243 117.825 64.0415C117.831 64.0315 117.838 64.0215 117.845 64.0155C117.845 64.011 117.849 64.0105 117.852 64.0055C118.436 63.1735 118.897 62.3605 119.257 61.479C119.26 61.474 119.264 61.469 119.266 61.4595C119.517 60.833 119.718 60.176 119.878 59.4435C120.422 56.924 122.076 54.9365 124.404 54.6245C128.928 51.759 133.533 54.6505 134.204 58.134L134.205 58.147C134.426 59.689 134.538 61.663 134.683 63.1975C134.679 63.2025 134.684 63.206 134.684 63.206C134.68 63.211 134.681 63.2155 134.686 63.2235L134.686 63.228C134.761 63.9595 134.839 64.5845 134.942 65.015C135.625 67.845 137.841 69.7485 137.238 77.144Z" fill="black" fill-opacity="0.8"/>
<path d="M123.331 55.1695C121.749 55.752 120.679 56.8035 120.185 58.627C119.897 59.6895 119.678 60.737 119.143 61.6975C118.591 62.689 117.833 63.4525 117.057 64.2125C115.825 65.42 114.906 66.672 114.483 68.4715C114.054 70.299 113.823 72.4995 114.157 74.323C114.159 74.3335 114.173 74.331 114.172 74.32C113.951 72.4905 114.287 70.0605 114.842 68.2705C115.452 66.3045 116.699 65.2065 118.008 63.8485C119.048 62.7695 119.793 61.512 120.201 59.989C120.442 59.0875 120.566 58.129 121.036 57.3185C121.596 56.351 122.511 55.826 123.408 55.374C123.53 55.3125 123.451 55.1255 123.331 55.1695Z" fill="black" fill-opacity="0.8"/>
<path d="M136.987 68.261C136.161 66.6495 135.262 65.245 134.914 63.3545C134.597 61.6325 134.529 59.8555 134.202 58.1335C134.197 58.1055 134.159 58.1105 134.163 58.14C134.612 61.1765 134.36 64.1265 135.754 66.844C136.511 68.3205 137.282 69.7 137.678 71.3885C138.095 73.1625 138.128 74.9445 137.907 76.7855C137.899 76.85 137.977 76.8585 137.991 76.798C138.677 73.871 138.284 70.791 136.987 68.261Z" fill="black" fill-opacity="0.8"/>
<path d="M127.033 81.997C128.543 86.881 134.836 102.779 139.713 104.269C142.913 105.246 156.188 105.066 158.715 102.139C159.816 100.863 158.932 91.2585 157.145 91.4885C155.358 91.7185 144.683 92.2365 143.418 91.752C142.16 91.27 133.364 79.27 129.964 76.19C124.102 70.879 126.22 79.367 127.033 81.997Z" fill="#F7A9A0"/>
<path d="M153.217 90.476L152.315 104.722C152.315 104.722 141.72 105.758 137.4 103.663C132.155 101.12 126.173 83.221 125.41 80.305C124.157 75.5185 124.986 72.8095 127.455 73.791C128.415 74.164 129.625 75.1005 131.054 76.698C132.55 78.3625 141.012 89.019 143.826 91.1775C145.4 92.3845 153.217 90.476 153.217 90.476Z" fill="white"/>
<path d="M149.721 103.901C149.792 101.792 150.394 93.1705 150.651 91.3165C150.668 91.188 150.754 91.168 150.753 91.304C150.695 97.6295 149.98 101.835 149.805 103.9C149.8 103.952 149.72 103.955 149.721 103.901Z" fill="black" fill-opacity="0.8"/>
<path d="M147.845 104.965C144.421 105.037 139.877 104.865 137.399 103.664C132.155 101.12 126.174 83.2221 125.41 80.3056C124.156 75.5176 124.984 72.8101 127.454 73.7911C127.531 73.8196 127.608 73.8531 127.685 73.8911L147.845 104.965Z" fill="black" fill-opacity="0.8"/>
<path d="M135.781 94.65L137.875 109.046C137.875 109.046 114.415 109.392 108.592 108.981C108.592 108.981 113.342 82.07 119.604 75.271C122.736 71.8705 126.413 72.1245 128.757 74.502C129.35 75.1035 136.426 84.455 137.171 88.0275C137.821 91.1805 135.781 94.65 135.781 94.65Z" fill="#C08B89"/>
<path d="M122.201 73.2785C122.201 73.2785 126.61 83.31 126.874 91.4455C127.583 113.263 124.538 149.284 123.481 151.879C122.03 155.442 100.225 158.979 100.225 158.979C100.225 158.979 106.623 105.268 112.428 88.9685C117.81 73.8565 122.201 73.2785 122.201 73.2785Z" fill="white"/>
<path d="M107.489 124.164C107.389 127.371 107.537 131.001 108.219 131.668C109.498 132.917 112.902 132.811 113.968 132.803C115.027 132.794 118.851 132.79 119.745 130.825C120.139 129.958 120.244 125.481 120.233 123.895C120.229 123.252 120.084 120.086 120.036 119.731C120.025 119.648 119.798 119.657 119.79 119.712C119.736 120.075 119.771 121.389 119.752 121.639C113.614 122.427 109.815 121.768 107.846 121.388C107.847 120.797 107.846 120.336 107.836 119.744C108.68 119.956 111.52 120.294 113.649 120.294C115.777 120.294 118.98 119.976 120.024 119.841C120.073 119.835 120.037 119.599 119.963 119.6C119.164 119.611 116.39 119.883 113.599 119.883C110.898 119.883 107.64 119.417 107.63 119.418C107.539 119.446 107.538 122.627 107.489 124.164ZM108.592 131.301C107.914 130.523 107.831 128.282 107.832 126.945C107.833 125.1 107.839 123.626 107.845 121.781C112.57 122.879 117.77 122.339 119.742 121.939C119.737 122.018 119.778 125.911 119.742 127.151C119.696 128.735 119.645 130.167 119.037 130.99C118.516 131.696 117.045 132.404 113.664 132.4C111.218 132.397 109.158 131.953 108.592 131.301Z" fill="#A6A6A6"/>
<path d="M136.578 152.212C137.787 155.068 145.001 157.005 145.001 157.005L135.909 94.3875C135.909 94.3875 137.789 91.6045 137.178 88.089C136.568 84.5735 129.214 74.3895 128.026 73.8625C128.026 73.8625 129.706 80.4405 130.577 89.8335C132.617 111.843 135.261 149.098 136.578 152.212Z" fill="white"/>
<path d="M134.861 83.333C134.207 82.289 133.534 81.2565 132.891 80.2055C132.873 80.176 132.919 80.141 132.94 80.169C133.596 81.0295 134.236 81.9035 134.87 82.78C134.66 82.3105 134.456 81.8385 134.267 81.3595C134.245 81.3055 134.322 81.2595 134.348 81.3145C134.639 81.931 134.903 82.559 135.162 83.1895C135.719 83.9785 136.237 84.798 136.66 85.667C137.554 87.503 137.939 89.512 137.455 91.5215C137.322 92.077 137.127 92.612 136.871 93.122C136.696 93.47 136.133 94.222 136.137 94.2435C136.503 96.296 136.779 98.3715 137.069 100.436C137.362 102.525 137.659 104.614 137.902 106.71C138.039 107.896 138.128 109.092 138.301 110.274C138.307 110.317 138.24 110.334 138.234 110.29C138.084 109.261 137.86 108.241 137.678 107.216C137.495 106.19 137.322 105.163 137.156 104.134C136.822 102.055 136.524 99.9695 136.224 97.885C136.054 96.706 135.867 95.5275 135.733 94.344C135.718 94.2145 136.251 93.373 136.408 93.0505C136.62 92.617 136.791 92.1585 136.923 91.695C137.192 90.7545 137.282 89.7535 137.171 88.781C136.943 86.784 135.909 85.006 134.861 83.333Z" fill="black" fill-opacity="0.8"/>
<path d="M128.082 74.094C128.566 74.739 129.056 75.3795 129.555 76.0145C130.058 76.647 130.549 77.287 131.062 77.9135L131.072 77.7635L129.842 78.8995L129.74 78.9935L129.848 79.0855C130.366 79.5275 130.893 79.961 131.418 80.3965L131.374 80.2835C131.184 81.4605 130.979 82.6355 130.81 83.8155C130.629 84.994 130.46 86.1735 130.312 87.356C130.567 86.1875 130.8 85.0165 131.022 83.8435C131.255 82.672 131.453 81.496 131.664 80.322L131.676 80.256L131.62 80.2085C131.1 79.7685 130.582 79.3265 130.054 78.8935L130.06 79.0795L131.267 77.924L131.343 77.852L131.278 77.774C130.761 77.1505 130.223 76.5405 129.697 75.923C129.168 75.3085 128.629 74.699 128.082 74.094Z" fill="black" fill-opacity="0.8"/>
<path d="M122.674 73.337C122.799 73.794 124.167 76.911 126.266 77.133C127.586 77.273 127.743 72.7155 127.743 72.7155L127.795 72.436L128.518 68.5225L123.85 65.7665L123.177 65.404C123.177 65.404 123.049 66.488 122.904 67.839C122.897 67.9015 122.89 67.9645 122.883 68.0315C122.873 68.1075 122.862 68.1795 122.856 68.251C122.832 68.4525 122.808 68.6585 122.789 68.864C122.773 69.0205 122.757 69.1725 122.747 69.337C122.733 69.502 122.722 69.6625 122.707 69.828C122.599 71.459 122.624 73.143 122.674 73.337Z" fill="#FFD3C1"/>
<path d="M122.905 67.839C124.132 70.8865 126.646 72.054 127.795 72.436L128.519 68.5225L123.851 65.7665L123.177 65.404C123.177 65.404 123.05 66.4875 122.905 67.839Z" fill="black" fill-opacity="0.8"/>
<path d="M133.973 63.8505C133.209 70.7935 128.964 71.12 127.467 70.9535C126.108 70.8025 121.5 70.1155 121.543 63.131C121.585 56.146 125.055 54.3065 128.181 54.4875C131.307 54.6685 134.737 56.9075 133.973 63.8505Z" fill="#FFD3C1"/>
<path d="M132.698 62.1705C132.54 62.1245 132.401 62.056 132.249 61.9945C132.078 61.925 131.934 61.8875 131.825 61.7275C131.767 61.642 131.798 61.4925 131.876 61.4285C132.057 61.2785 132.289 61.3115 132.499 61.3865C132.727 61.468 132.881 61.589 133.007 61.7955C133.127 61.9965 132.907 62.231 132.698 62.1705Z" fill="black" fill-opacity="0.8"/>
<path d="M127.969 61.39C128.134 61.398 128.287 61.378 128.451 61.3695C128.636 61.3595 128.784 61.3705 128.939 61.255C129.022 61.193 129.041 61.042 128.988 60.956C128.865 60.7555 128.636 60.711 128.413 60.714C128.171 60.717 127.985 60.7815 127.8 60.9365C127.62 61.086 127.752 61.379 127.969 61.39Z" fill="black" fill-opacity="0.8"/>
<path d="M128.664 63.295C128.663 63.2765 128.624 63.312 128.622 63.3315C128.57 63.8045 128.43 64.337 127.982 64.433C127.968 64.436 127.966 64.46 127.982 64.46C128.512 64.4605 128.69 63.751 128.664 63.295Z" fill="black" fill-opacity="0.8"/>
<path d="M128.314 62.743C127.565 62.5775 127.289 64.0875 127.983 64.241C128.666 64.392 128.942 62.882 128.314 62.743Z" fill="black" fill-opacity="0.8"/>
<path d="M128.003 62.7685C127.855 62.8295 127.698 62.957 127.537 62.9435C127.349 62.928 127.239 62.7445 127.147 62.5705C127.137 62.5525 127.122 62.563 127.118 62.583C127.06 62.8715 127.118 63.189 127.42 63.2885C127.696 63.3795 127.946 63.1605 128.071 62.883C128.095 62.832 128.062 62.744 128.003 62.7685Z" fill="black" fill-opacity="0.8"/>
<path d="M131.503 63.7365C131.51 63.7195 131.536 63.7655 131.531 63.7845C131.427 64.2485 131.386 64.798 131.779 65.034C131.792 65.041 131.786 65.0645 131.77 65.0595C131.269 64.8885 131.33 64.1595 131.503 63.7365Z" fill="black" fill-opacity="0.8"/>
<path d="M132.014 63.328C132.776 63.4145 132.547 64.9325 131.841 64.8525C131.146 64.774 131.375 63.2555 132.014 63.328Z" fill="black" fill-opacity="0.8"/>
<path d="M132.315 63.4755C132.423 63.574 132.52 63.738 132.662 63.769C132.826 63.805 132.974 63.6595 133.104 63.518C133.117 63.5035 133.127 63.518 133.125 63.538C133.089 63.8295 132.948 64.117 132.66 64.131C132.398 64.1435 132.249 63.8665 132.224 63.567C132.218 63.5115 132.272 63.436 132.315 63.4755Z" fill="black" fill-opacity="0.8"/>
<path d="M128.282 67.078C128.368 67.212 128.444 67.387 128.609 67.44C128.767 67.4905 128.973 67.4615 129.134 67.438C129.15 67.4355 129.161 67.4545 129.149 67.4665C128.987 67.6165 128.709 67.67 128.502 67.583C128.301 67.498 128.239 67.293 128.232 67.089C128.231 67.06 128.269 67.0585 128.282 67.078Z" fill="black" fill-opacity="0.8"/>
<path d="M130.531 65.718C130.531 65.718 130.508 66.4345 130.452 66.765C130.447 66.796 130.364 66.797 130.251 66.784C130.246 66.785 130.242 66.7865 130.238 66.782C129.639 66.7735 129.087 66.472 128.814 65.935C128.796 65.899 128.844 65.872 128.871 65.8975C129.252 66.2915 129.719 66.456 130.234 66.553C130.273 66.4655 130.232 65.3245 130.285 65.3295C130.468 65.345 130.803 65.5285 131.006 65.6275C131.097 64.136 130.948 62.642 131.061 61.158C131.066 61.105 131.143 61.1025 131.151 61.1515C131.418 62.706 131.351 64.425 131.297 65.9675C131.291 66.161 130.654 65.797 130.531 65.718Z" fill="black" fill-opacity="0.8"/>
<path d="M130.06 66.57C130.06 66.57 129.723 66.9215 129.311 67.011C129.159 67.0445 129 67.045 128.842 66.9805C128.517 66.849 128.548 66.539 128.644 66.283C128.722 66.072 128.846 65.898 128.846 65.898C128.846 65.898 129.279 66.4205 130.06 66.57Z" fill="black" fill-opacity="0.8"/>
<path d="M129.311 67.011C129.159 67.0445 129 67.045 128.842 66.9805C128.517 66.849 128.548 66.539 128.644 66.283C129 66.366 129.325 66.6565 129.311 67.011Z" fill="#FFE3D6"/>
<path d="M134.067 61.358C133.208 61.453 130.714 59.089 130.091 56.294C130.091 56.294 129.493 58.407 127.275 59.7515C125.057 61.096 123.263 60.8605 123.263 60.8605C123.263 60.8605 122.075 63.8305 121.553 63.792C121.03 63.7535 119.992 52.55 128.984 54.2725C128.984 54.2725 131.662 54.5485 132.986 56.4155C134.311 58.2825 134.067 61.358 134.067 61.358Z" fill="black" fill-opacity="0.8"/>
<path d="M127.135 65.622C126.168 65.3345 125.477 64.418 125.519 63.3645C125.568 62.118 126.622 61.144 127.868 61.193C129.115 61.242 130.089 62.2955 130.04 63.542C129.991 64.788 128.937 65.762 127.69 65.7135C127.498 65.706 127.312 65.6745 127.135 65.622ZM128.337 61.5745C128.184 61.529 128.023 61.5015 127.856 61.495C126.777 61.4525 125.864 62.2965 125.821 63.376C125.779 64.4555 126.623 65.37 127.702 65.411C128.782 65.4535 129.694 64.6095 129.737 63.53C129.773 62.6175 129.175 61.8235 128.337 61.5745Z" fill="#37474F"/>
<path d="M132.255 66.4825C131.425 66.236 130.925 65.1625 131.126 64C131.228 63.413 131.491 62.8885 131.868 62.5235C132.256 62.1455 132.72 61.9805 133.172 62.059C133.627 62.137 134.006 62.449 134.245 62.9355C134.476 63.4065 134.547 63.989 134.445 64.5755C134.232 65.8045 133.314 66.675 132.4 66.5165C132.35 66.5075 132.302 66.4965 132.255 66.4825ZM133.232 62.383C133.196 62.372 133.158 62.3635 133.12 62.357C132.766 62.2955 132.396 62.4315 132.078 62.74C131.747 63.0615 131.515 63.527 131.424 64.0515C131.239 65.116 131.697 66.0885 132.45 66.2185C133.201 66.3485 133.962 65.5885 134.147 64.524C134.238 63.9995 134.176 63.483 133.973 63.069C133.799 62.7135 133.539 62.474 133.232 62.383Z" fill="#37474F"/>
<path d="M129.92 63.787L129.768 63.5255C130.155 63.3005 131.003 63.054 131.446 63.731L131.193 63.8965C130.797 63.29 129.956 63.767 129.92 63.787Z" fill="#37474F"/>
<path d="M119.89 62.638L119.649 62.4555C119.734 62.343 120.501 61.358 121.185 61.3655C121.824 61.374 125.754 62.4415 125.92 62.487L125.841 62.779C124.715 62.472 121.676 61.6735 121.182 61.6685C120.73 61.6625 120.096 62.3665 119.89 62.638Z" fill="#37474F"/>
<path d="M122.725 63.114C122.725 63.114 121.655 60.6785 120.579 61.019C119.503 61.3595 120.011 64.6825 121.066 65.333C122.121 65.9835 122.742 65.0185 122.742 65.0185L122.725 63.114Z" fill="#FFD3C1"/>
<path d="M120.748 61.9675C120.73 61.962 120.721 61.987 120.736 61.997C121.47 62.4795 121.744 63.3035 121.885 64.13C121.706 63.787 121.415 63.561 120.963 63.765C120.94 63.7755 120.953 63.812 120.976 63.812C121.317 63.807 121.542 63.9105 121.711 64.2165C121.831 64.433 121.891 64.689 121.961 64.9255C121.984 65.0045 122.12 64.992 122.11 64.904C122.109 64.8975 122.108 64.891 122.107 64.8845C122.329 63.87 121.821 62.2875 120.748 61.9675Z" fill="black" fill-opacity="0.8"/>
<path d="M126.935 82.9775C126.935 82.9775 125.246 80.751 126.857 79.723C128.469 78.6945 129.776 81.1645 129.776 81.1645L126.935 82.9775Z" fill="#455A64"/>
<path d="M140.288 97.6345L140.288 97.637L140.523 100.361L140.606 101.26L139.818 100.813L137.445 99.4505L137.443 99.451L137.442 99.4465L126.874 82.884L129.717 81.0705L140.285 97.6355C140.288 97.6345 140.288 97.6345 140.288 97.6345Z" fill="#455A64"/>
<path d="M140.524 100.362L140.605 101.261L139.817 100.813L140.524 100.362Z" fill="#37474F"/>
<path d="M129.897 80.8306L126.579 82.9481L126.999 83.6064L130.318 81.489L129.897 80.8306Z" fill="black" fill-opacity="0.8"/>
<path d="M130.362 81.5619L127.043 83.6794L127.463 84.3378L130.782 82.2203L130.362 81.5619Z" fill="black" fill-opacity="0.8"/>
<path d="M127.465 84.3335L128.535 83.6505L131.769 90.0195L131.36 90.2485L127.465 84.3335Z" fill="black" fill-opacity="0.8"/>
<path d="M116.272 78.0015C107.999 86.758 98.566 101.618 102.399 104.915C105.898 107.926 118.966 105.406 127.21 102.381C128.779 101.805 122.757 87.903 121.152 88.6895C118.337 90.069 116.138 90.857 115.927 90.9095C115.476 91.0225 117.794 85.714 120.639 79.2785C123.812 72.102 121.001 72.9965 116.272 78.0015Z" fill="#F7A9A0"/>
<path d="M141.047 88.082C141.021 89.6825 137.08 89.285 137.08 89.285C137.08 89.285 138.01 89.884 138.248 90.9195C138.521 92.105 136.781 93.053 136.781 93.053C136.781 93.053 137.596 93.854 137.738 94.973C137.885 96.134 136.266 97.341 136.266 97.341C136.266 97.341 136.616 98.5045 136.044 99.5595C135.068 101.363 131.912 101.334 129.955 101.702C127.858 102.096 124.79 103.08 123.521 103.603L120.202 89.149C120.202 89.149 128.76 84.31 131.119 84.472C133.107 84.608 141.086 85.6355 141.047 88.082Z" fill="#FFD3C1"/>
<path d="M137.048 89.2385C134.97 88.5865 132.739 88.433 130.585 88.3085C130.537 88.306 130.534 88.381 130.582 88.383C132.725 88.482 134.894 89.1565 137.029 89.3405C137.088 89.3455 137.104 89.256 137.048 89.2385Z" fill="black" fill-opacity="0.8"/>
<path d="M136.727 92.8895C136.253 92.756 135.735 92.7795 135.247 92.776C134.72 92.772 134.194 92.777 133.668 92.7905C132.615 92.817 131.562 92.8675 130.512 92.949C130.465 92.9525 130.459 93.025 130.508 93.0235C131.558 92.999 132.608 92.99 133.658 93.01C134.183 93.02 134.709 93.034 135.234 93.052C135.722 93.0685 136.236 93.127 136.72 93.034C136.791 93.0195 136.799 92.9095 136.727 92.8895Z" fill="black" fill-opacity="0.8"/>
<path d="M136.222 97.3405C135.814 97.208 135.306 97.29 134.884 97.3095C134.404 97.3315 133.924 97.351 133.444 97.3675C132.485 97.401 131.525 97.434 130.565 97.434C130.517 97.434 130.513 97.5085 130.561 97.5085C131.537 97.5135 132.512 97.532 133.488 97.528C133.967 97.5265 134.446 97.522 134.925 97.515C135.332 97.509 135.842 97.548 136.225 97.389C136.247 97.38 136.243 97.347 136.222 97.3405Z" fill="black" fill-opacity="0.8"/>
<path d="M120.333 74.1535C114.411 77.5495 98.7945 98.152 101.357 104.042C103.919 109.932 122.854 104.147 122.854 104.147L121.704 88.3425C121.704 88.3425 116.69 90.954 116.533 90.6995C116.376 90.445 119.479 83.3435 120.743 80.455C122.007 77.566 123.485 72.3455 120.333 74.1535Z" fill="white"/>
<path d="M120.51 103.179C120.23 101.087 119.398 92.4855 119.344 90.615C119.34 90.4855 119.421 90.4515 119.443 90.586C120.432 96.834 120.423 101.099 120.592 103.165C120.596 103.216 120.517 103.232 120.51 103.179Z" fill="black" fill-opacity="0.8"/>
<path d="M121.588 88.3535C121.037 88.5105 120.502 88.79 119.982 89.03C119.512 89.2475 119.041 89.464 118.574 89.688C117.559 90.175 116.555 90.684 115.555 91.2015C114.556 91.7185 113.562 92.2455 112.576 92.7875C111.591 93.329 110.638 93.9265 109.654 94.4695C109.609 94.4945 109.652 94.5605 109.697 94.537C110.697 94.011 111.732 93.552 112.744 93.05C113.736 92.5585 114.727 92.065 115.719 91.5745C116.71 91.0845 117.704 90.5995 118.694 90.1065C119.178 89.865 119.661 89.6185 120.145 89.376C120.657 89.119 121.21 88.8785 121.681 88.5515C121.783 88.48 121.71 88.319 121.588 88.3535Z" fill="black" fill-opacity="0.8"/>
<path d="M120.081 83.776C119.767 84.153 119.457 84.5315 119.162 84.924C119.107 84.9965 119.058 85.0725 119.004 85.146C119.088 84.942 119.171 84.7385 119.255 84.5345C119.548 83.8235 119.894 83.111 120.106 82.372C120.116 82.3375 120.065 82.322 120.048 82.3505C119.63 83.038 119.33 83.8065 118.992 84.5335C118.659 85.2485 118.323 85.9625 118.005 86.684C117.687 87.4065 117.36 88.126 117.056 88.854C116.758 89.5655 116.425 90.287 116.236 91.0345C116.225 91.0785 116.285 91.0965 116.308 91.061C116.747 90.386 117.062 89.6235 117.394 88.894C117.721 88.1755 118.028 87.4475 118.343 86.724C118.475 86.421 118.603 86.116 118.729 85.8105C118.782 85.742 118.834 85.673 118.887 85.6065C119.035 85.4195 119.174 85.2245 119.309 85.0285C119.587 84.6235 119.847 84.21 120.104 83.792C120.112 83.7785 120.091 83.7635 120.081 83.776Z" fill="black" fill-opacity="0.8"/>
<path d="M122.899 103.802C122.892 103.697 122.839 103.673 122.817 103.786C122.805 103.847 122.794 103.96 122.782 104.021C122.137 104.171 119.783 104.809 119.209 104.959C118.002 105.275 116.788 105.549 115.562 105.779C114.332 106.009 113.099 106.201 111.858 106.355C110.625 106.509 109.372 106.67 108.13 106.709C108.08 106.711 108.082 106.788 108.132 106.787C109.401 106.763 110.659 106.767 111.925 106.662C113.162 106.56 114.399 106.394 115.622 106.178C116.867 105.958 118.107 105.681 119.328 105.352C119.939 105.187 120.546 105.005 121.149 104.814C121.718 104.633 122.332 104.481 122.855 104.188C122.894 104.166 122.921 104.117 122.918 104.072C122.911 103.982 122.905 103.892 122.899 103.802Z" fill="black" fill-opacity="0.8"/>
<path d="M125.481 86.4075C125.341 86.4765 125.2 86.543 125.06 86.612L121.673 82.0225L121.599 81.924L121.651 81.8155L122.893 79.131L119.376 78.961L119.201 78.951L119.267 78.7955C119.985 77.0775 120.685 75.357 121.417 73.6465C120.808 75.3425 120.172 77.031 119.551 78.7215L123.157 78.808L123.403 78.813L123.302 79.0445L122.075 81.8715L125.481 86.4075Z" fill="black" fill-opacity="0.8"/>
<path d="M119.383 78.717L119.55 78.722C119.531 78.7765 119.511 78.828 119.491 78.882L119.383 78.717Z" fill="black" fill-opacity="0.8"/>
<path d="M122.003 81.776L122.075 81.872L122.028 81.983L122.003 81.776Z" fill="black" fill-opacity="0.8"/>
<path d="M122.996 78.907L123.144 79.1435L122.893 79.131L122.996 78.907Z" fill="black" fill-opacity="0.8"/>
<path d="M148.961 105.905L132.394 104.884L141.439 84.108L158.006 85.129L148.961 105.905Z" fill="white"/>
<path d="M150.095 105.975L133.528 104.954L142.573 84.178L159.14 85.199L150.095 105.975Z" fill="black" fill-opacity="0.8"/>
<path d="M144.333 84.2885C144.215 84.6165 143.942 84.944 143.57 85.11C143.407 85.185 143.377 84.9755 143.538 84.905C143.774 84.797 143.953 84.5955 144.053 84.389C144.069 84.352 144.087 84.311 144.098 84.274C144.149 84.1355 144.171 83.9955 144.148 83.871C144.137 83.809 144.11 83.76 144.064 83.7195C144.064 83.7195 144.057 83.7145 144.054 83.7095C144.047 83.7045 144.037 83.7035 144.035 83.699C144.025 83.6985 144.004 83.6925 144.004 83.6925C143.965 83.6805 143.93 83.6835 143.887 83.695C143.818 83.7095 143.751 83.7525 143.689 83.8055C143.61 83.876 143.565 83.935 143.51 84.0165C143.48 84.0525 143.457 84.0935 143.43 84.1345L143.418 84.162C143.407 84.1755 143.401 84.1895 143.395 84.203C143.391 84.212 143.383 84.221 143.383 84.2305L143.148 84.216C143.206 84.0825 143.295 83.9465 143.398 83.8205C143.574 83.614 143.81 83.4495 144.059 83.4555C144.282 83.4645 144.388 83.6315 144.409 83.817C144.426 83.964 144.398 84.1275 144.333 84.2885Z" fill="#FFE3D6"/>
<path d="M145.63 84.3685C145.511 84.6965 145.238 85.024 144.866 85.19C144.703 85.265 144.674 85.0555 144.835 84.985C145.07 84.877 145.25 84.6755 145.349 84.469C145.365 84.432 145.383 84.391 145.395 84.354C145.445 84.2155 145.468 84.0755 145.445 83.951C145.433 83.889 145.406 83.84 145.361 83.7995C145.361 83.7995 145.354 83.7945 145.351 83.7895C145.344 83.7845 145.334 83.7835 145.332 83.779C145.322 83.7785 145.301 83.7725 145.301 83.7725C145.262 83.7605 145.228 83.7635 145.184 83.775C145.115 83.7895 145.048 83.8325 144.986 83.8855C144.907 83.956 144.862 84.015 144.807 84.0965C144.777 84.1325 144.754 84.1735 144.727 84.2145L144.715 84.242C144.704 84.2555 144.698 84.2695 144.692 84.283C144.688 84.292 144.679 84.301 144.68 84.3105L144.445 84.296C144.503 84.1625 144.591 84.0265 144.694 83.9005C144.871 83.694 145.107 83.5295 145.355 83.5355C145.578 83.5445 145.684 83.7115 145.705 83.897C145.723 84.0435 145.695 84.207 145.63 84.3685Z" fill="#FFE3D6"/>
<path d="M146.926 84.4485C146.808 84.7765 146.535 85.104 146.163 85.27C146 85.345 145.97 85.1355 146.131 85.065C146.367 84.9565 146.546 84.7555 146.646 84.549C146.662 84.512 146.68 84.471 146.691 84.434C146.742 84.2955 146.764 84.155 146.741 84.031C146.73 83.969 146.703 83.92 146.657 83.8795C146.657 83.8795 146.65 83.8745 146.647 83.8695C146.64 83.8645 146.63 83.8635 146.628 83.859C146.618 83.8585 146.597 83.8525 146.597 83.8525C146.558 83.8405 146.523 83.8435 146.48 83.855C146.411 83.8695 146.344 83.9125 146.282 83.9655C146.203 84.036 146.158 84.0945 146.103 84.1765C146.073 84.2125 146.05 84.2535 146.023 84.2945L146.011 84.322C146 84.3355 145.994 84.3495 145.988 84.363C145.984 84.372 145.976 84.381 145.976 84.3905L145.741 84.376C145.799 84.2425 145.888 84.1065 145.991 83.9805C146.167 83.774 146.403 83.6095 146.652 83.615C146.875 83.624 146.981 83.791 147.001 83.9765C147.02 84.1235 146.992 84.287 146.926 84.4485Z" fill="#FFE3D6"/>
<path d="M148.223 84.5285C148.105 84.8565 147.832 85.184 147.46 85.35C147.297 85.425 147.267 85.2155 147.428 85.145C147.664 85.037 147.843 84.8355 147.943 84.629C147.959 84.592 147.977 84.551 147.988 84.514C148.039 84.3755 148.061 84.2355 148.038 84.111C148.027 84.049 148 84 147.954 83.9595C147.954 83.9595 147.947 83.9545 147.944 83.9495C147.937 83.9445 147.927 83.9435 147.925 83.939C147.915 83.9385 147.894 83.9325 147.894 83.9325C147.855 83.9205 147.821 83.9235 147.777 83.935C147.708 83.9495 147.641 83.9925 147.579 84.0455C147.5 84.116 147.455 84.1745 147.4 84.2565C147.37 84.2925 147.347 84.3335 147.32 84.3745L147.308 84.402C147.297 84.4155 147.291 84.4295 147.285 84.443C147.281 84.452 147.273 84.461 147.273 84.4705L147.038 84.456C147.096 84.3225 147.185 84.1865 147.288 84.0605C147.464 83.854 147.7 83.6895 147.949 83.6955C148.172 83.7045 148.278 83.8715 148.299 84.057C148.316 84.2035 148.288 84.367 148.223 84.5285Z" fill="#FFE3D6"/>
<path d="M149.52 84.608C149.401 84.936 149.128 85.2635 148.756 85.4295C148.593 85.5045 148.564 85.295 148.725 85.2245C148.96 85.116 149.14 84.915 149.239 84.7085C149.255 84.6715 149.273 84.6305 149.285 84.5935C149.335 84.455 149.358 84.315 149.335 84.1905C149.323 84.1285 149.296 84.0795 149.251 84.039C149.251 84.039 149.243 84.034 149.241 84.029C149.233 84.024 149.224 84.023 149.221 84.0185C149.212 84.018 149.19 84.012 149.19 84.012C149.152 84 149.117 84.003 149.073 84.0145C149.004 84.029 148.937 84.072 148.876 84.125C148.797 84.1955 148.752 84.2545 148.697 84.336C148.667 84.372 148.644 84.413 148.617 84.454L148.605 84.4815C148.594 84.495 148.588 84.509 148.582 84.5225C148.578 84.5315 148.57 84.5405 148.57 84.55L148.335 84.5355C148.393 84.402 148.482 84.266 148.585 84.14C148.761 83.9335 148.998 83.769 149.246 83.775C149.469 83.784 149.575 83.951 149.595 84.1365C149.613 84.2835 149.585 84.447 149.52 84.608Z" fill="#FFE3D6"/>
<path d="M150.817 84.688C150.698 85.016 150.425 85.3435 150.053 85.5095C149.89 85.5845 149.861 85.375 150.022 85.3045C150.257 85.1965 150.437 84.995 150.536 84.7885C150.552 84.7515 150.57 84.7105 150.582 84.6735C150.632 84.535 150.655 84.395 150.632 84.2705C150.62 84.2085 150.593 84.1595 150.548 84.119C150.548 84.119 150.541 84.114 150.538 84.109C150.531 84.104 150.521 84.103 150.519 84.0985C150.509 84.098 150.488 84.092 150.488 84.092C150.449 84.0805 150.415 84.083 150.371 84.0945C150.302 84.109 150.235 84.152 150.173 84.205C150.094 84.2755 150.049 84.334 149.994 84.416C149.964 84.452 149.941 84.493 149.914 84.534L149.902 84.5615C149.891 84.575 149.885 84.589 149.879 84.6025C149.875 84.6115 149.866 84.6205 149.867 84.63L149.632 84.6155C149.69 84.482 149.778 84.346 149.881 84.22C150.058 84.0135 150.294 83.849 150.543 83.855C150.766 83.864 150.872 84.031 150.892 84.2165C150.91 84.3635 150.882 84.527 150.817 84.688Z" fill="#FFE3D6"/>
<path d="M152.113 84.768C151.995 85.096 151.722 85.4235 151.35 85.5895C151.187 85.6645 151.157 85.455 151.318 85.3845C151.554 85.276 151.733 85.075 151.833 84.8685C151.849 84.8315 151.867 84.7905 151.878 84.7535C151.929 84.615 151.951 84.4745 151.928 84.3505C151.917 84.2885 151.89 84.2395 151.844 84.199C151.844 84.199 151.837 84.194 151.834 84.189C151.827 84.184 151.818 84.183 151.815 84.1785C151.805 84.178 151.784 84.172 151.784 84.172C151.745 84.16 151.711 84.1625 151.667 84.174C151.598 84.1885 151.531 84.2315 151.469 84.2845C151.39 84.355 151.345 84.414 151.29 84.4955C151.26 84.5315 151.237 84.5725 151.21 84.6135L151.198 84.641C151.187 84.6545 151.181 84.6685 151.175 84.682C151.171 84.691 151.163 84.7 151.163 84.7095L150.928 84.695C150.986 84.5615 151.075 84.4255 151.178 84.2995C151.354 84.093 151.59 83.9285 151.839 83.9345C152.062 83.9435 152.168 84.1105 152.188 84.296C152.206 84.4435 152.179 84.607 152.113 84.768Z" fill="#FFE3D6"/>
<path d="M153.41 84.848C153.291 85.176 153.018 85.5035 152.646 85.6695C152.483 85.7445 152.454 85.535 152.615 85.4645C152.85 85.3565 153.03 85.155 153.129 84.9485C153.145 84.9115 153.163 84.8705 153.175 84.8335C153.225 84.695 153.248 84.5545 153.225 84.4305C153.213 84.3685 153.186 84.3195 153.141 84.279C153.141 84.279 153.134 84.274 153.131 84.269C153.124 84.264 153.114 84.2635 153.112 84.2585C153.102 84.258 153.081 84.252 153.081 84.252C153.042 84.2405 153.007 84.243 152.964 84.2545C152.895 84.269 152.828 84.312 152.766 84.365C152.687 84.4355 152.642 84.494 152.587 84.576C152.557 84.612 152.534 84.653 152.507 84.6935L152.495 84.721C152.484 84.7345 152.478 84.7485 152.472 84.762C152.468 84.7715 152.459 84.78 152.46 84.7895L152.225 84.775C152.283 84.6415 152.371 84.5055 152.474 84.3795C152.651 84.173 152.887 84.0085 153.136 84.0145C153.359 84.0235 153.465 84.1905 153.485 84.376C153.503 84.523 153.475 84.6865 153.41 84.848Z" fill="#FFE3D6"/>
<path d="M154.707 84.928C154.588 85.256 154.315 85.5835 153.943 85.7495C153.78 85.8245 153.751 85.615 153.912 85.5445C154.147 85.4365 154.327 85.235 154.426 85.0285C154.442 84.9915 154.46 84.9505 154.472 84.9135C154.522 84.775 154.545 84.635 154.522 84.5105C154.51 84.4485 154.483 84.3995 154.438 84.359C154.438 84.359 154.43 84.354 154.428 84.349C154.42 84.344 154.411 84.343 154.408 84.3385C154.399 84.338 154.377 84.332 154.377 84.332C154.339 84.32 154.304 84.323 154.26 84.334C154.191 84.3485 154.124 84.392 154.062 84.4445C153.983 84.515 153.938 84.574 153.884 84.6555C153.854 84.6915 153.831 84.7325 153.803 84.7735L153.791 84.801C153.78 84.8145 153.774 84.8285 153.768 84.842C153.764 84.851 153.756 84.86 153.756 84.8695L153.521 84.855C153.579 84.7215 153.668 84.5855 153.771 84.4595C153.948 84.2535 154.183 84.0885 154.432 84.0945C154.655 84.1035 154.761 84.2705 154.782 84.456C154.8 84.603 154.772 84.7665 154.707 84.928Z" fill="#FFE3D6"/>
<path d="M156.003 85.0075C155.885 85.3355 155.612 85.663 155.24 85.829C155.077 85.904 155.047 85.6945 155.208 85.624C155.444 85.5155 155.623 85.3145 155.723 85.108C155.739 85.071 155.757 85.03 155.768 84.993C155.819 84.8545 155.841 84.714 155.818 84.59C155.807 84.528 155.78 84.479 155.734 84.4385C155.734 84.4385 155.727 84.4335 155.724 84.4285C155.717 84.4235 155.707 84.4225 155.705 84.418C155.695 84.4175 155.674 84.4115 155.674 84.4115C155.635 84.3995 155.6 84.4025 155.557 84.4135C155.488 84.428 155.421 84.471 155.359 84.524C155.28 84.5945 155.235 84.6535 155.18 84.735C155.15 84.771 155.127 84.812 155.1 84.853L155.088 84.8805C155.078 84.894 155.072 84.908 155.066 84.9215C155.062 84.9305 155.053 84.9395 155.054 84.949L154.819 84.9345C154.877 84.801 154.965 84.665 155.068 84.539C155.245 84.3325 155.481 84.168 155.729 84.174C155.952 84.183 156.058 84.35 156.079 84.5355C156.096 84.683 156.069 84.8465 156.003 85.0075Z" fill="#FFE3D6"/>
<path d="M157.3 85.0875C157.181 85.4155 156.908 85.743 156.536 85.909C156.373 85.984 156.344 85.7745 156.505 85.704C156.74 85.5955 156.92 85.3945 157.019 85.188C157.035 85.151 157.053 85.11 157.065 85.073C157.115 84.9345 157.138 84.794 157.115 84.67C157.103 84.608 157.076 84.559 157.031 84.5185C157.031 84.5185 157.023 84.5135 157.021 84.5085C157.013 84.5035 157.004 84.5025 157.001 84.498C156.992 84.4975 156.97 84.4915 156.97 84.4915C156.932 84.48 156.897 84.4825 156.853 84.494C156.784 84.5085 156.717 84.552 156.655 84.6045C156.576 84.675 156.531 84.7335 156.476 84.8155C156.446 84.8515 156.423 84.8925 156.396 84.9335L156.384 84.961C156.374 84.9745 156.368 84.9885 156.362 85.002C156.358 85.011 156.349 85.02 156.35 85.0295L156.115 85.015C156.173 84.8815 156.261 84.7455 156.364 84.6195C156.541 84.413 156.777 84.2485 157.026 84.2545C157.249 84.2635 157.355 84.4305 157.375 84.616C157.393 84.763 157.365 84.9265 157.3 85.0875Z" fill="#FFE3D6"/>
<path d="M158.597 85.1675C158.478 85.4955 158.205 85.823 157.833 85.989C157.67 86.064 157.641 85.8545 157.802 85.784C158.037 85.6755 158.217 85.4745 158.316 85.268C158.332 85.231 158.35 85.19 158.362 85.153C158.412 85.0145 158.435 84.874 158.412 84.75C158.4 84.688 158.373 84.639 158.328 84.5985C158.328 84.5985 158.321 84.5935 158.318 84.5885C158.311 84.5835 158.302 84.5825 158.299 84.578C158.289 84.5775 158.268 84.5715 158.268 84.5715C158.229 84.5595 158.195 84.5625 158.151 84.574C158.082 84.5885 158.015 84.6315 157.953 84.6845C157.874 84.755 157.829 84.814 157.774 84.8955C157.744 84.9315 157.721 84.9725 157.694 85.0135L157.682 85.041C157.671 85.0545 157.665 85.0685 157.659 85.082C157.655 85.0915 157.646 85.1 157.647 85.1095L157.412 85.095C157.47 84.9615 157.558 84.8255 157.661 84.6995C157.838 84.493 158.074 84.3285 158.323 84.3345C158.546 84.3435 158.652 84.5105 158.672 84.696C158.69 84.843 158.662 85.0065 158.597 85.1675Z" fill="#FFE3D6"/>
<path d="M157.678 89.948C158.307 91.841 160.172 94.3255 160.168 95.8085C160.164 97.1475 159.011 97.4765 159.011 97.4765C159.011 97.4765 160.38 98.383 160.154 99.728C160.038 100.42 158.83 100.842 158.83 100.842C158.83 100.842 159.895 101.617 159.62 102.8C159.401 103.743 158.224 104.025 158.224 104.025C158.224 104.025 158.9 105.244 158.369 106.133C157.292 107.937 149.044 106.923 148.144 103.728C147.724 102.239 149.725 102.595 149.725 102.595C149.725 102.595 146.972 101.387 147.137 99.681C147.303 97.9755 149.875 98.5965 149.875 98.5965C149.875 98.5965 147.217 97.402 147.567 95.651C147.931 93.828 150.398 94.8895 150.398 94.8895C150.398 94.8895 148.717 93.4205 149.292 92.1415C150.241 90.029 153.374 93.2175 155.24 93.0105L156.608 90.1445L157.678 89.948Z" fill="#FFD3C1"/>
<path d="M159.012 92.7495C158.573 90.905 161.025 88.996 160.859 87.1715C160.634 84.704 157.639 86.727 156.608 90.144L156.274 92.937L159.012 92.7495Z" fill="#FFD3C1"/>
<path d="M158.044 104.096C158.072 104.098 158.076 104.136 158.047 104.14C155.253 104.467 152.083 103.97 149.613 102.588C149.532 102.543 149.571 102.392 149.67 102.425C152.487 103.362 155.063 103.97 158.044 104.096Z" fill="black" fill-opacity="0.8"/>
<path d="M158.867 100.864C158.9 100.865 158.898 100.919 158.863 100.923C155.982 101.244 152.427 100.587 149.768 98.6585C149.677 98.5925 149.661 98.4415 149.772 98.51C151.637 99.658 156.183 100.764 158.867 100.864Z" fill="black" fill-opacity="0.8"/>
<path d="M150.248 94.6875C152.869 96.438 155.787 97.172 158.893 97.4955C158.934 97.4995 158.924 97.5565 158.889 97.562C157.326 97.818 155.368 97.4055 153.871 96.956C152.438 96.525 151.231 95.8485 150.186 94.7795C150.146 94.7375 150.191 94.65 150.248 94.6875Z" fill="black" fill-opacity="0.8"/>
<path d="M220.832 125H29.1675V138.727H220.832V125Z" fill="#37474F"/>
<path d="M217.058 138.727H32.9415V218.389H217.058V138.727Z" fill="#37474F"/>
<path d="M217.058 138.727H32.9415V147.14H217.058V138.727Z" fill="black" fill-opacity="0.8"/>
<path d="M82.025 179.777C82.025 179.582 82.19 179.417 82.385 179.417H82.43H85.355C87.005 179.417 88.34 180.767 88.34 182.417C88.34 184.067 87.005 185.402 85.355 185.402L82.76 185.432V189.557C82.76 189.752 82.595 189.917 82.385 189.917C82.19 189.917 82.025 189.752 82.025 189.557V179.777ZM85.3545 184.697C86.5995 184.682 87.6195 183.662 87.6195 182.417C87.6195 181.172 86.5995 180.152 85.3545 180.152H82.7595V184.697H85.3545Z" fill="white"/>
<path d="M98.4045 185.027H93.005V189.557C93.005 189.752 92.84 189.917 92.63 189.917C92.435 189.917 92.27 189.752 92.27 189.557V179.777C92.27 179.582 92.435 179.417 92.63 179.417C92.84 179.417 93.005 179.582 93.005 179.777V184.307H98.4045V179.777C98.4045 179.582 98.5695 179.417 98.7645 179.417C98.9745 179.417 99.1395 179.582 99.1395 179.777V189.557C99.1395 189.752 98.9745 189.917 98.7645 189.917C98.5695 189.917 98.4045 189.752 98.4045 189.557V185.027Z" fill="white"/>
<path d="M109.174 187.201H104.389L103.459 189.676C103.399 189.826 103.264 189.916 103.114 189.916C103.084 189.916 103.024 189.901 102.979 189.901C102.799 189.826 102.694 189.601 102.769 189.421L106.414 179.686C106.474 179.551 106.624 179.461 106.774 179.461C106.939 179.461 107.089 179.551 107.134 179.686L110.779 189.421C110.854 189.601 110.764 189.826 110.584 189.901C110.524 189.901 110.494 189.916 110.449 189.916C110.314 189.916 110.164 189.826 110.104 189.676L109.174 187.201ZM104.659 186.467H108.904L106.789 180.827L104.659 186.467Z" fill="white"/>
<path d="M119.839 187.546C119.839 186.782 119.449 186.302 118.984 185.956C118.519 185.626 117.964 185.462 117.769 185.432C117.724 185.417 117.709 185.402 117.694 185.402H115.144V189.557C115.144 189.752 114.979 189.917 114.769 189.917C114.574 189.917 114.409 189.752 114.409 189.557V179.777C114.409 179.597 114.559 179.432 114.739 179.417H114.769H114.814H117.739C119.389 179.417 120.724 180.752 120.724 182.417C120.724 183.616 120.019 184.652 118.999 185.132C119.044 185.162 119.089 185.176 119.149 185.206C119.839 185.596 120.559 186.362 120.559 187.546C120.559 188.161 120.619 188.536 120.694 188.762C120.754 188.941 120.829 189.001 120.844 189.016C121.009 189.001 121.189 189.091 121.249 189.256C121.294 189.451 121.204 189.661 121.009 189.736C120.994 189.736 120.919 189.751 120.829 189.751H120.799C120.604 189.751 120.289 189.601 120.124 189.271C119.944 188.926 119.839 188.431 119.839 187.546ZM117.739 180.152H115.144V184.682H117.664H117.799C119.014 184.652 120.004 183.647 120.004 182.417C120.004 181.157 118.984 180.152 117.739 180.152Z" fill="white"/>
<path d="M133.594 180.917L130.234 185.582C130.159 185.702 130.039 185.747 129.934 185.747H129.904C129.769 185.747 129.664 185.702 129.589 185.582L126.229 180.932V189.557C126.229 189.752 126.064 189.917 125.869 189.917C125.659 189.917 125.494 189.752 125.494 189.557V179.837C125.494 179.717 125.554 179.612 125.644 179.552C125.644 179.537 125.659 179.537 125.674 179.522C125.839 179.417 126.064 179.447 126.184 179.612L129.92 184.787L133.64 179.612C133.744 179.447 133.984 179.417 134.15 179.522C134.195 179.567 134.225 179.597 134.255 179.642C134.285 179.702 134.315 179.777 134.315 179.837V189.557C134.315 189.752 134.15 189.917 133.954 189.917C133.744 189.917 133.595 189.752 133.595 189.557V180.917H133.594Z" fill="white"/>
<path d="M144.425 187.201H139.64L138.71 189.676C138.65 189.826 138.515 189.916 138.365 189.916C138.335 189.916 138.275 189.901 138.23 189.901C138.051 189.826 137.946 189.601 138.02 189.421L141.666 179.686C141.725 179.551 141.876 179.461 142.025 179.461C142.19 179.461 142.341 179.551 142.386 179.686L146.03 189.421C146.105 189.601 146.016 189.826 145.835 189.901C145.775 189.901 145.745 189.916 145.7 189.916C145.565 189.916 145.415 189.826 145.355 189.676L144.425 187.201ZM139.909 186.467H144.154L142.039 180.827L139.909 186.467Z" fill="white"/>
<path d="M154.264 179.267C155.554 179.267 156.739 179.716 157.654 180.422C157.819 180.557 157.849 180.812 157.714 180.947C157.594 181.127 157.354 181.143 157.204 181.022C156.394 180.392 155.374 180.002 154.264 180.002C151.639 180.002 149.539 182.057 149.539 184.622C149.539 187.127 151.639 189.182 154.264 189.182C155.374 189.182 156.394 188.821 157.174 188.161C157.353 188.041 157.594 188.071 157.698 188.251C157.849 188.387 157.818 188.657 157.653 188.777C156.738 189.482 155.554 189.917 154.264 189.917C151.249 189.917 148.804 187.547 148.804 184.622C148.804 181.637 151.25 179.282 154.264 179.267Z" fill="white"/>
<path d="M164.915 184.877L161.39 180.062C161.285 179.897 161.315 179.657 161.464 179.552C161.629 179.417 161.87 179.447 161.975 179.612L165.259 184.127L168.559 179.612C168.664 179.447 168.905 179.417 169.07 179.552C169.235 179.657 169.265 179.897 169.145 180.062L165.635 184.847V189.557C165.635 189.752 165.485 189.917 165.275 189.917C165.08 189.917 164.915 189.752 164.915 189.557V184.877Z" fill="white"/>
<path d="M32.9415 175.052H217.058" stroke="white" stroke-miterlimit="10"/>
<path d="M32.9415 173.608H217.058" stroke="white" stroke-miterlimit="10"/>
<path d="M32.9415 195.701H217.058" stroke="white" stroke-miterlimit="10"/>
<path d="M32.9415 194.257H217.058" stroke="white" stroke-miterlimit="10"/>
<path d="M126.531 154.132H123.469V167.22H126.531V154.132Z" fill="#EBEBEB"/>
<path d="M131.544 162.207V159.145H118.456V162.207H131.544Z" fill="#EBEBEB"/>
<path d="M213.909 189.173C213.909 189.173 221.855 187.372 226.211 183.359C230.567 179.346 233 172.156 233 172.156C233 172.156 228.323 173.013 224.088 174.497C223.377 175.258 222.023 176.825 221.392 178.309C221.392 178.309 221.258 176.742 221.371 175.584C220.238 176.106 219.251 176.684 218.541 177.302C214.929 180.462 213.909 189.173 213.909 189.173Z" fill="#01BCA7"/>
<path d="M228.038 175.65C229.121 174.9 230.224 174.178 231.303 173.421C231.368 173.376 231.307 173.274 231.237 173.315C229.189 174.538 227.171 175.846 225.218 177.215C224.537 177.692 223.868 178.189 223.207 178.695C223.253 178.617 223.299 178.538 223.346 178.46C223.584 178.061 223.836 177.669 224.087 177.278C224.592 176.492 225.144 175.718 225.774 175.026C225.797 175 225.757 174.962 225.735 174.988C225.117 175.702 224.499 176.408 223.933 177.165C223.664 177.525 223.416 177.897 223.178 178.278C223.055 178.476 222.935 178.675 222.821 178.878C222.783 178.946 222.741 179.014 222.702 179.083C221.675 179.89 220.674 180.731 219.719 181.621C219.13 182.17 218.562 182.74 218.013 183.327C218.32 182.365 218.588 181.393 218.945 180.445C218.957 180.413 218.904 180.399 218.892 180.432C218.546 181.425 218.168 182.424 217.9 183.444C217.291 184.101 216.709 184.783 216.161 185.492C216.17 185.449 216.179 185.405 216.189 185.363C216.279 184.988 216.373 184.615 216.473 184.242C216.667 183.523 216.878 182.809 217.12 182.105C217.618 180.661 218.263 179.247 219.255 178.073C219.278 178.046 219.239 178.009 219.216 178.035C217.664 179.873 216.754 182.076 216.173 184.39C216.088 184.729 216.008 185.069 215.93 185.409C215.889 185.589 215.842 185.773 215.811 185.958C215.571 186.283 215.335 186.611 215.11 186.947C213.73 189 212.654 191.244 211.747 193.541C210.726 196.128 209.932 198.799 209.2 201.48C209.186 201.533 209.265 201.551 209.282 201.5C210.836 196.85 212.423 192.134 215.084 187.977C215.646 187.1 216.253 186.254 216.898 185.438C218.206 185.365 219.525 185.081 220.763 184.669C222.132 184.212 223.424 183.58 224.636 182.798C225.335 182.347 225.973 181.82 226.621 181.299C226.651 181.274 226.617 181.232 226.587 181.257C225.512 182.166 224.22 182.878 222.944 183.461C221.662 184.047 220.313 184.506 218.935 184.806C218.348 184.934 217.754 185.029 217.158 185.109C217.893 184.204 218.676 183.339 219.502 182.513C219.77 182.245 220.048 181.989 220.323 181.73C221.236 181.064 222.247 180.538 223.261 180.048C224.563 179.419 225.844 178.752 227.133 178.096C227.86 177.726 228.583 177.348 229.316 176.99C229.347 176.974 229.318 176.929 229.287 176.944C227.981 177.575 226.655 178.164 225.336 178.768C224.095 179.337 222.84 179.907 221.649 180.576C221.598 180.605 221.55 180.636 221.499 180.666C222.575 179.729 223.689 178.835 224.83 177.974C225.883 177.18 226.952 176.402 228.038 175.65Z" fill="white"/>
<path d="M227.586 179.748C226.94 180.031 226.282 180.282 225.642 180.581C224.984 180.888 224.36 181.249 223.736 181.619C223.708 181.635 223.734 181.673 223.762 181.66C224.395 181.357 225.037 181.073 225.665 180.758C226.307 180.434 226.943 180.089 227.602 179.8C227.633 179.786 227.618 179.733 227.586 179.748Z" fill="white"/>
<path d="M188.093 149.125C188.093 149.125 190.324 151.68 190.468 155.725C190.494 156.438 190.382 157.431 190.299 158.599C193.262 160.181 195.485 163.031 195.485 163.031C193.801 162.02 191.491 161.611 190.244 161.776C190.287 162.545 190.378 163.342 190.548 164.151C191.098 164.12 192.161 164.193 193.918 164.818C193.918 164.818 192.194 164.774 190.879 165.422C192.296 169.928 196.506 174.558 208.134 176.524C208.134 176.524 210.377 168.63 206.074 160.162C202.591 153.31 188.093 149.125 188.093 149.125Z" fill="#01BCA7"/>
<path d="M212.159 195.809C211.957 193.883 211.703 191.963 211.406 190.05C210.811 186.223 210.04 182.417 209.061 178.668C208.599 176.9 208.046 175.169 207.382 173.482C207.425 173.176 207.419 172.857 207.425 172.551C207.433 172.178 207.435 171.806 207.431 171.434C207.422 170.689 207.387 169.945 207.324 169.203C207.199 167.738 206.975 166.27 206.609 164.844C206.397 164.016 206.15 163.2 205.907 162.38C205.897 162.347 205.845 162.362 205.855 162.396C206.266 163.813 206.503 165.288 206.713 166.747C206.922 168.193 207.051 169.652 207.104 171.111C207.118 171.51 207.126 171.91 207.126 172.31C207.126 172.479 207.119 172.651 207.113 172.823C206.54 171.439 205.895 170.085 205.154 168.768C203.982 166.685 202.635 164.705 201.174 162.814C201.187 162.598 201.122 162.371 201.078 162.163C201.024 161.903 200.967 161.644 200.909 161.385C200.79 160.854 200.657 160.326 200.513 159.801C200.224 158.747 199.842 157.729 199.513 156.689C199.502 156.656 199.451 156.671 199.461 156.704C199.768 157.734 199.972 158.801 200.208 159.849C200.324 160.368 200.438 160.887 200.552 161.406C200.609 161.665 200.665 161.925 200.718 162.185C200.722 162.203 200.725 162.224 200.729 162.243C200.259 161.65 199.78 161.065 199.289 160.49C197.069 157.886 194.634 155.484 192.184 153.099C191.883 152.806 191.574 152.52 191.269 152.231C191.243 152.207 191.207 152.245 191.231 152.27C193.573 154.713 195.878 157.184 198.062 159.77C198.581 160.385 199.092 161.007 199.593 161.637C199.329 161.458 199.062 161.284 198.8 161.111C198.123 160.668 197.438 160.238 196.733 159.842C196.027 159.447 195.316 159.061 194.591 158.701C193.846 158.332 193.049 158.031 192.329 157.612C192.298 157.594 192.272 157.647 192.303 157.66C193.045 157.964 193.737 158.427 194.425 158.835C195.133 159.254 195.839 159.677 196.534 160.118C197.217 160.551 197.904 160.979 198.583 161.42C199.149 161.787 199.705 162.189 200.292 162.528C201.633 164.266 202.893 166.065 204.017 167.95C204.725 169.138 205.365 170.356 205.942 171.601C205.803 171.541 205.663 171.482 205.525 171.42C205.17 171.263 204.816 171.105 204.461 170.948C203.777 170.644 203.09 170.348 202.404 170.05C201.1 169.483 199.775 168.962 198.496 168.339C197.779 167.99 197.073 167.623 196.409 167.18C196.38 167.16 196.354 167.208 196.383 167.227C198.767 168.871 201.44 170.029 204.078 171.196L205.222 171.703C205.536 171.842 205.851 171.997 206.175 172.119C206.954 173.862 207.612 175.658 208.142 177.507C209.2 181.2 210.007 184.973 210.671 188.756C211.338 192.554 211.788 196.377 212.138 200.216C212.181 200.695 212.224 201.174 212.279 201.652C212.3 201.843 212.584 201.843 212.582 201.645C212.562 199.698 212.361 197.746 212.159 195.809Z" fill="white"/>
<path d="M205.085 163.698C204.872 162.516 204.557 161.36 204.238 160.203C204.229 160.17 204.178 160.185 204.186 160.219C204.48 161.355 204.691 162.512 204.904 163.666C205.122 164.841 205.314 166.021 205.48 167.205C205.483 167.225 205.513 167.225 205.512 167.204C205.435 166.027 205.294 164.859 205.085 163.698Z" fill="white"/>
<path d="M200.074 166.904C199.286 166.346 198.401 165.924 197.545 165.481C197.122 165.262 196.692 165.054 196.263 164.846C195.821 164.632 195.361 164.453 194.922 164.232C194.891 164.217 194.864 164.264 194.896 164.28C195.321 164.493 195.724 164.751 196.142 164.979C196.573 165.214 197.001 165.453 197.433 165.685C198.283 166.142 199.119 166.648 200.012 167.018C200.089 167.05 200.142 166.953 200.074 166.904Z" fill="white"/>
<path opacity="0.1" d="M214.053 175.408C214.053 175.408 221.406 173.651 224.783 168.718C228.007 164.007 229.049 155.977 229.132 155.27C228.999 155.918 227.482 162.937 222.475 166.206C218.643 168.711 214.939 170.77 214.053 175.408Z" fill="white"/>
<path d="M220.84 162.702C219.546 163.948 218.575 165.414 218.129 167.168C218.125 167.183 218.147 167.191 218.152 167.176C218.704 165.543 219.616 163.934 220.876 162.743C220.901 162.719 220.865 162.678 220.84 162.702Z" fill="white"/>
<path d="M214.053 175.408C214.053 175.408 221.407 173.651 224.783 168.718C228.008 164.007 229.05 155.977 229.132 155.27C229.139 155.237 229.141 155.221 229.141 155.221C229.141 155.221 225.615 160.234 221.908 161.512C218.2 162.791 212.99 167.213 214.053 175.408Z" fill="#01BCA7"/>
<path d="M227.837 157.986C227.155 159.323 226.44 160.65 225.564 161.873C224.711 163.063 223.684 164.076 222.54 164.985C221.541 165.779 220.484 166.498 219.473 167.275C219.481 167.263 219.489 167.25 219.496 167.239C219.686 166.957 219.889 166.683 220.098 166.416C220.519 165.878 220.98 165.37 221.443 164.868C222.357 163.876 223.289 162.904 224.108 161.831C224.562 161.236 224.96 160.604 225.287 159.931C225.302 159.9 225.251 159.883 225.236 159.914C224.043 162.399 221.661 163.989 219.962 166.088C219.72 166.387 219.491 166.695 219.282 167.018C219.134 167.245 218.954 167.499 218.859 167.765C217.934 168.523 217.079 169.349 216.35 170.301C216.412 169.819 216.517 169.337 216.645 168.874C216.828 168.215 217.068 167.596 217.425 167.012C217.443 166.982 217.398 166.952 217.38 166.982C217.036 167.562 216.723 168.187 216.523 168.832C216.36 169.356 216.284 169.882 216.255 170.42C216.254 170.422 216.253 170.423 216.251 170.425C215.884 170.918 215.558 171.437 215.258 171.97C215.288 171.813 215.318 171.656 215.349 171.499C215.495 170.767 215.656 170.036 215.846 169.313C216.232 167.848 216.753 166.427 217.615 165.17C217.635 165.141 217.59 165.112 217.57 165.14C216.719 166.38 216.074 167.765 215.611 169.193C215.376 169.915 215.189 170.649 215.024 171.389C214.944 171.751 214.87 172.114 214.801 172.478C214.765 172.666 214.725 172.859 214.694 173.052C213.943 174.641 213.415 176.344 212.998 178.037C212.248 181.085 211.78 184.219 211.43 187.335C211.062 190.607 210.87 193.915 210.923 197.208C210.93 197.621 210.954 198.034 210.977 198.447C210.983 198.554 211.142 198.569 211.147 198.457C211.219 196.826 211.262 195.193 211.358 193.562C211.455 191.93 211.596 190.302 211.771 188.677C212.114 185.487 212.61 182.302 213.304 179.17C213.9 176.481 214.674 173.775 216.143 171.42C216.879 170.239 217.76 169.194 218.796 168.265C219.827 167.339 220.954 166.528 222.041 165.671C223.122 164.819 224.161 163.89 225.019 162.809C225.944 161.641 226.673 160.332 227.358 159.013C227.532 158.68 227.709 158.349 227.885 158.017C227.898 157.985 227.853 157.955 227.837 157.986Z" fill="white"/>
<path d="M226.568 159.064C226.096 160.059 225.529 161.006 224.93 161.929C224.915 161.951 224.949 161.972 224.964 161.951C225.604 161.048 226.138 160.078 226.619 159.082C226.634 159.05 226.583 159.033 226.568 159.064Z" fill="white"/>
<path d="M187.068 172.155C187.068 172.155 186.951 182.605 193.2 185.622C199.448 188.642 202.799 186.126 207.044 187.136C207.044 187.136 207.04 187.136 207.036 187.131C206.872 186.882 203.842 182.526 199.022 181.327C194.065 180.091 188.571 176.51 187.068 172.155Z" fill="#01BCA7"/>
<path opacity="0.1" d="M187.068 172.155C187.068 172.155 186.951 182.605 193.2 185.622C199.448 188.642 202.799 186.126 207.044 187.136C207.044 187.136 207.04 187.136 207.036 187.131C206.86 187.045 203.76 185.494 199.932 185.035C195.993 184.561 188.466 181.994 187.068 172.155Z" fill="white"/>
<path d="M207.456 187.323C206.71 186.651 205.876 186.074 204.97 185.64C204.836 185.576 204.698 185.524 204.562 185.466C204.496 185.383 204.426 185.303 204.353 185.226C204.165 185.03 203.97 184.843 203.765 184.667C203.372 184.331 202.954 184.023 202.508 183.76C201.473 183.152 200.338 182.726 199.28 182.161C199.249 182.144 199.223 182.192 199.254 182.208C199.777 182.479 200.283 182.78 200.792 183.077C201.287 183.366 201.794 183.641 202.276 183.952C202.708 184.231 203.125 184.54 203.512 184.879C203.622 184.975 203.728 185.08 203.833 185.186C203.144 184.95 202.436 184.769 201.722 184.625C200.578 184.394 199.421 184.23 198.28 183.986C197.718 183.867 197.165 183.717 196.622 183.539C196.103 183.121 195.586 182.706 195.095 182.254C194.502 181.707 193.957 181.113 193.48 180.463C193.459 180.435 193.412 180.464 193.434 180.491C194.205 181.486 195.032 182.489 195.995 183.318C195.726 183.215 195.459 183.106 195.196 182.986C193.073 182.022 191.184 180.49 189.872 178.557C189.852 178.529 189.806 178.556 189.826 178.585C190.97 180.241 192.421 181.659 194.133 182.721C194.991 183.253 195.897 183.688 196.855 184.008C197.956 184.376 199.098 184.594 200.237 184.808C201.352 185.017 202.472 185.23 203.548 185.596C204.545 185.934 205.483 186.426 206.326 187.057C207.934 188.262 209.178 189.91 210.07 191.7C211.252 194.072 211.818 196.724 212.132 199.34C212.145 199.452 212.318 199.452 212.31 199.336C212.016 194.944 210.842 190.373 207.456 187.323Z" fill="white"/>
<path d="M200.204 183.915C199.892 183.417 199.424 183.042 198.92 182.751C198.33 182.41 197.8 182.042 197.392 181.487C197.371 181.459 197.325 181.488 197.346 181.515C197.723 182 198.175 182.398 198.695 182.723C199.24 183.065 199.79 183.4 200.165 183.939C200.182 183.963 200.22 183.94 200.204 183.915Z" fill="white"/>
<path d="M203.519 195.036L203.803 200.783L204.675 218.339H217.783L218.654 200.783L218.939 195.036H203.519Z" fill="#455A64"/>
<path d="M203.519 195.036L203.803 200.783H218.654L218.939 195.036H203.519Z" fill="black" fill-opacity="0.8"/>
<path d="M202.601 198.119H219.858V192.637H202.601V198.119Z" fill="#455A64"/>
<path d="M163.18 125.001H139.315V123.148L163.18 122.376V125.001Z" fill="#455A64"/>
<path d="M181.935 124.97C181.935 124.97 167.536 124.97 166.192 124.97C164.848 124.97 166.792 121.145 171.695 119.677C176.599 118.209 183.481 123.535 181.935 124.97Z" fill="#37474F"/>
<path d="M175.757 124.97C175.708 124.528 175.765 124.082 175.873 123.652C175.981 123.22 176.16 122.806 176.387 122.418C176.617 122.031 176.916 121.682 177.265 121.396C177.604 121.099 178.023 120.903 178.444 120.784C178.119 121.089 177.799 121.353 177.536 121.677C177.27 121.993 177.018 122.318 176.815 122.676C176.385 123.38 176.068 124.148 175.757 124.97Z" fill="black" fill-opacity="0.8"/>
<path d="M177.622 121.33C178.112 121.422 178.579 121.59 179.031 121.792C179.484 121.992 179.913 122.243 180.324 122.528C180.73 122.816 181.111 123.157 181.42 123.564C181.725 123.962 181.975 124.462 181.935 124.97C181.765 124.5 181.457 124.147 181.127 123.821C180.789 123.501 180.426 123.202 180.034 122.935C179.263 122.38 178.439 121.891 177.622 121.33Z" fill="black" fill-opacity="0.8"/>
<path d="M193.233 117.564H154.961L161.048 89.072H199.32L193.233 117.564Z" fill="#455A64"/>
<path d="M194.648 117.564H156.377L162.463 89.072H200.735L194.648 117.564Z" fill="#37474F"/>
<path d="M174.007 107.349H173.109L174.472 100.957H175.37L174.007 107.349Z" fill="black" fill-opacity="0.8"/>
<path d="M175.777 107.349H174.88L176.243 100.957H177.14L175.777 107.349Z" fill="black" fill-opacity="0.8"/>
<path d="M177.548 107.349H176.651L178.014 100.957H178.911L177.548 107.349Z" fill="black" fill-opacity="0.8"/>
<path d="M179.32 107.349H178.422L179.785 100.957H180.682L179.32 107.349Z" fill="black" fill-opacity="0.8"/>
<path d="M181.09 107.349H180.193L181.555 100.957H182.453L181.09 107.349Z" fill="black" fill-opacity="0.8"/>
<path d="M182.862 107.349H181.964L183.327 100.957H184.224L182.862 107.349Z" fill="black" fill-opacity="0.8"/>
<path d="M184.633 107.349H183.735L185.098 100.957H185.995L184.633 107.349Z" fill="black" fill-opacity="0.8"/>
<path d="M183.824 125.006H165.001V123.544L183.824 122.935V125.006Z" fill="#455A64"/>
<path d="M188.942 125.004H178.836L172.75 109.038H182.856L188.942 125.004Z" fill="#455A64"/>
<path d="M190.605 125.004H180.499L174.413 109.038H184.519L190.605 125.004Z" fill="black" fill-opacity="0.8"/>
</svg>
