<svg width="250" height="250" viewBox="0 0 250 250" fill="none" xmlns="http://www.w3.org/2000/svg">
<path d="M33.297 66.7945L15.6485 52.978C14.515 52.0905 14.3155 50.4525 15.203 49.3185L44.487 11.912C45.3745 10.7785 47.0125 10.579 48.1465 11.4665L65.795 25.283C66.9285 26.1705 67.128 27.8085 66.2405 28.942L36.956 66.3485C36.069 67.4825 34.4305 67.682 33.297 66.7945Z" fill="#F5F5F5"/>
<path d="M33.894 61.7775C33.8665 61.8125 31.0015 59.615 27.495 56.87C23.9875 54.124 21.167 51.8705 21.1945 51.8355C21.222 51.8005 24.0865 53.9975 27.594 56.7435C31.1005 59.4885 33.9215 61.7425 33.894 61.7775Z" fill="#E0E0E0"/>
<path d="M60.438 26.408C60.4105 26.443 57.5455 24.2455 54.039 21.5005C50.5315 18.7545 47.711 16.501 47.7385 16.466C47.766 16.431 50.6305 18.628 54.138 21.374C57.6445 24.119 60.4655 26.373 60.438 26.408Z" fill="#E0E0E0"/>
<path d="M27.187 56.4189C27.152 56.3914 33.2135 48.5904 40.7245 38.9969C48.2375 29.3999 54.3545 21.6449 54.3895 21.6719C54.4245 21.6994 48.364 29.4989 40.851 39.0954C33.34 48.6894 27.222 56.4464 27.187 56.4189Z" fill="#E0E0E0"/>
<path d="M43.942 24.0646L45.536 21.925L47.5535 23.428C48.1445 23.868 48.2665 24.704 47.8265 25.2945C47.3865 25.885 46.5505 26.0075 45.96 25.567L43.942 24.0646Z" fill="#C08B89"/>
<path d="M45.895 22.193L44.301 24.3325L42.2835 22.8295C41.6925 22.3895 41.5705 21.5535 42.011 20.963C42.451 20.3725 43.287 20.25 43.8775 20.6905L45.895 22.193Z" fill="#E0E0E0"/>
<path d="M54.27 31.9525L55.864 29.8135L57.8815 31.3165C58.4725 31.7565 58.5945 32.5925 58.154 33.183C57.714 33.774 56.878 33.896 56.2875 33.456L54.27 31.9525Z" fill="#C08B89"/>
<path d="M56.223 30.0809L54.629 32.2204L52.6115 30.7174C52.0205 30.2774 51.8985 29.4414 52.3385 28.8509C52.7785 28.2604 53.6145 28.1379 54.205 28.5784L56.223 30.0809Z" fill="#E0E0E0"/>
<path d="M39.4645 29.9625L41.0585 27.823L43.076 29.326C43.6665 29.766 43.789 30.602 43.3485 31.1925C42.9085 31.783 42.0725 31.9055 41.482 31.4655L39.4645 29.9625Z" fill="#C08B89"/>
<path d="M41.417 28.091L39.823 30.2305L37.8055 28.7275C37.215 28.2875 37.0925 27.4515 37.533 26.861C37.973 26.27 38.809 26.148 39.3995 26.5885L41.417 28.091Z" fill="#E0E0E0"/>
<path d="M50.029 38.027L51.623 35.8875L53.6405 37.3904C54.2315 37.8304 54.3535 38.6665 53.913 39.257C53.473 39.8475 52.637 39.9699 52.0465 39.5294L50.029 38.027Z" fill="#C08B89"/>
<path d="M51.9815 36.1549L50.3875 38.2939L48.37 36.7909C47.779 36.3509 47.657 35.5149 48.0975 34.9244C48.5375 34.3334 49.3735 34.2114 49.964 34.6514L51.9815 36.1549Z" fill="#E0E0E0"/>
<path d="M34.9865 35.8604L36.5805 33.7209L38.598 35.2239C39.1885 35.6639 39.311 36.4999 38.8705 37.0904C38.4305 37.6809 37.5945 37.8034 37.004 37.3634L34.9865 35.8604Z" fill="#C08B89"/>
<path d="M36.9395 33.9889L35.3455 36.1284L33.328 34.6254C32.7375 34.1854 32.615 33.3494 33.0555 32.7589C33.4955 32.1684 34.3315 32.0459 34.922 32.4864L36.9395 33.9889Z" fill="#E0E0E0"/>
<path d="M45.788 44.1011L47.382 41.9615L49.3995 43.4646C49.99 43.9046 50.1125 44.7401 49.672 45.3311C49.232 45.9221 48.396 46.044 47.8055 45.6035L45.788 44.1011Z" fill="#C08B89"/>
<path d="M47.7405 42.2295L46.1465 44.369L44.129 42.866C43.538 42.426 43.416 41.59 43.8565 40.9995C44.2965 40.409 45.1325 40.2865 45.723 40.7265L47.7405 42.2295Z" fill="#E0E0E0"/>
<path d="M29.908 41.919L31.502 39.7795L33.5195 41.2825C34.11 41.7225 34.2325 42.5585 33.792 43.149C33.352 43.7395 32.516 43.862 31.9255 43.4215L29.908 41.919Z" fill="#C08B89"/>
<path d="M31.861 40.047L30.267 42.1865L28.2495 40.6835C27.659 40.2435 27.5365 39.4075 27.977 38.817C28.417 38.2265 29.253 38.104 29.8435 38.544L31.861 40.047Z" fill="#E0E0E0"/>
<path d="M40.8005 50.0339L42.3945 47.8949L44.412 49.3979C45.0025 49.8379 45.125 50.6739 44.685 51.2644C44.245 51.8554 43.409 51.9774 42.8185 51.5369L40.8005 50.0339Z" fill="#C08B89"/>
<path d="M42.7535 48.1624L41.1595 50.3014L39.142 48.7984C38.551 48.3584 38.429 47.5224 38.869 46.9319C39.309 46.3409 40.145 46.2189 40.7355 46.6594L42.7535 48.1624Z" fill="#E0E0E0"/>
<path d="M25.422 48.743L27.016 46.6035L29.0335 48.1065C29.624 48.5465 29.7465 49.3825 29.3065 49.973C28.8665 50.5635 28.0305 50.686 27.44 50.246L25.422 48.743Z" fill="#C08B89"/>
<path d="M27.375 46.871L25.781 49.0105L23.7635 47.5075C23.173 47.0675 23.0505 46.2315 23.491 45.641C23.931 45.05 24.767 44.928 25.3575 45.3685L27.375 46.871Z" fill="#E0E0E0"/>
<path d="M35.7855 56.464L37.3795 54.3245L39.397 55.8275C39.9875 56.2675 40.11 57.1035 39.6695 57.694C39.2295 58.2845 38.3935 58.407 37.803 57.9665L35.7855 56.464Z" fill="#C08B89"/>
<path d="M37.7385 54.5924L36.1445 56.7319L34.127 55.2289C33.5365 54.7889 33.414 53.9529 33.8545 53.3624C34.2945 52.7719 35.1305 52.6494 35.721 53.0899L37.7385 54.5924Z" fill="#E0E0E0"/>
<path d="M234.73 150.732L202.612 161.673C201.25 162.137 199.769 161.409 199.304 160.046L176.898 94.275C176.434 92.912 177.162 91.431 178.525 90.967L210.643 80.0255C212.006 79.5615 213.487 80.2895 213.951 81.6525L236.358 147.424C236.821 148.786 236.093 150.267 234.73 150.732Z" fill="#FFE3D6"/>
<path d="M193.208 100.07C193.717 101.565 192.918 103.191 191.422 103.7C189.927 104.21 188.301 103.41 187.792 101.915C187.283 100.419 188.082 98.794 189.578 98.2845C191.073 97.775 192.698 98.5745 193.208 100.07Z" fill="#C08B89"/>
<path d="M208.962 94.703C209.471 96.1985 208.672 97.824 207.176 98.333C205.681 98.8425 204.055 98.043 203.546 96.5475C203.036 95.052 203.836 93.4265 205.331 92.9175C206.827 92.408 208.453 93.2075 208.962 94.703Z" fill="#C08B89"/>
<path d="M198.197 114.717C198.707 116.212 197.907 117.838 196.412 118.347C194.916 118.857 193.291 118.057 192.781 116.562C192.272 115.066 193.071 113.441 194.567 112.931C196.062 112.422 197.688 113.221 198.197 114.717Z" fill="#C08B89"/>
<path d="M213.952 109.35C214.461 110.845 213.662 112.471 212.166 112.98C210.671 113.489 209.045 112.69 208.536 111.194C208.027 109.699 208.826 108.073 210.322 107.564C211.817 107.055 213.442 107.854 213.952 109.35Z" fill="#C08B89"/>
<path d="M203.187 129.364C203.696 130.859 202.897 132.485 201.401 132.994C199.906 133.503 198.28 132.704 197.771 131.208C197.261 129.713 198.061 128.087 199.556 127.578C201.052 127.069 202.677 127.868 203.187 129.364Z" fill="#C08B89"/>
<path d="M218.941 123.996C219.451 125.492 218.651 127.117 217.156 127.627C215.66 128.136 214.035 127.337 213.525 125.841C213.016 124.346 213.815 122.72 215.311 122.211C216.807 121.701 218.432 122.501 218.941 123.996Z" fill="#C08B89"/>
<path d="M208.177 144.01C208.687 145.506 207.887 147.132 206.391 147.641C204.896 148.151 203.271 147.351 202.762 145.855C202.252 144.36 203.051 142.735 204.547 142.225C206.042 141.716 207.668 142.515 208.177 144.01Z" fill="#C08B89"/>
<path d="M223.932 138.643C224.441 140.139 223.642 141.764 222.146 142.273C220.651 142.783 219.025 141.983 218.516 140.488C218.007 138.992 218.806 137.367 220.302 136.858C221.797 136.349 223.422 137.148 223.932 138.643Z" fill="#C08B89"/>
<path d="M191.673 98.534C191.729 98.5625 191.229 99.6605 190.556 100.987C189.883 102.313 189.292 103.365 189.236 103.336C189.18 103.308 189.68 102.21 190.353 100.884C191.026 99.5575 191.617 98.5055 191.673 98.534Z" fill="white"/>
<path d="M207.101 93.1521C207.157 93.1806 206.657 94.2786 205.984 95.6046C205.311 96.9311 204.72 97.9826 204.664 97.9546C204.608 97.9261 205.108 96.8281 205.781 95.5021C206.454 94.1756 207.045 93.1236 207.101 93.1521Z" fill="white"/>
<path d="M196.808 113.182C196.865 113.207 196.423 114.36 195.819 115.757C195.215 117.155 194.679 118.268 194.621 118.243C194.564 118.218 195.006 117.065 195.61 115.667C196.214 114.269 196.75 113.157 196.808 113.182Z" fill="white"/>
<path d="M212.372 107.781C212.431 107.804 212.049 108.927 211.519 110.29C210.989 111.653 210.512 112.74 210.453 112.717C210.395 112.694 210.777 111.571 211.307 110.207C211.837 108.845 212.314 107.758 212.372 107.781Z" fill="white"/>
<path d="M201.328 127.767C201.386 127.792 200.981 128.848 200.423 130.126C199.866 131.404 199.368 132.419 199.31 132.394C199.252 132.369 199.657 131.313 200.215 130.035C200.772 128.757 201.271 127.742 201.328 127.767Z" fill="white"/>
<path d="M217.466 122.647C217.521 122.677 217.03 123.714 216.369 124.965C215.708 126.216 215.127 127.206 215.072 127.176C215.016 127.147 215.507 126.109 216.168 124.858C216.83 123.608 217.41 122.618 217.466 122.647Z" fill="white"/>
<path d="M206.746 142.62C206.801 142.65 206.27 143.727 205.561 145.025C204.851 146.324 204.231 147.352 204.176 147.322C204.121 147.292 204.652 146.215 205.361 144.916C206.071 143.618 206.691 142.59 206.746 142.62Z" fill="white"/>
<path d="M222.465 136.781C222.523 136.805 222.077 138.032 221.468 139.523C220.859 141.014 220.318 142.203 220.26 142.179C220.202 142.156 220.648 140.928 221.257 139.437C221.866 137.946 222.407 136.757 222.465 136.781Z" fill="white"/>
<path d="M228.212 146.488C228.232 146.548 223.406 148.246 217.433 150.28C211.459 152.316 206.601 153.917 206.581 153.857C206.56 153.798 211.386 152.1 217.36 150.065C223.333 148.03 228.192 146.429 228.212 146.488Z" fill="white"/>
<path d="M206.801 87.603C206.821 87.6625 201.995 89.36 196.022 91.395C190.048 93.43 185.189 95.0315 185.169 94.972C185.149 94.9125 189.975 93.215 195.949 91.18C201.922 89.145 206.781 87.5435 206.801 87.603Z" fill="white"/>
<path d="M196.293 94.223C196.263 94.233 196.234 94.2345 196.21 94.229C196.198 94.226 196.188 94.2215 196.179 94.215L196.169 94.2045C196.167 94.202 196.165 94.1985 196.165 94.1985L196.163 94.195L196.163 94.1935L196.162 94.1925L196.377 94.119V94.1185C196.39 94.1555 196.352 94.203 196.293 94.223C196.233 94.2435 196.175 94.229 196.162 94.191L196.377 94.1185V94.119L196.378 94.12L196.378 94.122L196.379 94.1255C196.379 94.1255 196.38 94.1295 196.38 94.133L196.378 94.148C196.375 94.158 196.37 94.168 196.362 94.1775C196.347 94.196 196.323 94.213 196.293 94.223Z" fill="white"/>
<path d="M216.659 150.297C216.6 150.317 212.038 137.083 206.471 120.743C200.903 104.396 196.438 91.1329 196.497 91.1124C196.557 91.0924 201.118 104.323 206.686 120.669C212.253 137.01 216.719 150.276 216.659 150.297Z" fill="white"/>
<path d="M152.614 217.491L151.315 236.978C151.2 238.709 149.704 240.018 147.973 239.903L97.6385 236.549L99.3545 210.796L149.689 214.15C151.42 214.265 152.729 215.761 152.614 217.491Z" fill="#FFE3D6"/>
<path d="M113.387 221.34L112.309 237.526L135.449 239.069L136.528 222.882L113.387 221.34Z" fill="#F5F5F5"/>
<path d="M103.609 209.89L101.686 238.752C101.647 239.33 101.148 239.766 100.571 239.728L93.722 239.271C93.1445 239.233 92.708 238.734 92.7465 238.156L94.6695 209.294C94.708 208.717 95.207 208.28 95.7845 208.319L102.633 208.775C103.211 208.814 103.648 209.313 103.609 209.89Z" fill="#C08B89"/>
<path d="M101.781 237.329C101.776 237.405 99.77 237.333 97.302 237.168C94.833 237.004 92.836 236.809 92.841 236.733C92.846 236.658 94.851 236.73 97.32 236.894C99.7885 237.059 101.786 237.254 101.781 237.329Z" fill="#F5F5F5"/>
<path d="M101.947 234.832C101.942 234.907 99.9365 234.835 97.4685 234.671C94.9995 234.506 93.0025 234.312 93.0075 234.236C93.0125 234.161 95.0175 234.233 97.4865 234.397C99.955 234.562 101.952 234.756 101.947 234.832Z" fill="#F5F5F5"/>
<path d="M102.114 232.334C102.109 232.41 100.103 232.338 97.635 232.173C95.166 232.009 93.169 231.814 93.174 231.739C93.179 231.663 95.184 231.735 97.653 231.9C100.121 232.064 102.119 232.259 102.114 232.334Z" fill="#F5F5F5"/>
<path d="M102.28 229.837C102.275 229.912 100.27 229.84 97.8015 229.676C95.3325 229.511 93.3355 229.317 93.3405 229.241C93.3455 229.166 95.3505 229.238 97.8195 229.402C100.288 229.566 102.285 229.761 102.28 229.837Z" fill="#F5F5F5"/>
<path d="M102.446 227.339C102.441 227.415 100.436 227.343 97.9675 227.178C95.4985 227.014 93.5015 226.819 93.507 226.744C93.512 226.668 95.517 226.74 97.986 226.905C100.454 227.069 102.452 227.264 102.446 227.339Z" fill="#F5F5F5"/>
<path d="M102.613 224.842C102.608 224.917 100.602 224.845 98.134 224.681C95.665 224.516 93.668 224.322 93.673 224.246C93.678 224.171 95.683 224.243 98.152 224.407C100.621 224.571 102.618 224.766 102.613 224.842Z" fill="#F5F5F5"/>
<path d="M102.779 222.344C102.774 222.42 100.769 222.348 98.3005 222.183C95.8315 222.019 93.8345 221.824 93.84 221.748C93.845 221.673 95.85 221.745 98.319 221.909C100.787 222.074 102.784 222.269 102.779 222.344Z" fill="#F5F5F5"/>
<path d="M102.946 219.847C102.941 219.922 100.935 219.85 98.467 219.686C95.998 219.521 94.001 219.327 94.006 219.251C94.011 219.176 96.016 219.248 98.485 219.412C100.954 219.576 102.951 219.771 102.946 219.847Z" fill="#F5F5F5"/>
<path d="M103.112 217.349C103.107 217.424 101.102 217.352 98.6335 217.188C96.1645 217.023 94.1675 216.829 94.1725 216.753C94.1775 216.678 96.1825 216.75 98.6515 216.914C101.12 217.079 103.117 217.273 103.112 217.349Z" fill="#F5F5F5"/>
<path d="M103.279 214.851C103.274 214.927 101.268 214.855 98.8 214.69C96.331 214.526 94.334 214.331 94.3395 214.256C94.3445 214.18 96.3495 214.252 98.8185 214.417C101.286 214.581 103.284 214.776 103.279 214.851Z" fill="#F5F5F5"/>
<path d="M103.445 212.354C103.44 212.429 101.435 212.357 98.9665 212.193C96.4975 212.028 94.501 211.834 94.506 211.758C94.511 211.683 96.516 211.755 98.985 211.919C101.453 212.084 103.45 212.278 103.445 212.354Z" fill="#F5F5F5"/>
<path d="M103.611 209.856C103.606 209.932 101.601 209.86 99.1325 209.695C96.6635 209.531 94.6665 209.336 94.672 209.261C94.677 209.185 96.682 209.257 99.151 209.422C101.619 209.586 103.616 209.781 103.611 209.856Z" fill="#F5F5F5"/>
<path d="M143.853 228.185L148.322 228.483L147.993 233.424C147.937 234.256 147.218 234.887 146.385 234.831L144.932 234.734C144.099 234.679 143.468 233.959 143.524 233.126L143.853 228.185Z" fill="#C08B89"/>
<path d="M148.272 229.233L143.803 228.935L144.132 223.994C144.188 223.161 144.908 222.531 145.74 222.586L147.193 222.683C148.026 222.739 148.656 223.459 148.601 224.292L148.272 229.233Z" fill="#F5F5F5"/>
<path d="M129.885 219.969L131.043 215.642L135.826 216.923C136.632 217.139 137.111 217.967 136.895 218.773L136.519 220.18C136.303 220.987 135.474 221.465 134.668 221.249L129.885 219.969Z" fill="#C08B89"/>
<path d="M131.77 215.837L130.611 220.163L125.828 218.883C125.022 218.667 124.543 217.838 124.759 217.032L125.136 215.625C125.352 214.819 126.18 214.34 126.986 214.556L131.77 215.837Z" fill="#F5F5F5"/>
<path d="M143.316 221.258L142.118 216.943L146.89 215.618C147.694 215.395 148.527 215.866 148.75 216.67L149.14 218.074C149.363 218.878 148.892 219.711 148.088 219.934L143.316 221.258Z" fill="#C08B89"/>
<path d="M142.842 216.742L144.04 221.057L139.269 222.382C138.465 222.605 137.632 222.134 137.408 221.33L137.019 219.926C136.796 219.122 137.267 218.289 138.071 218.066L142.842 216.742Z" fill="#F5F5F5"/>
<path d="M138.047 227.486L142.194 229.178L140.324 233.763C140.009 234.536 139.127 234.907 138.354 234.591L137.006 234.041C136.233 233.726 135.862 232.844 136.177 232.071L138.047 227.486Z" fill="#C08B89"/>
<path d="M141.91 229.874L137.763 228.182L139.633 223.597C139.948 222.824 140.83 222.454 141.603 222.769L142.952 223.319C143.725 223.634 144.095 224.516 143.78 225.289L141.91 229.874Z" fill="#F5F5F5"/>
<path d="M208.118 37.9815L211.476 42.2995C211.606 42.467 211.576 42.709 211.408 42.839L207.067 46.215C205.707 47.2725 203.747 47.0275 202.689 45.6675C201.632 44.3075 201.877 42.3475 203.237 41.2895L207.578 37.9135C207.746 37.7835 207.988 37.814 208.118 37.9815Z" fill="#C08B89"/>
<path d="M210.649 42.9425L207.291 38.6245C207.161 38.457 207.191 38.215 207.359 38.085L211.7 34.709C213.06 33.6515 215.02 33.8965 216.077 35.256C217.135 36.616 216.89 38.5765 215.53 39.634L211.189 43.01C211.021 43.1405 210.78 43.11 210.649 42.9425Z" fill="#E0E0E0"/>
<path d="M15.6625 140.382L20.804 142.25C21.0035 142.323 21.1065 142.543 21.034 142.743L19.156 147.912C18.5675 149.532 16.778 150.367 15.1585 149.779C13.539 149.191 12.7035 147.401 13.292 145.782L15.17 140.613C15.242 140.413 15.463 140.31 15.6625 140.382Z" fill="#C08B89"/>
<path d="M20.446 143.235L15.3045 141.367C15.105 141.294 15.002 141.074 15.0745 140.874L16.9525 135.705C17.541 134.086 19.3305 133.25 20.9495 133.838C22.569 134.426 23.405 136.216 22.8165 137.835L20.938 143.004C20.8665 143.204 20.6455 143.307 20.446 143.235Z" fill="#E0E0E0"/>
<path d="M231.52 239.471C231.52 239.543 183.602 239.601 124.505 239.601C65.3875 239.601 17.4795 239.542 17.4795 239.471C17.4795 239.399 65.388 239.341 124.505 239.341C183.602 239.341 231.52 239.399 231.52 239.471Z" fill="#263238"/>
<path d="M190.643 191.061H70.158C67.3685 191.061 65.1075 188.8 65.1075 186.01V23.634C65.1075 20.8445 67.3685 18.5835 70.158 18.5835H190.643C193.432 18.5835 195.693 20.8445 195.693 23.634V186.01C195.693 188.8 193.432 191.061 190.643 191.061Z" fill="black" fill-opacity="0.8"/>
<path d="M186.948 26.7345H73.852V179.209H186.948V26.7345Z" fill="white"/>
<path d="M186.948 179.209C186.947 178.169 186.9 117.016 186.83 26.7345L186.948 26.852C152.963 26.8555 114.477 26.86 73.8645 26.8645H73.852L73.982 26.7345C73.973 83.602 73.965 136.288 73.9585 179.209L73.852 179.102C142.348 179.167 186.068 179.208 186.948 179.209C186.068 179.21 142.348 179.251 73.852 179.315H73.7455V179.209C73.739 136.289 73.7305 83.602 73.722 26.7345V26.6045H73.8525H73.865C114.478 26.609 152.964 26.613 186.948 26.617H187.066V26.735C186.996 117.016 186.949 178.17 186.948 179.209Z" fill="black" fill-opacity="0.8"/>
<path d="M97.662 52.3235L95.023 48.36H94.8665H92.1105V52.3235H88.944V38.095H94.867C96.079 38.095 97.131 38.305 98.024 38.725C98.9165 39.145 99.604 39.7415 100.086 40.514C100.568 41.2865 100.809 42.201 100.809 43.258C100.809 44.315 100.565 45.2265 100.076 45.992C99.588 46.7575 98.894 47.3435 97.9945 47.7505L101.063 52.3235H97.662ZM96.8605 41.4185C96.365 40.9915 95.6415 40.7785 94.691 40.7785H92.1105V45.738H94.691C95.642 45.738 96.3655 45.5215 96.8605 45.0875C97.3555 44.654 97.6035 44.0445 97.6035 43.258C97.6035 42.4585 97.3555 41.8455 96.8605 41.4185Z" fill="#C08B89"/>
<path d="M104.585 62.1614L101.455 57.4814L98.3805 62.1614H94.9355L99.7325 55.3049L95.176 48.6794H98.584L101.566 53.0514L104.492 48.6794H107.734L103.214 55.1894L108.049 62.1614H104.585Z" fill="#C08B89"/>
<path d="M147.673 41.4974H128.265V46.3024H147.673V41.4974Z" fill="#FFE3D6"/>
<path d="M176.137 44.5315C176.137 44.6035 170.828 44.6615 164.281 44.6615C157.731 44.6615 152.423 44.603 152.423 44.5315C152.423 44.4595 157.731 44.4015 164.281 44.4015C170.828 44.401 176.137 44.4595 176.137 44.5315Z" fill="black" fill-opacity="0.8"/>
<path d="M175.695 50.2925C175.695 50.3645 165.077 50.4225 151.981 50.4225C138.882 50.4225 128.266 50.364 128.266 50.2925C128.266 50.2205 138.882 50.1625 151.981 50.1625C165.076 50.1625 175.695 50.2205 175.695 50.2925Z" fill="black" fill-opacity="0.8"/>
<path d="M175.695 55.9374C175.695 56.0094 165.077 56.0679 151.981 56.0679C138.882 56.0679 128.266 56.0094 128.266 55.9374C128.266 55.8654 138.882 55.8074 151.981 55.8074C165.076 55.8074 175.695 55.8659 175.695 55.9374Z" fill="black" fill-opacity="0.8"/>
<path d="M183.092 70.9875C183.092 71.0595 159.499 71.1175 130.403 71.1175C101.296 71.1175 77.708 71.059 77.708 70.9875C77.708 70.916 101.296 70.8575 130.403 70.8575C159.499 70.8575 183.092 70.9155 183.092 70.9875Z" fill="black" fill-opacity="0.8"/>
<path d="M183.092 156.228C183.092 156.3 159.499 156.358 130.403 156.358C101.296 156.358 77.708 156.3 77.708 156.228C77.708 156.156 101.296 156.098 130.403 156.098C159.499 156.098 183.092 156.156 183.092 156.228Z" fill="black" fill-opacity="0.8"/>
<path d="M118.907 79.6169H86.39V85.7154H118.907V79.6169Z" fill="#FFE3D6"/>
<path d="M100.467 164.931H86.39V171.03H100.467V164.931Z" fill="#FFE3D6"/>
<path d="M147.725 164.931H133.648V171.03H147.725V164.931Z" fill="#FFE3D6"/>
<path d="M124.055 169.156C124.055 169.228 119.66 169.286 114.239 169.286C108.816 169.286 104.421 169.227 104.421 169.156C104.421 169.084 108.816 169.026 114.239 169.026C119.66 169.026 124.055 169.084 124.055 169.156Z" fill="black" fill-opacity="0.8"/>
<path d="M174.594 169.156C174.594 169.228 170.199 169.286 164.778 169.286C159.355 169.286 154.96 169.227 154.96 169.156C154.96 169.084 159.355 169.026 164.778 169.026C170.199 169.026 174.594 169.084 174.594 169.156Z" fill="black" fill-opacity="0.8"/>
<path d="M173.428 94.899C173.428 94.971 154.167 95.029 130.413 95.029C106.65 95.029 87.3935 94.9705 87.3935 94.899C87.3935 94.827 106.65 94.769 130.413 94.769C154.167 94.769 173.428 94.827 173.428 94.899Z" fill="black" fill-opacity="0.8"/>
<path d="M175.102 101.861C175.102 101.933 155.466 101.991 131.249 101.991C107.024 101.991 87.393 101.932 87.393 101.861C87.393 101.789 107.025 101.731 131.249 101.731C155.466 101.731 175.102 101.789 175.102 101.861Z" fill="black" fill-opacity="0.8"/>
<path d="M129.908 108.823C129.908 108.895 120.165 108.953 108.149 108.953C96.1295 108.953 86.3885 108.894 86.3885 108.823C86.3885 108.751 96.1295 108.693 108.149 108.693C120.165 108.692 129.908 108.751 129.908 108.823Z" fill="black" fill-opacity="0.8"/>
<path d="M174.455 134.077C174.455 134.077 174.359 134.115 174.167 134.176C173.975 134.236 173.69 134.327 173.313 134.434C172.56 134.649 171.444 134.968 169.972 135.216C169.237 135.34 168.41 135.441 167.5 135.448C166.592 135.457 165.593 135.381 164.567 135.085C163.542 134.794 162.505 134.254 161.6 133.441C160.718 132.616 160 131.459 159.812 130.107C159.725 129.436 159.78 128.716 160.062 128.053C160.347 127.397 160.825 126.808 161.45 126.397C162.066 125.982 162.866 125.764 163.644 125.931C164.03 126.023 164.385 126.211 164.706 126.45C165.014 126.707 165.268 127.025 165.467 127.376C165.841 128.093 166.003 128.912 166 129.733C166.006 130.556 165.852 131.391 165.548 132.183C164.917 133.746 163.854 135.198 162.436 136.276C161.735 136.827 160.943 137.268 160.112 137.642C159.265 137.972 158.383 138.271 157.453 138.374C156.531 138.492 155.576 138.517 154.637 138.342C154.161 138.291 153.706 138.127 153.242 138.003C152.797 137.819 152.339 137.659 151.915 137.417C151.067 136.941 150.292 136.315 149.657 135.553C149.029 134.79 148.531 133.886 148.325 132.891C148.097 131.91 148.191 130.816 148.677 129.901C149.146 128.984 149.919 128.21 150.885 127.789C151.364 127.575 151.901 127.474 152.427 127.523C152.953 127.571 153.464 127.765 153.885 128.072C154.744 128.69 155.226 129.671 155.466 130.639C155.707 131.619 155.745 132.631 155.63 133.609C155.528 134.588 155.312 135.546 154.986 136.458C154.342 138.28 153.274 139.933 151.845 141.141C150.431 142.369 148.635 143.059 146.858 143.183C145.079 143.319 143.292 142.853 141.913 141.858C140.53 140.863 139.61 139.396 139.17 137.878C138.729 136.358 138.765 134.736 139.338 133.368C139.608 132.676 140.068 132.073 140.65 131.652C140.942 131.445 141.275 131.286 141.632 131.233C141.99 131.181 142.36 131.256 142.664 131.432C143.297 131.788 143.567 132.495 143.654 133.12C143.744 133.761 143.701 134.396 143.579 134.986C143.366 136.174 143 137.26 142.557 138.226C142.116 139.194 141.588 140.037 141.038 140.761C140.49 141.486 139.927 142.103 139.371 142.601C138.27 143.615 137.26 144.212 136.56 144.562C136.215 144.751 135.932 144.853 135.748 144.933C135.562 145.01 135.465 145.043 135.465 145.043C135.465 145.043 135.556 144.993 135.738 144.908C135.919 144.82 136.197 144.711 136.536 144.516C137.226 144.152 138.22 143.545 139.302 142.527C139.849 142.027 140.401 141.41 140.939 140.687C141.478 139.965 141.995 139.126 142.424 138.165C142.857 137.207 143.212 136.132 143.416 134.958C143.533 134.376 143.57 133.76 143.481 133.147C143.395 132.544 143.135 131.902 142.573 131.592C142.301 131.437 141.978 131.373 141.659 131.42C141.341 131.468 141.034 131.615 140.761 131.81C140.217 132.207 139.778 132.783 139.524 133.444C138.975 134.767 138.943 136.341 139.377 137.818C139.809 139.293 140.709 140.716 142.046 141.672C143.379 142.63 145.112 143.079 146.84 142.944C148.568 142.819 150.31 142.147 151.683 140.951C153.073 139.774 154.116 138.157 154.744 136.372C155.063 135.48 155.274 134.54 155.373 133.582C155.485 132.627 155.446 131.645 155.214 130.702C154.982 129.77 154.521 128.849 153.732 128.284C152.954 127.709 151.882 127.611 150.986 128.028C150.086 128.42 149.349 129.154 148.907 130.019C148.45 130.884 148.361 131.896 148.577 132.838C148.992 134.741 150.409 136.282 152.038 137.194C152.447 137.429 152.892 137.584 153.323 137.763C153.773 137.883 154.214 138.045 154.677 138.094C155.589 138.266 156.519 138.242 157.418 138.128C158.325 138.03 159.187 137.738 160.015 137.418C160.827 137.054 161.602 136.625 162.287 136.087C163.675 135.036 164.714 133.622 165.333 132.1C165.628 131.338 165.78 130.529 165.775 129.734C165.78 128.941 165.624 128.155 165.274 127.48C165.088 127.15 164.853 126.854 164.57 126.616C164.276 126.396 163.947 126.22 163.595 126.135C162.886 125.981 162.142 126.175 161.558 126.566C160.966 126.951 160.508 127.511 160.236 128.13C159.969 128.752 159.911 129.439 159.992 130.083C160.166 131.382 160.856 132.514 161.711 133.321C162.588 134.116 163.601 134.653 164.605 134.945C165.611 135.242 166.597 135.325 167.496 135.324C168.398 135.324 169.22 135.231 169.953 135.115C171.421 134.884 172.539 134.582 173.296 134.383C173.668 134.282 173.953 134.205 174.157 134.15C174.353 134.098 174.455 134.077 174.455 134.077Z" fill="black" fill-opacity="0.8"/>
<path d="M149.27 17.118H111.53V31.546H149.27V17.118Z" fill="#F5F5F5"/>
<path d="M149.271 31.546C149.271 31.546 149.265 31.4545 149.262 31.285C149.259 31.106 149.256 30.8575 149.252 30.536C149.247 29.871 149.24 28.908 149.23 27.6695C149.219 25.18 149.202 21.585 149.182 17.118L149.271 17.2076C139.839 17.2176 126.414 17.232 111.533 17.248H111.532H111.532L111.661 17.118C111.659 22.159 111.658 27.033 111.656 31.546L111.531 31.421C122.43 31.4445 131.847 31.465 138.551 31.4795C141.901 31.4945 144.573 31.506 146.419 31.5145C147.332 31.5215 148.04 31.5266 148.531 31.5306C148.766 31.534 148.947 31.5365 149.08 31.5385C149.203 31.541 149.271 31.546 149.271 31.546C149.273 31.5485 149.214 31.5511 149.095 31.5541C148.965 31.5561 148.789 31.5585 148.56 31.562C148.075 31.5655 147.376 31.571 146.474 31.578C144.635 31.586 141.973 31.5981 138.635 31.6131C131.91 31.6276 122.463 31.648 111.53 31.6715H111.405V31.546C111.404 27.033 111.402 22.159 111.4 17.118L111.531 16.9875H111.531H111.533C126.413 17.0035 139.839 17.018 149.271 17.028H149.361L149.36 17.1175C149.34 21.6075 149.323 25.2205 149.312 27.723C149.302 28.953 149.295 29.9095 149.29 30.5695C149.286 30.884 149.282 31.1275 149.28 31.302C149.277 31.467 149.271 31.546 149.271 31.546Z" fill="black" fill-opacity="0.8"/>
<path d="M194.472 239.251H170.032C168.942 239.251 168.056 238.373 168.046 237.283L167.454 171.37H195.866L196.458 237.248C196.467 238.351 195.575 239.251 194.472 239.251Z" fill="#C08B89"/>
<g opacity="0.3">
<path d="M190.877 185.989V236.745C190.877 236.745 194.874 238.075 195.071 234.573C195.269 231.071 195.159 185.989 195.159 185.989H190.877Z" fill="white"/>
</g>
<path d="M193.172 168.028H170.147C169.323 168.028 168.654 168.696 168.654 169.521V170.979H194.666V169.521C194.665 168.696 193.997 168.028 193.172 168.028Z" fill="#F5F5F5"/>
<path d="M193.172 168.028C193.172 168.028 193.257 168.011 193.422 168.033C193.584 168.056 193.838 168.113 194.103 168.312C194.364 168.504 194.64 168.853 194.704 169.342C194.731 169.824 194.72 170.362 194.73 170.979L194.731 171.043L194.665 171.043C189.9 171.083 180.697 171.109 170.148 171.109C169.636 171.109 169.127 171.109 168.654 171.109H168.524V170.979C168.524 170.512 168.524 170.047 168.524 169.586C168.503 169.094 168.729 168.587 169.11 168.274C169.3 168.117 169.526 168.005 169.764 167.947C170.008 167.884 170.248 167.904 170.464 167.901C170.911 167.901 171.355 167.902 171.794 167.902C173.55 167.905 175.241 167.908 176.85 167.911C180.062 167.921 182.946 167.931 185.37 167.939C187.774 167.956 189.72 167.97 191.085 167.979C191.743 167.989 192.261 167.997 192.633 168.003C192.798 168.008 192.93 168.012 193.035 168.015C193.126 168.019 193.172 168.023 193.172 168.028C193.172 168.032 193.126 168.036 193.035 168.041C192.93 168.044 192.798 168.048 192.633 168.053C192.261 168.059 191.743 168.067 191.085 168.077C189.72 168.087 187.774 168.101 185.37 168.118C182.946 168.126 180.062 168.135 176.85 168.146C175.241 168.149 173.55 168.152 171.794 168.154C171.355 168.155 170.911 168.155 170.464 168.156C170.235 168.158 170.02 168.143 169.825 168.196C169.625 168.245 169.435 168.339 169.275 168.472C168.554 169.017 168.845 170.065 168.784 170.979L168.654 170.849C169.128 170.849 169.636 170.849 170.148 170.849C180.697 170.849 189.9 170.875 194.665 170.915L194.601 170.979C194.601 170.367 194.621 169.813 194.605 169.354C194.555 168.895 194.304 168.558 194.061 168.366C193.546 167.982 193.158 168.061 193.172 168.028Z" fill="#263238"/>
<path d="M197.536 185.989H165.783C165.053 185.989 164.462 185.397 164.462 184.668V171.605C164.462 170.875 165.054 170.284 165.783 170.284H197.536C198.265 170.284 198.857 170.876 198.857 171.605V184.668C198.857 185.397 198.265 185.989 197.536 185.989Z" fill="#F5F5F5"/>
<path d="M197.536 185.989C197.535 185.98 197.623 185.985 197.785 185.951C197.944 185.916 198.188 185.834 198.421 185.611C199.003 185.171 198.769 184.108 198.806 182.894C198.796 180.405 198.782 176.823 198.764 172.401C198.763 172.125 198.761 171.846 198.76 171.563C198.753 171.299 198.652 171.039 198.484 170.83C198.311 170.624 198.071 170.47 197.802 170.413C197.542 170.361 197.226 170.393 196.928 170.385C195.718 170.387 194.461 170.39 193.158 170.392C190.553 170.396 187.77 170.4 184.842 170.404C178.983 170.407 172.543 170.411 165.784 170.414C165.401 170.413 165.027 170.606 164.81 170.918C164.698 171.071 164.631 171.254 164.604 171.44C164.581 171.618 164.595 171.845 164.591 172.049C164.591 172.883 164.59 173.713 164.59 174.536C164.589 176.182 164.588 177.804 164.588 179.398C164.587 180.992 164.586 182.558 164.585 184.091L164.585 184.665C164.584 184.839 164.622 185.01 164.693 185.166C164.836 185.478 165.117 185.726 165.445 185.818C165.611 185.868 165.773 185.869 165.967 185.867L166.524 185.868C166.895 185.868 167.263 185.869 167.629 185.869C173.485 185.879 178.76 185.889 183.193 185.897C187.615 185.914 191.198 185.928 193.686 185.938C194.916 185.949 195.876 185.957 196.54 185.963C196.857 185.968 197.103 185.973 197.281 185.976C197.45 185.98 197.536 185.989 197.536 185.989C197.536 185.989 197.451 185.998 197.283 186.002C197.105 186.005 196.859 186.01 196.541 186.015C195.877 186.021 194.918 186.029 193.688 186.04C191.199 186.05 187.617 186.064 183.195 186.081C178.761 186.089 173.486 186.099 167.63 186.109C167.264 186.11 166.896 186.11 166.525 186.11L165.968 186.111C165.79 186.113 165.573 186.113 165.378 186.053C164.982 185.942 164.644 185.646 164.471 185.269C164.384 185.081 164.338 184.873 164.339 184.665L164.338 184.092C164.337 182.558 164.336 180.993 164.335 179.399C164.335 177.805 164.333 176.183 164.333 174.536C164.333 173.713 164.333 172.884 164.333 172.049C164.338 171.836 164.32 171.643 164.348 171.405C164.38 171.178 164.463 170.956 164.599 170.769C164.863 170.389 165.32 170.152 165.786 170.155C172.545 170.158 178.984 170.162 184.843 170.165C187.772 170.169 190.555 170.173 193.16 170.177C194.462 170.179 195.72 170.182 196.93 170.184C197.234 170.196 197.523 170.159 197.846 170.221C198.158 170.289 198.436 170.469 198.634 170.708C198.829 170.95 198.943 171.253 198.949 171.557C198.949 171.842 198.949 172.123 198.949 172.401C198.932 176.823 198.918 180.405 198.908 182.894C198.904 183.512 198.899 184.062 198.896 184.541C198.924 185.031 198.706 185.434 198.457 185.65C198.209 185.875 197.954 185.95 197.79 185.978C197.622 186.003 197.536 185.989 197.536 185.989Z" fill="#263238"/>
<path d="M166.458 185.73C166.386 185.73 166.328 182.387 166.328 178.264C166.328 174.14 166.386 170.798 166.458 170.798C166.53 170.798 166.588 174.14 166.588 178.264C166.588 182.387 166.53 185.73 166.458 185.73Z" fill="#263238"/>
<path d="M169.059 185.73C168.987 185.73 168.93 182.387 168.93 178.264C168.93 174.14 168.988 170.798 169.059 170.798C169.131 170.798 169.189 174.14 169.189 178.264C169.189 182.387 169.131 185.73 169.059 185.73Z" fill="#263238"/>
<path d="M171.661 185.73C171.589 185.73 171.531 182.387 171.531 178.264C171.531 174.14 171.589 170.798 171.661 170.798C171.733 170.798 171.791 174.14 171.791 178.264C171.791 182.387 171.733 185.73 171.661 185.73Z" fill="#263238"/>
<path d="M174.262 185.73C174.19 185.73 174.132 182.387 174.132 178.264C174.132 174.14 174.19 170.798 174.262 170.798C174.333 170.798 174.392 174.14 174.392 178.264C174.392 182.387 174.334 185.73 174.262 185.73Z" fill="#263238"/>
<path d="M176.863 185.73C176.791 185.73 176.733 182.387 176.733 178.264C176.733 174.14 176.792 170.798 176.863 170.798C176.935 170.798 176.993 174.14 176.993 178.264C176.993 182.387 176.935 185.73 176.863 185.73Z" fill="#263238"/>
<path d="M179.464 185.73C179.392 185.73 179.333 182.387 179.333 178.264C179.333 174.14 179.392 170.798 179.464 170.798C179.536 170.798 179.594 174.14 179.594 178.264C179.594 182.387 179.536 185.73 179.464 185.73Z" fill="#263238"/>
<path d="M182.065 185.73C181.993 185.73 181.935 182.387 181.935 178.264C181.935 174.14 181.994 170.798 182.065 170.798C182.137 170.798 182.195 174.14 182.195 178.264C182.196 182.387 182.137 185.73 182.065 185.73Z" fill="#263238"/>
<path d="M184.667 185.73C184.595 185.73 184.536 182.387 184.536 178.264C184.536 174.14 184.595 170.798 184.667 170.798C184.739 170.798 184.796 174.14 184.796 178.264C184.796 182.387 184.738 185.73 184.667 185.73Z" fill="#263238"/>
<path d="M187.268 185.73C187.196 185.73 187.138 182.387 187.138 178.264C187.138 174.14 187.196 170.798 187.268 170.798C187.34 170.798 187.398 174.14 187.398 178.264C187.398 182.387 187.34 185.73 187.268 185.73Z" fill="#263238"/>
<path d="M189.869 185.73C189.797 185.73 189.739 182.387 189.739 178.264C189.739 174.14 189.797 170.798 189.869 170.798C189.941 170.798 189.999 174.14 189.999 178.264C189.999 182.387 189.941 185.73 189.869 185.73Z" fill="#263238"/>
<path d="M192.47 185.73C192.398 185.73 192.34 182.387 192.34 178.264C192.34 174.14 192.398 170.798 192.47 170.798C192.542 170.798 192.6 174.14 192.6 178.264C192.6 182.387 192.542 185.73 192.47 185.73Z" fill="#263238"/>
<path d="M195.071 185.73C194.999 185.73 194.941 182.387 194.941 178.264C194.941 174.14 195 170.798 195.071 170.798C195.143 170.798 195.201 174.14 195.201 178.264C195.201 182.387 195.143 185.73 195.071 185.73Z" fill="#263238"/>
<path d="M197.672 185.73C197.6 185.73 197.542 182.387 197.542 178.264C197.542 174.14 197.6 170.798 197.672 170.798C197.743 170.798 197.802 174.14 197.802 178.264C197.802 182.387 197.744 185.73 197.672 185.73Z" fill="#263238"/>
<path d="M194.272 197.818H169.679V217.51H194.272V197.818Z" fill="white"/>
<path d="M173.904 204.089L173.331 203.262H173.298H172.699V204.089H172.013V201.121H173.298C173.56 201.121 173.788 201.165 173.982 201.252C174.175 201.34 174.325 201.464 174.43 201.625C174.534 201.786 174.586 201.977 174.586 202.198C174.586 202.418 174.534 202.608 174.427 202.768C174.321 202.927 174.17 203.05 173.976 203.134L174.641 204.088H173.904V204.089ZM173.73 201.814C173.622 201.725 173.466 201.68 173.26 201.68H172.7V202.715H173.26C173.466 202.715 173.623 202.669 173.73 202.579C173.837 202.488 173.891 202.361 173.891 202.197C173.891 202.031 173.837 201.903 173.73 201.814Z" fill="#263238"/>
<path d="M175.406 206.14L174.727 205.164L174.06 206.14H173.313L174.354 204.71L173.365 203.328H174.104L174.751 204.24L175.386 203.328H176.089L175.109 204.686L176.158 206.14H175.406Z" fill="#263238"/>
<path d="M192.47 201.112H178.426V203.247H192.47V201.112Z" fill="#E0E0E0"/>
<path d="M190.877 208.548C190.877 208.62 186.775 208.678 181.716 208.678C176.656 208.678 172.555 208.619 172.555 208.548C172.555 208.476 176.656 208.418 181.716 208.418C186.775 208.418 190.877 208.476 190.877 208.548Z" fill="#263238"/>
<path d="M190.877 210.772C190.877 210.844 186.775 210.902 181.716 210.902C176.656 210.902 172.555 210.844 172.555 210.772C172.555 210.7 176.656 210.642 181.716 210.642C186.775 210.642 190.877 210.7 190.877 210.772Z" fill="#263238"/>
<path d="M180.723 213.553H171.233V215.383H180.723V213.553Z" fill="#E0E0E0"/>
<path d="M193.716 216.907C193.716 216.907 193.708 216.784 193.704 216.556C193.701 216.317 193.697 215.983 193.691 215.554C193.685 214.669 193.675 213.393 193.663 211.771C193.65 208.512 193.631 203.868 193.607 198.27L193.715 198.378C186.98 198.384 178.871 198.392 170.142 198.4C170.111 198.427 170.386 198.154 170.27 198.272V198.277V198.287V198.307V198.346V198.425V198.583V198.897V199.525C170.27 199.942 170.27 200.358 170.27 200.772C170.269 201.601 170.269 202.423 170.269 203.237C170.268 204.865 170.267 206.464 170.267 208.027C170.263 211.151 170.26 214.129 170.257 216.907L170.14 216.791C177.12 216.815 182.997 216.835 187.143 216.849C189.21 216.862 190.845 216.873 191.977 216.88C192.53 216.886 192.96 216.891 193.264 216.894C193.403 216.897 193.513 216.899 193.598 216.901C193.674 216.903 193.714 216.905 193.716 216.907C193.718 216.909 193.683 216.912 193.612 216.914C193.529 216.915 193.424 216.918 193.291 216.92C192.992 216.924 192.57 216.928 192.027 216.934C190.901 216.941 189.275 216.952 187.219 216.965C183.054 216.98 177.151 217 170.14 217.024L170.024 217.024V216.907C170.021 214.129 170.017 211.151 170.014 208.027C170.013 206.464 170.012 204.865 170.011 203.237C170.011 202.422 170.011 201.601 170.011 200.772C170.011 200.358 170.011 199.942 170.011 199.525V198.897V198.583V198.425V198.346V198.307V198.287V198.277V198.272C169.894 198.387 170.169 198.11 170.143 198.139C178.872 198.147 186.981 198.155 193.716 198.161H193.825L193.824 198.269C193.801 203.896 193.782 208.563 193.768 211.838C193.756 213.45 193.747 214.718 193.74 215.598C193.735 216.018 193.731 216.345 193.728 216.579C193.724 216.8 193.716 216.907 193.716 216.907Z" fill="#263238"/>
<path d="M169.059 233.876C168.987 233.876 168.93 223.596 168.93 210.917C168.93 198.234 168.988 187.956 169.059 187.956C169.131 187.956 169.189 198.234 169.189 210.917C169.189 223.596 169.131 233.876 169.059 233.876Z" fill="white"/>
<path d="M194.298 238.181C194.298 238.253 188.933 238.311 182.316 238.311C175.697 238.311 170.333 238.252 170.333 238.181C170.333 238.109 175.697 238.051 182.316 238.051C188.933 238.05 194.298 238.109 194.298 238.181Z" fill="#263238"/>
<path d="M218.673 239.219H198.874C197.991 239.219 197.274 238.508 197.266 237.625L196.786 184.228H219.803L220.283 237.596C220.29 238.49 219.567 239.219 218.673 239.219Z" fill="#01BCA7"/>
<g opacity="0.3">
<path d="M215.761 196.071V237.189C215.761 237.189 218.999 238.266 219.159 235.429C219.319 232.592 219.23 196.071 219.23 196.071H215.761Z" fill="white"/>
</g>
<path d="M217.337 181.52H199.251C198.427 181.52 197.758 182.189 197.758 183.013V183.911H218.83V183.013C218.83 182.189 218.162 181.52 217.337 181.52Z" fill="#F5F5F5"/>
<path d="M217.337 181.52C217.337 181.52 217.409 181.506 217.551 181.519C217.692 181.532 217.908 181.576 218.15 181.721C218.389 181.863 218.656 182.121 218.797 182.515C218.871 182.708 218.894 182.944 218.889 183.171C218.891 183.403 218.893 183.65 218.896 183.91L218.896 183.976L218.829 183.976C214.934 184.015 207.618 184.04 199.252 184.04C198.74 184.04 198.232 184.04 197.758 184.04H197.625L197.628 183.91C197.636 183.53 197.61 183.185 197.646 182.783C197.701 182.387 197.909 182.018 198.212 181.768C198.513 181.514 198.911 181.385 199.29 181.392C199.646 181.393 199.999 181.393 200.349 181.394C201.747 181.397 203.092 181.4 204.372 181.402C206.925 181.413 209.216 181.422 211.144 181.431C213.047 181.448 214.589 181.461 215.681 181.471C216.197 181.481 216.607 181.489 216.909 181.495C217.19 181.503 217.337 181.512 217.337 181.52C217.337 181.529 217.19 181.537 216.909 181.545C216.607 181.551 216.198 181.559 215.682 181.569C214.59 181.579 213.048 181.592 211.145 181.609C209.217 181.617 206.926 181.627 204.372 181.638C203.092 181.64 201.747 181.643 200.35 181.646C200 181.647 199.647 181.647 199.291 181.648C198.959 181.643 198.634 181.752 198.378 181.966C198.123 182.177 197.949 182.487 197.904 182.82C197.873 183.149 197.896 183.547 197.889 183.911L197.758 183.781C198.233 183.781 198.741 183.781 199.253 183.78C207.62 183.78 214.936 183.806 218.831 183.844L218.764 183.91C218.767 183.65 218.77 183.404 218.772 183.171C218.781 182.937 218.766 182.735 218.702 182.548C218.58 182.177 218.336 181.924 218.113 181.78C217.65 181.492 217.328 181.551 217.337 181.52Z" fill="#263238"/>
<path d="M220.906 196.071H195.684C194.954 196.071 194.363 195.479 194.363 194.75V184.669C194.363 183.94 194.955 183.349 195.684 183.349H220.906C221.635 183.349 222.226 183.94 222.226 184.669V194.75C222.226 195.479 221.635 196.071 220.906 196.071Z" fill="#F5F5F5"/>
<path d="M220.906 196.071C220.896 196.045 221.208 196.105 221.644 195.813C221.851 195.664 222.072 195.406 222.154 195.039C222.199 194.858 222.181 194.653 222.182 194.43C222.18 194.208 222.178 193.972 222.176 193.723C222.166 191.713 222.152 188.828 222.134 185.268C222.132 185.048 222.137 184.814 222.128 184.597C222.118 184.384 222.045 184.176 221.927 183.995C221.685 183.629 221.249 183.413 220.778 183.449C219.804 183.451 218.79 183.454 217.741 183.456C215.642 183.46 213.399 183.464 211.04 183.468C206.319 183.471 201.132 183.475 195.686 183.478C195.06 183.463 194.499 184.011 194.495 184.628C194.494 185.299 194.493 185.965 194.493 186.627C194.492 187.954 194.491 189.261 194.491 190.545C194.49 191.829 194.489 193.09 194.488 194.326C194.494 194.643 194.458 194.938 194.572 195.191C194.674 195.448 194.866 195.667 195.106 195.8C195.355 195.939 195.61 195.96 195.921 195.949C196.219 195.95 196.516 195.95 196.811 195.95C201.529 195.961 205.778 195.97 209.352 195.978C212.911 195.996 215.796 196.01 217.806 196.02C218.793 196.03 219.565 196.039 220.105 196.044C220.357 196.05 220.555 196.054 220.702 196.057C220.837 196.062 220.906 196.066 220.906 196.071C220.906 196.075 220.837 196.08 220.702 196.084C220.555 196.087 220.357 196.092 220.105 196.097C219.565 196.103 218.793 196.111 217.806 196.122C215.796 196.132 212.911 196.146 209.352 196.163C205.778 196.171 201.529 196.181 196.811 196.191C196.516 196.192 196.219 196.192 195.921 196.192C195.638 196.206 195.271 196.182 194.988 196.014C194.698 195.855 194.466 195.592 194.342 195.282C194.279 195.127 194.245 194.96 194.242 194.792L194.239 194.327C194.238 193.091 194.237 191.83 194.236 190.545C194.236 189.261 194.235 187.954 194.234 186.628C194.235 185.963 194.235 185.294 194.236 184.62C194.24 183.867 194.924 183.2 195.687 183.219C201.132 183.222 206.32 183.226 211.041 183.229C213.4 183.233 215.643 183.237 217.742 183.241C218.791 183.244 219.805 183.246 220.779 183.249C221.286 183.209 221.822 183.465 222.089 183.89C222.225 184.1 222.308 184.343 222.318 184.587C222.325 184.826 222.319 185.044 222.32 185.27C222.302 188.829 222.288 191.714 222.278 193.725C222.276 193.974 222.274 194.209 222.272 194.431C222.267 194.649 222.282 194.863 222.23 195.058C222.135 195.445 221.895 195.71 221.675 195.857C221.45 196.006 221.245 196.052 221.111 196.068C220.975 196.083 220.906 196.071 220.906 196.071Z" fill="#263238"/>
<path d="M195.98 195.861C195.908 195.861 195.85 193.153 195.85 189.813C195.85 186.472 195.909 183.765 195.98 183.765C196.052 183.765 196.11 186.472 196.11 189.813C196.11 193.153 196.052 195.861 195.98 195.861Z" fill="#263238"/>
<path d="M198.087 195.861C198.015 195.861 197.957 193.153 197.957 189.813C197.957 186.472 198.016 183.765 198.087 183.765C198.159 183.765 198.217 186.472 198.217 189.813C198.218 193.153 198.159 195.861 198.087 195.861Z" fill="#263238"/>
<path d="M200.195 195.861C200.123 195.861 200.065 193.153 200.065 189.813C200.065 186.472 200.123 183.765 200.195 183.765C200.266 183.765 200.325 186.472 200.325 189.813C200.325 193.153 200.267 195.861 200.195 195.861Z" fill="#263238"/>
<path d="M202.302 195.861C202.23 195.861 202.172 193.153 202.172 189.813C202.172 186.472 202.23 183.765 202.302 183.765C202.373 183.765 202.432 186.472 202.432 189.813C202.432 193.153 202.374 195.861 202.302 195.861Z" fill="#263238"/>
<path d="M204.409 195.861C204.337 195.861 204.279 193.153 204.279 189.813C204.279 186.472 204.338 183.765 204.409 183.765C204.481 183.765 204.539 186.472 204.539 189.813C204.539 193.153 204.481 195.861 204.409 195.861Z" fill="#263238"/>
<path d="M206.516 195.861C206.444 195.861 206.386 193.153 206.386 189.813C206.386 186.472 206.445 183.765 206.516 183.765C206.588 183.765 206.646 186.472 206.646 189.813C206.646 193.153 206.588 195.861 206.516 195.861Z" fill="#263238"/>
<path d="M208.623 195.861C208.551 195.861 208.493 193.153 208.493 189.813C208.493 186.472 208.552 183.765 208.623 183.765C208.695 183.765 208.753 186.472 208.753 189.813C208.754 193.153 208.695 195.861 208.623 195.861Z" fill="#263238"/>
<path d="M210.731 195.861C210.659 195.861 210.601 193.153 210.601 189.813C210.601 186.472 210.659 183.765 210.731 183.765C210.802 183.765 210.861 186.472 210.861 189.813C210.861 193.153 210.802 195.861 210.731 195.861Z" fill="#263238"/>
<path d="M212.838 195.861C212.766 195.861 212.708 193.153 212.708 189.813C212.708 186.472 212.766 183.765 212.838 183.765C212.909 183.765 212.968 186.472 212.968 189.813C212.968 193.153 212.91 195.861 212.838 195.861Z" fill="#263238"/>
<path d="M214.945 195.861C214.873 195.861 214.815 193.153 214.815 189.813C214.815 186.472 214.873 183.765 214.945 183.765C215.016 183.765 215.075 186.472 215.075 189.813C215.075 193.153 215.017 195.861 214.945 195.861Z" fill="#263238"/>
<path d="M217.052 195.861C216.98 195.861 216.922 193.153 216.922 189.813C216.922 186.472 216.981 183.765 217.052 183.765C217.124 183.765 217.182 186.472 217.182 189.813C217.182 193.153 217.124 195.861 217.052 195.861Z" fill="#263238"/>
<path d="M219.159 195.861C219.087 195.861 219.029 193.153 219.029 189.813C219.029 186.472 219.088 183.765 219.159 183.765C219.231 183.765 219.289 186.472 219.289 189.813C219.29 193.153 219.231 195.861 219.159 195.861Z" fill="#263238"/>
<path d="M221.267 195.861C221.195 195.861 221.137 193.153 221.137 189.813C221.137 186.472 221.195 183.765 221.267 183.765C221.338 183.765 221.397 186.472 221.397 189.813C221.397 193.153 221.338 195.861 221.267 195.861Z" fill="#263238"/>
<path d="M218.513 205.654H198.59V221.607H218.513V205.654Z" fill="white"/>
<path d="M202.012 210.734L201.548 210.064H201.52H201.036V210.734H200.48V208.329H201.52C201.733 208.329 201.918 208.365 202.075 208.436C202.232 208.507 202.353 208.608 202.437 208.738C202.522 208.869 202.564 209.023 202.564 209.202C202.564 209.381 202.521 209.534 202.436 209.664C202.35 209.793 202.228 209.892 202.07 209.961L202.609 210.734H202.012ZM201.871 208.891C201.784 208.819 201.657 208.783 201.49 208.783H201.036V209.621H201.49C201.657 209.621 201.784 209.585 201.871 209.511C201.958 209.438 202.002 209.335 202.002 209.202C202.002 209.067 201.958 208.963 201.871 208.891Z" fill="#263238"/>
<path d="M203.229 212.396L202.679 211.605L202.139 212.396H201.533L202.376 211.237L201.575 210.118H202.174L202.698 210.857L203.212 210.118H203.781L202.987 211.218L203.837 212.396H203.229Z" fill="#263238"/>
<path d="M217.052 208.323H205.675V210.052H217.052V208.323Z" fill="#E0E0E0"/>
<path d="M215.761 214.346C215.761 214.418 212.438 214.476 208.34 214.476C204.241 214.476 200.919 214.418 200.919 214.346C200.919 214.275 204.241 214.216 208.34 214.216C212.438 214.216 215.761 214.274 215.761 214.346Z" fill="#263238"/>
<path d="M215.761 216.148C215.761 216.22 212.438 216.278 208.34 216.278C204.241 216.278 200.919 216.22 200.919 216.148C200.919 216.077 204.241 216.018 208.34 216.018C212.438 216.018 215.761 216.076 215.761 216.148Z" fill="#263238"/>
<path d="M207.536 218.401H199.848V219.884H207.536V218.401Z" fill="#E0E0E0"/>
<path d="M218.062 221.118C218.062 221.118 218.054 221.017 218.05 220.831C218.047 220.633 218.043 220.362 218.037 220.018C218.031 219.295 218.021 218.261 218.009 216.95C217.996 214.307 217.976 210.548 217.953 206.019L218.061 206.127C212.604 206.134 206.034 206.141 198.964 206.149C198.934 206.177 199.209 205.904 199.093 206.021V206.025V206.033V206.049V206.081V206.145V206.273V206.527V207.035C199.093 207.373 199.093 207.71 199.093 208.046C199.092 208.717 199.092 209.383 199.092 210.042C199.091 211.362 199.09 212.657 199.09 213.923C199.086 216.454 199.083 218.866 199.08 221.117L198.963 221C204.611 221.024 209.368 221.044 212.73 221.059C214.402 221.072 215.726 221.082 216.649 221.09C217.094 221.096 217.441 221.1 217.693 221.104C217.804 221.106 217.893 221.109 217.965 221.11C218.027 221.113 218.059 221.116 218.062 221.118C218.064 221.12 218.036 221.123 217.979 221.125C217.91 221.127 217.825 221.129 217.72 221.132C217.473 221.135 217.133 221.14 216.698 221.146C215.781 221.153 214.466 221.164 212.806 221.177C209.425 221.191 204.642 221.211 198.963 221.235L198.847 221.236V221.119C198.844 218.868 198.84 216.455 198.837 213.925C198.836 212.659 198.835 211.364 198.834 210.044C198.834 209.385 198.834 208.719 198.834 208.048C198.834 207.712 198.834 207.375 198.834 207.037V206.529V206.275V206.147V206.083V206.05V206.034V206.026V206.022C198.717 206.137 198.992 205.861 198.966 205.89C206.036 205.898 212.605 205.906 218.063 205.912H218.171L218.171 206.02C218.148 210.577 218.128 214.359 218.115 217.018C218.103 218.319 218.093 219.344 218.087 220.061C218.082 220.397 218.077 220.66 218.074 220.854C218.069 221.032 218.066 221.122 218.062 221.118Z" fill="#263238"/>
<path d="M198.087 234.865C198.015 234.865 197.957 226.537 197.957 216.266C197.957 205.991 198.016 197.665 198.087 197.665C198.159 197.665 198.217 205.991 198.217 216.266C198.218 226.537 198.159 234.865 198.087 234.865Z" fill="white"/>
<path d="M218.533 238.352C218.533 238.424 214.187 238.482 208.827 238.482C203.465 238.482 199.12 238.423 199.12 238.352C199.12 238.28 203.465 238.222 208.827 238.222C214.187 238.221 218.533 238.28 218.533 238.352Z" fill="#263238"/>
<path d="M58.6565 217.867L55.339 229.64C55.339 229.64 65.9055 237.049 65.499 239.286L42.9865 233.516L47.4205 214.954L58.6565 217.867Z" fill="black" fill-opacity="0.8"/>
<path d="M48.622 226.857C48.1565 226.868 47.733 227.292 47.724 227.769C47.715 228.246 48.133 228.691 48.5985 228.689C49.064 228.687 49.588 228.193 49.5445 227.718C49.5015 227.243 48.983 226.748 48.5315 226.865" fill="#F5F5F5"/>
<g opacity="0.6">
<path d="M42.987 233.516L43.5055 231.663L64.8965 237.888C64.8965 237.888 65.7895 238.592 65.4995 239.286L42.987 233.516Z" fill="white"/>
</g>
<path d="M55.733 229.617C55.702 229.729 55.14 229.639 54.5105 229.862C53.8755 230.069 53.4775 230.485 53.387 230.415C53.291 230.367 53.6195 229.736 54.386 229.479C55.15 229.215 55.782 229.52 55.733 229.617Z" fill="black" fill-opacity="0.8"/>
<path d="M57.85 231.223C57.8485 231.338 57.3255 231.408 56.836 231.788C56.3355 232.154 56.1155 232.645 56.007 232.612C55.8995 232.604 55.9845 231.924 56.602 231.463C57.2155 230.996 57.8735 231.115 57.85 231.223Z" fill="black" fill-opacity="0.8"/>
<path d="M58.484 234.461C58.378 234.46 58.3625 233.858 58.7955 233.313C59.2245 232.766 59.8025 232.655 59.826 232.761C59.8655 232.869 59.451 233.115 59.102 233.567C58.7435 234.012 58.596 234.479 58.484 234.461Z" fill="black" fill-opacity="0.8"/>
<path d="M56.1985 226.848C56.1275 226.939 55.661 226.654 55.029 226.538C54.3995 226.409 53.8635 226.498 53.83 226.387C53.786 226.289 54.36 225.993 55.1025 226.141C55.8455 226.283 56.274 226.773 56.1985 226.848Z" fill="black" fill-opacity="0.8"/>
<path d="M50.7645 220.639L50.242 232.882C50.242 232.882 62.2125 237.537 62.331 239.809L39.1255 239.624L39.1755 220.515L50.7645 220.639Z" fill="black" fill-opacity="0.8"/>
<path d="M43.0745 231.794C42.6245 231.917 42.31 232.431 42.4105 232.897C42.511 233.363 43.0195 233.695 43.472 233.581C43.924 233.467 44.32 232.861 44.169 232.409C44.018 231.958 43.4005 231.602 42.9885 231.824" fill="#F5F5F5"/>
<g opacity="0.6">
<path d="M39.1255 239.624L39.204 237.698L61.424 238.596C61.424 238.596 62.4535 239.064 62.331 239.809L39.1255 239.624Z" fill="white"/>
</g>
<path d="M50.619 232.764C50.6145 232.88 50.0475 232.927 49.487 233.296C48.917 233.65 48.626 234.151 48.522 234.104C48.418 234.081 48.592 233.388 49.278 232.954C49.9605 232.513 50.6445 232.657 50.619 232.764Z" fill="black" fill-opacity="0.8"/>
<path d="M53.0455 233.815C53.0705 233.927 52.5785 234.121 52.1895 234.609C51.787 235.085 51.686 235.615 51.573 235.609C51.4665 235.627 51.393 234.946 51.8875 234.349C52.3765 233.747 53.0435 233.704 53.0455 233.815Z" fill="black" fill-opacity="0.8"/>
<path d="M54.405 236.81C54.302 236.834 54.1485 236.253 54.4445 235.619C54.736 234.984 55.272 234.737 55.3195 234.834C55.383 234.93 55.036 235.269 54.801 235.793C54.554 236.31 54.5175 236.8 54.405 236.81Z" fill="black" fill-opacity="0.8"/>
<path d="M50.436 229.96C50.3875 230.066 49.869 229.901 49.228 229.941C48.5865 229.967 48.0865 230.183 48.028 230.083C47.963 229.999 48.453 229.573 49.2085 229.537C49.9635 229.496 50.4925 229.869 50.436 229.96Z" fill="black" fill-opacity="0.8"/>
<path d="M36.409 131.055V140.735L38.9465 178.448C38.9465 178.448 37.367 196.742 36.3975 207.069C35.5555 216.037 36.932 231.656 36.932 231.656H51.7025L56.987 179.568L60.267 147.083L65.9735 132.298L36.409 131.055Z" fill="black" fill-opacity="0.8"/>
<path d="M75.3055 132.741L72.4765 185.355L57.534 224.748L56.8475 227.12L48.0225 224.935L54.5855 131.716L75.3055 132.741Z" fill="black" fill-opacity="0.8"/>
<path d="M60.228 147.471C60.2325 147.471 60.2345 147.545 60.233 147.69C60.23 147.848 60.226 148.061 60.2205 148.332C60.203 148.911 60.178 149.739 60.146 150.798C60.0865 152.94 59.9365 156.037 59.7245 159.862C59.279 167.511 58.4475 178.067 57.1515 189.684C55.8755 201.306 54.466 211.795 53.436 219.383C52.913 223.165 52.489 226.23 52.194 228.367C52.0435 229.415 51.9255 230.234 51.8435 230.807C51.802 231.075 51.7695 231.285 51.7455 231.441C51.722 231.584 51.7075 231.657 51.7025 231.656C51.698 231.655 51.703 231.581 51.7175 231.437C51.735 231.28 51.7585 231.069 51.7885 230.8C51.859 230.225 51.9595 229.403 52.088 228.352C52.363 226.213 52.757 223.144 53.244 219.357C54.2245 211.762 55.603 201.271 56.8785 189.653C58.1745 178.04 59.036 167.493 59.531 159.85C59.768 156.028 59.9475 152.934 60.04 150.793C60.094 149.735 60.1365 148.908 60.166 148.33C60.183 148.059 60.196 147.847 60.2055 147.689C60.2155 147.545 60.223 147.471 60.228 147.471Z" fill="black" fill-opacity="0.8"/>
<path d="M61.1635 134.309C61.1635 134.739 60.823 135.088 60.4035 135.088C59.984 135.088 59.6435 134.739 59.6435 134.309C59.6435 133.879 59.984 133.531 60.4035 133.531C60.8235 133.531 61.1635 133.879 61.1635 134.309Z" fill="black" fill-opacity="0.8"/>
<path d="M74.149 141.658C74.129 141.681 73.695 141.337 73.1075 140.658C72.52 139.982 71.8055 138.947 71.25 137.681C70.698 136.412 70.4205 135.177 70.3195 134.278C70.2165 133.377 70.2545 132.816 70.2845 132.816C70.3305 132.814 70.3615 133.37 70.512 134.248C70.6605 135.126 70.9615 136.324 71.5015 137.566C72.0455 138.805 72.7175 139.832 73.2575 140.531C73.797 141.231 74.181 141.625 74.149 141.658Z" fill="black" fill-opacity="0.8"/>
<path d="M72.3835 83.592C72.3835 83.592 75.212 84.7005 76.5195 88.841C77.429 91.7215 81.692 113.161 81.692 113.161L75.751 117.077L73.3375 97.022L72.3835 83.592Z" fill="#F5F5F5"/>
<path d="M49.7955 73.3485L47.9345 76.6505C47.9345 76.6505 35.5045 82.969 35.5475 83.592C35.5475 83.592 36.2385 107.181 36.3705 124.483C36.4205 131.019 36.18 137.023 36.0485 139.91C35.7035 147.484 35.436 176.9 35.436 176.9L80.4385 175.835L72.3835 83.5925L66.0365 80.8155L65.226 79.1585L62.3095 76.791L49.7955 73.3485Z" fill="#F5F5F5"/>
<path d="M69.5135 176.093C69.518 176.092 69.5185 176.024 69.514 175.892C69.508 175.746 69.4995 175.551 69.489 175.303C69.46 174.771 69.4195 174.012 69.367 173.042C69.25 171.064 69.082 168.228 68.875 164.73C68.4505 157.698 67.866 148.009 67.2205 137.307C66.604 126.6 66.046 116.908 65.6415 109.876C65.454 106.377 65.3015 103.54 65.1955 101.561C65.141 100.592 65.098 99.8331 65.068 99.3006C65.051 99.0531 65.038 98.8586 65.028 98.7131C65.0175 98.5806 65.01 98.5131 65.005 98.5131C65.0005 98.5131 64.999 98.5816 65 98.7141C65.003 98.8601 65.0075 99.0551 65.013 99.3026C65.031 99.8356 65.0565 100.595 65.0895 101.566C65.1575 103.531 65.286 106.373 65.449 109.885C65.782 116.909 66.3095 126.61 66.9485 137.323C67.5865 148.032 68.21 157.726 68.6825 164.742C68.9255 168.238 69.123 171.072 69.2605 173.049C69.3345 174.018 69.3925 174.775 69.4335 175.307C69.4555 175.554 69.4725 175.748 69.4855 175.894C69.4995 176.026 69.5085 176.093 69.5135 176.093Z" fill="black" fill-opacity="0.8"/>
<path d="M62.3095 76.7905L63.3555 84.0135L65.226 98.514L57.077 84.526L50.0005 75.2565L61.658 83.4255L61.806 76.6535" fill="#C08B89"/>
<path d="M47.879 77.089C47.867 77.0945 47.9455 77.2925 48.103 77.6565C48.2785 78.05 48.5115 78.5735 48.8 79.221C49.43 80.592 50.3 82.484 51.329 84.7225L51.361 84.792L51.4395 84.7925C51.9795 84.7945 52.5525 84.797 53.1415 84.799L53.06 84.5715C52.6635 84.896 52.2405 85.242 51.809 85.5955L51.6945 85.689L51.8005 85.7925C52.5585 86.535 53.3545 87.3145 54.172 88.115C57.1365 90.991 59.819 93.593 61.793 95.508C62.7575 96.4255 63.547 97.177 64.124 97.726C64.3855 97.967 64.5985 98.1635 64.7675 98.319C64.9165 98.4525 64.998 98.5195 65.005 98.5125C65.0115 98.506 64.943 98.426 64.806 98.2795C64.6465 98.114 64.4455 97.9055 64.198 97.65C63.636 97.0855 62.8665 96.313 61.927 95.37C59.9675 93.4405 57.3045 90.818 54.3615 87.92C53.5425 87.121 52.745 86.3435 51.9855 85.6025L51.977 85.7995C52.4065 85.444 52.8275 85.096 53.2225 84.769L53.499 84.54L53.141 84.5415C52.552 84.544 51.979 84.546 51.439 84.548L51.549 84.618C50.484 82.397 49.583 80.5185 48.931 79.1585C48.617 78.523 48.363 78.0095 48.172 77.623C47.993 77.27 47.891 77.0835 47.879 77.089Z" fill="black" fill-opacity="0.8"/>
<path d="M65.226 98.514C65.2445 98.5165 65.302 98.1965 65.3895 97.6165C65.4775 96.991 65.594 96.161 65.7355 95.156C66.016 93.077 66.3845 90.2025 66.775 87.026C66.8995 86.0015 67.02 85.0085 67.1345 84.0655L67.1485 83.9485L67.035 83.9215C66.322 83.752 65.639 83.59 64.992 83.4365L64.984 83.6755C65.7195 83.5435 66.4055 83.4205 67.037 83.3075L67.1735 83.283L67.1165 83.1595C66.564 81.9605 66.1065 80.9665 65.766 80.227C65.612 79.9075 65.4845 79.644 65.3805 79.4285C65.289 79.247 65.236 79.153 65.226 79.1575C65.216 79.162 65.25 79.264 65.323 79.454C65.4125 79.6755 65.5225 79.947 65.656 80.2755C65.975 81.024 66.404 82.031 66.922 83.2455L67.0015 83.0975C66.368 83.2015 65.6805 83.314 64.943 83.435L64.356 83.531L64.935 83.674C65.5805 83.8335 66.262 84.0015 66.974 84.177L66.8745 84.0335C66.757 84.976 66.6335 85.9685 66.506 86.9925C66.1155 90.169 65.777 93.0475 65.5455 95.1325C65.439 96.1415 65.3515 96.975 65.2855 97.6035C65.229 98.1875 65.2075 98.5115 65.226 98.514Z" fill="black" fill-opacity="0.8"/>
<path d="M58.272 137.105C58.276 137.1 58.1775 137.104 57.9825 137.115C57.7695 137.129 57.481 137.148 57.1145 137.172C56.3295 137.229 55.21 137.31 53.796 137.413C50.9015 137.635 46.803 137.95 41.904 138.327L41.785 138.335L41.7955 138.455C41.9865 140.692 42.1945 143.118 42.4135 145.682C42.5245 146.965 42.638 148.281 42.7545 149.626C42.813 150.298 42.872 150.977 42.9315 151.662C42.9575 151.999 42.995 152.365 43.094 152.711C43.201 153.056 43.3585 153.387 43.5635 153.688C44.2195 154.635 45.2895 155.187 46.3605 155.377C47.4415 155.526 48.4905 155.547 49.5305 155.546C51.6045 155.521 53.6095 155.344 55.4735 154.894C55.9375 154.775 56.394 154.64 56.8275 154.452C57.0465 154.364 57.256 154.254 57.458 154.129C57.5625 154.077 57.65 153.975 57.7445 153.9C57.833 153.815 57.894 153.712 57.969 153.618C58.4625 152.809 58.6155 151.92 58.7465 151.085C58.9825 149.399 58.99 147.817 58.981 146.379C58.9355 143.501 58.7295 141.182 58.576 139.582C58.4965 138.782 58.4245 138.162 58.3705 137.742C58.343 137.545 58.321 137.388 58.304 137.266C58.289 137.161 58.275 137.1 58.272 137.105C58.269 137.11 58.2685 137.159 58.277 137.27C58.287 137.393 58.3 137.55 58.3165 137.749C58.3535 138.188 58.405 138.806 58.4715 139.592C58.5925 141.192 58.769 143.513 58.7895 146.381C58.7865 147.813 58.7665 149.39 58.524 151.052C58.394 151.872 58.226 152.752 57.771 153.485C57.5485 153.849 57.1545 154.053 56.7315 154.227C56.315 154.406 55.8685 154.536 55.413 154.651C53.58 155.087 51.585 155.258 49.529 155.279C48.504 155.28 47.442 155.254 46.408 155.111C45.3915 154.929 44.39 154.406 43.7865 153.533C43.598 153.256 43.453 152.953 43.354 152.635C43.263 152.313 43.2285 151.988 43.201 151.639C43.141 150.954 43.0815 150.274 43.0225 149.602C42.904 148.258 42.788 146.942 42.675 145.66C42.4465 143.097 42.2305 140.671 42.0315 138.435L41.923 138.564C46.787 138.141 50.857 137.787 53.731 137.537C55.154 137.407 56.2805 137.304 57.0705 137.232C57.4455 137.195 57.7405 137.166 57.9585 137.145C58.1615 137.123 58.268 137.11 58.272 137.105Z" fill="black" fill-opacity="0.8"/>
<g opacity="0.3">
<path d="M43.111 152.372C44.3785 155.678 47.697 155.878 51.2625 155.357C54.62 154.865 57.85 154.16 58.0975 153.199C58.0105 154.953 56.718 156.301 55.1085 157.003C53.4985 157.705 51.7 157.805 49.9455 157.728C48.1095 157.647 46.524 157.727 45.009 156.686C43.494 155.646 43.1065 153.878 43.111 152.372Z" fill="black"/>
</g>
<path d="M77.146 138.129C77.1415 138.13 77.1335 138.088 77.1215 138.007C77.109 137.91 77.094 137.791 77.0755 137.644C77.039 137.304 76.9885 136.838 76.925 136.248C76.804 135.013 76.6325 133.263 76.4215 131.11C76.009 126.77 75.4595 120.772 74.8785 114.145C74.298 107.516 73.7975 101.514 73.4665 97.1661C73.301 94.9921 73.178 93.2321 73.1085 92.0146C73.069 91.4066 73.054 90.9326 73.0435 90.6116C73.0405 90.4641 73.0375 90.3441 73.0355 90.2466C73.035 90.1641 73.037 90.1221 73.0415 90.1221C73.1645 91.5306 73.9985 101.084 75.1375 114.123C75.7095 120.74 76.2275 126.731 76.6045 131.093C76.781 133.249 76.924 135.002 77.0255 136.239C77.0685 136.831 77.1025 137.298 77.1275 137.64C77.1355 137.787 77.142 137.907 77.1475 138.005C77.151 138.087 77.1505 138.129 77.146 138.129Z" fill="black" fill-opacity="0.8"/>
<path d="M83.667 113.634C83.667 113.634 83.979 114.674 83.875 115.767C83.771 116.859 83.719 119.549 80.8055 120.467C77.892 121.385 76.4775 120.511 75.578 119.276L75.1375 113.925L78.256 111.865L83.667 113.634Z" fill="#F5F5F5"/>
<g opacity="0.3">
<path d="M59.309 117.076C59.309 117.076 51.854 124.442 46.0635 125.503C40.273 126.565 38.205 124.493 36.664 119.319L59.309 117.076Z" fill="black"/>
</g>
<path d="M35.682 83.4091C35.682 83.4091 30.945 87.8021 32.2935 98.1956C33.5465 107.853 35.771 121.307 38.7365 122.868C41.702 124.429 48.101 123.648 52.7835 120.995C57.466 118.341 71.0445 111.162 71.0445 111.162L65.4255 101.173L47.3205 108.196C47.3205 108.196 44.9795 92.1761 43.5745 89.4166" fill="#F5F5F5"/>
<path d="M43.5175 89.1975C43.5175 89.1975 43.569 89.2985 43.6585 89.5035C43.702 89.606 43.7605 89.7325 43.8205 89.887C43.872 90.0455 43.931 90.228 43.998 90.434C44.264 91.2635 44.5815 92.51 44.9265 94.1285C45.6245 97.3655 46.4675 102.088 47.3595 107.963L47.228 107.887C52.3445 105.894 58.504 103.494 65.323 100.837L65.424 100.798L65.4775 100.892C67.257 104.051 69.146 107.403 71.103 110.877L71.1695 110.995L71.0495 111.06C67.3155 113.072 63.427 115.167 59.4405 117.315C57.518 118.35 55.6185 119.372 53.746 120.38C52.8115 120.879 51.881 121.405 50.9125 121.822C49.942 122.234 48.951 122.57 47.953 122.847C45.9525 123.371 43.914 123.665 41.9145 123.546C40.919 123.483 39.925 123.324 39.0105 122.936L38.6715 122.785C38.559 122.733 38.454 122.649 38.3455 122.582C38.1475 122.422 37.972 122.243 37.8185 122.05C37.517 121.661 37.264 121.246 37.052 120.818C36.2025 119.102 35.701 117.31 35.2365 115.578C34.7815 113.84 34.421 112.135 34.0955 110.482C33.4545 107.175 32.979 104.075 32.5815 101.24C32.184 98.4105 31.835 95.8245 31.9405 93.5405C32.018 91.2605 32.428 89.316 32.968 87.805C33.5175 86.2935 34.1785 85.2195 34.684 84.5455C34.9345 84.2055 35.1545 83.9685 35.304 83.8125C35.4565 83.6585 35.546 83.5925 35.546 83.5925C35.546 83.5925 35.469 83.672 35.324 83.8315C35.1815 83.993 34.9695 84.2345 34.7275 84.578C34.2395 85.259 33.5975 86.334 33.0675 87.8405C32.547 89.347 32.155 91.28 32.092 93.546C32.0015 95.815 32.361 98.382 32.7715 101.213C33.1805 104.043 33.667 107.14 34.3165 110.439C34.6455 112.087 35.0105 113.787 35.467 115.517C35.9325 117.24 36.439 119.025 37.2745 120.704C37.482 121.123 37.729 121.524 38.0145 121.891C38.1595 122.074 38.322 122.237 38.4985 122.38C38.5955 122.438 38.68 122.509 38.7865 122.558L39.11 122.702C39.983 123.071 40.954 123.227 41.9295 123.287C43.8905 123.402 45.907 123.111 47.883 122.59C48.869 122.316 49.848 121.983 50.8055 121.576C51.762 121.163 52.6715 120.649 53.612 120.145C55.4845 119.137 57.385 118.113 59.3075 117.078C63.2965 114.931 67.1875 112.837 70.9235 110.826L70.87 111.009C68.9175 107.532 67.033 104.177 65.258 101.016L65.412 101.072C58.5855 103.709 52.419 106.091 47.297 108.069L47.1835 108.113L47.166 107.993C46.299 102.118 45.4855 97.3915 44.8205 94.152C44.4915 92.5315 44.1915 91.2835 43.9435 90.4515C43.882 90.245 43.827 90.0615 43.7795 89.902C43.7215 89.751 43.672 89.6225 43.6315 89.516C43.5525 89.307 43.5175 89.1975 43.5175 89.1975Z" fill="black" fill-opacity="0.8"/>
<path d="M50.0002 101.18H58.9842V98.1878H50.0002V101.18Z" fill="white"/>
<path d="M51.8605 99.5026C51.8605 99.4306 53.115 99.3726 54.662 99.3726C56.2095 99.3726 57.464 99.4311 57.464 99.5026C57.464 99.5741 56.21 99.6326 54.662 99.6326C53.115 99.6331 51.8605 99.5746 51.8605 99.5026Z" fill="black" fill-opacity="0.8"/>
<g opacity="0.3">
<path d="M64.768 98.3195L51.546 87.591L51.8605 86.6535H50.7075L48.8 79.2209L51.5495 84.6189L53.1415 84.5424L51.986 85.6029L64.768 98.3195Z" fill="black"/>
</g>
<path d="M48.433 86.0901L48.915 85.8886C48.9045 85.8626 47.8275 83.2801 46.767 80.5421C46.3465 79.4566 46.195 78.5511 46.3165 77.8506C46.4215 77.2446 46.957 76.8346 47.5825 76.8346L47.9335 76.6506L48.114 76.3306C47.189 76.1311 45.95 76.9041 45.8015 77.7611C45.6635 78.5561 45.824 79.5551 46.279 80.7306C47.343 83.4751 48.4225 86.0641 48.433 86.0901Z" fill="black" fill-opacity="0.8"/>
<path d="M47.656 92.1281L48.3205 91.8696C47.7755 90.4671 47.0305 87.9811 47.3515 87.2816C47.5455 86.8586 48.106 86.4881 48.78 86.3376C49.5745 86.1611 50.3345 86.3161 50.8655 86.7651C51.6265 87.4086 52.776 89.6816 53.155 90.5036L53.8025 90.2056C53.744 90.0791 52.3635 87.0981 51.326 86.2211C50.6235 85.6271 49.639 85.4171 48.625 85.6426C47.7275 85.8426 46.9915 86.3571 46.7035 86.9846C46.1645 88.1601 47.402 91.4756 47.656 92.1281Z" fill="black" fill-opacity="0.8"/>
<path d="M54.834 102.972C55.6565 102.972 56.463 102.532 57.238 101.659L56.9715 101.422C56.1185 102.384 55.2425 102.766 54.368 102.561C50.813 101.725 48.1075 91.848 48.0805 91.7485L47.7365 91.841C47.8485 92.2565 50.5265 102.024 54.2865 102.908C54.4695 102.95 54.652 102.972 54.834 102.972Z" fill="black" fill-opacity="0.8"/>
<path d="M56.5545 102.067C56.7045 102.215 56.9395 102.231 57.1085 102.105L57.8805 101.532C58.1175 101.376 58.182 101.057 58.0245 100.821C57.8455 100.553 57.466 100.516 57.2385 100.744L56.5455 101.467C56.3835 101.636 56.3875 101.903 56.5545 102.067Z" fill="black" fill-opacity="0.8"/>
<path d="M53.3245 103.294C54.4225 103.294 55.2365 102.931 55.7495 102.212C57.9355 99.1465 53.815 90.6365 53.6385 90.2755L53.3185 90.432C53.361 90.5185 57.523 99.1115 55.4595 102.005C54.922 102.759 53.9765 103.059 52.65 102.894L52.606 103.247C52.8575 103.279 53.097 103.294 53.3245 103.294Z" fill="black" fill-opacity="0.8"/>
<path d="M53.389 103.102C53.374 103.312 53.208 103.48 52.9985 103.497L52.04 103.577C51.7595 103.616 51.5 103.42 51.4625 103.139C51.4195 102.819 51.68 102.541 52.0015 102.561L52.999 102.646C53.232 102.666 53.406 102.869 53.389 103.102Z" fill="black" fill-opacity="0.8"/>
<path d="M70.5005 92.664C71.9044 92.664 73.0425 91.5259 73.0425 90.122C73.0425 88.718 71.9044 87.58 70.5005 87.58C69.0966 87.58 67.9585 88.718 67.9585 90.122C67.9585 91.5259 69.0966 92.664 70.5005 92.664Z" fill="black" fill-opacity="0.8"/>
<path d="M70.5005 92.664C71.9044 92.664 73.0425 91.5259 73.0425 90.122C73.0425 88.718 71.9044 87.58 70.5005 87.58C69.0966 87.58 67.9585 88.718 67.9585 90.122C67.9585 91.5259 69.0966 92.664 70.5005 92.664Z" fill="black" fill-opacity="0.8"/>
<path d="M68.6225 90.122C68.6225 91.159 69.463 91.9995 70.5 91.9995C71.537 91.9995 72.3775 91.159 72.3775 90.122C72.3775 89.085 71.5365 88.2445 70.5 88.2445C69.4635 88.244 68.6225 89.085 68.6225 90.122Z" fill="#F5F5F5"/>
<path d="M65.1115 79.0555C65.348 79.402 68.004 85.005 69.4565 87.83L69.88 87.6125C69.666 87.197 65.8065 79.2295 65.505 78.7875L62.695 76.4825L62.596 77.016L65.1115 79.0555Z" fill="black" fill-opacity="0.8"/>
<path d="M64.044 90.058C65.8835 91.893 70.54 96.672 70.54 96.672L71.787 95.9205L65.223 88.916C64.949 88.6235 64.504 88.5715 64.17 88.7935C63.738 89.08 63.6765 89.6915 64.044 90.058Z" fill="black" fill-opacity="0.8"/>
<path d="M65.3685 100.954L66.9335 96.5475C67.2765 95.581 68.1635 94.8635 69.189 94.855C69.269 94.8545 69.3485 94.858 69.4265 94.8665C70.363 94.9705 75.1495 95.2825 75.1495 95.2825L77.002 97.358C77.319 97.713 77.3275 98.247 77.0225 98.612L77.554 102.358L76.502 103.07L76.606 105.688C76.606 105.688 75.6695 106.312 75.2535 106.104C74.8375 105.896 74.8375 105.896 74.8375 105.896L74.213 105.271L72.444 107.768L69.998 109.183L65.3685 100.954Z" fill="#FFBF9D"/>
<path d="M77.028 98.8115C76.9885 98.8325 76.8235 98.4755 76.358 98.083C76.1295 97.8925 75.8215 97.675 75.4645 97.544C75.104 97.424 74.643 97.421 74.17 97.369C72.276 97.191 70.7465 96.9865 70.7535 96.9115C70.7605 96.837 72.3015 96.9205 74.1955 97.098C74.665 97.152 75.1245 97.1555 75.5475 97.3075C75.96 97.4765 76.2555 97.7175 76.4875 97.941C76.9495 98.399 77.058 98.8055 77.028 98.8115Z" fill="#FF9A6C"/>
<path d="M76.9255 102.257C76.876 102.265 76.856 101.849 76.5405 101.299C76.236 100.751 75.588 100.103 74.69 99.7485C73.7875 99.3955 72.884 99.351 72.2425 99.3375C71.5965 99.328 71.192 99.344 71.1885 99.303C71.1855 99.269 71.5825 99.1855 72.239 99.1455C72.8895 99.1105 73.83 99.1215 74.7905 99.496C75.7535 99.8765 76.43 100.6 76.7105 101.209C77.0025 101.825 76.95 102.263 76.9255 102.257Z" fill="#FF9A6C"/>
<path d="M76.4545 105.471C76.4155 105.489 76.2535 105.092 76.2045 104.438C76.169 104.117 76.136 103.733 75.9695 103.366C75.815 102.987 75.4585 102.731 74.987 102.619C74.0485 102.368 73.143 102.354 72.495 102.26C71.844 102.181 71.4515 102.054 71.461 102.019C71.47 101.981 71.8655 102.039 72.5125 102.069C73.1555 102.114 74.0695 102.094 75.0585 102.357C75.305 102.425 75.5535 102.519 75.7595 102.679C75.968 102.837 76.1105 103.054 76.1985 103.265C76.3745 103.694 76.3835 104.102 76.396 104.425C76.3965 105.077 76.485 105.457 76.4545 105.471Z" fill="#FF9A6C"/>
<path d="M79.0625 97.1985L58.425 118.513L59.2195 119.318L74.005 117.653L93.901 98.7005L93.879 97.788L79.0625 97.1985Z" fill="black" fill-opacity="0.8"/>
<g opacity="0.3">
<path d="M82.93 107.141C81.9865 106.229 80.6155 105.824 79.3075 105.929C77.999 106.034 76.757 106.615 75.7335 107.437C74.911 108.098 74.195 108.956 73.955 109.983C73.5365 111.776 75.0105 114.281 76.6345 115.148C78.6945 113.494 80.698 110.957 82.758 109.303C83.066 109.056 83.3935 108.777 83.4735 108.39C83.5695 107.926 83.271 107.471 82.93 107.141Z" fill="black"/>
</g>
<path d="M93.82 98.6595C93.82 98.667 93.727 98.672 93.548 98.6745C93.347 98.675 93.086 98.6755 92.76 98.676C92.0455 98.668 91.0475 98.656 89.802 98.642C87.2455 98.593 83.678 98.5245 79.515 98.4445L79.61 98.4055C78.012 100.063 76.2635 101.876 74.4385 103.768C70.259 108.07 66.477 111.963 63.717 114.803C62.3495 116.192 61.237 117.323 60.4455 118.126C60.0685 118.501 59.769 118.798 59.546 119.02C59.338 119.222 59.226 119.326 59.219 119.319C59.212 119.313 59.3115 119.197 59.5065 118.982C59.7205 118.752 60.008 118.442 60.369 118.052C61.145 117.235 62.237 116.083 63.5785 114.67C66.3235 111.815 70.0855 107.903 74.2425 103.579C76.0715 101.691 77.824 99.8815 79.426 98.228L79.465 98.1875L79.5205 98.189C83.6825 98.3085 87.249 98.411 89.805 98.4845C91.05 98.53 92.047 98.566 92.761 98.592C93.0865 98.6085 93.347 98.6215 93.548 98.6315C93.7275 98.643 93.82 98.6525 93.82 98.6595Z" fill="black" fill-opacity="0.8"/>
<path d="M80.9025 104.912C80.9025 104.912 82.9045 104.95 83.556 105.276C84.207 105.602 86.0015 107.513 86.0015 107.513C86.0015 107.513 86.0015 108.813 85.481 108.865C85.481 108.865 85.533 109.021 85.585 109.75C85.637 110.478 85.741 110.894 84.7525 111.519C84.7525 111.519 84.8565 112.715 84.4925 113.028C84.1285 113.34 83.712 113.6 83.712 113.6C83.712 113.6 83.6555 114.917 81.891 114.901L80.2375 115.629C80.2375 115.629 76.5575 115.284 76.9455 114.852C77.3335 114.421 78.219 112.262 78.219 112.262C78.219 112.262 75.7 110.426 75.752 109.854C75.804 109.282 76.012 109.23 76.012 109.23C76.012 109.23 75.908 108.137 76.7925 108.033C76.7925 108.033 77.469 106.681 78.145 106.629C78.8215 106.577 83.3995 108.242 83.3995 108.242L81.6825 106.785C81.6825 106.785 79.9655 106.525 80.0175 105.953C80.07 105.38 80.9025 104.912 80.9025 104.912Z" fill="#FFBF9D"/>
<path d="M80.5985 111.766C80.556 111.833 79.556 111.254 78.2765 110.638C76.9985 110.018 75.924 109.595 75.9495 109.521C75.971 109.453 77.099 109.765 78.395 110.394C79.6915 111.017 80.6385 111.707 80.5985 111.766Z" fill="#FF9A6C"/>
<path d="M82.981 110.173C82.9545 110.244 81.618 109.81 79.9955 109.205C78.3725 108.6 77.0785 108.052 77.1045 107.982C77.1305 107.911 78.4675 108.345 80.0905 108.95C81.713 109.555 83.007 110.103 82.981 110.173Z" fill="#FF9A6C"/>
<path d="M50.4115 64.099C49.7975 61.817 49.1935 59.5185 48.9815 57.165C48.7695 54.8115 48.966 52.3795 49.902 50.2095C50.044 49.8805 51.2225 47.6855 51.5765 47.739C51.83 47.777 51.067 49.8425 51.1845 50.07C52.304 52.242 52.507 54.7955 52.1855 57.218C51.864 59.64 51.2455 61.802 50.4115 64.099Z" fill="black" fill-opacity="0.8"/>
<path d="M50.643 55.0825C50.7555 49.157 54.298 44.2835 60.218 44.56L60.7635 44.6175C66.254 45.1965 70.382 49.893 70.2465 55.4125C70.1205 60.548 69.915 66.2205 69.5935 68.949C68.9275 74.597 63.1785 74.8805 63.1785 74.8805C63.166 74.88 61.872 83.592 61.872 83.592L49.7955 75.2055L50.643 55.0825Z" fill="#FFBF9D"/>
<path d="M63.1785 74.924C63.1785 74.924 59.5915 74.7574 56.0445 71.9709C56.0445 71.9709 57.1745 76.8069 62.871 76.8924L63.1785 74.924Z" fill="#FF9A6C"/>
<path d="M68.0905 60.143C68.0605 60.571 67.6735 60.899 67.226 60.876C66.779 60.853 66.4405 60.488 66.4705 60.06C66.5005 59.632 66.8875 59.3035 67.3345 59.3265C67.7815 59.3495 68.12 59.715 68.0905 60.143Z" fill="black" fill-opacity="0.8"/>
<path d="M68.7905 57.6325C68.6795 57.727 68.115 57.21 67.246 57.1205C66.379 57.019 65.694 57.3985 65.611 57.2825C65.5695 57.2305 65.692 57.051 65.9905 56.878C66.285 56.7055 66.772 56.559 67.313 56.618C67.854 56.678 68.2885 56.9255 68.5285 57.157C68.7745 57.3905 68.845 57.5905 68.7905 57.6325Z" fill="black" fill-opacity="0.8"/>
<path d="M60.6565 59.7955C60.6265 60.2235 60.2395 60.551 59.792 60.528C59.3455 60.505 59.0065 60.1405 59.0365 59.712C59.0665 59.284 59.4535 58.956 59.9005 58.979C60.348 59.002 60.6865 59.368 60.6565 59.7955Z" fill="black" fill-opacity="0.8"/>
<path d="M60.2405 57.087C60.129 57.1815 59.564 56.6645 58.6955 56.575C57.8285 56.4735 57.1435 56.8529 57.0605 56.7364C57.0195 56.6844 57.1405 56.505 57.4405 56.3325C57.735 56.1595 58.222 56.0129 58.763 56.0724C59.304 56.1324 59.7385 56.3799 59.979 56.6114C60.2235 56.8449 60.2945 57.045 60.2405 57.087Z" fill="black" fill-opacity="0.8"/>
<path d="M62.654 64.094C62.655 64.044 63.2055 64.0075 64.0925 63.988C64.317 63.9885 64.5315 63.9665 64.585 63.819C64.654 63.6645 64.5865 63.415 64.506 63.1455C64.354 62.5865 64.195 62.0005 64.028 61.3865C63.37 58.8845 62.919 56.8365 63.0195 56.811C63.1205 56.7855 63.736 58.7925 64.3935 61.295C64.5505 61.9115 64.7005 62.499 64.843 63.0615C64.9005 63.3225 65.0145 63.624 64.8665 63.9445C64.7895 64.104 64.6135 64.207 64.4675 64.2305C64.3205 64.259 64.1955 64.248 64.085 64.243C63.199 64.197 62.6525 64.1435 62.654 64.094Z" fill="black" fill-opacity="0.8"/>
<path d="M60.033 64.425C60.1755 64.432 60.0775 65.3755 60.8145 66.13C61.5495 66.8865 62.5665 66.8865 62.56 67.0195C62.567 67.08 62.3165 67.179 61.891 67.146C61.473 67.1165 60.879 66.9185 60.4285 66.457C59.9795 65.9945 59.825 65.424 59.834 65.034C59.839 64.6355 59.969 64.413 60.033 64.425Z" fill="black" fill-opacity="0.8"/>
<path d="M60.5645 53.5549C60.454 53.7824 59.598 53.5789 58.5655 53.5939C57.5325 53.5884 56.679 53.8004 56.566 53.5744C56.5165 53.4669 56.6835 53.2594 57.04 53.0659C57.3935 52.8724 57.942 52.7104 58.5615 52.7069C59.1805 52.7044 59.731 52.8609 60.0865 53.0509C60.444 53.2414 60.613 53.4469 60.5645 53.5549Z" fill="black" fill-opacity="0.8"/>
<path d="M68.736 54.706C68.5625 54.8875 67.985 54.619 67.2665 54.5335C66.5505 54.423 65.923 54.526 65.8045 54.3045C65.7535 54.198 65.8705 54.0105 66.1565 53.8515C66.4385 53.693 66.894 53.587 67.387 53.654C67.88 53.722 68.2895 53.946 68.519 54.1745C68.7515 54.4045 68.8135 54.6165 68.736 54.706Z" fill="black" fill-opacity="0.8"/>
<path d="M50.6635 59.319C50.5715 59.267 46.8985 57.76 46.6145 61.6395C46.3305 65.519 50.284 65.004 50.299 64.893C50.3135 64.7825 50.6635 59.319 50.6635 59.319Z" fill="#FFBF9D"/>
<path d="M49.2215 63.337C49.2055 63.3235 49.1505 63.3795 49.0325 63.4235C48.9175 63.4665 48.723 63.4875 48.5265 63.397C48.1275 63.2165 47.83 62.5405 47.8625 61.84C47.8785 61.4865 47.977 61.1555 48.1225 60.8865C48.262 60.6115 48.46 60.4265 48.669 60.405C48.878 60.3725 49.015 60.507 49.0545 60.6195C49.0985 60.732 49.068 60.8075 49.0885 60.8155C49.0985 60.826 49.1765 60.7565 49.157 60.594C49.1465 60.5155 49.1075 60.421 49.022 60.3395C48.9345 60.257 48.8005 60.2085 48.6555 60.2135C48.355 60.212 48.0655 60.4675 47.9055 60.763C47.729 61.059 47.61 61.43 47.592 61.8275C47.5595 62.611 47.9065 63.372 48.4555 63.575C48.723 63.6665 48.957 63.6005 49.081 63.5175C49.2075 63.43 49.2345 63.345 49.2215 63.337Z" fill="#FF9A6C"/>
<path d="M68.149 48.8205C68.7995 48.5145 67.045 46.3585 65.5465 45.5585C63.2815 44.3495 59.76 43.4685 57.5695 43.94C54.932 44.5075 52.697 45.658 51.245 47.932C49.7925 50.206 49.127 52.921 49.0295 55.6175C48.9995 56.4405 49.0295 57.3015 49.4235 58.0245C49.9105 58.9175 50.916 59.525 50.794 60.706C50.7495 61.1375 50.845 61.5825 51.121 61.917C51.7825 62.7185 52.697 62.0645 53.1425 61.378C54.0935 59.9125 54.3055 58.1035 54.4925 56.3665C54.6255 55.132 54.757 53.8705 54.4845 52.659C54.3365 52 54.0705 51.369 53.959 50.7025C53.8475 50.036 53.9155 49.292 54.3585 48.7825C54.4305 48.6995 54.5475 48.5965 54.6945 48.484C55.8555 47.591 57.4135 47.402 58.76 47.978C60.896 48.892 64.555 50.2875 65.5775 49.608C67.049 48.631 67.429 47.9565 67.429 47.9565L68.149 48.8205Z" fill="black" fill-opacity="0.8"/>
<path d="M35.2088 205.058C35.2088 205.058 44.7446 202.896 49.9718 198.08C55.199 193.265 58.1186 184.637 58.1186 184.637C58.1186 184.637 52.5056 185.665 47.4236 187.446C46.571 188.359 44.9456 190.24 44.1884 192.021C44.1884 192.021 44.0276 190.14 44.1632 188.75C42.8036 189.377 41.6198 190.07 40.7672 190.812C36.4328 194.604 35.2088 205.058 35.2088 205.058Z" fill="#01BCA7"/>
<path d="M52.1636 188.829C53.4638 187.929 54.7868 187.062 56.0816 186.155C56.1596 186.1 56.0864 185.978 56.003 186.027C53.5454 187.495 51.1232 189.064 48.7796 190.707C47.9624 191.28 47.1602 191.876 46.367 192.483C46.4222 192.389 46.4774 192.295 46.5332 192.201C46.8194 191.722 47.1212 191.252 47.4224 190.782C48.0284 189.839 48.6914 188.91 49.4468 188.08C49.475 188.049 49.427 188.004 49.4 188.035C48.6584 188.891 47.9168 189.738 47.2382 190.647C46.9154 191.079 46.6178 191.526 46.3322 191.983C46.184 192.22 46.0406 192.459 45.9038 192.703C45.8582 192.784 45.8078 192.866 45.761 192.949C44.528 193.917 43.3274 194.927 42.1814 195.995C41.4746 196.653 40.7924 197.337 40.1336 198.041C40.502 196.887 40.8242 195.72 41.252 194.583C41.2664 194.544 41.2028 194.528 41.189 194.568C40.7738 195.759 40.3196 196.958 39.9986 198.182C39.2678 198.971 38.5694 199.788 37.9112 200.64C37.9226 200.588 37.9334 200.535 37.9454 200.484C38.0534 200.035 38.1662 199.587 38.2862 199.14C38.5184 198.277 38.7716 197.42 39.0626 196.575C39.6596 194.842 40.4336 193.146 41.6246 191.736C41.6516 191.705 41.6048 191.66 41.5778 191.691C39.7154 193.896 38.6228 196.541 37.9256 199.317C37.8236 199.724 37.7276 200.132 37.6346 200.54C37.5854 200.756 37.5284 200.976 37.4918 201.199C37.2038 201.588 36.9206 201.982 36.65 202.385C34.9946 204.849 33.7034 207.542 32.615 210.298C31.3892 213.402 30.4364 216.608 29.5586 219.825C29.5412 219.888 29.636 219.911 29.6564 219.849C31.5212 214.269 33.4262 208.61 36.6188 203.622C37.2932 202.569 38.0222 201.554 38.7962 200.575C40.3652 200.487 41.948 200.147 43.4336 199.652C45.0764 199.104 46.6268 198.345 48.0812 197.407C48.9206 196.865 49.6862 196.233 50.4632 195.608C50.4992 195.578 50.459 195.527 50.4224 195.558C49.133 196.649 47.5826 197.502 46.0514 198.203C44.513 198.905 42.8942 199.456 41.2406 199.817C40.5362 199.97 39.8228 200.084 39.1082 200.18C39.9896 199.094 40.9292 198.056 41.9204 197.065C42.242 196.743 42.5756 196.436 42.9062 196.125C44.0012 195.326 45.215 194.694 46.4312 194.106C47.9936 193.352 49.5314 192.551 51.0782 191.765C51.9506 191.321 52.8176 190.866 53.6972 190.437C53.735 190.418 53.7002 190.364 53.663 190.382C52.0958 191.139 50.504 191.846 48.9218 192.571C47.4326 193.253 45.9266 193.937 44.4974 194.741C44.4356 194.775 44.378 194.813 44.3174 194.848C45.6086 193.724 46.9454 192.651 48.314 191.618C49.5782 190.665 50.861 189.731 52.1636 188.829Z" fill="white"/>
<path d="M51.6218 193.746C50.846 194.087 50.0564 194.388 49.289 194.747C48.4994 195.116 47.7512 195.548 47.0018 195.992C46.9688 196.011 46.9994 196.057 47.0324 196.041C47.7926 195.678 48.563 195.337 49.316 194.958C50.087 194.57 50.8496 194.156 51.6404 193.809C51.6782 193.792 51.6602 193.729 51.6218 193.746Z" fill="white"/>
<path d="M4.23019 157C4.23019 157 6.90739 160.066 7.08019 164.92C7.11139 165.776 6.97639 166.967 6.87739 168.368C10.433 170.267 13.1 173.687 13.1 173.687C11.0798 172.473 8.3072 171.983 6.8114 172.181C6.8624 173.103 6.97159 174.06 7.17559 175.031C7.83619 174.993 9.11119 175.082 11.2202 175.831C11.2202 175.831 9.15079 175.778 7.57339 176.556C9.27319 181.964 14.3258 187.52 28.2788 189.879C28.2788 189.879 30.9704 180.406 25.8074 170.244C21.6272 162.021 4.23019 157 4.23019 157Z" fill="#01BCA7"/>
<path d="M33.1088 213.02C32.8664 210.71 32.5622 208.406 32.2052 206.11C31.4912 201.517 30.566 196.95 29.3912 192.452C28.8374 190.33 28.1732 188.253 27.377 186.228C27.4286 185.861 27.4208 185.478 27.4286 185.111C27.4382 184.664 27.4406 184.217 27.4352 183.77C27.425 182.876 27.383 181.984 27.3068 181.094C27.1568 179.335 26.8886 177.573 26.4494 175.862C26.1944 174.869 25.898 173.889 25.6064 172.906C25.5944 172.866 25.5326 172.884 25.544 172.925C26.0378 174.626 26.3216 176.396 26.5742 178.146C26.825 179.881 26.9792 181.632 27.0428 183.383C27.0602 183.862 27.0692 184.342 27.0698 184.821C27.0698 185.024 27.0614 185.231 27.0536 185.438C26.3666 183.777 25.592 182.151 24.7028 180.571C23.2964 178.071 21.6806 175.695 19.9268 173.426C19.943 173.168 19.8644 172.895 19.8122 172.646C19.7468 172.334 19.679 172.023 19.6094 171.712C19.4666 171.074 19.3064 170.441 19.1336 169.811C18.7868 168.546 18.329 167.324 17.9336 166.076C17.921 166.037 17.8592 166.055 17.8712 166.095C18.2396 167.331 18.4844 168.611 18.7676 169.869C18.9074 170.491 19.0436 171.114 19.181 171.737C19.2494 172.048 19.316 172.359 19.3802 172.671C19.385 172.694 19.3886 172.718 19.3928 172.741C18.8288 172.029 18.254 171.327 17.6654 170.637C15.0008 167.513 12.0794 164.631 9.13938 161.769C8.77758 161.417 8.40736 161.074 8.04076 160.727C8.01016 160.698 7.96697 160.744 7.99577 160.774C10.8056 163.705 13.5722 166.67 16.1924 169.774C16.8152 170.511 17.4284 171.258 18.0302 172.014C17.7134 171.799 17.393 171.59 17.078 171.383C16.2662 170.852 15.4442 170.335 14.5976 169.86C13.751 169.386 12.8978 168.923 12.0278 168.491C11.1332 168.048 10.1768 167.687 9.31336 167.184C9.27616 167.163 9.24436 167.226 9.28216 167.241C10.172 167.606 11.003 168.162 11.828 168.651C12.6776 169.155 13.5248 169.662 14.3588 170.191C15.179 170.711 16.0034 171.224 16.8176 171.753C17.4968 172.194 18.1646 172.676 18.8684 173.084C20.4776 175.169 21.9902 177.328 23.3384 179.589C24.188 181.015 24.956 182.477 25.649 183.971C25.4816 183.899 25.3136 183.828 25.1486 183.754C24.7226 183.565 24.2972 183.376 23.8712 183.187C23.0504 182.823 22.226 182.468 21.4028 182.109C19.8386 181.429 18.2486 180.804 16.7138 180.057C15.8534 179.638 15.0062 179.197 14.2088 178.665C14.174 178.642 14.1434 178.699 14.1776 178.722C17.0384 180.695 20.246 182.084 23.4122 183.485L24.785 184.093C25.1618 184.26 25.5398 184.446 25.9286 184.592C26.8628 186.684 27.6524 188.839 28.2884 191.058C29.5586 195.49 30.527 200.018 31.3238 204.557C32.1242 209.114 32.6642 213.702 33.0836 218.309C33.1358 218.884 33.1874 219.458 33.2528 220.032C33.2786 220.262 33.6188 220.262 33.6164 220.023C33.5924 217.688 33.3524 215.345 33.1088 213.02Z" fill="white"/>
<path d="M24.62 174.488C24.3644 173.069 23.9864 171.682 23.6042 170.294C23.5928 170.253 23.5316 170.272 23.5418 170.312C23.8946 171.675 24.1472 173.064 24.4034 174.449C24.6644 175.859 24.8954 177.275 25.094 178.695C25.0976 178.719 25.1348 178.72 25.133 178.694C25.0412 177.282 24.8714 175.881 24.62 174.488Z" fill="white"/>
<path d="M18.6068 178.335C17.6612 177.665 16.5992 177.158 15.5726 176.627C15.0644 176.364 14.549 176.115 14.0342 175.865C13.5032 175.608 12.9512 175.393 12.4244 175.128C12.3872 175.11 12.3554 175.166 12.3932 175.185C12.9032 175.442 13.3874 175.751 13.889 176.025C14.4056 176.307 14.9198 176.594 15.4382 176.872C16.4582 177.42 17.4614 178.028 18.5324 178.472C18.6248 178.51 18.689 178.393 18.6068 178.335Z" fill="white"/>
<path opacity="0.1" d="M35.3822 188.539C35.3822 188.539 44.2064 186.431 48.2582 180.512C52.1276 174.858 53.378 165.222 53.477 164.374C53.318 165.151 51.497 173.574 45.4892 177.497C40.8908 180.503 36.446 182.973 35.3822 188.539Z" fill="white"/>
<path d="M43.5266 173.292C41.9738 174.788 40.8092 176.546 40.2734 178.651C40.2686 178.669 40.295 178.679 40.301 178.661C40.964 176.701 42.0578 174.77 43.5698 173.341C43.5998 173.312 43.5566 173.264 43.5266 173.292Z" fill="white"/>
<path d="M35.3822 188.539C35.3822 188.539 44.2064 186.431 48.2582 180.512C52.1276 174.858 53.378 165.222 53.477 164.374C53.4854 164.334 53.4872 164.315 53.4872 164.315C53.4872 164.315 49.256 170.331 44.8076 171.864C40.3586 173.399 34.1066 178.706 35.3822 188.539Z" fill="#01BCA7"/>
<path d="M51.9236 167.633C51.1052 169.238 50.2472 170.83 49.196 172.297C48.1724 173.726 46.9388 174.941 45.566 176.032C44.3678 176.984 43.1 177.847 41.8868 178.78C41.8958 178.766 41.9048 178.75 41.9138 178.736C42.1418 178.398 42.3854 178.07 42.6368 177.749C43.142 177.103 43.6946 176.493 44.2496 175.891C45.3464 174.701 46.4654 173.534 47.4482 172.247C47.9924 171.533 48.4706 170.775 48.863 169.967C48.881 169.93 48.8198 169.909 48.8018 169.946C47.3708 172.928 44.5118 174.837 42.4724 177.356C42.182 177.714 41.9078 178.084 41.657 178.471C41.48 178.744 41.264 179.048 41.1494 179.368C40.04 180.278 39.014 181.268 38.1392 182.411C38.213 181.832 38.339 181.254 38.4932 180.698C38.7128 179.908 38.9996 179.165 39.4286 178.464C39.4502 178.428 39.3956 178.392 39.3746 178.428C38.9618 179.124 38.5856 179.874 38.3456 180.648C38.1506 181.277 38.0594 181.908 38.0246 182.554C38.0234 182.556 38.0216 182.558 38.0198 182.56C37.5794 183.151 37.1882 183.774 36.8276 184.414C36.8642 184.226 36.9002 184.037 36.9374 183.849C37.1126 182.97 37.3064 182.093 37.5344 181.226C37.9976 179.468 38.6222 177.762 39.6572 176.254C39.6806 176.219 39.6266 176.184 39.6032 176.218C38.582 177.706 37.808 179.367 37.2518 181.082C36.9704 181.947 36.7454 182.828 36.5474 183.716C36.4508 184.151 36.3632 184.586 36.2798 185.023C36.2366 185.249 36.188 185.48 36.1514 185.712C35.2496 187.619 34.616 189.663 34.1162 191.694C33.2162 195.351 32.6552 199.112 32.2346 202.852C31.793 206.778 31.562 210.747 31.6262 214.699C31.634 215.195 31.6634 215.691 31.691 216.186C31.6982 216.314 31.889 216.333 31.895 216.198C31.9814 214.241 32.0324 212.281 32.1482 210.324C32.264 208.365 32.4344 206.412 32.6444 204.462C33.056 200.634 33.65 196.812 34.4834 193.053C35.1986 189.827 36.1268 186.58 37.8896 183.753C38.7734 182.336 39.8306 181.083 41.0732 179.967C42.3104 178.857 43.6634 177.884 44.9678 176.855C46.265 175.832 47.5124 174.718 48.5414 173.42C49.6514 172.019 50.5256 170.448 51.3482 168.866C51.5564 168.465 51.77 168.068 51.9806 167.67C51.9968 167.631 51.9422 167.595 51.9236 167.633Z" fill="white"/>
<path d="M50.4002 168.927C49.8344 170.121 49.1534 171.257 48.4346 172.364C48.4172 172.391 48.4574 172.416 48.4754 172.391C49.244 171.307 49.8842 170.143 50.462 168.948C50.48 168.91 50.4182 168.889 50.4002 168.927Z" fill="white"/>
<path d="M3.00018 184.636C3.00018 184.636 2.86039 197.176 10.3586 200.796C17.8562 204.42 21.8768 201.401 26.9714 202.613C26.9714 202.613 26.9666 202.613 26.9624 202.607C26.765 202.308 23.1284 197.081 17.345 195.642C11.396 194.159 4.80378 189.861 3.00018 184.636Z" fill="#01BCA7"/>
<path opacity="0.1" d="M3.00018 184.636C3.00018 184.636 2.86039 197.176 10.3586 200.796C17.8562 204.42 21.8768 201.401 26.9714 202.613C26.9714 202.613 26.9666 202.613 26.9624 202.607C26.7512 202.504 23.0312 200.643 18.4376 200.092C13.7102 199.523 4.67778 196.442 3.00018 184.636Z" fill="white"/>
<path d="M27.4652 202.837C26.5706 202.031 25.5698 201.338 24.4826 200.817C24.3218 200.741 24.1562 200.678 23.993 200.609C23.9138 200.508 23.8298 200.413 23.7416 200.321C23.5166 200.086 23.2826 199.862 23.036 199.65C22.565 199.247 22.0628 198.877 21.5276 198.562C20.2856 197.832 18.9242 197.321 17.654 196.642C17.6174 196.622 17.5856 196.68 17.6228 196.699C18.2504 197.025 18.8582 197.385 19.469 197.741C20.063 198.088 20.6708 198.419 21.2492 198.792C21.7682 199.127 22.268 199.497 22.733 199.904C22.865 200.019 22.9916 200.145 23.1182 200.273C22.2914 199.989 21.4412 199.773 20.5844 199.599C19.2116 199.322 17.8232 199.125 16.454 198.833C15.7802 198.69 15.1166 198.51 14.4644 198.296C13.8422 197.795 13.2212 197.297 12.632 196.754C11.9204 196.098 11.267 195.385 10.694 194.605C10.6694 194.571 10.613 194.606 10.6388 194.639C11.564 195.833 12.5564 197.037 13.7126 198.031C13.3898 197.908 13.0694 197.777 12.7538 197.633C10.2062 196.476 7.93939 194.637 6.36439 192.318C6.34099 192.284 6.28519 192.317 6.30919 192.352C7.68199 194.339 9.42378 196.04 11.4782 197.314C12.5078 197.952 13.5944 198.476 14.744 198.86C16.0658 199.301 17.4356 199.563 18.8024 199.819C20.1404 200.07 21.4844 200.325 22.7762 200.765C23.972 201.171 25.0976 201.76 26.1092 202.518C28.0388 203.963 29.5316 205.941 30.602 208.089C32.021 210.936 32.6996 214.119 33.0764 217.258C33.0926 217.392 33.3002 217.392 33.2906 217.253C32.9372 211.982 31.5284 206.498 27.4652 202.837Z" fill="white"/>
<path d="M18.7634 198.748C18.389 198.15 17.8274 197.7 17.222 197.351C16.514 196.941 15.8786 196.5 15.3884 195.834C15.3638 195.8 15.308 195.835 15.3332 195.868C15.7862 196.45 16.3286 196.927 16.952 197.318C17.6066 197.728 18.2666 198.13 18.716 198.777C18.737 198.806 18.7826 198.778 18.7634 198.748Z" fill="white"/>
<path d="M22.7414 212.092L23.0828 218.988L24.1286 240.056H39.8582L40.904 218.988L41.2454 212.092H22.7414Z" fill="#455A64"/>
<path d="M22.7414 212.092L23.0828 218.988H40.904L41.2454 212.092H22.7414Z" fill="black" fill-opacity="0.8"/>
<path d="M21.6393 215.792H42.3477V209.214H21.6393V215.792Z" fill="#455A64"/>
</svg>
