<svg width="250" height="250" viewBox="0 0 250 250" fill="none" xmlns="http://www.w3.org/2000/svg">
<g clip-path="url(#clip0_25_2355)">
<path d="M38.834 227.256C-8.75399 199.78 -8.75399 155.235 38.834 127.76C86.422 100.286 163.578 100.286 211.166 127.76C258.754 155.235 258.754 199.781 211.166 227.256C163.578 254.731 86.422 254.731 38.834 227.256Z" fill="#999999"/>
<path d="M63.6675 225.246L58.9945 222.55C58.6165 222.332 58.6165 221.978 58.9945 221.76L92.59 202.363C92.968 202.145 93.065 201.682 92.838 201.309C91.7715 199.557 91.359 197.671 91.64 195.758C92.086 192.716 94.3175 189.894 97.9225 187.813C101.815 185.566 106.963 184.329 112.417 184.329C117.873 184.329 123.02 185.566 126.911 187.813C131.022 190.186 133.286 193.417 133.286 196.911C133.286 200.405 131.022 203.636 126.911 206.01C123.023 208.255 117.879 209.492 112.427 209.492C110.181 209.492 107.983 209.283 105.876 208.87C105.447 208.786 104.796 208.885 104.418 209.103L99.1865 212.123C98.8085 212.341 98.1565 212.44 97.731 212.344L94.2005 211.546C93.7745 211.45 93.123 211.549 92.745 211.767L91.6805 212.382C91.3025 212.601 90.98 213.131 90.9605 213.567L90.843 216.172C90.8235 216.608 90.501 217.139 90.1225 217.357L88.784 218.13C88.406 218.348 87.747 218.556 87.312 218.594L84.1925 218.868C83.7575 218.906 83.096 219.11 82.715 219.323L81.4285 220.041C81.0475 220.254 80.784 220.777 80.84 221.21L80.9205 221.828C80.977 222.261 80.716 222.789 80.338 223.007L76.458 225.247C76.08 225.466 75.4195 225.642 74.983 225.642H65.143C64.706 225.641 64.0455 225.465 63.6675 225.246ZM117.571 191.854C116.325 191.854 115.123 192.135 114.276 192.624C113.653 192.984 113.282 193.422 113.282 193.796C113.282 194.171 113.653 194.608 114.276 194.968C115.124 195.457 116.324 195.738 117.571 195.738C118.817 195.738 120.018 195.457 120.865 194.968C121.487 194.608 121.859 194.171 121.859 193.796C121.859 193.421 121.487 192.984 120.865 192.624C120.018 192.135 118.817 191.854 117.571 191.854Z" fill="#F5F5F5"/>
<path d="M187.819 206.121C210.33 206.121 228.578 195.585 228.578 182.589C228.578 169.592 210.33 159.057 187.819 159.057C165.309 159.057 147.061 169.592 147.061 182.589C147.061 195.585 165.309 206.121 187.819 206.121Z" fill="#F5F5F5"/>
<path d="M191.173 69.671L189.462 67.098C189.412 67.023 189.272 66.963 189.176 66.96C188.806 66.9675 188.414 66.93 188.016 66.8425C187.993 66.8375 187.972 66.8395 187.958 66.85C187.946 66.859 187.938 66.874 187.936 66.895L187.71 69.143C187.696 69.284 187.625 69.3966 187.515 69.4531C187.405 69.5091 187.272 69.501 187.15 69.43L184.835 68.0945C184.644 67.9845 184.486 67.7355 184.466 67.516L184.234 64.9415C184.224 64.831 184.138 64.6605 184.053 64.583C183.604 64.1691 183.166 63.705 182.751 63.204C182.699 63.1415 182.58 63.1075 182.505 63.133L181.018 63.6521C180.783 63.733 180.501 63.629 180.376 63.413L178.675 60.467C178.551 60.251 178.601 59.9541 178.79 59.7911L179.982 58.7641C180.042 58.7126 180.072 58.5911 180.044 58.5146C179.817 57.9051 179.635 57.2935 179.501 56.6965C179.476 56.585 179.371 56.4251 179.281 56.3616L177.167 54.8736C176.986 54.7466 176.85 54.4845 176.85 54.2645V51.5925C176.85 51.451 176.91 51.332 177.014 51.2645C177.117 51.1975 177.251 51.192 177.38 51.2501L179.439 52.1786C179.459 52.1881 179.475 52.1885 179.489 52.182C179.504 52.175 179.517 52.158 179.525 52.1345C179.648 51.7465 179.809 51.389 180.003 51.072C180.056 50.987 180.067 50.8356 180.027 50.7556L178.654 47.988C178.539 47.7575 178.628 47.4656 178.85 47.3376L180.339 46.4776C180.564 46.3466 180.856 46.4145 181.001 46.6325L182.712 49.2051C182.762 49.2806 182.892 49.3365 182.997 49.3435C183.368 49.3365 183.759 49.374 184.157 49.461C184.18 49.4665 184.202 49.4635 184.216 49.4535C184.228 49.4445 184.235 49.4296 184.238 49.4091L184.464 47.161C184.478 47.0205 184.548 46.9076 184.658 46.8511C184.768 46.7946 184.902 46.8026 185.025 46.8736L187.339 48.2095C187.529 48.3195 187.688 48.568 187.708 48.7875L187.94 51.3625C187.95 51.472 188.035 51.6431 188.12 51.7211C188.571 52.1361 189.01 52.6005 189.423 53.1C189.475 53.1625 189.594 53.1971 189.67 53.1711L191.156 52.6521C191.391 52.5696 191.673 52.675 191.798 52.891L193.499 55.8376C193.624 56.0536 193.574 56.3511 193.385 56.5136L192.193 57.5406C192.133 57.5921 192.102 57.7136 192.131 57.7901C192.357 58.4006 192.54 59.0125 192.673 59.6075C192.699 59.7195 192.804 59.8796 192.895 59.9431L195.008 61.4311C195.188 61.5581 195.324 61.8201 195.324 62.0406V64.712C195.324 64.8535 195.265 64.9731 195.161 65.0401C195.057 65.1066 194.924 65.1126 194.795 65.0541L192.736 64.126C192.716 64.1175 192.699 64.1171 192.686 64.1221C192.67 64.1296 192.657 64.146 192.65 64.169C192.528 64.556 192.367 64.9141 192.172 65.2321C192.12 65.3171 192.109 65.4681 192.149 65.5485L193.521 68.3165C193.636 68.5465 193.548 68.8385 193.325 68.9665L191.835 69.8271C191.76 69.8711 191.676 69.8916 191.592 69.8916C191.427 69.8906 191.267 69.8125 191.173 69.671ZM192.889 63.7805L194.946 64.711V62.0396C194.946 61.9416 194.87 61.7955 194.79 61.739L192.676 60.251C192.51 60.1341 192.351 59.8925 192.305 59.689C192.175 59.1101 191.998 58.5155 191.777 57.92C191.693 57.695 191.766 57.4081 191.946 57.2536L193.138 56.2266C193.19 56.1826 193.207 56.0846 193.173 56.0256L191.471 53.0795C191.437 53.0195 191.345 52.9855 191.28 53.008L189.795 53.5271C189.572 53.6051 189.286 53.5255 189.133 53.341C188.729 52.854 188.303 52.4021 187.865 51.9986C187.712 51.8571 187.582 51.5981 187.564 51.3956L187.333 48.821C187.324 48.7235 187.235 48.5845 187.15 48.5355L184.84 47.1981L184.614 49.446C184.601 49.575 184.539 49.686 184.439 49.7585C184.338 49.8315 184.205 49.858 184.077 49.829C183.709 49.748 183.348 49.7096 183.009 49.7201C182.766 49.7226 182.521 49.5975 182.398 49.413L180.688 46.8406C180.655 46.7901 180.582 46.7741 180.529 46.8031L179.04 47.6636C178.988 47.6931 178.966 47.7656 178.993 47.8186L180.366 50.5865C180.463 50.784 180.447 51.0711 180.326 51.2686C180.148 51.5596 180 51.8886 179.886 52.2476C179.847 52.3731 179.759 52.4746 179.645 52.5256C179.532 52.5766 179.404 52.575 179.286 52.522L177.23 51.5915V54.2636C177.23 54.3616 177.305 54.5075 177.385 54.564L179.499 56.052C179.666 56.169 179.826 56.411 179.871 56.613C180.001 57.193 180.179 57.7886 180.4 58.3821C180.483 58.6076 180.41 58.8941 180.23 59.0491L179.038 60.0761C178.985 60.1211 178.969 60.2176 179.003 60.2771L180.705 63.223C180.74 63.2825 180.832 63.3165 180.896 63.294L182.382 62.7756C182.604 62.6976 182.891 62.777 183.044 62.9615C183.448 63.4495 183.874 63.901 184.311 64.3035C184.464 64.4445 184.593 64.7036 184.612 64.9066L184.844 67.4815C184.852 67.579 184.941 67.7176 185.026 67.7666L187.337 69.1045L187.562 66.8565C187.575 66.7275 187.638 66.6161 187.738 66.5436C187.839 66.4706 187.971 66.444 188.1 66.473C188.468 66.554 188.828 66.5935 189.168 66.5821C189.401 66.5756 189.656 66.705 189.778 66.8885L191.49 69.4616C191.523 69.5111 191.597 69.5271 191.648 69.4991L193.137 68.6385C193.188 68.609 193.211 68.5366 193.184 68.4831L191.811 65.7155C191.713 65.518 191.73 65.232 191.85 65.0336C192.029 64.7416 192.178 64.4121 192.29 64.0541C192.33 63.9286 192.419 63.8271 192.533 63.7761C192.588 63.7516 192.646 63.7395 192.705 63.7395C192.766 63.7395 192.828 63.7535 192.889 63.7805ZM185.992 62.8285C183.785 61.554 181.989 58.4441 181.989 55.8951C181.989 54.6191 182.429 53.6626 183.229 53.2011C184.028 52.7396 185.076 52.8365 186.181 53.475C188.389 54.7495 190.184 57.8596 190.184 60.4086C190.184 61.6846 189.745 62.6411 188.945 63.1026C188.613 63.2945 188.237 63.3895 187.833 63.3895C187.265 63.3895 186.638 63.201 185.992 62.8285ZM183.417 53.5276C182.74 53.9186 182.367 54.7591 182.367 55.8946C182.367 58.3236 184.078 61.287 186.181 62.5015C187.164 63.0685 188.078 63.1666 188.757 62.7751C189.434 62.3841 189.807 61.5436 189.807 60.4081C189.807 57.9791 188.096 55.0155 185.992 53.801C185.406 53.4625 184.844 53.2916 184.342 53.2916C184.003 53.2916 183.69 53.3701 183.417 53.5276Z" fill="#999999"/>
<path d="M172.49 66.3906L173.545 67.7491C173.672 67.9126 173.763 68.1836 173.76 68.3571C173.756 68.6126 173.768 68.8791 173.797 69.1531C173.815 69.3311 173.683 69.4776 173.493 69.4796L172.751 69.4866C172.561 69.4886 172.452 69.6361 172.509 69.8166L173.088 71.6616C173.144 71.8421 173.35 72.0376 173.547 72.0981L174.422 72.3681C174.619 72.4291 174.847 72.6226 174.936 72.7991C175.095 73.1131 175.269 73.4236 175.456 73.7266C175.562 73.8986 175.623 74.1681 175.586 74.3301L175.337 75.3951C175.299 75.5571 175.381 75.8161 175.519 75.9731L176.733 77.3531C176.872 77.5106 177.05 77.5246 177.131 77.3851L177.568 76.6321C177.649 76.4926 177.848 76.4901 178.02 76.6166C178.199 76.7481 178.377 76.8651 178.552 76.9686C178.736 77.0766 178.946 77.2971 179.015 77.4771L179.653 79.1501C179.721 79.3296 179.937 79.5006 180.134 79.5316L181.063 79.6781C181.26 79.7091 181.384 79.5881 181.34 79.4081L180.944 77.7896C180.9 77.6096 181.005 77.4276 181.159 77.3546C181.253 77.3096 181.344 77.2561 181.429 77.1941C181.563 77.0971 181.774 77.1221 181.924 77.2711L183.019 78.3626C183.169 78.5121 183.338 78.5096 183.396 78.3566L183.792 77.3251C183.851 77.1726 183.795 76.9161 183.667 76.7526L182.612 75.3941C182.485 75.2306 182.393 74.9596 182.396 74.7861C182.401 74.5306 182.388 74.2641 182.36 73.9901C182.341 73.8126 182.474 73.6656 182.664 73.6636L183.406 73.6566C183.596 73.6546 183.705 73.5071 183.648 73.3266L183.069 71.4811C183.013 71.3006 182.807 71.1056 182.61 71.0446L181.735 70.7746C181.538 70.7136 181.31 70.5201 181.221 70.3436C181.062 70.0296 180.888 69.7191 180.701 69.4161C180.594 69.2441 180.534 68.9746 180.571 68.8126L180.82 67.7476C180.858 67.5856 180.776 67.3266 180.638 67.1696L179.423 65.7896C179.285 65.6321 179.107 65.6181 179.026 65.7576L178.589 66.5106C178.508 66.6501 178.309 66.6526 178.137 66.5261C177.958 66.3946 177.78 66.2776 177.605 66.1741C177.421 66.0661 177.211 65.8456 177.142 65.6656L176.504 63.9926C176.436 63.8131 176.22 63.6421 176.023 63.6111L175.094 63.4646C174.897 63.4336 174.773 63.5546 174.817 63.7346L175.213 65.3536C175.257 65.5341 175.152 65.7156 174.998 65.7886C174.904 65.8336 174.813 65.8871 174.728 65.9491C174.594 66.0461 174.383 66.0211 174.233 65.8721L173.138 64.7806C172.988 64.6311 172.819 64.6336 172.761 64.7861L172.365 65.8176C172.307 65.9706 172.362 66.2266 172.49 66.3906ZM175.696 68.8631C176.162 67.6481 177.606 67.8761 178.922 69.3716C180.238 70.8671 180.927 73.0646 180.461 74.2796C179.995 75.4946 178.551 75.2666 177.235 73.7711C175.919 72.2751 175.23 70.0776 175.696 68.8631Z" fill="#999999"/>
<path d="M115.899 154.354C111.379 155.614 107.839 163.904 107.819 171.929C107.809 176.684 108.124 180.804 108.729 184.439L110.864 185.674L111.479 186.029L113.624 187.264L114.944 188.029C114.449 184.119 114.499 180.889 114.924 178.134V178.129C115.229 176.124 115.729 174.374 116.359 172.794C117.699 169.414 119.859 166.029 120.699 163.704C122.804 157.909 120.109 153.179 115.899 154.354Z" fill="#01BCA7"/>
<g opacity="0.65">
<path d="M115.899 154.354C111.379 155.614 107.839 163.904 107.819 171.929C107.809 176.684 108.124 180.804 108.729 184.439L110.864 185.674L111.479 186.029L113.624 187.264L114.944 188.029C114.449 184.119 114.499 180.889 114.924 178.134V178.129C115.229 176.124 115.729 174.374 116.359 172.794C117.699 169.414 119.859 166.029 120.699 163.704C122.804 157.909 120.109 153.179 115.899 154.354Z" fill="white"/>
</g>
<path d="M117.379 157.42C112.869 162.485 109.524 173.895 111.479 186.03L110.864 185.675C109.034 173.525 112.429 162.13 116.964 157.045C117.069 156.93 117.244 156.92 117.359 157.025C117.474 157.125 117.484 157.304 117.379 157.42Z" fill="white"/>
<path d="M121.519 168.739C120.514 169.259 118.154 171.354 117.394 172.704C116.519 174.259 115.624 176.049 114.924 178.129V178.134C114.059 180.699 113.494 183.704 113.624 187.264L114.944 188.029L115.559 188.384L116.119 188.704L118.314 189.969C118.719 188.169 119.419 186.144 120.464 184.069C123.044 178.964 127.799 175.209 128.159 172.354C128.589 168.92 125.989 166.42 121.519 168.739Z" fill="#01BCA7"/>
<path opacity="0.3" d="M121.519 168.739C120.514 169.259 118.154 171.354 117.394 172.704C116.519 174.259 115.624 176.049 114.924 178.129V178.134C114.059 180.699 113.494 183.704 113.624 187.264L114.944 188.029L115.559 188.384L116.119 188.704L118.314 189.969C118.719 188.169 119.419 186.144 120.464 184.069C123.044 178.964 127.799 175.209 128.159 172.354C128.589 168.92 125.989 166.42 121.519 168.739Z" fill="white"/>
<path d="M124.169 171.864C121.294 173.779 116.469 179.524 116.119 188.704L115.559 188.384C115.969 179.199 120.714 173.494 123.859 171.399C123.994 171.309 124.159 171.349 124.249 171.474C124.334 171.604 124.299 171.78 124.169 171.864Z" fill="white"/>
<path d="M25.725 192.785C25.5875 192.785 25.451 192.749 25.326 192.677C25.0765 192.533 24.9275 192.275 24.9275 191.986V159.138C24.9275 158.838 25.025 158.505 25.2015 158.2C25.378 157.898 25.6165 157.647 25.875 157.495L35.55 151.911C35.89 151.714 36.266 151.7 36.5785 151.878C36.824 152.018 36.9945 152.241 37.0765 152.514L37.858 155.121C37.899 155.255 37.9785 155.352 38.0805 155.393C38.1825 155.433 38.305 155.417 38.4265 155.347L59.3835 143.252C59.667 143.086 59.957 143.054 60.1965 143.16L60.2985 143.215C60.5325 143.363 60.666 143.645 60.666 143.988V171.634C60.666 172.25 60.2485 172.972 59.7155 173.279L26.123 192.677C25.998 192.749 25.8615 192.785 25.725 192.785ZM36.102 152.413C36.03 152.413 35.9545 152.436 35.879 152.48L26.206 158.062C26.049 158.156 25.8885 158.327 25.77 158.53C25.6525 158.733 25.5855 158.955 25.5855 159.138V191.986C25.5855 192.056 25.6295 192.092 25.655 192.107C25.6815 192.123 25.734 192.141 25.7945 192.107L59.387 172.709C59.7175 172.518 60.0075 172.016 60.0075 171.633V143.987C60.0075 143.856 59.9725 143.792 59.9505 143.773L59.908 143.75C59.8985 143.749 59.8225 143.756 59.712 143.82L38.754 155.915C38.46 156.085 38.127 156.115 37.838 156.003C37.545 155.887 37.3275 155.64 37.2275 155.309L36.4455 152.702C36.4125 152.59 36.3485 152.503 36.2675 152.455C36.214 152.427 36.1595 152.413 36.102 152.413Z" fill="#C08B89"/>
<path d="M70.867 178.902L70.6125 178.755C70.6125 178.755 70.514 178.698 70.315 178.583L70.056 178.434C69.66 178.204 69.2905 177.652 69.23 177.198L65.7085 150.768C65.6515 150.341 65.4575 150.035 65.1855 149.878C65.0925 149.824 64.8305 149.672 64.737 149.618C64.431 149.443 64.027 149.455 63.6085 149.697L45.52 160.016C45.0875 160.266 44.59 160.297 44.1525 160.147C44.0185 160.03 43.9005 159.891 43.8065 159.728L43.219 158.711C43.0685 158.451 42.858 158.247 42.615 158.107C42.5215 158.053 42.257 157.9 42.1635 157.847C41.668 157.562 41.039 157.541 40.5085 157.847L32.1525 162.672C31.3595 163.13 30.8145 164.237 30.9355 165.145L35.1395 196.702C35.19 197.119 35.533 197.861 36.1675 198.238L36.977 198.705C37.096 198.775 37.2775 198.851 37.4785 198.857C37.6845 198.863 37.8285 198.792 37.8915 198.756L71.376 178.952C71.2455 179.028 71.0655 179.017 70.867 178.902Z" fill="#C08B89"/>
<path opacity="0.25" d="M70.867 178.902L70.058 178.435C69.6615 178.206 69.2905 177.653 69.2305 177.198L65.709 150.768C65.588 149.86 64.847 149.495 64.0535 149.953L46.072 160.335C45.2785 160.793 44.2645 160.521 43.8065 159.728L43.219 158.711C42.761 157.918 41.7465 157.646 40.953 158.104L32.597 162.929C31.8035 163.387 31.259 164.494 31.3795 165.402L35.5425 196.648C35.603 197.102 35.9735 197.656 36.37 197.885L37.1795 198.352C37.3775 198.467 37.557 198.478 37.687 198.403L71.375 178.953C71.2455 179.028 71.0655 179.017 70.867 178.902Z" fill="black" fill-opacity="0.8"/>
<path opacity="0.25" d="M36.3705 197.884L37.18 198.351C37.378 198.466 37.5575 198.477 37.6875 198.402L71.3755 178.952C71.2455 179.027 71.0655 179.017 70.867 178.902L70.058 178.435C69.863 178.322 69.6755 178.131 69.527 177.912L35.84 197.361C35.9885 197.58 36.176 197.771 36.3705 197.884Z" fill="black" fill-opacity="0.8"/>
<path d="M36.567 167.869V195.3C36.567 195.42 36.651 195.565 36.7545 195.625L36.966 195.747C37.0695 195.807 37.2375 195.807 37.341 195.747L67.7315 178.201C67.835 178.141 67.919 177.996 67.919 177.876V150.446C67.919 150.326 67.835 150.181 67.7315 150.121L67.5195 149.998C67.416 149.938 67.248 149.938 67.144 149.998L36.7535 167.544C36.651 167.604 36.567 167.75 36.567 167.869Z" fill="white"/>
<path d="M67.915 150.397C67.9115 150.374 67.905 150.351 67.8965 150.328C67.892 150.317 67.8865 150.305 67.882 150.294C67.8655 150.26 67.845 150.227 67.821 150.198C67.805 150.179 67.7885 150.162 67.77 150.147C67.7575 150.138 67.7445 150.129 67.7315 150.121L67.521 149.999C67.4165 149.94 67.2495 149.939 67.1455 149.999L36.755 167.545C36.7025 167.576 36.655 167.626 36.6225 167.685L37.2085 168.024C37.243 167.966 37.29 167.914 37.341 167.884L67.731 150.338C67.8205 150.287 67.895 150.314 67.915 150.397Z" fill="#F5F5F5"/>
<path d="M37.2885 195.77C37.2105 195.788 37.1535 195.738 37.153 195.639V168.208C37.1535 168.148 37.173 168.081 37.208 168.023L36.622 167.684C36.5875 167.743 36.566 167.81 36.567 167.869V195.3C36.5655 195.419 36.65 195.566 36.754 195.624L36.9655 195.747C37.055 195.798 37.188 195.806 37.2885 195.77Z" fill="#F5F5F5"/>
<g opacity="0.1">
<path d="M37.2885 195.77C37.2105 195.788 37.1535 195.738 37.153 195.639V168.208C37.1535 168.148 37.173 168.081 37.208 168.023L36.622 167.684C36.5875 167.743 36.566 167.81 36.567 167.869V195.3C36.5655 195.419 36.65 195.566 36.754 195.624L36.9655 195.747C37.055 195.798 37.188 195.806 37.2885 195.77Z" fill="black" fill-opacity="0.8"/>
</g>
<path d="M71.9925 152.686C71.9925 152.229 71.832 151.908 71.5735 151.758C71.5045 151.718 71.2305 151.559 71.1605 151.519C70.901 151.371 70.5435 151.393 70.148 151.621L39.334 169.412C38.5405 169.87 37.8975 170.984 37.8975 171.9V197.937C37.8975 198.167 37.817 198.328 37.6865 198.402L37.8895 198.756L71.782 179.188C71.9115 179.113 71.9915 178.952 71.9915 178.724L71.9925 152.686Z" fill="#C08B89"/>
<path opacity="0.25" d="M37.8905 198.755C38.0785 198.647 38.306 198.402 38.306 197.937V172.135C38.306 171.219 38.949 170.105 39.7425 169.647L70.5565 151.856C71.35 151.398 71.993 151.77 71.993 152.686V178.723C71.993 178.952 71.913 179.113 71.7835 179.188L37.8905 198.755Z" fill="white"/>
<path d="M62.2015 174.78L58.7855 171.889C58.5675 171.705 58.1995 171.91 57.975 172.342L56.7365 174.726C56.517 175.148 56.1595 175.356 55.939 175.189L53.029 172.992C52.8085 172.826 52.4505 173.034 52.2315 173.456L47.6825 182.21V185.226L62.202 176.843L62.2015 174.78ZM60.4675 169.891C61.188 169.474 61.772 168.357 61.772 167.395C61.772 166.434 61.188 165.991 60.4675 166.407C59.747 166.824 59.163 167.941 59.163 168.903C59.163 169.865 59.747 170.307 60.4675 169.891ZM63.854 160.922L46.0295 171.225C45.578 171.486 45.2115 172.187 45.2115 172.79V188.873C45.2115 189.476 45.5775 189.753 46.0295 189.492L63.854 179.189C64.3055 178.928 64.672 178.227 64.672 177.624V161.542C64.672 160.939 64.3055 160.661 63.854 160.922ZM63.2345 177.532L46.649 187.119V172.884L63.2345 163.297V177.532Z" fill="white"/>
<path d="M25.725 135.339C25.5875 135.339 25.451 135.303 25.326 135.231C25.0765 135.086 24.9275 134.828 24.9275 134.54V101.692C24.9275 101.392 25.025 101.059 25.2015 100.754C25.378 100.451 25.6165 100.201 25.875 100.048L35.55 94.4645C35.89 94.267 36.266 94.253 36.5785 94.4315C36.824 94.572 36.9945 94.7945 37.0765 95.0675L37.858 97.6745C37.899 97.8085 37.9785 97.9055 38.0805 97.9465C38.1825 97.987 38.305 97.9705 38.4265 97.901L59.3835 85.806C59.667 85.64 59.957 85.608 60.1965 85.7145L60.2985 85.7695C60.5325 85.9175 60.666 86.199 60.666 86.5425V114.189C60.666 114.804 60.2485 115.526 59.7155 115.834L26.1225 135.23C25.998 135.302 25.8615 135.339 25.725 135.339ZM36.102 94.966C36.03 94.966 35.9545 94.9895 35.879 95.0335L26.206 100.616C26.049 100.71 25.8885 100.881 25.77 101.084C25.6525 101.287 25.5855 101.509 25.5855 101.692V134.54C25.5855 134.61 25.6295 134.647 25.655 134.661C25.6815 134.677 25.734 134.696 25.7945 134.662L59.387 115.264C59.7175 115.073 60.0075 114.57 60.0075 114.188V86.5415C60.0075 86.41 59.9725 86.3465 59.9505 86.327L59.908 86.304C59.8985 86.3035 59.8225 86.31 59.712 86.374L38.754 98.469C38.46 98.639 38.127 98.6695 37.838 98.5575C37.545 98.442 37.3275 98.195 37.2275 97.864L36.4455 95.2565C36.4125 95.145 36.3485 95.057 36.2675 95.01C36.214 94.9805 36.1595 94.966 36.102 94.966Z" fill="#C08B89"/>
<path d="M70.867 121.554L70.6125 121.407C70.6125 121.407 70.514 121.35 70.315 121.235L70.056 121.086C69.66 120.856 69.2905 120.304 69.23 119.85L65.7085 93.4205C65.6515 92.9935 65.4575 92.6875 65.1855 92.53C65.0925 92.476 64.8305 92.3245 64.737 92.2705C64.431 92.095 64.027 92.1075 63.6085 92.349L45.52 102.668C45.0875 102.918 44.59 102.949 44.1525 102.799C44.0185 102.682 43.9005 102.543 43.8065 102.38L43.219 101.363C43.0685 101.103 42.858 100.899 42.615 100.759C42.5215 100.705 42.257 100.552 42.1635 100.499C41.668 100.214 41.039 100.193 40.5085 100.499L32.1525 105.324C31.3595 105.782 30.8145 106.889 30.9355 107.797L35.1395 139.354C35.19 139.771 35.533 140.513 36.1675 140.89L36.977 141.357C37.096 141.427 37.2775 141.503 37.4785 141.509C37.6845 141.515 37.8285 141.444 37.8915 141.408L71.376 121.604C71.2455 121.68 71.0655 121.669 70.867 121.554Z" fill="#C08B89"/>
<path opacity="0.25" d="M70.867 121.554L70.058 121.087C69.6615 120.858 69.2905 120.305 69.2305 119.851L65.709 93.421C65.588 92.513 64.847 92.148 64.0535 92.606L46.0725 102.987C45.279 103.445 44.265 103.173 43.807 102.38L43.2195 101.363C42.7615 100.57 41.747 100.298 40.9535 100.756L32.5975 105.581C31.804 106.039 31.2595 107.146 31.38 108.054L35.543 139.3C35.6035 139.754 35.974 140.308 36.3705 140.537L37.18 141.004C37.378 141.119 37.5575 141.13 37.6875 141.055L71.3755 121.605C71.2455 121.68 71.0655 121.669 70.867 121.554Z" fill="black" fill-opacity="0.8"/>
<path opacity="0.25" d="M36.3705 140.536L37.18 141.004C37.378 141.118 37.5575 141.129 37.6875 141.054L71.3755 121.604C71.2455 121.68 71.0655 121.669 70.867 121.554L70.058 121.087C69.863 120.975 69.6755 120.783 69.527 120.564L35.84 140.013C35.9885 140.232 36.176 140.424 36.3705 140.536Z" fill="black" fill-opacity="0.8"/>
<path d="M36.5671 110.522V137.953C36.5671 138.072 36.6511 138.218 36.7546 138.278L36.9661 138.4C37.0696 138.46 37.2376 138.46 37.3411 138.4L67.7316 120.854C67.8351 120.794 67.9191 120.648 67.9191 120.529V93.0985C67.9191 92.979 67.8351 92.8335 67.7316 92.7735L67.5196 92.651C67.4161 92.591 67.2481 92.591 67.1441 92.651L36.7536 110.197C36.6511 110.257 36.5671 110.402 36.5671 110.522Z" fill="white"/>
<path d="M67.915 93.0494C67.9115 93.0264 67.905 93.0035 67.8965 92.98C67.892 92.9695 67.8865 92.9575 67.882 92.9465C67.8655 92.9125 67.845 92.8794 67.821 92.8499C67.805 92.8309 67.7885 92.8134 67.77 92.7994C67.7575 92.7899 67.7445 92.7809 67.7315 92.7734L67.521 92.6514C67.4165 92.5914 67.2495 92.5914 67.1455 92.6514L36.755 110.197C36.7025 110.228 36.655 110.278 36.6225 110.337L37.2085 110.676C37.243 110.618 37.29 110.566 37.341 110.536L67.731 92.9904C67.8205 92.9384 67.895 92.9659 67.915 93.0494Z" fill="#F5F5F5"/>
<path d="M37.2885 138.422C37.2105 138.44 37.1535 138.39 37.153 138.292V110.861C37.1535 110.801 37.173 110.734 37.208 110.676L36.622 110.337C36.5875 110.395 36.566 110.462 36.567 110.522V137.953C36.5655 138.072 36.65 138.218 36.754 138.277L36.9655 138.4C37.055 138.45 37.188 138.459 37.2885 138.422Z" fill="#F5F5F5"/>
<g opacity="0.1">
<path d="M37.2885 138.422C37.2105 138.44 37.1535 138.39 37.153 138.292V110.861C37.1535 110.801 37.173 110.734 37.208 110.676L36.622 110.337C36.5875 110.395 36.566 110.462 36.567 110.522V137.953C36.5655 138.072 36.65 138.218 36.754 138.277L36.9655 138.4C37.055 138.45 37.188 138.459 37.2885 138.422Z" fill="black" fill-opacity="0.8"/>
</g>
<path d="M71.306 94.2608C71.306 93.8038 71.1455 93.4828 70.887 93.3328C70.818 93.2928 70.544 93.1338 70.474 93.0943C70.2145 92.9458 69.857 92.9678 69.4615 93.1958L38.6475 110.987C37.854 111.445 37.211 112.559 37.211 113.475V139.512C37.211 139.741 37.1305 139.903 37 139.977L37.203 140.331L71.0955 120.763C71.225 120.688 71.305 120.527 71.305 120.299L71.306 94.2608Z" fill="#C08B89"/>
<path d="M25.725 77.8915C25.5875 77.8915 25.451 77.8555 25.326 77.7835C25.0765 77.639 24.9275 77.381 24.9275 77.0925V44.2445C24.9275 43.9445 25.025 43.6115 25.2015 43.3065C25.378 43.004 25.6165 42.7535 25.875 42.601L35.55 37.0175C35.89 36.82 36.266 36.806 36.5785 36.984C36.824 37.1245 36.9945 37.347 37.0765 37.62L37.858 40.227C37.899 40.361 37.9785 40.458 38.0805 40.4985C38.1825 40.539 38.305 40.5225 38.4265 40.453L59.3835 28.358C59.667 28.192 59.957 28.16 60.1965 28.2665L60.2985 28.3215C60.5325 28.4695 60.666 28.751 60.666 29.0945V56.7405C60.666 57.356 60.2485 58.078 59.7155 58.3855L26.123 77.7835C25.998 77.8555 25.8615 77.8915 25.725 77.8915ZM36.102 37.5195C36.03 37.5195 35.9545 37.543 35.879 37.5865L26.2055 43.169C26.0485 43.2625 25.888 43.4335 25.7695 43.637C25.652 43.84 25.585 44.0615 25.585 44.2445V77.0925C25.585 77.1625 25.629 77.199 25.6545 77.2135C25.681 77.2295 25.7335 77.248 25.794 77.214L59.3865 57.816C59.717 57.625 60.007 57.1225 60.007 56.74V29.095C60.007 28.9635 59.972 28.9 59.95 28.8805L59.9075 28.8575C59.898 28.857 59.822 28.8635 59.7115 28.9275L38.7535 41.0225C38.4595 41.1925 38.1265 41.223 37.8375 41.111C37.5445 40.9955 37.327 40.7485 37.227 40.4175L36.445 37.81C36.412 37.6985 36.348 37.6105 36.267 37.5635C36.214 37.534 36.1595 37.5195 36.102 37.5195Z" fill="#C08B89"/>
<path d="M70.867 64.2065L70.6125 64.0595C70.6125 64.0595 70.514 64.0025 70.315 63.8875L70.056 63.738C69.66 63.5085 69.2905 62.956 69.23 62.5025L65.7085 36.0725C65.6515 35.6455 65.4575 35.3395 65.1855 35.182C65.0925 35.128 64.8305 34.9765 64.737 34.9225C64.431 34.747 64.027 34.7595 63.6085 35.001L45.52 45.3205C45.0875 45.57 44.59 45.6015 44.1525 45.4515C44.0185 45.3345 43.9005 45.195 43.8065 45.0325L43.219 44.0155C43.0685 43.755 42.858 43.5515 42.615 43.411C42.5215 43.357 42.257 43.2045 42.1635 43.151C41.668 42.8665 41.039 42.8455 40.5085 43.1515L32.1525 47.976C31.3595 48.434 30.8145 49.5415 30.9355 50.4495L35.1395 82.006C35.19 82.423 35.533 83.165 36.1675 83.542L36.977 84.009C37.096 84.0795 37.2775 84.1555 37.4785 84.161C37.6845 84.167 37.8285 84.096 37.8915 84.06L71.376 64.2565C71.2455 64.332 71.0655 64.3215 70.867 64.2065Z" fill="#C08B89"/>
<path opacity="0.25" d="M70.867 64.2065L70.058 63.7395C69.6615 63.5105 69.2905 62.9565 69.2305 62.5025L65.709 36.0725C65.588 35.1645 64.847 34.7995 64.0535 35.2575L46.072 45.6395C45.2785 46.0975 44.2645 45.8255 43.8065 45.0325L43.219 44.0155C42.761 43.222 41.7465 42.9505 40.953 43.4085L32.597 48.233C31.8035 48.691 31.259 49.7985 31.3795 50.7065L35.5425 81.9525C35.603 82.4065 35.9735 82.96 36.37 83.189L37.1795 83.656C37.3775 83.7705 37.557 83.7815 37.687 83.7065L71.375 64.2565C71.2455 64.332 71.0655 64.3215 70.867 64.2065Z" fill="black" fill-opacity="0.8"/>
<path opacity="0.25" d="M36.3705 83.1889L37.18 83.6559C37.378 83.7704 37.5575 83.7814 37.6875 83.7064L71.3755 64.2564C71.2455 64.3319 71.0655 64.3214 70.867 64.2064L70.058 63.7394C69.863 63.6269 69.6755 63.4354 69.527 63.2164L35.84 82.6654C35.9885 82.8844 36.176 83.0764 36.3705 83.1889Z" fill="black" fill-opacity="0.8"/>
<path d="M36.567 53.1744V80.6054C36.567 80.7249 36.651 80.8704 36.7545 80.9304L36.966 81.0524C37.0695 81.1124 37.2375 81.1124 37.341 81.0524L67.7315 63.5064C67.835 63.4464 67.919 63.3009 67.919 63.1814V35.7509C67.919 35.6314 67.835 35.4859 67.7315 35.4259L67.5195 35.3034C67.416 35.2434 67.248 35.2434 67.144 35.3034L36.7535 52.8494C36.651 52.9089 36.567 53.0544 36.567 53.1744Z" fill="white"/>
<path d="M67.915 35.702C67.9115 35.679 67.905 35.656 67.8965 35.6325C67.892 35.622 67.8865 35.61 67.882 35.599C67.8655 35.565 67.845 35.532 67.821 35.5025C67.805 35.4835 67.7885 35.4665 67.77 35.452C67.7575 35.4425 67.7445 35.4335 67.7315 35.426L67.521 35.304C67.4165 35.2445 67.2495 35.244 67.1455 35.304L36.755 52.85C36.7025 52.8805 36.655 52.931 36.6225 52.99L37.2085 53.329C37.243 53.2705 37.29 53.2185 37.341 53.189L67.731 35.643C67.8205 35.591 67.895 35.618 67.915 35.702Z" fill="#F5F5F5"/>
<path d="M37.2885 81.0749C37.2105 81.0929 37.1535 81.0429 37.153 80.9444V53.5134C37.1535 53.4534 37.173 53.3864 37.208 53.3284L36.622 52.9894C36.5875 53.0479 36.566 53.1149 36.567 53.1744V80.6054C36.5655 80.7244 36.65 80.8709 36.754 80.9294L36.9655 81.0524C37.055 81.1029 37.188 81.1114 37.2885 81.0749Z" fill="#F5F5F5"/>
<g opacity="0.1">
<path d="M37.2885 81.0749C37.2105 81.0929 37.1535 81.0429 37.153 80.9444V53.5134C37.1535 53.4534 37.173 53.3864 37.208 53.3284L36.622 52.9894C36.5875 53.0479 36.566 53.1149 36.567 53.1744V80.6054C36.5655 80.7244 36.65 80.8709 36.754 80.9294L36.9655 81.0524C37.055 81.1029 37.188 81.1114 37.2885 81.0749Z" fill="black" fill-opacity="0.8"/>
</g>
<path d="M71.9925 37.9905C71.9925 37.5335 71.832 37.213 71.5735 37.0625C71.5045 37.0225 71.2305 36.8635 71.1605 36.824C70.901 36.6755 70.5435 36.6975 70.148 36.9255L39.334 54.7165C38.5405 55.1745 37.8975 56.2885 37.8975 57.2045V83.242C37.8975 83.4715 37.817 83.6325 37.6865 83.707L37.8895 84.0605L71.782 64.493C71.9115 64.418 71.9915 64.257 71.9915 64.0285L71.9925 37.9905Z" fill="#C08B89"/>
<path opacity="0.25" d="M37.8905 84.0599C38.0785 83.9514 38.306 83.7064 38.306 83.2414V57.4399C38.306 56.5239 38.949 55.4099 39.7425 54.9519L70.5565 37.1609C71.35 36.7029 71.993 37.0739 71.993 37.9904V64.0279C71.993 64.2564 71.913 64.4174 71.7835 64.4924L37.8905 84.0599Z" fill="white"/>
<path d="M54.9415 59.3295C56.731 58.2965 58.1815 55.525 58.1815 53.139C58.1815 50.753 56.731 49.6565 54.9415 50.6895C53.152 51.7225 51.7015 54.494 51.7015 56.88C51.7015 59.266 53.1525 60.3625 54.9415 59.3295ZM60.3925 60.763C60.1735 59.1765 59.0595 58.5665 57.7565 59.319L52.1275 62.569C50.824 63.3215 49.7105 65.2175 49.4915 67.057L49.101 70.333C49.064 70.6415 49.23 70.808 49.449 70.682L60.435 64.339C60.6535 64.2125 60.82 63.8545 60.783 63.5885L60.3925 60.763Z" fill="white"/>
<path d="M95.201 73.0719C94.956 73.0719 94.7105 73.0074 94.4865 72.8784C94.04 72.6204 93.7725 72.1579 93.7725 71.6419V39.8704C93.7725 39.5169 93.59 39.2004 93.2835 39.0239C92.978 38.8474 92.613 38.8474 92.307 39.0239L77.988 47.2939L77.7625 46.9034L92.0815 38.6334C92.5285 38.3754 93.0625 38.3754 93.509 38.6334C93.956 38.8914 94.2235 39.3539 94.2235 39.8704V71.6419C94.2235 71.9949 94.406 72.3114 94.712 72.4884C95.0185 72.6649 95.384 72.6649 95.6895 72.4884L109.589 64.4599L109.814 64.8504L95.915 72.8789C95.6915 73.0074 95.4465 73.0719 95.201 73.0719Z" fill="black" fill-opacity="0.8"/>
<path d="M77.8755 46.0424C78.381 45.7504 78.791 45.9874 78.791 46.5709C78.791 47.1549 78.381 47.8644 77.8755 48.1564C77.37 48.4484 76.96 48.2119 76.96 47.6279C76.96 47.0439 77.3695 46.3344 77.8755 46.0424Z" fill="black" fill-opacity="0.8"/>
<path d="M109.702 63.5974C110.208 63.3054 110.618 63.5424 110.618 64.1259C110.618 64.7099 110.208 65.4194 109.702 65.7114C109.197 66.0034 108.786 65.7669 108.786 65.1829C108.786 64.5994 109.196 63.8894 109.702 63.5974Z" fill="black" fill-opacity="0.8"/>
<path d="M77.875 103.119C78.3805 102.827 78.7905 103.064 78.7905 103.648C78.7905 104.232 78.3805 104.941 77.875 105.233C77.3695 105.525 76.9595 105.289 76.9595 104.705C76.96 104.121 77.3695 103.411 77.875 103.119Z" fill="black" fill-opacity="0.8"/>
<path d="M109.702 74.1675C110.208 73.8755 110.618 74.112 110.618 74.696C110.618 75.28 110.208 75.9895 109.702 76.2815C109.197 76.5735 108.786 76.337 108.786 75.753C108.786 75.169 109.196 74.4595 109.702 74.1675Z" fill="black" fill-opacity="0.8"/>
<path d="M77.9875 104.372L77.762 103.982L92.4365 95.506C93.261 95.03 93.773 94.143 93.773 93.191V85.9685C93.773 84.856 94.3715 83.819 95.335 83.263L109.589 75.03L109.814 75.4205L95.5605 83.6535C94.736 84.1295 94.224 85.0165 94.224 85.969V93.1915C94.224 94.304 93.6255 95.3405 92.662 95.897L77.9875 104.372Z" fill="black" fill-opacity="0.8"/>
<path d="M77.8755 162.31C78.381 162.018 78.791 162.255 78.791 162.839C78.791 163.422 78.381 164.132 77.8755 164.424C77.37 164.716 76.96 164.48 76.96 163.896C76.96 163.312 77.3695 162.602 77.8755 162.31Z" fill="black" fill-opacity="0.8"/>
<path d="M109.702 95.3839C110.208 95.0919 110.618 95.3284 110.618 95.9124C110.618 96.4959 110.208 97.2059 109.702 97.4979C109.197 97.7899 108.786 97.5529 108.786 96.9694C108.786 96.3854 109.196 95.6759 109.702 95.3839Z" fill="black" fill-opacity="0.8"/>
<path d="M77.9885 163.562L77.763 163.172L92.437 154.697C93.2615 154.221 93.7735 153.334 93.7735 152.382V107.108C93.7735 105.995 94.372 104.959 95.3355 104.402L109.589 96.1689L109.814 96.5594L95.561 104.793C94.7365 105.269 94.2245 106.156 94.2245 107.108V152.382C94.2245 153.494 93.626 154.531 92.6625 155.087L77.9885 163.562Z" fill="black" fill-opacity="0.8"/>
<path d="M168.103 82.183L118.766 101.235L118.766 112.629L120.663 113.362L170 94.31V82.916L168.103 82.183Z" fill="black" fill-opacity="0.8"/>
<path d="M120.663 101.969L170 82.916V94.31L120.663 113.363V101.969Z" fill="black" fill-opacity="0.8"/>
<path d="M118.766 101.235L120.663 101.968V113.362L118.766 112.629L118.766 101.235Z" fill="black" fill-opacity="0.8"/>
<path d="M125.897 109.673L126.923 102.473L129.203 101.557C129.733 101.344 130.151 101.272 130.458 101.341C130.767 101.407 130.979 101.579 131.092 101.859C131.206 102.138 131.232 102.49 131.172 102.914C131.111 103.338 130.975 103.756 130.763 104.168C130.553 104.58 130.266 104.956 129.9 105.297C129.535 105.636 129.09 105.911 128.565 106.122L126.931 106.779L127.041 106.005L128.649 105.359C129.011 105.214 129.312 105.03 129.551 104.808C129.789 104.586 129.974 104.342 130.106 104.075C130.239 103.804 130.327 103.525 130.368 103.237C130.409 102.949 130.395 102.711 130.327 102.524C130.26 102.337 130.125 102.223 129.922 102.183C129.718 102.141 129.433 102.194 129.067 102.341L127.63 102.918L126.714 109.345L125.897 109.673ZM131.787 107.307L132.813 100.107L135.093 99.1907C135.62 98.9789 136.04 98.9011 136.35 98.9574C136.662 99.0113 136.875 99.172 136.99 99.4395C137.105 99.707 137.132 100.053 137.072 100.477C137.012 100.901 136.877 101.31 136.667 101.704C136.458 102.097 136.172 102.455 135.809 102.778C135.447 103.098 135.004 103.363 134.481 103.573L132.636 104.314L132.748 103.527L134.567 102.796C134.927 102.651 135.225 102.478 135.461 102.278C135.699 102.076 135.882 101.852 136.01 101.606C136.141 101.357 136.227 101.088 136.268 100.8C136.309 100.512 136.294 100.28 136.224 100.105C136.154 99.9301 136.016 99.8286 135.811 99.8005C135.606 99.7702 135.321 99.8282 134.957 99.9747L133.52 100.552L132.604 106.978L131.787 107.307ZM135.424 102.796L136.624 105.363L135.675 105.745L134.502 103.167L135.424 102.796ZM139.566 97.3939L138.539 104.594L137.722 104.922L138.748 97.7222L139.566 97.3939ZM141.481 96.6244L142.62 101.88L142.699 101.849L145.567 94.9828L146.424 94.6386L142.919 102.834L142.076 103.173L140.624 96.9686L141.481 96.6244ZM146.145 101.538L145.289 101.882L148.793 93.6867L149.636 93.3478L151.088 99.5522L150.231 99.8964L149.079 94.6457L149.026 94.6669L146.145 101.538ZM146.863 98.5984L150.316 97.211L150.206 97.9845L146.752 99.3719L146.863 98.5984ZM151.898 93.1684L152.008 92.395L157.069 90.3615L156.959 91.1349L154.837 91.9875L153.921 98.414L153.104 98.7423L154.02 92.3158L151.898 93.1684ZM157.304 97.0547L158.331 89.8548L162.403 88.2185L162.293 88.9919L159.038 90.2999L158.691 92.7327L161.735 91.5094L161.625 92.2829L158.581 93.5061L158.232 95.953L161.54 94.6238L161.43 95.3973L157.304 97.0547Z" fill="white"/>
<path d="M150.739 29.5926C145.413 34.3756 140.813 34.1246 137.937 31.9106C135.064 37.4466 130.464 43.0061 125.138 44.3731L122.097 52.5871C122.097 52.5871 123.727 54.4651 123.727 58.9586C123.727 60.9841 123.417 62.7646 122.974 64.5331C122.419 66.7506 121.705 69.0446 121.705 72.8741C121.705 75.4726 122.047 77.9966 123.361 80.2936C124.12 81.6221 125.215 82.7471 126.692 83.6301C125.709 83.0631 122.815 81.3921 122.068 80.9611C120.503 80.0606 119.352 78.9031 118.564 77.5241C117.25 75.2241 116.907 72.7026 116.907 70.1046C116.907 66.2751 117.622 63.9811 118.177 61.7606C118.62 59.9951 118.933 58.2146 118.933 56.1891C118.933 51.6956 117.303 49.8176 117.303 49.8176L120.341 41.6036C125.667 40.2366 130.267 34.6771 133.14 29.1411C136.015 31.3556 140.615 31.6066 145.942 26.8236L150.739 29.5926Z" fill="#C08B89"/>
<path opacity="0.8" d="M134.826 30.114L133.139 29.1405C133.649 29.533 134.214 29.862 134.826 30.114Z" fill="white"/>
<path opacity="0.85" d="M145.941 26.823C141.559 30.7585 137.669 31.2845 134.826 30.114L137.937 31.91C140.812 34.1245 145.413 34.3755 150.739 29.592L145.941 26.823Z" fill="white"/>
<path opacity="0.65" d="M133.139 29.1405C130.266 34.6765 125.666 40.236 120.34 41.603L125.138 44.3725C130.465 43.0055 135.064 37.446 137.937 31.91L133.139 29.1405Z" fill="white"/>
<path opacity="0.55" d="M120.34 41.6035L117.302 49.817L122.096 52.5865L125.138 44.3725L120.34 41.6035Z" fill="white"/>
<path opacity="0.4" d="M123.36 80.293C122.046 77.996 121.704 75.4715 121.704 72.8735C121.704 69.044 122.419 66.75 122.974 64.5325C123.417 62.764 123.727 60.9835 123.727 58.958C123.727 54.4645 122.096 52.5865 122.096 52.5865L117.301 49.817C117.301 49.817 118.932 51.695 118.932 56.1885C118.932 58.214 118.618 59.9945 118.175 61.76C117.62 63.9805 116.906 66.2745 116.906 70.104C116.906 72.702 117.248 75.2235 118.562 77.5235C119.351 78.9025 120.503 80.06 122.067 80.9605C122.814 81.3915 125.707 83.0625 126.69 83.6295C125.214 82.7465 124.119 81.622 123.36 80.293Z" fill="white"/>
<path d="M137.938 85.919C129.983 86.007 125.425 83.909 123.359 80.2925C122.047 77.9945 121.704 75.471 121.704 72.873C121.704 69.044 122.417 66.751 122.973 64.5315C123.415 62.765 123.728 60.9835 123.728 58.9595C123.728 54.466 122.098 52.588 122.098 52.588L125.137 44.3725C130.463 43.0055 135.064 37.445 137.938 31.909C140.813 34.1255 145.412 34.375 150.738 29.592L153.778 34.298C153.778 34.298 152.148 38.0575 152.148 42.5515C152.148 44.5755 152.46 45.9965 152.902 47.252C153.458 48.8295 154.171 50.3 154.171 54.129C154.171 56.727 153.829 59.646 152.516 63.4595C150.451 69.461 145.894 76.821 137.938 85.919Z" fill="#C08B89"/>
<path opacity="0.75" d="M137.938 85.919C129.983 86.007 125.425 83.909 123.359 80.2925C122.047 77.9945 121.704 75.471 121.704 72.873C121.704 69.044 122.417 66.751 122.973 64.5315C123.415 62.765 123.728 60.9835 123.728 58.9595C123.728 54.466 122.098 52.588 122.098 52.588L125.137 44.3725C130.463 43.0055 135.064 37.445 137.938 31.909C140.813 34.1255 145.412 34.375 150.738 29.592L153.778 34.298C153.778 34.298 152.148 38.0575 152.148 42.5515C152.148 44.5755 152.46 45.9965 152.902 47.252C153.458 48.8295 154.171 50.3 154.171 54.129C154.171 56.727 153.829 59.646 152.516 63.4595C150.451 69.461 145.894 76.821 137.938 85.919Z" fill="white"/>
<path opacity="0.75" d="M136.996 83.852C130.834 83.779 126.85 82.2375 125.154 79.2675C124.198 77.593 123.771 75.621 123.771 72.873C123.771 69.7285 124.288 67.724 124.786 65.786C124.851 65.533 124.915 65.2825 124.978 65.0335C125.543 62.779 125.795 60.9055 125.795 58.9595C125.795 55.686 125.011 53.5415 124.388 52.356L126.72 46.052C132.421 44.07 136.542 38.4415 138.725 34.749C139.886 35.2445 141.142 35.501 142.444 35.501C145.02 35.501 147.639 34.5425 150.251 32.6465L151.477 34.544C150.945 36.082 150.082 39.11 150.082 42.5515C150.082 44.5655 150.351 46.227 150.954 47.9385C151.018 48.1205 151.084 48.301 151.151 48.483C151.641 49.8225 152.105 51.088 152.105 54.1285C152.105 57.017 151.628 59.6875 150.562 62.786C148.529 68.694 143.966 75.7785 136.996 83.852Z" fill="#C08B89"/>
<path opacity="0.4" d="M136.996 83.852C130.834 83.779 126.85 82.2375 125.154 79.2675C124.198 77.593 123.771 75.621 123.771 72.873C123.771 69.7285 124.288 67.724 124.786 65.786C124.851 65.533 124.915 65.2825 124.978 65.0335C125.543 62.779 125.795 60.9055 125.795 58.9595C125.795 55.686 125.011 53.5415 124.388 52.356L126.72 46.052C132.421 44.07 136.542 38.4415 138.725 34.749C139.886 35.2445 141.142 35.501 142.444 35.501C145.02 35.501 147.639 34.5425 150.251 32.6465L151.477 34.544C150.945 36.082 150.082 39.11 150.082 42.5515C150.082 44.5655 150.351 46.227 150.954 47.9385C151.018 48.1205 151.084 48.301 151.151 48.483C151.641 49.8225 152.105 51.088 152.105 54.1285C152.105 57.017 151.628 59.6875 150.562 62.786C148.529 68.694 143.966 75.7785 136.996 83.852Z" fill="white"/>
<path opacity="0.15" d="M136.996 83.852C130.834 83.779 126.85 82.2375 125.154 79.2675C124.198 77.593 123.771 75.621 123.771 72.873C123.771 69.7285 124.288 67.724 124.786 65.786C124.851 65.533 124.915 65.2825 124.978 65.0335C125.543 62.779 125.795 60.9055 125.795 58.9595C125.795 55.686 125.011 53.5415 124.388 52.356L126.72 46.052C132.421 44.07 136.542 38.4415 138.725 34.749C139.886 35.2445 141.142 35.501 142.444 35.501C145.02 35.501 147.639 34.5425 150.251 32.6465L151.477 34.544C150.945 36.082 150.082 39.11 150.082 42.5515C150.082 44.5655 150.351 46.227 150.954 47.9385C151.018 48.1205 151.084 48.301 151.151 48.483C151.641 49.8225 152.105 51.088 152.105 54.1285C152.105 57.017 151.628 59.6875 150.562 62.786C148.529 68.694 143.966 75.7785 136.996 83.852Z" fill="#C08B89"/>
<path opacity="0.8" d="M126.565 80.9761C128.664 82.8271 132.155 83.7951 136.996 83.8521L133.906 82.0921C131.142 82.0756 128.682 81.7181 126.565 80.9761Z" fill="white"/>
<path opacity="0.25" d="M149.867 33.6155L151.477 34.544L150.251 32.6465L149.553 33.128L149.867 33.6155Z" fill="#C08B89"/>
<path d="M149.344 47.0101C148.741 45.2981 148.472 43.6371 148.472 41.6231C148.472 38.1821 149.336 35.1541 149.867 33.6156L149.552 33.1281C147.172 34.7026 144.789 35.5011 142.443 35.5011C141.14 35.5011 139.884 35.2446 138.723 34.7491C136.54 38.4416 132.42 44.0701 126.719 46.0521L124.387 52.3561C125.01 53.5421 125.794 55.6861 125.794 58.9596C125.794 60.9056 125.542 62.7791 124.977 65.0336C124.914 65.2826 124.85 65.5331 124.785 65.7861C124.287 67.7241 123.771 69.7286 123.771 72.8731C123.771 75.6211 124.197 77.5936 125.153 79.2676C125.635 80.1121 126.309 80.8371 127.159 81.4496C129.218 82.3881 131.965 82.8831 135.385 82.9236C142.355 74.8501 146.919 67.7656 148.952 61.8576C150.018 58.7586 150.494 56.0881 150.494 53.2001C150.494 50.1596 150.03 48.8941 149.54 47.5546C149.474 47.3726 149.408 47.1926 149.344 47.0101Z" fill="#C08B89"/>
<path d="M140.802 67.0669L133.337 71.3764L134.494 57.8739C133.602 57.4019 133.033 56.2404 133.033 54.5724C133.033 51.5994 134.84 48.1454 137.07 46.8579C139.3 45.5709 141.107 46.9374 141.107 49.9104C141.107 51.5784 140.538 53.3969 139.645 54.8999L140.802 67.0669Z" fill="#C08B89"/>
<path opacity="0.25" d="M140.802 67.0669L133.337 71.3764L134.494 57.8739C133.602 57.4019 133.033 56.2404 133.033 54.5724C133.033 51.5994 134.84 48.1454 137.07 46.8579C139.3 45.5709 141.107 46.9374 141.107 49.9104C141.107 51.5784 140.538 53.3969 139.645 54.8999L140.802 67.0669Z" fill="black" fill-opacity="0.8"/>
<path opacity="0.15" d="M140.802 67.0669L134.042 63.1639L133.338 71.3764L140.802 67.0669Z" fill="black" fill-opacity="0.8"/>
<path opacity="0.15" d="M137.07 46.8579C135.611 47.7004 134.337 49.4714 133.628 51.4269L139.646 54.9019V54.8999C140.539 53.3969 141.108 51.5784 141.108 49.9104C141.108 46.9374 139.299 45.5709 137.07 46.8579Z" fill="black" fill-opacity="0.8"/>
<path d="M125.158 188.79C117.692 184.479 105.588 184.479 98.1215 188.79C94.993 190.596 93.033 191.81 92.5295 194.161V196.597C92.533 198.412 93.307 200.227 94.8505 201.865L61.343 218.778V221.211L65.0985 223.378H75.575L79.695 220.999V218.699L82.978 216.868L87.5465 216.466L89.365 215.416L89.549 211.336L92.925 209.387L97.8715 210.505L104.31 206.788C111.242 208.448 119.521 207.654 125.157 204.4C128.9 202.239 130.767 199.405 130.757 196.572V194.162C130.419 191.628 128.514 190.728 125.158 188.79ZM120.494 195.768C118.379 196.989 114.95 196.989 112.835 195.768C110.72 194.547 110.72 192.567 112.835 191.346C114.95 190.125 118.379 190.125 120.494 191.346C122.609 192.567 122.609 194.547 120.494 195.768Z" fill="#C08B89"/>
<path opacity="0.2" d="M125.158 188.79C117.692 184.479 105.588 184.479 98.1215 188.79C94.993 190.596 93.033 191.81 92.5295 194.161V196.597C92.533 198.412 93.307 200.227 94.8505 201.865L61.343 218.778V221.211L65.0985 223.378H75.575L79.695 220.999V218.699L82.978 216.868L87.5465 216.466L89.365 215.416L89.549 211.336L92.925 209.387L97.8715 210.505L104.31 206.788C111.242 208.448 119.521 207.654 125.157 204.4C128.9 202.239 130.767 199.405 130.757 196.572V194.162C130.419 191.628 128.514 190.728 125.158 188.79ZM120.494 195.768C118.379 196.989 114.95 196.989 112.835 195.768C110.72 194.547 110.72 192.567 112.835 191.346C114.95 190.125 118.379 190.125 120.494 191.346C122.609 192.567 122.609 194.547 120.494 195.768Z" fill="black" fill-opacity="0.8"/>
<path d="M125.157 186.357C117.692 182.047 105.587 182.047 98.1215 186.357C91.987 189.899 90.904 195.246 94.8505 199.432L61.343 218.778L65.0985 220.945H75.575L79.695 218.566L79.4165 216.422L82.978 214.435L87.5465 214.033L89.365 212.983L89.549 208.903L92.925 206.954L97.8715 208.072L104.31 204.355C111.242 206.015 119.52 205.221 125.157 201.967C132.623 197.656 132.623 190.667 125.157 186.357ZM120.494 193.335C118.379 194.556 114.95 194.556 112.835 193.335C110.72 192.114 110.72 190.134 112.835 188.913C114.95 187.692 118.379 187.692 120.494 188.913C122.609 190.134 122.609 192.114 120.494 193.335Z" fill="#C08B89"/>
<path opacity="0.3" d="M125.157 186.357C117.692 182.047 105.587 182.047 98.1215 186.357C91.987 189.899 90.904 195.246 94.8505 199.432L61.343 218.778L65.0985 220.945H75.575L79.695 218.566L79.4165 216.422L82.978 214.435L87.5465 214.033L89.365 212.983L89.549 208.903L92.925 206.954L97.8715 208.072L104.31 204.355C111.242 206.015 119.52 205.221 125.157 201.967C132.623 197.656 132.623 190.667 125.157 186.357ZM120.494 193.335C118.379 194.556 114.95 194.556 112.835 193.335C110.72 192.114 110.72 190.134 112.835 188.913C114.95 187.692 118.379 187.692 120.494 188.913C122.609 190.134 122.609 192.114 120.494 193.335Z" fill="white"/>
<path d="M111.64 203.001C106.914 203.001 102.503 201.957 99.2205 200.063C96.3605 198.411 94.7205 196.26 94.7205 194.161C94.7205 192.063 96.3605 189.912 99.2205 188.26C102.503 186.365 106.915 185.322 111.64 185.322C116.365 185.322 120.775 186.365 124.059 188.26C126.919 189.912 128.559 192.063 128.559 194.161C128.559 196.26 126.919 198.411 124.059 200.063C120.776 201.958 116.365 203.001 111.64 203.001ZM111.64 186.01C107.033 186.01 102.744 187.02 99.5645 188.855C96.923 190.381 95.408 192.315 95.408 194.161C95.408 196.008 96.9225 197.942 99.5645 199.468C102.744 201.303 107.033 202.313 111.64 202.313C116.247 202.313 120.535 201.302 123.715 199.468C126.356 197.942 127.871 196.008 127.871 194.161C127.871 192.315 126.357 190.381 123.715 188.855C120.535 187.02 116.246 186.01 111.64 186.01Z" fill="#C08B89"/>
<path opacity="0.1" d="M118.52 204.456V206.887C113.953 207.904 108.843 207.87 104.31 206.786V204.354C108.843 205.439 113.953 205.473 118.52 204.456Z" fill="black" fill-opacity="0.8"/>
<path opacity="0.1" d="M97.872 208.072V210.505L92.925 209.386V206.953L97.872 208.072Z" fill="black" fill-opacity="0.8"/>
<path opacity="0.1" d="M89.549 208.903V211.335L89.365 215.416V212.983L89.549 208.903Z" fill="black" fill-opacity="0.8"/>
<path opacity="0.1" d="M87.546 214.033V216.466L82.978 216.867V214.435L87.546 214.033Z" fill="black" fill-opacity="0.8"/>
<path opacity="0.1" d="M75.575 220.945H65.0985V223.378H75.575V220.945Z" fill="black" fill-opacity="0.8"/>
<path opacity="0.15" d="M61.343 218.778V221.211L65.0985 223.378V220.945L63.4525 219.995V221.045L62.5445 220.52V219.459L61.343 218.778Z" fill="black" fill-opacity="0.8"/>
<path d="M62.5445 219.459L63.4525 219.994V221.044L62.5445 220.52V219.459Z" fill="#C08B89"/>
<path opacity="0.3" d="M62.5445 219.459L63.4525 219.994V221.044L62.5445 220.52V219.459Z" fill="white"/>
<path d="M62.5445 219.459V220.52L96.907 200.679L95.9985 200.144L62.5445 219.459Z" fill="#C08B89"/>
<path opacity="0.15" d="M95.9985 200.144V201.205L96.907 200.679L95.9985 200.144Z" fill="black" fill-opacity="0.8"/>
<path d="M172.949 194.106L168.234 184.817L158.744 190.372L170.443 204.183C170.443 204.183 176.242 203.646 177.176 200.621C178.11 197.595 174.547 195.112 172.949 194.106Z" fill="#FFC6A8"/>
<path d="M179.636 197.754C180.214 198.15 180.568 198.624 180.951 199.191C181.333 199.758 181.215 202.508 181.579 203.784C181.944 205.059 182.226 205.4 182.836 206.999C183.512 208.772 184.762 210.391 183.35 214.946C181.919 219.563 179.675 221.673 177.766 222.786C176.763 223.371 175.464 223.345 175.464 223.345C175.464 223.345 172.962 222.399 173.346 220.92C173.729 219.44 179.636 197.754 179.636 197.754Z" fill="black" fill-opacity="0.8"/>
<path d="M168.659 202.754C168.728 203.223 169.384 203.945 169.651 204.328C170.548 205.616 170.96 207.359 171.272 208.882C172.747 216.092 169.881 219.756 173.761 222.46C174.886 223.168 177.217 222.974 180.762 218.43C182.572 216.108 183.606 211.335 182.9 209.174C182.194 207.013 181.227 205.605 180.771 203.942C180.316 202.28 180.553 199.181 179.635 197.753C179.097 196.915 178.221 196.326 177.384 195.817C176.696 195.399 175.191 194.848 174.489 194.449C173.73 194.018 173.401 193.597 172.949 194.106L173.759 195.107C175.024 196.858 174.672 197.115 174.642 198.047C174.61 199.019 174.934 200.047 175.112 201.015C174.212 199.88 173.844 198.889 172.862 199.063C171.942 199.226 171.762 199.189 170.355 200.509C168.947 201.83 168.597 202.337 168.659 202.754Z" fill="black" fill-opacity="0.8"/>
<path d="M180.762 218.43C182.572 216.108 183.606 211.335 182.9 209.174C182.644 208.392 182.355 207.712 182.068 207.08C182.098 207.226 182.143 207.375 182.162 207.5C182.206 207.779 182.243 208.06 182.27 208.341C182.374 209.424 182.369 210.604 181.911 211.614C181.502 212.512 180.562 214.766 179.348 214.816C178.661 214.844 178.081 214.172 177.816 213.404C177.705 213.08 177.52 212.205 177.52 212.205C177.52 212.205 175.73 212.591 174.367 213.492C172.608 214.656 172.672 214.914 172.672 214.914C172.745 215.311 172.825 215.986 172.729 216.458C172.633 216.931 172.365 217.695 172.074 217.997C171.934 218.143 171.781 218.257 171.626 218.356C171.698 220.019 172.134 221.326 173.761 222.46C174.886 223.168 177.217 222.974 180.762 218.43Z" fill="black" fill-opacity="0.8"/>
<path d="M171.272 208.882C171.73 211.119 171.769 213.013 171.722 214.645C172.385 216.491 172.965 216.436 173.044 215.48C173.124 214.518 171.849 210.553 170.9 207.273C171.045 207.817 171.166 208.362 171.272 208.882Z" fill="black" fill-opacity="0.8"/>
<path d="M175.66 197.322C175.766 196.423 175.484 195.499 174.954 194.684C174.78 194.602 174.618 194.523 174.489 194.449C173.729 194.018 173.401 193.597 172.949 194.106L173.76 195.107C175.025 196.858 174.672 197.114 174.642 198.047C174.61 199.019 174.934 200.047 175.112 201.015C175.846 204.145 176.517 205.191 176.863 208.148C177.21 211.105 176.618 213.092 177.036 213.259C177.453 213.427 178.296 213.091 178.45 210.721C178.603 208.351 177.558 204.37 176.82 202.483C176.082 200.596 175.51 198.586 175.66 197.322Z" fill="black" fill-opacity="0.8"/>
<path d="M177.731 212.412C177.691 212.453 177.639 212.482 177.58 212.495C175.504 212.922 174.398 213.444 172.853 215.263C172.744 215.383 172.562 215.403 172.438 215.297C172.314 215.192 172.299 215.006 172.404 214.882C174.037 212.959 175.253 212.371 177.461 211.917C177.62 211.885 177.776 211.987 177.809 212.147C177.829 212.246 177.797 212.345 177.731 212.412Z" fill="#999999"/>
<path d="M177.357 209.946C177.318 209.986 177.267 210.015 177.209 210.029C175.062 210.526 173.871 211.134 172.231 213.051C172.107 213.189 171.931 213.192 171.804 213.084C171.677 212.975 171.662 212.784 171.77 212.657C173.501 210.639 174.797 209.966 177.073 209.439C177.236 209.401 177.399 209.503 177.436 209.666C177.459 209.771 177.426 209.875 177.357 209.946Z" fill="#999999"/>
<path d="M177.408 207.231C177.366 207.274 177.311 207.307 177.246 207.322C174.878 207.871 173.489 208.605 171.682 210.718C171.568 210.855 171.351 210.874 171.21 210.754C171.071 210.634 171.055 210.424 171.175 210.283C173.078 208.063 174.586 207.253 177.096 206.672C177.275 206.63 177.454 206.742 177.496 206.922C177.523 207.037 177.486 207.152 177.408 207.231Z" fill="#999999"/>
<path d="M177.015 204.911C176.973 204.954 176.918 204.986 176.855 205C174.533 205.537 173.189 206.242 171.413 208.317C171.3 208.449 171.089 208.471 170.952 208.353C170.814 208.236 170.799 208.029 170.917 207.892C172.78 205.714 174.248 204.932 176.708 204.363C176.883 204.322 177.059 204.432 177.1 204.608C177.127 204.721 177.091 204.834 177.015 204.911Z" fill="#999999"/>
<path d="M176.165 202.652C176.123 202.695 176.068 202.727 176.005 202.741C173.683 203.279 172.34 203.982 170.562 206.059C170.446 206.194 170.239 206.213 170.102 206.095C169.964 205.978 169.948 205.771 170.066 205.634C171.932 203.454 173.396 202.674 175.857 202.104C176.033 202.063 176.209 202.173 176.25 202.349C176.276 202.462 176.24 202.575 176.165 202.652Z" fill="#999999"/>
<path d="M170.389 194.849L164.245 199.872L160.77 202.053L164.736 209.554L175.913 204.203L170.389 194.849Z" fill="#FFC6A8"/>
<path d="M182.909 161.303C182.909 161.303 160.547 157.597 150.977 157.658C141.212 157.72 140.306 165.052 142.749 169.542C147.427 178.14 163.695 196.375 163.695 196.375C163.695 196.375 169.159 193.873 170.838 189.145L167.127 180.636L178.803 184.372L184.766 180.37L185.252 177.326L182.909 161.303Z" fill="#C08B89"/>
<path opacity="0.4" d="M182.909 161.303C182.909 161.303 160.547 157.597 150.977 157.658C141.212 157.72 140.306 165.052 142.749 169.542C147.427 178.14 163.695 196.375 163.695 196.375C163.695 196.375 169.159 193.873 170.838 189.145L167.127 180.636L178.803 184.372L184.766 180.37L185.252 177.326L182.909 161.303Z" fill="black" fill-opacity="0.8"/>
<path d="M182.909 161.303L221.622 167.75C221.622 167.75 222.003 177.016 218.359 185.316C215.23 192.444 208.849 195.61 203.876 196.375C198.652 197.179 192.163 197.327 192.163 197.327C192.163 197.327 189.127 199.703 186.046 200.928C182.966 202.152 169.482 207.8 169.482 207.8C169.482 207.8 165.695 204.594 166.071 197.913L178.803 184.372C181.683 180.861 182.694 179.727 184.296 178.932C181.839 174.186 182.634 166.533 182.909 161.303Z" fill="#C08B89"/>
<path opacity="0.3" d="M182.909 161.303L221.622 167.75C221.622 167.75 222.003 177.016 218.359 185.316C215.23 192.444 208.849 195.61 203.876 196.375C198.652 197.179 192.163 197.327 192.163 197.327C192.163 197.327 189.127 199.703 186.046 200.928C182.966 202.152 169.482 207.8 169.482 207.8C169.482 207.8 165.695 204.594 166.071 197.913L178.803 184.372C181.683 180.861 182.694 179.727 184.296 178.932C181.839 174.186 182.634 166.533 182.909 161.303Z" fill="black" fill-opacity="0.8"/>
<g opacity="0.3">
<path d="M165.18 173.391C167.619 177.028 169.149 179.725 170.111 181.587L167.127 180.637C163.765 172.626 163.075 170.291 157.702 166.538C157.702 166.538 161.556 167.989 165.18 173.391Z" fill="black" fill-opacity="0.8"/>
<path d="M195.018 192.837C195.018 192.837 195.064 194.802 192.164 197.327C192.164 197.327 189.128 199.704 186.047 200.928C182.966 202.153 169.483 207.8 169.483 207.8C169.483 207.8 168.751 207.462 167.702 205.478C171.188 204.655 182.671 200.162 186.38 198.59C192.981 195.792 195.018 192.837 195.018 192.837Z" fill="black" fill-opacity="0.8"/>
<path d="M180.729 182.103C179.424 183.633 178.803 184.373 178.803 184.373L176.934 183.76C176.934 183.76 180.249 180.156 182.386 178.26C182.819 177.876 183.139 177.567 183.609 177.3C182.532 174.468 182.57 169.823 182.57 169.823C182.986 173.037 184.551 175.464 185.393 176.617C186.888 176.202 188.618 176.198 190.768 176.556C194.515 177.18 205.368 179.028 205.368 179.028C205.368 179.028 194.963 178.091 189.55 177.883C184.138 177.675 182.033 180.574 180.729 182.103Z" fill="black" fill-opacity="0.8"/>
</g>
<path d="M146.682 205.961C144.052 206.997 142.428 208.042 141.213 209.629C139.998 211.217 139.627 212.826 140.781 214.75C141.935 216.673 144.057 218.932 146.576 218.785C149.094 218.637 150.644 218.01 152.981 216.743L146.682 205.961Z" fill="black" fill-opacity="0.8"/>
<path d="M167.702 208.186C167.739 208.974 164.416 210.545 160.965 212.192C157.265 213.957 156.355 215.106 153.334 216.592C149.884 218.29 148.572 218.388 145.894 217.644C143.216 216.9 139.912 213.067 142.213 209.542C144.089 206.668 146.52 205.879 150.208 204.908C154.02 203.905 156.049 203.202 158.835 202.12C161.498 201.085 163.693 199.227 164.244 199.872C163.863 200.056 161.077 201.776 161.604 202.244C161.733 202.485 162.131 202.409 162.816 202.126C163.115 202.003 163.461 201.928 163.771 202.081C164.084 202.235 164.284 202.582 164.46 202.908C164.887 203.701 164.943 204.19 165.295 205.021C165.501 205.507 165.416 205.226 165.608 205.718C165.823 206.27 166.233 207.1 166.179 207.605C166.146 207.909 165.925 208.006 165.691 208.155C165.456 208.303 165.127 208.483 164.906 208.654C164.818 208.722 164.66 208.948 164.709 209.064C164.793 209.256 165.274 209.165 165.473 209.082C165.713 208.982 166.009 208.916 166.253 208.826C166.486 208.741 167.092 208.47 167.702 208.186Z" fill="black" fill-opacity="0.8"/>
<path d="M154.52 216.021C154.024 216.271 150.892 217.727 149.908 216.854C148.844 215.909 151.357 214.401 151.357 214.401C151.357 214.401 151.74 212.038 148.888 208.562C148.394 208.945 146.334 208.926 146.362 207.713C146.39 206.509 149.841 205.015 149.891 204.993C146.36 205.938 144.036 206.752 142.214 209.542C139.913 213.067 143.217 216.9 145.895 217.644C148.573 218.388 149.885 218.29 153.335 216.592C153.68 216.422 154.217 216.199 154.52 216.021Z" fill="black" fill-opacity="0.8"/>
<path d="M151.02 214.165C149.713 214.602 150.609 215.789 152.523 215.404C155.391 214.827 157.773 213.2 160.965 212.192C164.417 210.546 167.932 209.012 167.706 208.14C167.088 208.372 165.767 208.922 165.767 208.922C165.508 209.032 164.842 209.28 164.842 209.28C162.226 210.41 159.332 212.227 156.503 212.993C154.01 213.669 152.327 213.729 151.02 214.165Z" fill="black" fill-opacity="0.8"/>
<path d="M149.078 209.01C150.273 208.318 150.481 207.727 152.827 206.65C155.155 205.58 159.136 203.268 161.585 201.841C162.352 201.421 164.219 199.885 164.245 199.872C163.839 199.41 162.345 199.837 160.85 200.779C159.356 201.722 158.446 202.322 156.963 203.093C154.085 204.822 150.803 205.99 149.159 207.048C147.515 208.106 147.882 209.702 149.078 209.01Z" fill="black" fill-opacity="0.8"/>
<path d="M148.901 208.693C148.917 208.731 148.941 208.767 148.969 208.798C148.994 208.824 150.864 210.882 151.207 214.586C151.225 214.768 151.372 214.913 151.534 214.91C151.698 214.908 151.816 214.758 151.8 214.576C151.433 210.613 149.473 208.463 149.365 208.347C149.242 208.215 149.054 208.208 148.945 208.334C148.862 208.428 148.848 208.572 148.901 208.693Z" fill="#F5F5F5"/>
<path d="M151.22 206.999C151.235 207.034 151.255 207.066 151.28 207.096C151.306 207.126 153.549 209.835 154.051 213.929C154.076 214.109 154.224 214.249 154.387 214.242C154.55 214.233 154.665 214.079 154.642 213.897C154.109 209.568 151.805 206.793 151.693 206.662C151.573 206.526 151.384 206.512 151.271 206.631C151.181 206.726 151.165 206.874 151.22 206.999Z" fill="#F5F5F5"/>
<path d="M156.329 213.685C156.379 213.801 156.485 213.887 156.605 213.894C156.77 213.902 156.899 213.764 156.893 213.583C156.755 209.392 154.057 205.46 153.93 205.324C153.807 205.192 153.619 205.186 153.51 205.311C153.401 205.436 153.416 205.646 153.535 205.775C153.563 205.806 156.173 209.647 156.297 213.547C156.298 213.596 156.31 213.642 156.329 213.685Z" fill="#F5F5F5"/>
<path d="M158.473 212.315C158.523 212.429 158.627 212.513 158.745 212.522C158.91 212.535 159.041 212.399 159.038 212.218C158.958 207.586 156.044 204.506 155.914 204.382C155.784 204.258 155.597 204.265 155.496 204.398C155.395 204.531 155.419 204.743 155.548 204.862C155.578 204.889 158.367 207.86 158.442 212.171C158.443 212.222 158.454 212.271 158.473 212.315Z" fill="#F5F5F5"/>
<path d="M161.253 211.14C161.302 211.252 161.403 211.336 161.52 211.347C161.685 211.362 161.818 211.228 161.818 211.047C161.8 206.689 158.736 203.316 158.598 203.18C158.471 203.052 158.283 203.055 158.179 203.185C158.074 203.314 158.09 203.523 158.221 203.65C158.252 203.682 161.206 206.944 161.222 210.991C161.222 211.044 161.233 211.094 161.253 211.14Z" fill="#999999"/>
<path d="M182.421 128.332C180.573 131.091 173.551 140.684 173.551 140.684C171.497 138.309 169.061 135.385 166.996 132.85C164.273 129.527 163.194 128.832 161.752 123.652C161.388 122.344 160.393 120.876 159.919 120.09C159.034 118.623 158.678 117.035 158.548 116.255C158.474 115.588 156.775 115.782 156.462 117.924C156.249 119.029 156.615 120.119 156.613 121.215C156.619 121.549 156.798 122.256 156.379 122.196C153.848 121.831 151.98 118.952 148.95 116.913C147.854 116.182 145.054 115.423 144.46 117.008C144.41 117.395 144.686 117.661 144.791 118.003C144.807 118.054 144.802 118.091 144.8 118.143C144.794 118.306 144.788 118.46 144.751 118.621C144.679 118.94 144.546 119.242 144.48 119.563C144.379 120.046 144.44 120.56 144.65 121.007C144.811 121.35 145.059 121.657 145.152 122.025C145.094 122.897 145.123 123.319 145.419 124.013C145.654 124.562 146.029 125.079 146.386 125.557C146.624 125.877 146.728 126.273 146.895 126.634C147.184 127.257 147.656 127.774 148.129 128.271C149.787 130.014 151.568 131.67 153.645 132.882C154.582 133.428 155.575 133.882 156.458 134.517C157.112 134.988 157.715 135.535 158.206 136.176C158.824 136.984 159.325 137.882 159.798 138.781C159.807 138.798 159.816 138.814 159.825 138.831C163.885 145.876 164.247 148.478 168.522 154.055C172.131 158.522 174.647 156.625 180.096 151.375C186.793 144.921 190.38 141.205 190.38 141.205L192.003 119.795C188.041 121.12 184.269 125.573 182.421 128.332Z" fill="#FFC6A8"/>
<path d="M156.69 124.013C156.187 126.939 157.514 129.116 158.564 130.233C156.252 129.603 155.315 126.618 156.69 124.013Z" fill="#C08B89"/>
<path d="M194.048 119.13C190.329 119.762 187.433 121.229 182.755 127.418C178.078 133.607 173.551 140.355 173.551 140.355L169.784 136.235C170.978 136.924 170.775 142.201 168.85 144.587C166.926 146.973 164.099 147.366 164.099 147.366C164.099 147.366 165.838 150.781 167.753 153.402C169.669 156.022 170.898 156.694 172.535 156.694C174.173 156.694 175.977 155.749 180.255 151.682C184.534 147.615 191.329 141.118 191.329 141.118L194.048 119.13Z" fill="#C08B89"/>
<path opacity="0.55" d="M194.048 119.13C190.329 119.762 187.433 121.229 182.755 127.418C178.078 133.607 173.551 140.355 173.551 140.355L169.784 136.235C170.978 136.924 170.775 142.201 168.85 144.587C166.926 146.973 164.099 147.366 164.099 147.366C164.099 147.366 165.838 150.781 167.753 153.402C169.669 156.022 170.898 156.694 172.535 156.694C174.173 156.694 175.977 155.749 180.255 151.682C184.534 147.615 191.329 141.118 191.329 141.118L194.048 119.13Z" fill="white"/>
<path opacity="0.35" d="M173.551 140.355C175.539 142.552 176.944 146.39 176.804 148.368C177.64 146.056 176.815 142.113 174.286 139.271L173.551 140.355Z" fill="#C08B89"/>
<path opacity="0.35" d="M165.734 150.184C166.204 150.087 166.663 149.943 167.106 149.761C168.01 149.39 168.838 148.848 169.541 148.171C170.864 146.898 171.779 145.129 172.025 143.308C172.037 143.215 172.138 143.245 172.133 143.33C172.005 145.35 171.173 147.256 169.67 148.634C168.92 149.321 168.043 149.866 167.097 150.24C166.714 150.392 166.317 150.508 165.915 150.603C165.831 150.465 165.749 150.328 165.669 150.193C165.69 150.19 165.713 150.188 165.734 150.184Z" fill="#C08B89"/>
<path d="M187.757 132.639C188.277 122.243 190.627 119.375 195.899 118.791L204.602 117.873C207.185 118.402 216.07 121.233 219.062 122.272C220.989 122.941 221.818 127.033 222.232 133.443C222.568 138.649 222.62 143.013 222.448 150.211C222.303 156.243 222.156 163.116 220.313 171.501C213.113 174.23 192.3 171.626 184.003 162.117C184.671 159.968 187.334 156.083 187.756 151.764C187.485 142.715 187.594 135.906 187.757 132.639Z" fill="black" fill-opacity="0.8"/>
<path d="M219.257 122.137L212.758 119.852C212.758 119.852 211.584 122.583 209.066 127.823C206.549 133.063 206.458 135.442 206.223 144.587C205.988 153.732 204.316 169.808 203.227 173.518C207.256 174.079 210.747 179.922 221.096 178.109C221.096 178.109 223.27 167.519 223.609 149.476C223.785 140.123 223.834 124.779 219.257 122.137Z" fill="#C08B89"/>
<path opacity="0.35" d="M219.257 122.137L212.758 119.852C212.758 119.852 211.584 122.583 209.066 127.823C206.549 133.063 206.458 135.442 206.223 144.587C205.988 153.732 204.316 169.808 203.227 173.518C207.256 174.079 210.747 179.922 221.096 178.109C221.096 178.109 223.27 167.519 223.609 149.476C223.785 140.123 223.834 124.779 219.257 122.137Z" fill="white"/>
<path d="M206.587 136.391C207.599 128.179 211.039 127.753 211.835 130.452C214.822 125.98 214.949 122.137 214.902 120.605C214.087 119.194 213.449 118.007 213.178 117.476C212.819 116.773 212.408 116.919 212.408 116.919L212.385 119.004C212.385 119.004 211.907 121.395 209.452 124.412C207.651 126.627 207.016 129.463 206.587 136.391Z" fill="#C08B89"/>
<path opacity="0.55" d="M206.587 136.391C207.599 128.179 211.039 127.753 211.835 130.452C214.822 125.98 214.949 122.137 214.902 120.605C214.087 119.194 213.449 118.007 213.178 117.476C212.819 116.773 212.408 116.919 212.408 116.919L212.385 119.004C212.385 119.004 211.907 121.395 209.452 124.412C207.651 126.627 207.016 129.463 206.587 136.391Z" fill="white"/>
<path d="M200.664 119.079C196.963 120.52 194.251 124.631 193.377 130.316C192.502 136.001 191.789 150.51 191.175 154.801C190.562 159.092 187.82 166.569 187.82 166.569C187.82 166.569 183.277 164.699 182.018 161.135C184.109 158.409 186.05 154.62 186.411 151.044C186.772 147.467 186.439 136.068 186.977 131.705C187.516 127.342 187.977 121.319 193.148 119.305C195.377 118.438 200.622 118.093 200.622 118.093L200.664 119.079Z" fill="#C08B89"/>
<path opacity="0.35" d="M200.664 119.079C196.963 120.52 194.251 124.631 193.377 130.316C192.502 136.001 191.789 150.51 191.175 154.801C190.562 159.092 187.82 166.569 187.82 166.569C187.82 166.569 183.277 164.699 182.018 161.135C184.109 158.409 186.05 154.62 186.411 151.044C186.772 147.467 186.439 136.068 186.977 131.705C187.516 127.342 187.977 121.319 193.148 119.305C195.377 118.438 200.622 118.093 200.622 118.093L200.664 119.079Z" fill="white"/>
<path d="M192.979 133.597C193.485 129.413 195.863 121.929 200.395 120.404C200.663 119.838 200.663 119.079 200.663 119.079L200.622 116.907C200.622 116.907 198.713 117.527 196.76 118.791C194.806 120.055 191.429 124.093 190.558 127.351C192.519 125.685 193.298 128.393 192.979 133.597Z" fill="#C08B89"/>
<path opacity="0.55" d="M192.979 133.597C193.485 129.413 195.863 121.929 200.395 120.404C200.663 119.838 200.663 119.079 200.663 119.079L200.622 116.907C200.622 116.907 198.713 117.527 196.76 118.791C194.806 120.055 191.429 124.093 190.558 127.351C192.519 125.685 193.298 128.393 192.979 133.597Z" fill="white"/>
<path d="M212.378 113.654C212.889 110.73 215.816 107.69 217.14 105.144C218.417 102.69 219.18 100.785 219.048 98.4705C218.97 97.1 218.115 95.239 217.101 94.844C218.302 89.7575 214.492 87.3755 212.465 86.8825C211.687 86.6935 210.404 86.4005 209.661 86.0855C208.56 85.6185 208.315 84.73 207.429 83.9705C205.904 82.6625 203.325 82.6205 202.333 84.584C201.32 83.261 199.937 83.288 198.338 83.6865C196.813 84.066 196.084 85.354 196.232 86.7585C194.103 85.553 192.136 87.051 191.933 88.306C191.784 89.2315 191.977 90.014 191.367 90.841C190.68 91.7725 189.389 91.75 189.001 90.993C188.774 92.308 189.283 93.3135 190.71 93.2475C190.215 93.9575 190.083 94.8915 190.327 95.757C190.658 96.9305 191.833 97.625 192.783 97.6505C192.931 98.373 192.958 99.035 193.409 99.66C193.842 100.261 194.405 100.857 195.081 101.183C197.237 102.224 199.625 102.57 201.949 103.063C202.869 103.258 203.789 103.454 204.709 103.649C204.869 103.683 205.703 103.737 205.802 103.881C205.801 103.882 212.378 113.654 212.378 113.654Z" fill="black" fill-opacity="0.8"/>
<path d="M215.942 109.885C213.879 111.104 212.491 109.767 212.491 109.767L212.372 119.372C210.747 123.494 204.235 125.553 200.615 125.436C200.059 123.708 200.06 121.054 200.664 119.078L200.623 116.436C200.623 116.436 198.517 116.463 197.143 116.264C194.85 115.938 193.132 114.069 192.489 111.58C191.818 108.98 191.676 104.841 192.255 101.731C192.403 100.936 192.47 100.125 192.391 99.321C192.18 97.1855 192.57 95.945 193.13 94.155C195.666 92.133 201.509 91.469 206.939 94.806C206.294 98.0435 207.542 100.617 209.893 101.864C209.778 102.738 209.659 104.949 211.097 104.915C212.133 104.89 212.209 103.591 213.277 102.451C214.368 101.287 216.832 101.015 217.785 102.708C219.118 105.077 218.203 108.55 215.942 109.885Z" fill="#FFD3C1"/>
<path d="M200.622 116.436C204.264 116.024 207.032 115.641 208.941 113.013C210.138 111.364 211.156 108.709 211.156 108.709C211.156 108.709 210.767 111.931 209.568 114.109C208.644 115.788 206.35 117.181 200.641 117.645L200.622 116.436Z" fill="#C08B89"/>
<path d="M202.457 102.345C202.463 102.932 202.927 103.403 203.492 103.395C204.058 103.388 204.511 102.905 204.505 102.317C204.499 101.729 204.035 101.259 203.47 101.267C202.904 101.274 202.451 101.757 202.457 102.345Z" fill="black" fill-opacity="0.8"/>
<path d="M202.749 98.9845L205.063 99.9375C205.313 99.2755 204.997 98.525 204.358 98.262C203.719 97.999 202.998 98.3225 202.749 98.9845Z" fill="black" fill-opacity="0.8"/>
<path d="M193.92 99.627L196.287 98.7575C196.07 98.0895 195.364 97.7425 194.71 97.983C194.056 98.223 193.702 98.959 193.92 99.627Z" fill="black" fill-opacity="0.8"/>
<path d="M194.498 102.031C194.556 102.616 195.058 103.044 195.621 102.987C196.184 102.93 196.593 102.41 196.536 101.825C196.478 101.24 195.976 100.812 195.413 100.869C194.85 100.926 194.441 101.446 194.498 102.031Z" fill="black" fill-opacity="0.8"/>
<path d="M195.943 105.796L199.501 107.389L200.622 100.405C199.3 99.928 197.586 103.134 195.943 105.796Z" fill="#C08B89"/>
<path d="M202.838 108.853L198.551 109.756C198.775 110.979 199.916 111.769 201.1 111.52C202.284 111.27 203.062 110.077 202.838 108.853Z" fill="#C08B89"/>
<path d="M202.318 109.549C202.5 109.53 202.676 109.538 202.848 109.558C202.731 110.505 202.052 111.319 201.1 111.519C200.861 111.57 200.627 111.567 200.399 111.538C200.337 110.551 201.177 109.668 202.318 109.549Z" fill="#FFE3D6"/>
<path opacity="0.15" d="M158.441 179.956C158.734 179.51 159.079 179.107 159.484 178.732C163.484 175.029 170.999 170.135 177.384 166.068L206.432 182.841C206.61 182.944 206.61 183.2 206.432 183.303L185.336 195.485L158.441 179.956Z" fill="black" fill-opacity="0.8"/>
<path d="M149.633 171.427V171.897C149.633 172.585 150 173.222 150.598 173.569L184.372 193.068C184.668 193.241 185.005 193.323 185.333 193.323C185.668 193.323 186.002 193.24 186.305 193.066L204.714 182.472C205.306 182.131 205.677 181.488 205.677 180.799V180.15H205.673V180.156C205.673 180.24 205.634 180.317 205.551 180.368L185.334 192.043L149.633 171.427Z" fill="black" fill-opacity="0.8"/>
<path d="M185.335 192.04V193.324C185.004 193.324 184.669 193.24 184.372 193.067L150.598 173.569C150 173.224 149.632 172.585 149.632 171.896V171.426L185.335 192.04Z" fill="black" fill-opacity="0.8"/>
<path d="M149.631 171.426L169.656 159.865C170.012 159.66 170.451 159.66 170.807 159.865L205.549 179.926C205.719 180.024 205.719 180.27 205.549 180.369L185.335 192.041L149.631 171.426Z" fill="black" fill-opacity="0.8"/>
<path d="M185.52 190.34L196.321 184.111L164.738 165.877L153.881 172.074L185.52 190.34Z" fill="black" fill-opacity="0.8"/>
<path d="M153.882 172.073L154.294 172.311L164.74 166.351L195.907 184.349L196.319 184.112L164.74 165.876L153.882 172.073Z" fill="black" fill-opacity="0.8"/>
<path d="M190.829 173.011L190.63 173.126L185.335 176.182L175.921 170.746L175.725 170.635L181.218 167.464L190.829 173.011Z" fill="black" fill-opacity="0.8"/>
<path d="M190.63 173.126L185.335 176.182L175.921 170.746L181.218 167.69L190.63 173.126Z" fill="black" fill-opacity="0.8"/>
<path d="M180.191 175.311C181.885 173.632 184.342 171.302 186.407 170.618C186.673 170.533 187.075 170.346 187.859 170.167C187.147 170.026 186.431 169.977 185.736 169.743C185.047 169.511 184.389 169.129 183.944 168.555C183.764 168.324 183.638 167.954 183.865 167.769C183.946 167.702 184.053 167.664 184.158 167.661C185.706 167.614 186.925 167.373 188.331 167.272C188.944 167.228 189.634 167.146 190.225 167.307C190.802 167.463 191.376 167.631 191.942 167.827C194.508 168.715 196.94 168.477 200.482 166.854C204.024 165.23 216.799 157.368 216.799 157.368L214.093 172.346L203.988 176.254V176.253C203.952 176.267 203.92 176.28 203.882 176.294C203.074 176.597 202.347 177.228 200.417 177.82C198.128 178.523 195.2 177.692 193.212 177.586C191.223 177.48 187.852 178.399 186.008 179.148C184.163 179.896 181.949 177.056 181.024 177.397C180.098 177.738 178.496 176.991 180.191 175.311Z" fill="#FFC6A8"/>
<path d="M188.716 169.072C190.055 168.936 191.531 169.527 191.531 169.527C191.531 169.527 189.877 169.562 187.859 170.167C187.147 170.026 186.431 169.977 185.736 169.743C185.128 169.538 184.544 169.216 184.109 168.748C185.221 169.503 187.377 169.208 188.716 169.072Z" fill="#C08B89"/>
<path d="M184.792 192.325C184.153 192.572 183.426 192.525 182.82 192.173L149.195 172.759C148.603 172.417 148.197 171.832 148.083 171.16L144.402 149.207C144.381 149.082 144.371 148.956 144.371 148.831C144.371 148.219 144.614 147.635 145.047 147.205L179.991 167.383C180.427 167.637 180.728 168.069 180.812 168.566L184.792 192.325Z" fill="black" fill-opacity="0.8"/>
<path d="M185.335 192.041L185.105 192.172C185.004 192.23 184.9 192.28 184.792 192.325L180.812 168.567C180.728 168.07 180.427 167.637 179.991 167.384L145.047 147.206C145.182 147.071 145.341 146.952 145.514 146.851L180.528 167.066C180.964 167.319 181.265 167.752 181.35 168.249L185.335 192.041Z" fill="black" fill-opacity="0.8"/>
<path d="M180.488 167.832L181.029 167.519C181.189 167.732 181.304 167.979 181.35 168.249L185.335 192.041L185.105 192.172C185.004 192.23 184.9 192.28 184.791 192.324L180.812 168.566C180.766 168.295 180.651 168.046 180.488 167.832Z" fill="black" fill-opacity="0.8"/>
<path d="M165.853 172.059C165.606 170.589 164.089 168.637 162.463 167.699C160.838 166.761 159.72 167.191 159.967 168.661C160.213 170.131 161.731 172.083 163.357 173.022C164.982 173.96 166.099 173.529 165.853 172.059Z" fill="#C08B89"/>
<path d="M206.98 164.36C212.365 160.46 216.798 157.367 216.798 157.367L215.259 140.815C215.259 140.815 214.096 132.628 215.939 127.997C217.853 123.189 219.747 122.512 219.747 122.512C219.747 122.512 222.867 123.613 224.954 125.435C227.04 127.258 228.035 131.499 228.538 137.478C228.979 142.728 229.811 155.896 229.942 158.968C230.109 162.869 229.921 166.001 225.801 167.886C221.447 169.878 208.389 174.334 208.389 174.334L206.98 164.36Z" fill="#FFC6A8"/>
<path d="M219.257 122.137C223.49 123.492 225.651 124.274 227.439 129.234C229.226 134.194 229.165 143.303 229.712 150.603C230.26 157.903 230.663 162.671 229.492 164.974C228.85 166.238 227.68 167.402 223.485 168.983C219.291 170.565 215.259 171.999 215.259 171.999C215.259 171.999 214.858 165.55 210.258 161.208L216.578 157.367C216.578 157.367 215.128 142.46 214.775 138.382C214.422 134.305 213.99 125.668 219.257 122.137Z" fill="#C08B89"/>
<path opacity="0.55" d="M219.257 122.137C223.49 123.492 225.651 124.274 227.439 129.234C229.226 134.194 229.165 143.303 229.712 150.603C230.26 157.903 230.663 162.671 229.492 164.974C228.85 166.238 227.68 167.402 223.485 168.983C219.291 170.565 215.259 171.999 215.259 171.999C215.259 171.999 214.858 165.55 210.258 161.208L216.578 157.367C216.578 157.367 215.128 142.46 214.775 138.382C214.422 134.305 213.99 125.668 219.257 122.137Z" fill="white"/>
<path opacity="0.35" d="M216.577 157.367C219.052 156.2 223.961 157.252 225.008 158.137C223.76 155.976 220.42 155.198 216.416 155.699L216.577 157.367Z" fill="#C08B89"/>
<path opacity="0.35" d="M214.979 161.858C215.755 162.348 216.355 163.197 216.801 163.984C217.251 164.779 217.58 165.629 217.811 166.512C218.075 167.518 218.207 168.555 218.236 169.594C218.248 170.019 218.262 170.477 218.23 170.928C218.069 170.987 217.91 171.045 217.76 171.099C217.888 169.617 217.775 168.118 217.393 166.671C217.167 165.814 216.842 164.974 216.419 164.193C215.989 163.398 215.443 162.71 214.932 161.971C214.907 161.936 214.915 161.817 214.979 161.858Z" fill="#C08B89"/>
<path d="M207.816 69.7306L210.068 65.4966L208.256 60.2671V57.0656L213.801 60.2671V63.4681L211.417 67.5965C211.377 67.666 211.319 67.7121 211.255 67.7406L211.257 67.7426L207.816 69.7306Z" fill="#C08B89"/>
<path opacity="0.3" d="M207.816 69.7306L210.068 65.4966L208.256 60.2671V57.0656L213.801 60.2671V63.4681L211.417 67.5965C211.377 67.666 211.319 67.7121 211.255 67.7406L211.257 67.7426L207.816 69.7306Z" fill="black" fill-opacity="0.8"/>
<path d="M197.865 33.547C197.865 32.487 198.609 31.198 199.527 30.6675L200.88 29.886C201.798 29.356 203.287 29.356 204.205 29.886L221.069 39.6025C221.987 40.1325 222.732 41.4215 222.732 42.4815V65.32C222.732 66.3805 221.987 67.669 221.069 68.1995L219.715 68.981C218.798 69.511 217.309 69.511 216.391 68.981L210.318 65.4845L207.939 69.605C207.787 69.8685 207.396 69.831 207.296 69.544L204.783 62.2865L199.527 59.265C198.609 58.735 197.865 57.446 197.865 56.386L197.865 33.547Z" fill="#C08B89"/>
<path opacity="0.3" d="M222.732 65.321C222.732 66.381 221.987 67.67 221.07 68.2L219.716 68.9815C218.886 69.4605 217.595 69.5025 216.676 69.1155C217.458 69.411 218.053 68.97 218.053 68.0215L218.054 45.183C218.054 44.653 217.868 44.0655 217.567 43.5445L222.245 40.8435C222.546 41.3645 222.732 41.9515 222.732 42.482L222.732 65.321Z" fill="black" fill-opacity="0.8"/>
<path opacity="0.3" d="M197.919 33.0746C198.113 32.3691 198.757 32.1441 199.525 32.5861L216.392 42.3056C216.849 42.5691 217.268 43.0191 217.563 43.5466L222.24 40.8481C221.937 40.3206 221.526 39.8711 221.068 39.6071L204.209 29.8876C203.286 29.3601 201.798 29.3601 200.882 29.8876L199.525 30.6711C198.741 31.1206 198.082 32.1286 197.919 33.0746Z" fill="white"/>
<path d="M201.86 41.8805C202.004 46.1085 202.955 54.505 208.23 59.586C211.937 57.6065 213.73 51.762 213.607 48.161C213.607 47.9945 213.531 47.838 213.415 47.7125C213.326 47.616 213.214 47.5385 213.094 47.49C211.483 46.841 209.008 44.11 207.796 41.3735C207.71 41.18 207.587 41.1205 207.457 41.1875L207.437 41.1995C207.398 41.222 207.359 41.256 207.321 41.3015H207.32C207.313 41.309 207.306 41.3175 207.299 41.3265C206.161 42.7465 203.831 42.8245 202.235 41.687C202.114 41.6015 202.015 41.5765 201.949 41.6085L201.941 41.6145C201.941 41.6145 201.942 41.6145 201.942 41.616C201.881 41.652 201.849 41.74 201.86 41.8805Z" fill="white"/>
<path d="M46 118.86L52.3578 115.443V108.609L57.2132 106V112.834L63.5715 109.418V114.637L57.2132 118.053V124.888L52.3578 127.497V120.662L46 124.079V118.86Z" fill="white"/>
</g>
<defs>
<clipPath id="clip0_25_2355">
<rect width="250" height="250" fill="white"/>
</clipPath>
</defs>
</svg>
